<svg width="512" height="103" viewBox="0 0 512 103" fill="none" xmlns="http://www.w3.org/2000/svg">
<g clip-path="url(#clip0)">
<path d="M141.218 31.1331C142.043 31.1744 142.745 31.4843 143.323 32.0627C143.901 32.5999 144.19 33.2816 144.19 34.108V71.604C144.19 72.4304 143.901 73.1328 143.323 73.7112C142.786 74.2897 142.064 74.5789 141.156 74.5789C140.248 74.5789 139.505 74.3103 138.927 73.7732C138.349 73.1948 138.061 72.4717 138.061 71.604V42.9087L126.05 61.1299C125.761 61.5018 125.39 61.8117 124.936 62.0596C124.523 62.3075 124.089 62.4108 123.635 62.3695C123.223 62.4108 122.789 62.3075 122.335 62.0596C121.923 61.8117 121.572 61.5018 121.283 61.1299L109.21 42.3509V71.604C109.21 72.4717 108.942 73.1948 108.405 73.7732C107.91 74.3103 107.229 74.5789 106.362 74.5789C105.537 74.5789 104.856 74.3103 104.319 73.7732C103.824 73.1948 103.576 72.4717 103.576 71.604V34.108C103.576 33.3229 103.865 32.6412 104.443 32.0627C105.021 31.443 105.743 31.1331 106.61 31.1331C107.105 31.1331 107.58 31.257 108.034 31.5049C108.529 31.7528 108.921 32.0834 109.21 32.4966L123.883 54.7463L138.742 32.4966C139.402 31.5876 140.227 31.1331 141.218 31.1331Z" fill="black"/>
<path d="M182.219 57.1014C182.178 57.8451 181.868 58.4856 181.291 59.0227C180.713 59.5185 180.032 59.7664 179.248 59.7664H157.455C157.744 62.7826 158.879 65.1997 160.86 67.0177C162.883 68.8357 165.338 69.7447 168.227 69.7447C170.209 69.7447 171.818 69.4555 173.056 68.877C174.295 68.2986 175.388 67.5549 176.338 66.6459C176.957 66.274 177.555 66.0881 178.133 66.0881C178.835 66.0881 179.413 66.336 179.867 66.8318C180.362 67.3276 180.61 67.9061 180.61 68.5671C180.61 69.4348 180.197 70.2199 179.371 70.9223C178.174 72.1205 176.585 73.1328 174.604 73.9591C172.623 74.7855 170.601 75.1987 168.537 75.1987C165.194 75.1987 162.243 74.4963 159.684 73.0915C157.166 71.6867 155.206 69.724 153.802 67.2037C152.44 64.6833 151.759 61.8323 151.759 58.6508C151.759 55.1801 152.461 52.1433 153.864 49.5402C155.309 46.8959 157.187 44.8713 159.498 43.4665C161.851 42.0617 164.368 41.3593 167.051 41.3593C169.693 41.3593 172.169 42.041 174.48 43.4045C176.792 44.768 178.649 46.648 180.052 49.0444C181.456 51.4409 182.178 54.1265 182.219 57.1014ZM167.051 46.8132C164.74 46.8132 162.738 47.4743 161.046 48.7965C159.354 50.0774 158.239 52.0813 157.703 54.8083H175.966V54.3124C175.76 52.1226 174.769 50.3253 172.995 48.9205C171.261 47.5156 169.28 46.8132 167.051 46.8132Z" fill="black"/>
<path d="M226.257 41.5452C233.48 41.5452 237.091 46.0489 237.091 55.0562V71.604C237.091 72.4717 236.823 73.1948 236.286 73.7732C235.75 74.3103 235.048 74.5789 234.181 74.5789C233.315 74.5789 232.592 74.2897 232.015 73.7112C231.478 73.1328 231.21 72.4304 231.21 71.604V55.1182C231.21 49.7055 228.94 46.9992 224.4 46.9992C222.79 46.9992 221.325 47.371 220.004 48.1148C218.725 48.8172 217.713 49.7881 216.97 51.0277C216.269 52.2672 215.918 53.6307 215.918 55.1182V71.604C215.918 72.4304 215.629 73.1328 215.051 73.7112C214.515 74.2897 213.813 74.5789 212.946 74.5789C212.079 74.5789 211.378 74.3103 210.841 73.7732C210.305 73.1948 210.036 72.4717 210.036 71.604V55.0562C210.036 52.6184 209.52 50.6765 208.489 49.2303C207.457 47.7429 205.744 46.9992 203.35 46.9992C200.915 46.9992 198.892 47.7842 197.283 49.3543C195.714 50.8831 194.93 52.7837 194.93 55.0562V71.604C194.93 72.4304 194.641 73.1328 194.063 73.7112C193.527 74.2897 192.825 74.5789 191.959 74.5789C191.092 74.5789 190.39 74.3103 189.854 73.7732C189.317 73.1948 189.049 72.4717 189.049 71.604V45.0779C189.049 44.2515 189.317 43.5491 189.854 42.9707C190.431 42.3922 191.133 42.103 191.959 42.103C192.825 42.103 193.527 42.3922 194.063 42.9707C194.641 43.5491 194.93 44.2515 194.93 45.0779V47.2471C196.003 45.6357 197.427 44.2928 199.202 43.2186C201.018 42.103 202.979 41.5452 205.084 41.5452C210.201 41.5452 213.524 43.8177 215.051 48.3627C215.959 46.6273 217.466 45.0572 219.571 43.6524C221.676 42.2476 223.904 41.5452 226.257 41.5452Z" fill="black"/>
<path d="M276.588 58.3409C276.588 61.5638 275.866 64.456 274.421 67.0177C272.977 69.5794 270.996 71.5834 268.478 73.0295C266.002 74.4756 263.257 75.1987 260.244 75.1987C257.231 75.1987 254.466 74.4756 251.948 73.0295C249.471 71.5834 247.511 69.5794 246.066 67.0177C244.622 64.456 243.9 61.5638 243.9 58.3409C243.9 55.1181 244.622 52.2052 246.066 49.6022C247.511 46.9992 249.471 44.9746 251.948 43.5285C254.466 42.0823 257.231 41.3593 260.244 41.3593C263.257 41.3593 266.002 42.0823 268.478 43.5285C270.996 44.9746 272.977 46.9992 274.421 49.6022C275.866 52.2052 276.588 55.1181 276.588 58.3409ZM270.707 58.3409C270.707 56.1098 270.232 54.1265 269.283 52.3912C268.375 50.6145 267.116 49.251 265.506 48.3007C263.938 47.3091 262.184 46.8132 260.244 46.8132C258.304 46.8132 256.529 47.3091 254.92 48.3007C253.351 49.251 252.092 50.6145 251.143 52.3912C250.235 54.1265 249.781 56.1098 249.781 58.3409C249.781 60.5308 250.235 62.4934 251.143 64.2288C252.092 65.9641 253.351 67.3276 254.92 68.3192C256.529 69.2696 258.304 69.7447 260.244 69.7447C262.184 69.7447 263.938 69.2696 265.506 68.3192C267.116 67.3276 268.375 65.9641 269.283 64.2288C270.232 62.4934 270.707 60.5308 270.707 58.3409Z" fill="black"/>
<path d="M299.585 41.3593C300.658 41.3593 301.586 41.6485 302.371 42.2269C303.155 42.7641 303.547 43.4458 303.547 44.2722C303.547 45.2638 303.279 46.0282 302.742 46.5653C302.247 47.0611 301.628 47.3091 300.885 47.3091C300.513 47.3091 299.956 47.1851 299.213 46.9372C298.346 46.648 297.665 46.5034 297.17 46.5034C295.891 46.5034 294.632 46.9579 293.394 47.8668C292.197 48.7345 291.206 49.9534 290.422 51.5235C289.679 53.0523 289.307 54.7669 289.307 56.6676V71.604C289.307 72.4304 289.019 73.1328 288.441 73.7112C287.904 74.2897 287.203 74.5789 286.336 74.5789C285.469 74.5789 284.767 74.3103 284.231 73.7732C283.694 73.1948 283.426 72.4717 283.426 71.604V45.0779C283.426 44.2515 283.694 43.5491 284.231 42.9707C284.809 42.3922 285.51 42.103 286.336 42.103C287.203 42.103 287.904 42.3922 288.441 42.9707C289.019 43.5491 289.307 44.2515 289.307 45.0779V48.2387C290.216 46.2141 291.578 44.5821 293.394 43.3425C295.21 42.0617 297.273 41.4006 299.585 41.3593Z" fill="black"/>
<path d="M334.587 41.6692C335.454 41.6692 336.155 41.9584 336.692 42.5368C337.27 43.074 337.559 43.797 337.559 44.706V71.604C337.559 72.4304 337.27 73.1328 336.692 73.7112C336.155 74.2897 335.454 74.5789 334.587 74.5789C333.72 74.5789 333.018 74.3103 332.482 73.7732C331.945 73.1948 331.677 72.4717 331.677 71.604V69.9926C330.604 71.4387 329.139 72.6783 327.281 73.7112C325.424 74.7029 323.422 75.1987 321.276 75.1987C318.469 75.1987 315.91 74.4756 313.599 73.0295C311.329 71.5834 309.534 69.5794 308.213 67.0177C306.933 64.4147 306.294 61.5018 306.294 58.279C306.294 55.0562 306.933 52.1639 308.213 49.6022C309.534 46.9992 311.329 44.9746 313.599 43.5285C315.869 42.0823 318.366 41.3593 321.09 41.3593C323.278 41.3593 325.3 41.8138 327.158 42.7228C329.056 43.6318 330.563 44.7887 331.677 46.1935V44.706C331.677 43.8383 331.945 43.1153 332.482 42.5368C333.018 41.9584 333.72 41.6692 334.587 41.6692ZM321.957 69.7447C323.897 69.7447 325.61 69.2489 327.096 68.2573C328.623 67.2656 329.799 65.9021 330.625 64.1668C331.491 62.4314 331.925 60.4688 331.925 58.279C331.925 56.1304 331.491 54.1885 330.625 52.4531C329.799 50.7178 328.623 49.3543 327.096 48.3627C325.61 47.3297 323.897 46.8132 321.957 46.8132C320.017 46.8132 318.284 47.3091 316.757 48.3007C315.271 49.2923 314.094 50.6558 313.228 52.3912C312.402 54.1265 311.989 56.0891 311.989 58.279C311.989 60.4688 312.402 62.4314 313.228 64.1668C314.094 65.9021 315.271 67.2656 316.757 68.2573C318.284 69.2489 320.017 69.7447 321.957 69.7447Z" fill="black"/>
<path d="M362.834 41.3593C370.263 41.3593 373.978 45.8216 373.978 54.7463V71.604C373.978 72.4304 373.689 73.1328 373.111 73.7112C372.575 74.2897 371.873 74.5789 371.006 74.5789C370.181 74.5789 369.479 74.2897 368.901 73.7112C368.365 73.1328 368.096 72.4304 368.096 71.604V54.8083C368.096 52.3705 367.539 50.4286 366.425 48.9824C365.31 47.5363 363.494 46.8132 360.977 46.8132C359.326 46.8132 357.819 47.1851 356.457 47.9288C355.136 48.6312 354.084 49.6022 353.3 50.8417C352.557 52.04 352.185 53.3621 352.185 54.8083V71.604C352.185 72.4304 351.896 73.1328 351.319 73.7112C350.782 74.2897 350.08 74.5789 349.214 74.5789C348.347 74.5789 347.645 74.3103 347.109 73.7732C346.572 73.1948 346.304 72.4717 346.304 71.604V45.0779C346.304 44.2515 346.572 43.5491 347.109 42.9707C347.687 42.3922 348.388 42.103 349.214 42.103C350.08 42.103 350.782 42.3922 351.319 42.9707C351.896 43.5491 352.185 44.2515 352.185 45.0779V47.2471C353.258 45.5944 354.744 44.2102 356.643 43.0946C358.583 41.9377 360.646 41.3593 362.834 41.3593Z" fill="black"/>
<path d="M409.073 28.716C409.94 28.716 410.641 29.0052 411.178 29.5837C411.756 30.1208 412.045 30.8232 412.045 31.6909V71.604C412.045 72.4304 411.756 73.1328 411.178 73.7112C410.641 74.2897 409.94 74.5789 409.073 74.5789C408.206 74.5789 407.505 74.3103 406.968 73.7732C406.431 73.1948 406.163 72.4717 406.163 71.604V69.8687C405.131 71.3561 403.666 72.6163 401.767 73.6493C399.91 74.6822 397.908 75.1987 395.762 75.1987C392.956 75.1987 390.417 74.4756 388.147 73.0295C385.877 71.5834 384.082 69.5794 382.761 67.0177C381.44 64.4147 380.78 61.5018 380.78 58.279C380.78 55.0562 381.42 52.1639 382.699 49.6022C384.02 46.9992 385.815 44.9746 388.085 43.5285C390.355 42.0823 392.852 41.3593 395.576 41.3593C397.764 41.3593 399.786 41.8138 401.644 42.7228C403.501 43.6318 405.007 44.8093 406.163 46.2554V31.6909C406.163 30.8232 406.431 30.1208 406.968 29.5837C407.505 29.0052 408.206 28.716 409.073 28.716ZM396.443 69.7447C398.383 69.7447 400.096 69.2489 401.582 68.2573C403.109 67.2656 404.285 65.9021 405.111 64.1668C405.977 62.4314 406.411 60.4688 406.411 58.279C406.411 56.1304 405.977 54.1885 405.111 52.4531C404.285 50.6765 403.109 49.2923 401.582 48.3007C400.096 47.3091 398.383 46.8132 396.443 46.8132C394.503 46.8132 392.77 47.3091 391.243 48.3007C389.757 49.2923 388.581 50.6765 387.714 52.4531C386.888 54.1885 386.476 56.1304 386.476 58.279C386.476 60.4688 386.888 62.4314 387.714 64.1668C388.581 65.9021 389.757 67.2656 391.243 68.2573C392.77 69.2489 394.503 69.7447 396.443 69.7447Z" fill="black"/>
<path d="M445.902 42.103C446.769 42.103 447.471 42.3922 448.007 42.9707C448.585 43.5491 448.874 44.2515 448.874 45.0779V61.5638C448.874 65.8608 447.677 69.2076 445.283 71.604C442.931 73.9591 439.588 75.1367 435.254 75.1367C430.961 75.1367 427.639 73.9591 425.286 71.604C422.934 69.2076 421.757 65.8608 421.757 61.5638V45.0779C421.757 44.2515 422.026 43.5491 422.562 42.9707C423.14 42.3922 423.842 42.103 424.667 42.103C425.534 42.103 426.235 42.3922 426.772 42.9707C427.35 43.5491 427.639 44.2515 427.639 45.0779V61.5638C427.639 66.9764 430.177 69.6827 435.254 69.6827C437.772 69.6827 439.691 69.001 441.011 67.6375C442.332 66.274 442.993 64.2494 442.993 61.5638V45.0779C442.993 44.2515 443.261 43.5491 443.797 42.9707C444.375 42.3922 445.077 42.103 445.902 42.103Z" fill="black"/>
<path d="M494.878 41.5452C502.101 41.5452 505.713 46.0489 505.713 55.0562V71.604C505.713 72.4717 505.445 73.1948 504.908 73.7732C504.371 74.3103 503.67 74.5789 502.803 74.5789C501.936 74.5789 501.214 74.2897 500.636 73.7112C500.1 73.1328 499.831 72.4304 499.831 71.604V55.1182C499.831 49.7055 497.561 46.9992 493.021 46.9992C491.411 46.9992 489.946 47.371 488.626 48.1148C487.346 48.8172 486.335 49.7881 485.592 51.0277C484.89 52.2672 484.539 53.6307 484.539 55.1182V71.604C484.539 72.4304 484.251 73.1328 483.673 73.7112C483.136 74.2897 482.434 74.5789 481.568 74.5789C480.701 74.5789 479.999 74.3103 479.463 73.7732C478.926 73.1948 478.658 72.4717 478.658 71.604V55.0562C478.658 52.6184 478.142 50.6765 477.11 49.2303C476.078 47.7429 474.365 46.9992 471.972 46.9992C469.536 46.9992 467.514 47.7842 465.904 49.3543C464.336 50.8831 463.552 52.7837 463.552 55.0562V71.604C463.552 72.4304 463.263 73.1328 462.685 73.7112C462.148 74.2897 461.447 74.5789 460.58 74.5789C459.713 74.5789 459.012 74.3103 458.475 73.7732C457.939 73.1948 457.67 72.4717 457.67 71.604V45.0779C457.67 44.2515 457.939 43.5491 458.475 42.9707C459.053 42.3922 459.755 42.103 460.58 42.103C461.447 42.103 462.148 42.3922 462.685 42.9707C463.263 43.5491 463.552 44.2515 463.552 45.0779V47.2471C464.625 45.6357 466.049 44.2928 467.824 43.2186C469.64 42.103 471.6 41.5452 473.705 41.5452C478.823 41.5452 482.146 43.8177 483.673 48.3627C484.581 46.6273 486.087 45.0572 488.192 43.6524C490.297 42.2476 492.526 41.5452 494.878 41.5452Z" fill="black"/>
<path d="M47.7668 0.0794885C47.0933 0.161207 46.2974 0.324645 45.9913 0.447223C45.0526 0.835387 39.7261 1.14183 35.5221 1.06011C31.9099 0.978395 31.3181 0.937536 30.3181 0.528942C28.8284 -0.0635194 28.2569 -0.0430897 25.8896 0.712809C21.1346 2.22461 18.0326 4.67617 14.8898 9.43629C12.4409 13.1136 9.25728 19.5286 8.60423 22.1027C8.05322 24.1661 7.88995 26.9854 7.86955 33.339V39.3454L6.68589 41.0002C2.86964 46.3119 0.706409 52.2161 0.0941747 58.8762C-0.395612 64.4126 1.03293 70.9501 4.19614 77.4263C5.05327 79.2037 5.35939 79.6327 6.35937 80.4295C9.09401 82.595 12.4817 84.1477 16.8898 85.2509C20.6448 86.1907 22.8693 87.0283 24.4815 88.111C25.155 88.5605 27.359 90.6239 29.3794 92.6873C32.1752 95.5475 33.2568 96.5281 33.8487 96.7119C34.4813 96.9162 34.6038 97.0388 34.6038 97.5087C34.6038 98.1216 35.1548 98.7549 35.6854 98.7549C36.1343 98.7549 36.2976 97.2023 36.318 92.912L36.3384 89.3981L35.6854 88.6218C33.8691 86.4562 33.4813 84.9444 34.3385 83.3101C34.5629 82.881 35.0527 81.9617 35.3997 81.308C36.0527 80.0822 36.216 79.0811 35.8078 78.8155C35.4813 78.6112 34.9303 79.4284 34.5221 80.6951C34.3385 81.2875 34.0936 81.8391 33.9915 81.9004C33.7058 82.0843 33.1752 80.8789 32.9711 79.6123C32.8487 78.8768 32.4814 77.9779 31.9507 77.0994C30.9304 75.4038 30.4406 73.3199 30.6242 71.3791C30.7671 69.949 30.7467 69.949 29.8079 71.277C29.5426 71.6651 29.5222 71.6651 29.5222 71.134C29.5018 70.4189 30.2161 68.805 31.3997 66.8846C32.3385 65.3932 32.5426 64.8416 32.1548 64.8416C31.8283 64.8416 29.9916 66.8029 29.7263 67.4771C29.2365 68.6415 28.6243 68.1308 27.6039 65.7201C27.0325 64.3309 26.6855 62.6352 26.0529 57.6912C25.5835 54.2182 25.1754 52.6655 23.604 48.4366C23.0325 46.8635 22.5632 45.4743 22.5632 45.3108C22.5632 45.0861 22.706 45.0452 23.1142 45.1474C23.6448 45.2904 23.6448 45.2904 23.5223 44.3302C23.1754 41.8174 25.2774 44.5549 26.3998 48.0893C27.0529 50.1731 27.1141 50.643 26.7672 51.3376C26.5835 51.6645 26.4406 52.3386 26.4406 52.829C26.4611 53.687 26.4611 53.7074 26.808 53.2784C26.9917 53.0537 27.2978 52.6451 27.4814 52.3795C27.808 51.8688 27.808 51.8688 28.9712 54.1978C30.1957 56.6085 31.5426 60.3267 31.5426 61.2256C31.5426 61.5116 31.6242 61.9815 31.7263 62.2471C31.8895 62.6556 32.012 62.7169 32.5834 62.6352C33.2977 62.5331 33.2773 62.4513 32.8487 63.8201C32.7058 64.3104 33.114 64.3717 33.665 63.9631C33.9711 63.7384 34.0528 63.3094 34.1344 61.8385C34.2568 59.8363 34.4609 59.203 34.8078 59.7342C35.216 60.3675 34.8487 63.6567 34.2568 64.6578C33.9507 65.1685 33.9507 65.2706 34.2772 66.047C34.5629 66.8029 34.5629 66.9663 34.3181 67.4771C34.0323 68.0082 34.0528 68.0899 34.5221 68.7437C34.9303 69.3157 35.0527 69.8469 35.216 71.6856C35.4201 73.8103 35.5017 74.2189 35.7058 74.0146C35.767 73.9533 35.8895 68.7641 35.9711 62.4513C36.0527 56.1386 36.216 50.9086 36.2976 50.8269C36.3792 50.7247 37.5629 51.8075 38.8894 53.1967L41.3179 55.7504V74.4436L41.3383 93.1367L39.7873 95.384C38.9302 96.6098 37.9098 97.9582 37.5221 98.3872L36.8078 99.1226L37.2772 99.4291C37.5425 99.613 38.1343 99.8173 38.5833 99.8785C39.0323 99.9603 40.7873 100.471 42.4812 101.023C45.7872 102.085 48.6647 102.575 50.1953 102.351C50.9504 102.228 51.1953 102.085 51.4402 101.636C51.6035 101.309 51.9504 101.002 52.1953 100.92C53.3789 100.614 59.0931 100.941 59.0931 101.309C59.0931 101.656 58.2156 101.799 55.3789 101.962C54.0524 102.024 52.9708 102.146 52.9708 102.228C52.9708 102.453 55.0728 102.616 59.9094 102.739L64.2971 102.882L65.5624 101.472C66.2359 100.696 67.195 99.47 67.6644 98.7345C68.5419 97.4066 73.8071 86.8648 74.3378 85.3735C74.501 84.924 74.7051 83.6165 74.7867 82.452C74.9296 80.5316 74.9908 80.3069 75.5418 79.7349C75.8683 79.3876 76.7459 78.7134 77.4806 78.2231C79.2968 77.0381 81.256 75.0973 81.7458 73.9533C82.3376 72.6458 82.5417 70.6028 82.5621 66.2308C82.5621 59.489 82.0519 55.1171 80.807 51.5419C79.8887 48.8656 77.9703 44.8205 76.6438 42.7776C75.4194 40.8572 75.2765 40.2238 75.1337 36.4035C74.9908 33.0939 74.399 28.0477 73.7867 25.0037C73.1337 21.8371 70.9501 15.1566 69.644 12.3373C68.8889 10.7234 65.8073 7.45461 63.2359 5.51379C60.0319 3.10308 56.1544 1.10097 53.4606 0.426793C51.93 0.0386291 49.3382 -0.104379 47.7668 0.0794885ZM34.9099 18.3436C35.2976 18.6297 35.2772 18.6501 34.6446 19.0178C34.2976 19.2221 33.9915 19.4468 33.9915 19.5286C33.9915 19.7124 35.4405 20.7135 35.7058 20.7135C35.8078 20.7135 36.1956 20.4888 36.5833 20.1823L37.2568 19.6716V20.7135C37.2568 21.3468 37.42 22.0618 37.6649 22.5522C38.4812 24.1457 37.9915 24.207 36.2568 22.736C35.5629 22.164 34.1956 21.2038 33.216 20.6113C31.1753 19.3856 30.9304 18.9157 31.9916 18.4049C32.8283 17.9963 34.3997 17.9555 34.9099 18.3436ZM32.4405 20.9995C34.0732 22.0823 35.9915 23.7166 36.2568 24.2478C36.5425 24.779 36.318 24.9424 35.869 24.5338C35.3589 24.064 35.0731 24.1048 34.3589 24.6973C33.8283 25.1467 32.9711 25.3919 32.9711 25.1059C32.9711 25.065 33.1752 24.5951 33.4201 24.1048C34.0323 22.8382 33.7875 22.593 31.8895 22.5113L30.4406 22.45L30.2773 21.735C30.0528 20.7543 30.2365 20.1006 30.7059 20.1006C30.9304 20.1006 31.7059 20.5092 32.4405 20.9995ZM50.481 23.3489C50.3994 24.4317 49.9096 24.779 49.9096 23.7371C49.9096 23.3693 49.9708 22.6952 50.0525 22.2661C50.1749 21.5102 50.1953 21.4898 50.3586 21.9393C50.4606 22.2048 50.5218 22.8382 50.481 23.3489ZM40.7873 26.3316C41.3587 26.822 42.1138 27.2918 42.4404 27.3531C43.7056 27.6187 43.8077 27.68 43.6852 28.0886C43.6036 28.2929 43.624 28.5789 43.6852 28.6811C43.8689 28.9875 44.3995 28.5381 44.3995 28.0682C44.3995 27.1693 45.6648 27.5983 45.9097 28.5789C45.9913 28.8649 46.1342 29.0897 46.2566 29.0897C46.5219 29.0897 46.3995 28.2725 46.0117 27.2918C45.7464 26.679 45.7668 26.5768 46.0934 26.3316C46.6036 25.9639 49.5219 25.7392 52.2361 25.8822C54.7054 26.0048 55.7462 26.2295 56.4605 26.822C56.9095 27.1693 56.9095 27.251 56.6646 28.0273C56.3177 29.0692 56.4605 29.2735 57.8278 29.7638C58.3789 29.9681 59.1339 30.3972 59.5217 30.7036L60.2156 31.2961L59.6645 31.4391C59.236 31.5412 59.0931 31.7047 59.0931 32.0928C59.0931 32.5831 59.0523 32.6036 58.338 32.481C57.9095 32.3993 56.3177 32.2971 54.8075 32.2358C50.0525 32.0315 48.379 32.624 45.5015 35.525C43.3995 37.6497 42.6853 39.0389 42.2771 41.8582C41.8077 45.1065 41.5016 48.3957 41.4404 51.2559C41.3996 52.7064 41.3587 53.9322 41.3587 53.973C41.2975 54.1773 40.3179 53.3193 37.4404 50.5408C33.8895 47.1291 33.6038 46.7001 33.8691 44.9431C33.9915 44.1463 34.216 43.8195 35.3793 42.6345C36.6445 41.3679 36.8078 41.1023 37.2364 39.6314C37.4813 38.7325 38.0527 37.282 38.5017 36.4239C38.9302 35.5454 39.2976 34.7691 39.2976 34.6874C39.2976 34.6261 38.869 35.0347 38.3588 35.6067C37.8486 36.1788 37.3588 36.6486 37.2568 36.6486C37.1751 36.6486 37.216 36.2196 37.3792 35.6884C37.7466 34.4831 37.7466 34.2992 37.3588 34.6057C36.5221 35.3003 36.8078 33.7885 37.767 32.3788C38.1547 31.8272 38.5833 31.0713 38.7465 30.6832C39.0323 29.9886 40.1547 28.8854 40.5628 28.8854C40.6853 28.8854 40.7057 29.3348 40.6241 30.152L40.4812 31.4391L41.1343 30.7649C41.5016 30.3972 41.8485 30.152 41.8894 30.1929C41.9506 30.2541 41.8893 30.6219 41.7465 31.0305C41.6036 31.4391 41.5424 31.8068 41.5832 31.8681C41.7057 31.9702 44.3995 30.0907 44.7873 29.6208C45.175 29.1509 44.7669 29.2122 44.0934 29.7434L43.522 30.1929L41.8077 28.3746C39.8078 26.2295 39.1751 25.4123 39.5016 25.4123C39.6445 25.4123 40.2159 25.8209 40.7873 26.3316ZM59.1543 34.524C60.6441 35.1368 62.0727 35.8519 62.338 36.097C63.2155 36.9142 64.8073 39.3658 65.093 40.3464C65.2563 40.898 65.44 42.8388 65.5216 44.9431C65.6848 49.172 65.2971 92.626 65.0726 93.6679L64.9298 94.3625L64.7665 93.7496C64.6645 93.4023 64.5012 83.4326 64.3787 71.5834C64.1543 46.3119 64.0318 42.8593 63.3175 40.755C62.6849 38.9572 61.7665 37.4863 60.6441 36.5261C59.8482 35.8315 55.6034 33.5842 55.0728 33.5842C54.9503 33.5842 54.7667 33.482 54.685 33.339C54.3789 32.8487 56.5422 33.4003 59.1543 34.524ZM52.5626 33.5229C51.2769 33.7476 48.93 34.4627 48.3382 34.8304C47.9709 35.0551 47.5015 35.2186 47.3178 35.1777C47.0117 35.1164 47.0525 35.0347 47.5423 34.7078C48.5627 34.0336 50.7463 33.3799 51.9504 33.4208C52.5626 33.4208 52.8483 33.482 52.5626 33.5229ZM22.2366 34.2584C22.3591 34.4422 22.3795 34.6465 22.2979 34.7283C22.1142 34.9121 21.5428 34.4218 21.5428 34.0541C21.5428 33.6863 21.9509 33.8089 22.2366 34.2584ZM36.8078 38.0174C36.767 38.2217 36.6037 38.3852 36.4405 38.3852C36.2772 38.3852 36.1139 38.2217 36.0731 38.0174C36.0323 37.7723 36.1343 37.6701 36.4405 37.6701C36.7466 37.6701 36.8486 37.7723 36.8078 38.0174ZM50.9708 38.4056C51.6035 38.7325 52.032 38.7325 54.1953 38.3647C54.8687 38.2626 54.9912 38.3239 55.9707 39.3658C56.5626 39.9787 57.2972 41.0002 57.6034 41.6335C58.134 42.7163 58.134 42.8184 57.8891 43.6356C57.5625 44.6162 57.5217 45.9237 57.7666 47.2108C57.8891 47.9463 57.8482 48.2118 57.3789 48.9882C56.7258 50.0914 55.2973 51.358 54.685 51.358C54.4401 51.358 53.9708 51.215 53.6647 51.0516C52.8892 50.643 51.7259 50.6634 50.8484 51.072C50.4402 51.2763 49.9504 51.358 49.6443 51.2763C48.9913 51.1129 47.4199 49.5398 46.726 48.3753L46.175 47.456L46.5627 46.5979C47.0321 45.556 47.0321 44.0851 46.5627 43.3496C45.8893 42.3077 46.8076 40.4894 48.8484 38.855C49.93 37.9766 50.0933 37.9561 50.9708 38.4056ZM20.0122 41.3679C20.9101 41.6131 21.1346 41.8378 21.1346 42.4915C21.1346 42.7367 21.3387 43.1657 21.5632 43.4722C22.3387 44.4528 21.7673 44.3098 20.7061 43.2679C19.5836 42.1647 18.7673 41.1432 19.0326 41.1432C19.1142 41.1432 19.5632 41.2453 20.0122 41.3679ZM21.2979 46.2506C22.0326 46.7001 22.3591 47.3538 22.3591 48.4161C22.3591 48.8247 22.5632 49.6011 22.8081 50.1527C23.2366 51.1742 23.2366 51.1946 22.8489 51.5623C22.6448 51.7666 21.2162 52.6451 19.7061 53.5236C15.9714 55.6483 14.747 56.5063 13.1348 58.0385C11.9919 59.1417 11.6858 59.3256 11.0532 59.3256C10.4001 59.3256 9.40013 58.9374 8.5226 58.345C8.35933 58.2224 8.84912 58.202 9.78788 58.2633C11.2981 58.345 11.3389 58.345 11.9715 57.7117C12.5021 57.1805 12.5837 56.9558 12.4817 56.4654C12.3184 55.6278 12.6042 55.0149 13.8898 53.3397C14.5021 52.5429 15.0123 51.8279 15.0123 51.7258C15.0123 51.0924 11.7266 54.5451 11.3185 55.587C11.2164 55.873 11.196 56.4654 11.2776 56.9353C11.4001 57.7525 11.3797 57.7729 11.0328 57.4869C10.094 56.7106 9.82869 54.8106 10.5838 54.0956C10.8287 53.8504 11.2572 53.0741 11.5225 52.3795C11.7878 51.6849 12.1144 51.072 12.2368 51.0311C12.4205 50.9699 12.4613 50.5613 12.4001 49.7645C12.298 48.6204 12.3184 48.6 12.7062 48.9473C13.196 49.3968 13.4613 49.3968 14.196 48.9882C14.9102 48.5592 15.3184 48.7022 15.5021 49.4581C15.8286 50.7247 17.0122 52.9515 17.4408 53.0945C17.9306 53.2376 19.4816 52.7881 20.4816 52.1752C21.053 51.8279 21.1346 51.6645 21.1346 50.8881C21.1346 50.3978 20.9509 49.3151 20.7265 48.4774C20.3183 46.9043 20.2163 45.842 20.4816 45.842C20.5632 45.842 20.9305 46.0259 21.2979 46.2506ZM31.0528 48.5796C31.6854 49.7441 31.7467 49.9484 31.4406 49.9075C31.0528 49.8258 30.2569 48.4161 30.012 47.3742C29.7875 46.5162 30.114 46.8839 31.0528 48.5796ZM35.0731 49.9484C35.2772 50.8269 34.9507 51.7666 34.4609 51.7666C34.2568 51.7666 33.8283 51.5419 33.4813 51.2559C32.9303 50.8064 32.9099 50.7656 33.2977 50.7451C33.8283 50.7451 34.0936 50.4387 34.2772 49.6624C34.4609 48.9065 34.8487 49.0495 35.0731 49.9484ZM34.6038 53.7483C34.6038 54.1978 34.2976 54.0547 33.9303 53.4214C33.4405 52.5838 33.5017 52.4408 34.0936 52.9924C34.3793 53.258 34.6038 53.5849 34.6038 53.7483ZM35.0936 54.9332C35.2364 55.3418 35.0323 55.8526 34.7058 55.8526C34.3385 55.8526 34.216 55.4235 34.4405 54.9741C34.665 54.5451 34.9303 54.5246 35.0936 54.9332ZM49.7055 56.4654C50.3178 56.9149 50.93 58.202 50.93 59.0804C50.93 59.8159 50.1341 61.0826 49.379 61.5729C48.175 62.3901 46.4199 61.8589 45.7056 60.5105C44.9097 58.9987 45.5423 56.7719 46.9301 56.1386C47.7056 55.7708 48.9504 55.9343 49.7055 56.4654ZM18.2775 58.5084C17.8898 58.8353 17.0122 59.4278 16.3388 59.8363C15.2368 60.4901 15.0123 60.5514 14.0939 60.4288C13.5429 60.3675 12.9919 60.2245 12.8899 60.1428C12.7062 59.9589 13.7062 59.632 15.0735 59.4278C15.4817 59.3665 16.502 58.9579 17.3184 58.5288C18.1143 58.0794 18.8285 57.7729 18.8898 57.8342C18.951 57.8751 18.6653 58.1815 18.2775 58.5084ZM10.8899 60.8374C10.9307 61.0417 10.8899 61.2869 10.7879 61.389C10.3797 61.7976 9.52258 61.0213 9.8287 60.531C10.0328 60.2041 10.8287 60.4288 10.8899 60.8374ZM23.9917 61.0417C23.9917 61.103 23.5427 61.675 22.9713 62.3083C22.4203 62.9417 21.8693 63.7997 21.7468 64.2083C21.5224 65.0255 21.4611 69.1319 21.6652 70.1329C21.7468 70.5006 22.2775 71.3178 22.8897 72.0124C23.5019 72.6866 23.9917 73.2791 23.9917 73.3199C23.9917 73.8307 21.502 71.6651 21.0326 70.7458C20.7877 70.3168 20.7265 69.3566 20.7265 66.7416L20.7469 63.3094L22.2162 62.1449C23.5631 61.0621 23.9917 60.817 23.9917 61.0417ZM16.9102 62.0632C16.9714 62.2266 16.9714 62.3901 16.9102 62.4513C16.7265 62.6556 16.2367 62.3492 16.2367 62.0632C16.2367 61.6954 16.7673 61.6954 16.9102 62.0632ZM76.3989 66.6803C76.3989 70.2964 76.2153 71.7469 75.9704 70.2555C75.7867 69.1931 75.7867 64.7803 75.9704 63.4933C76.2153 61.6954 76.4193 63.146 76.3989 66.6803ZM80.3785 62.7169C80.5621 62.9008 80.2968 63.4115 80.0111 63.4115C79.7254 63.4115 79.4601 62.9008 79.6438 62.7169C79.7254 62.6556 79.8887 62.5944 80.0111 62.5944C80.1336 62.5944 80.2968 62.6556 80.3785 62.7169ZM10.5226 63.7997C10.5226 64.0244 10.4409 64.2696 10.3185 64.3309C10.196 64.4126 10.1144 64.2287 10.1144 63.9427C10.1144 63.6567 10.2164 63.4115 10.3185 63.4115C10.4409 63.4115 10.5226 63.5954 10.5226 63.7997ZM15.747 66.5781C15.9102 67.2523 15.6857 68.1512 15.3592 68.0491C15.0939 67.9674 14.9102 66.8233 15.0939 66.3534C15.2572 65.904 15.6041 66.0265 15.747 66.5781ZM81.2764 66.8029C81.3376 66.9867 81.2356 67.4566 81.0519 67.8448C80.7662 68.4372 80.6642 68.519 80.4193 68.3147C80.0315 67.9878 80.0315 67.4975 80.4397 66.9255C80.807 66.3943 81.0927 66.3534 81.2764 66.8029ZM58.9095 67.8856C59.3584 68.3351 59.5013 68.6824 59.5013 69.2749C59.5013 70.2351 58.6646 71.5834 58.0523 71.5834C56.1748 71.5834 55.5422 68.4168 57.2564 67.5588C58.0115 67.1706 58.236 67.2319 58.9095 67.8856ZM10.9307 72.7071C10.9307 73.0339 10.8083 73.2178 10.6246 73.2178C10.3185 73.2178 10.196 72.5845 10.4613 72.3393C10.7266 72.0533 10.9307 72.2167 10.9307 72.7071ZM58.8278 73.3199C59.5217 73.8103 59.787 74.8726 59.4197 75.7306C58.9095 76.9564 57.7666 77.2016 56.8483 76.2823C56.2564 75.6898 56.2768 74.1167 56.8891 73.4834C57.3993 72.9522 58.1952 72.8705 58.8278 73.3199ZM62.6645 78.4274C62.1543 79.3263 61.7461 79.6123 61.7461 79.0811C61.7461 78.6521 63.0318 76.9769 63.1339 77.2629C63.1747 77.4059 62.9706 77.9166 62.6645 78.4274ZM25.8284 78.9381C25.8284 79.1833 25.257 79.4489 25.0937 79.2854C24.9101 79.1015 25.2162 78.7338 25.5427 78.7338C25.706 78.7338 25.8284 78.836 25.8284 78.9381ZM24.8897 80.6133C24.7468 81.1241 24.3795 81.6553 24.2774 81.5327C24.2366 81.4918 24.2978 81.1649 24.4203 80.8176C24.6652 80.0822 25.1141 79.8983 24.8897 80.6133ZM28.6651 81.6757C28.8284 81.88 28.8488 82.0026 28.6855 82.1047C28.4202 82.2682 28.0733 82.0434 28.0733 81.6757C28.0733 81.308 28.359 81.308 28.6651 81.6757ZM32.3385 86.9466C33.6446 88.7035 35.0119 91.768 35.0119 92.9733C35.0119 93.8109 34.5221 93.3819 34.2568 92.3196C34.114 91.7884 33.6242 90.6852 33.1548 89.8884C31.7671 87.5186 31.3793 86.824 31.2365 86.3337C31.012 85.5573 31.4814 85.8229 32.3385 86.9466ZM55.7871 87.7637C55.6442 88.1519 55.0116 88.2132 55.0116 87.8455C55.0116 87.6412 55.1952 87.5186 55.4401 87.5186C55.685 87.5186 55.8279 87.6207 55.7871 87.7637ZM58.3584 91.1959C58.685 91.3185 58.889 91.5432 58.889 91.8088C58.889 92.2174 58.8686 92.2174 58.236 91.8701C57.236 91.3389 51.3586 91.3389 50.7872 91.8497C50.3586 92.2378 49.9096 92.34 49.9096 92.054C49.9096 91.7475 50.6035 91.2368 51.1341 91.1346C52.1545 90.9508 57.8482 90.9916 58.3584 91.1959ZM45.8281 94.4647C45.9913 94.7711 45.9709 95.0367 45.726 95.5679C45.3179 96.4259 43.6444 98.4893 42.9301 99.0205C42.2363 99.5312 41.3383 99.3678 41.3383 98.7141C41.3383 98.2237 43.2975 95.5679 44.3383 94.6485C45.1546 93.9539 45.5219 93.8926 45.8281 94.4647ZM60.3788 94.6485C60.5829 94.7916 60.7257 95.1593 60.7257 95.4657C60.7257 96.2829 59.889 97.7947 59.2768 98.0807C58.9911 98.2237 57.236 98.4689 55.3789 98.6528C53.5014 98.8162 51.7259 99.0614 51.4198 99.1635C51.0933 99.2861 50.3586 99.7968 49.7872 100.308C48.6443 101.268 48.2158 101.39 47.5015 100.88C46.2566 100.022 46.175 98.571 47.2566 96.3646C48.277 94.2808 48.4198 94.24 54.8279 94.3012C58.889 94.3421 60.1339 94.4238 60.3788 94.6485Z" fill="black"/>
<path d="M35.2773 44.1463C34.8283 45.3108 35.3385 48.028 35.8487 47.2312C36.0528 46.9248 36.0936 44.9227 35.9099 44.2485C35.7466 43.7173 35.4609 43.656 35.2773 44.1463Z" fill="black"/>
<path d="M50.8077 41.041C50.0731 41.3679 48.8894 42.4303 48.8894 42.7776C48.8894 42.9001 49.1751 42.798 49.5016 42.5324C51.0526 41.3679 51.4404 41.1432 51.9914 41.1432C54.1138 41.1432 55.8076 43.4109 55.5628 45.9237C55.4811 46.9248 55.4811 46.9248 55.7668 46.3528C56.175 45.5969 56.1342 43.7786 55.7056 42.941C55.277 42.0625 54.6444 41.3883 53.9505 41.0206C53.2567 40.6733 51.6445 40.6733 50.8077 41.041Z" fill="black"/>
<path d="M30.4406 63.9427C30.257 64.433 30.2978 65.0459 30.5223 65.0459C30.7671 65.0459 31.1345 64.3717 31.1345 63.9427C31.1345 63.5137 30.6039 63.5137 30.4406 63.9427Z" fill="black"/>
<path d="M35.6243 77.4263C35.6243 77.7123 35.7059 77.8962 35.8283 77.8145C35.9508 77.7532 36.0324 77.508 36.0324 77.2833C36.0324 77.079 35.9508 76.8951 35.8283 76.8951C35.7263 76.8951 35.6243 77.1403 35.6243 77.4263Z" fill="black"/>
<path d="M35.2364 83.6574C35.114 84.0251 35.012 84.8627 35.012 85.5165C35.012 87.2939 35.6446 88.2336 35.9303 86.8853C36.0936 86.1294 35.8487 83.0241 35.6242 83.0241C35.5426 83.0241 35.3589 83.3101 35.2364 83.6574Z" fill="black"/>
</g>
<defs>
<clipPath id="clip0">
<rect width="512" height="102.882" fill="white"/>
</clipPath>
</defs>
</svg>