<svg width="243" height="40" viewBox="0 0 243 40" fill="none" xmlns="http://www.w3.org/2000/svg">
<g clip-path="url(#clip0)">
<path d="M58.46 8.97C58.96 8.97 59.39 9.15 59.75 9.51C60.13 9.85 60.32 10.28 60.32 10.8V28.17C60.32 28.69 60.15 29.13 59.81 29.49C59.47 29.83 59.02 30 58.46 30C57.9 30 57.44 29.83 57.08 29.49C56.74 29.15 56.57 28.71 56.57 28.17V16.08L51.62 23.64C51.42 23.88 51.19 24.08 50.93 24.24C50.67 24.38 50.4 24.44 50.12 24.42C49.86 24.44 49.6 24.38 49.34 24.24C49.08 24.08 48.85 23.88 48.65 23.64L43.7 15.81V28.17C43.7 28.71 43.54 29.15 43.22 29.49C42.9 29.83 42.48 30 41.96 30C41.46 30 41.05 29.83 40.73 29.49C40.41 29.13 40.25 28.69 40.25 28.17V10.8C40.25 10.3 40.43 9.87 40.79 9.51C41.17 9.15 41.62 8.97 42.14 8.97C42.44 8.97 42.74 9.05 43.04 9.21C43.34 9.35 43.57 9.54 43.73 9.78L50.27 19.83L56.99 9.78C57.15 9.54 57.36 9.35 57.62 9.21C57.9 9.05 58.18 8.97 58.46 8.97ZM78.9301 21.6C78.9101 22.08 78.7201 22.47 78.3601 22.77C78.0001 23.07 77.5801 23.22 77.1001 23.22H67.2001C67.4401 24.4 67.9901 25.33 68.8501 26.01C69.7101 26.67 70.6801 27 71.7601 27C72.5801 27 73.2201 26.93 73.6801 26.79C74.1401 26.63 74.5001 26.47 74.7601 26.31C75.0401 26.13 75.2301 26.01 75.3301 25.95C75.6901 25.77 76.0301 25.68 76.3501 25.68C76.7701 25.68 77.1301 25.83 77.4301 26.13C77.7301 26.43 77.8801 26.78 77.8801 27.18C77.8801 27.72 77.6001 28.21 77.0401 28.65C76.4801 29.11 75.7301 29.5 74.7901 29.82C73.8501 30.14 72.9001 30.3 71.9401 30.3C70.2601 30.3 68.7901 29.95 67.5301 29.25C66.2901 28.55 65.3301 27.59 64.6501 26.37C63.9701 25.13 63.6301 23.74 63.6301 22.2C63.6301 20.48 63.9901 18.97 64.7101 17.67C65.4301 16.37 66.3801 15.38 67.5601 14.7C68.7401 14 70.0001 13.65 71.3401 13.65C72.6601 13.65 73.9001 14.01 75.0601 14.73C76.2401 15.45 77.1801 16.42 77.8801 17.64C78.5801 18.86 78.9301 20.18 78.9301 21.6ZM71.3401 16.95C69.0201 16.95 67.6501 18.04 67.2301 20.22H75.0901V20.01C75.0101 19.17 74.6001 18.45 73.8601 17.85C73.1201 17.25 72.2801 16.95 71.3401 16.95ZM100.442 13.65C102.422 13.65 103.792 14.26 104.552 15.48C105.312 16.68 105.692 18.35 105.692 20.49V28.17C105.692 28.69 105.522 29.13 105.182 29.49C104.842 29.83 104.412 30 103.892 30C103.372 30 102.942 29.83 102.602 29.49C102.262 29.13 102.092 28.69 102.092 28.17V20.49C102.092 19.39 101.872 18.53 101.432 17.91C101.012 17.27 100.262 16.95 99.1824 16.95C98.0624 16.95 97.1824 17.29 96.5424 17.97C95.9224 18.63 95.6124 19.47 95.6124 20.49V28.17C95.6124 28.69 95.4424 29.13 95.1024 29.49C94.7624 29.83 94.3324 30 93.8124 30C93.2924 30 92.8624 29.83 92.5224 29.49C92.1824 29.13 92.0124 28.69 92.0124 28.17V20.49C92.0124 19.39 91.7924 18.53 91.3524 17.91C90.9324 17.27 90.1824 16.95 89.1024 16.95C87.9824 16.95 87.1024 17.29 86.4624 17.97C85.8424 18.63 85.5324 19.47 85.5324 20.49V28.17C85.5324 28.69 85.3624 29.13 85.0224 29.49C84.6824 29.83 84.2524 30 83.7324 30C83.2124 30 82.7824 29.83 82.4424 29.49C82.1024 29.13 81.9324 28.69 81.9324 28.17V15.78C81.9324 15.26 82.1024 14.83 82.4424 14.49C82.7824 14.13 83.2124 13.95 83.7324 13.95C84.2524 13.95 84.6824 14.13 85.0224 14.49C85.3624 14.83 85.5324 15.26 85.5324 15.78V16.26C86.0724 15.54 86.7524 14.93 87.5724 14.43C88.4124 13.91 89.3424 13.65 90.3624 13.65C92.8824 13.65 94.4924 14.75 95.1924 16.95C95.6524 16.11 96.3424 15.35 97.2624 14.67C98.2024 13.99 99.2624 13.65 100.442 13.65ZM125.009 21.99C125.009 23.59 124.649 25.03 123.929 26.31C123.209 27.57 122.219 28.55 120.959 29.25C119.719 29.95 118.349 30.3 116.849 30.3C115.329 30.3 113.949 29.95 112.709 29.25C111.469 28.55 110.489 27.57 109.769 26.31C109.049 25.03 108.689 23.59 108.689 21.99C108.689 20.39 109.049 18.96 109.769 17.7C110.489 16.42 111.469 15.43 112.709 14.73C113.949 14.01 115.329 13.65 116.849 13.65C118.349 13.65 119.719 14.01 120.959 14.73C122.219 15.43 123.209 16.42 123.929 17.7C124.649 18.96 125.009 20.39 125.009 21.99ZM121.409 21.99C121.409 21.01 121.199 20.14 120.779 19.38C120.379 18.6 119.829 18 119.129 17.58C118.449 17.16 117.689 16.95 116.849 16.95C116.009 16.95 115.239 17.16 114.539 17.58C113.859 18 113.309 18.6 112.889 19.38C112.489 20.14 112.289 21.01 112.289 21.99C112.289 22.97 112.489 23.84 112.889 24.6C113.309 25.36 113.859 25.95 114.539 26.37C115.239 26.79 116.009 27 116.849 27C117.689 27 118.449 26.79 119.129 26.37C119.829 25.95 120.379 25.36 120.779 24.6C121.199 23.84 121.409 22.97 121.409 21.99ZM136.356 13.65C136.956 13.65 137.456 13.82 137.856 14.16C138.276 14.5 138.486 14.9 138.486 15.36C138.486 15.98 138.326 16.45 138.006 16.77C137.686 17.07 137.306 17.22 136.866 17.22C136.566 17.22 136.226 17.15 135.846 17.01C135.786 16.99 135.646 16.95 135.426 16.89C135.226 16.83 135.006 16.8 134.766 16.8C134.246 16.8 133.746 16.96 133.266 17.28C132.786 17.6 132.386 18.09 132.066 18.75C131.766 19.39 131.616 20.16 131.616 21.06V28.17C131.616 28.69 131.446 29.13 131.106 29.49C130.766 29.83 130.336 30 129.816 30C129.296 30 128.866 29.83 128.526 29.49C128.186 29.13 128.016 28.69 128.016 28.17V15.78C128.016 15.26 128.186 14.83 128.526 14.49C128.866 14.13 129.296 13.95 129.816 13.95C130.336 13.95 130.766 14.13 131.106 14.49C131.446 14.83 131.616 15.26 131.616 15.78V16.17C132.076 15.35 132.736 14.73 133.596 14.31C134.456 13.87 135.376 13.65 136.356 13.65ZM153.663 13.65C154.183 13.65 154.613 13.82 154.953 14.16C155.293 14.5 155.463 14.94 155.463 15.48V28.17C155.463 28.69 155.293 29.13 154.953 29.49C154.613 29.83 154.183 30 153.663 30C153.143 30 152.713 29.83 152.373 29.49C152.053 29.15 151.883 28.72 151.863 28.2C151.363 28.78 150.683 29.28 149.823 29.7C148.983 30.1 148.093 30.3 147.153 30.3C145.773 30.3 144.523 29.95 143.403 29.25C142.283 28.53 141.393 27.54 140.733 26.28C140.093 25.02 139.773 23.59 139.773 21.99C139.773 20.39 140.093 18.96 140.733 17.7C141.373 16.42 142.243 15.43 143.343 14.73C144.463 14.01 145.693 13.65 147.033 13.65C147.993 13.65 148.893 13.83 149.733 14.19C150.573 14.53 151.283 14.97 151.863 15.51V15.48C151.863 14.96 152.033 14.53 152.373 14.19C152.713 13.83 153.143 13.65 153.663 13.65ZM147.603 27C148.903 27 149.963 26.53 150.783 25.59C151.603 24.63 152.013 23.43 152.013 21.99C152.013 20.55 151.603 19.35 150.783 18.39C149.963 17.43 148.903 16.95 147.603 16.95C146.323 16.95 145.273 17.43 144.453 18.39C143.633 19.35 143.223 20.55 143.223 21.99C143.223 23.43 143.623 24.63 144.423 25.59C145.243 26.53 146.303 27 147.603 27ZM167.944 13.65C169.984 13.65 171.394 14.26 172.174 15.48C172.954 16.68 173.344 18.35 173.344 20.49V28.17C173.344 28.69 173.174 29.13 172.834 29.49C172.494 29.83 172.064 30 171.544 30C171.024 30 170.594 29.83 170.254 29.49C169.914 29.13 169.744 28.69 169.744 28.17V20.49C169.744 19.39 169.514 18.53 169.054 17.91C168.594 17.27 167.804 16.95 166.684 16.95C165.524 16.95 164.614 17.29 163.954 17.97C163.294 18.63 162.964 19.47 162.964 20.49V28.17C162.964 28.69 162.794 29.13 162.454 29.49C162.114 29.83 161.684 30 161.164 30C160.644 30 160.214 29.83 159.874 29.49C159.534 29.13 159.364 28.69 159.364 28.17V15.78C159.364 15.26 159.534 14.83 159.874 14.49C160.214 14.13 160.644 13.95 161.164 13.95C161.684 13.95 162.114 14.13 162.454 14.49C162.794 14.83 162.964 15.26 162.964 15.78V16.29C163.504 15.57 164.204 14.95 165.064 14.43C165.944 13.91 166.904 13.65 167.944 13.65ZM190.225 7.8C190.745 7.8 191.175 7.97 191.515 8.31C191.855 8.65 192.025 9.09 192.025 9.63V28.17C192.025 28.69 191.855 29.13 191.515 29.49C191.175 29.83 190.745 30 190.225 30C189.705 30 189.275 29.83 188.935 29.49C188.615 29.15 188.445 28.72 188.425 28.2C187.925 28.78 187.245 29.28 186.385 29.7C185.545 30.1 184.655 30.3 183.715 30.3C182.335 30.3 181.085 29.95 179.965 29.25C178.845 28.53 177.955 27.54 177.295 26.28C176.655 25.02 176.335 23.59 176.335 21.99C176.335 20.39 176.655 18.96 177.295 17.7C177.935 16.42 178.805 15.43 179.905 14.73C181.025 14.01 182.255 13.65 183.595 13.65C184.555 13.65 185.455 13.83 186.295 14.19C187.135 14.53 187.845 14.97 188.425 15.51V9.63C188.425 9.11 188.595 8.68 188.935 8.34C189.275 7.98 189.705 7.8 190.225 7.8ZM184.165 27C185.465 27 186.525 26.53 187.345 25.59C188.165 24.63 188.575 23.43 188.575 21.99C188.575 20.55 188.165 19.35 187.345 18.39C186.525 17.43 185.465 16.95 184.165 16.95C182.885 16.95 181.835 17.43 181.015 18.39C180.195 19.35 179.785 20.55 179.785 21.99C179.785 23.43 180.185 24.63 180.985 25.59C181.805 26.53 182.865 27 184.165 27ZM208.305 13.95C208.825 13.95 209.255 14.13 209.595 14.49C209.935 14.83 210.105 15.26 210.105 15.78V23.4C210.105 25.56 209.505 27.25 208.305 28.47C207.125 29.69 205.435 30.3 203.235 30.3C201.035 30.3 199.345 29.69 198.165 28.47C196.985 27.25 196.395 25.56 196.395 23.4V15.78C196.395 15.26 196.565 14.83 196.905 14.49C197.245 14.13 197.675 13.95 198.195 13.95C198.715 13.95 199.145 14.13 199.485 14.49C199.825 14.83 199.995 15.26 199.995 15.78V23.4C199.995 24.62 200.265 25.53 200.805 26.13C201.345 26.71 202.155 27 203.235 27C204.335 27 205.155 26.71 205.695 26.13C206.235 25.53 206.505 24.62 206.505 23.4V15.78C206.505 15.26 206.675 14.83 207.015 14.49C207.355 14.13 207.785 13.95 208.305 13.95ZM232.513 13.65C234.493 13.65 235.863 14.26 236.623 15.48C237.383 16.68 237.763 18.35 237.763 20.49V28.17C237.763 28.69 237.593 29.13 237.253 29.49C236.913 29.83 236.483 30 235.963 30C235.443 30 235.013 29.83 234.673 29.49C234.333 29.13 234.163 28.69 234.163 28.17V20.49C234.163 19.39 233.943 18.53 233.503 17.91C233.083 17.27 232.333 16.95 231.253 16.95C230.133 16.95 229.253 17.29 228.613 17.97C227.993 18.63 227.683 19.47 227.683 20.49V28.17C227.683 28.69 227.513 29.13 227.173 29.49C226.833 29.83 226.403 30 225.883 30C225.363 30 224.933 29.83 224.593 29.49C224.253 29.13 224.083 28.69 224.083 28.17V20.49C224.083 19.39 223.863 18.53 223.423 17.91C223.003 17.27 222.253 16.95 221.173 16.95C220.053 16.95 219.173 17.29 218.533 17.97C217.913 18.63 217.603 19.47 217.603 20.49V28.17C217.603 28.69 217.433 29.13 217.093 29.49C216.753 29.83 216.323 30 215.803 30C215.283 30 214.853 29.83 214.513 29.49C214.173 29.13 214.003 28.69 214.003 28.17V15.78C214.003 15.26 214.173 14.83 214.513 14.49C214.853 14.13 215.283 13.95 215.803 13.95C216.323 13.95 216.753 14.13 217.093 14.49C217.433 14.83 217.603 15.26 217.603 15.78V16.26C218.143 15.54 218.823 14.93 219.643 14.43C220.483 13.91 221.413 13.65 222.433 13.65C224.953 13.65 226.563 14.75 227.263 16.95C227.723 16.11 228.413 15.35 229.333 14.67C230.273 13.99 231.333 13.65 232.513 13.65Z" fill="black"/>
<path d="M9.83259 0.770131C7.81218 1.45632 6.41473 2.94586 4.76473 6.19272C3.45147 8.78687 3.36728 9.13833 3.36728 12.5023V15.3977L2.79483 16.1844C1.24585 18.3434 0.33667 21.1718 0.33667 23.8998C0.33667 25.7408 0.925956 27.8998 2.1382 30.4103C2.52545 31.2304 4.83208 32.5526 6.46524 32.8873C8.88973 33.3894 10.0683 34.0086 11.23 35.4312C12.0887 36.4689 13.1326 37.4061 13.4188 37.3726C13.5535 37.3726 13.6209 37.4563 13.5703 37.5735C13.4693 37.8413 13.9239 38.2597 14.1091 38.0923C14.1765 38.0254 14.2438 37.2053 14.2775 36.268C14.328 34.5777 14.328 34.5609 13.8061 33.9919C13.1663 33.289 13.1494 32.586 13.7219 31.7994C14.1596 31.2136 14.2943 30.3768 13.9408 30.494C13.8397 30.5275 13.6545 30.8622 13.5535 31.2304C13.3683 31.8496 13.3515 31.8664 13.1663 31.5149C13.0484 31.3141 12.9642 30.9626 12.9642 30.745C12.9642 30.5275 12.8295 30.1593 12.6443 29.9417C12.2234 29.4061 11.9877 28.5191 12.0719 27.699C12.1392 27.0295 12.1392 27.0295 11.8867 27.448C11.7183 27.7325 11.6341 27.7827 11.6173 27.5986C11.6173 27.2806 12.0382 26.3936 12.5096 25.7241C12.678 25.4563 12.7959 25.222 12.7453 25.1718C12.6275 25.0546 11.8698 25.7911 11.7351 26.1425C11.5331 26.7116 11.3142 26.5107 10.8091 25.2387C10.6408 24.8538 10.5397 24.1509 10.203 21.5065C10.1356 20.971 9.84942 20.0672 9.27698 18.5777C8.85606 17.4731 8.85606 17.5065 9.19279 17.6404C9.41167 17.7241 9.44534 17.6572 9.36116 17.3224C9.27698 17.0212 9.31065 16.9208 9.46218 16.9375C9.93361 17.0379 10.927 19.6655 10.6239 19.9668C10.5229 20.0672 10.4387 20.335 10.4387 20.5693V20.9877L10.7249 20.6028L10.9943 20.2011L11.4994 21.1718C12.0382 22.2429 12.4591 23.4814 12.4591 24.0505C12.4591 24.335 12.5265 24.3852 12.8127 24.3182C13.1326 24.2346 13.1494 24.2513 12.9642 24.586C12.7959 24.9208 12.8127 24.9542 13.0821 24.904C13.3683 24.8538 13.402 24.7534 13.4525 23.4647C13.4693 23.2639 13.5367 23.0965 13.6209 23.0965C13.8566 23.0965 13.6882 24.971 13.4525 25.1216C13.3178 25.2053 13.3178 25.3224 13.4693 25.5902C13.604 25.858 13.604 26.0254 13.4862 26.176C13.3515 26.3434 13.3683 26.4605 13.5535 26.6111C13.705 26.745 13.8061 27.13 13.8229 27.5986C13.8397 28.017 13.9071 28.5526 13.9744 28.7869C14.0586 29.0212 14.1091 27.1969 14.1091 24.5526C14.1091 20.5023 14.1596 19.448 14.3617 19.7659C14.3785 19.7994 14.7994 20.268 15.2877 20.7701L16.1969 21.7074L16.1632 28.8538L16.1464 36.0003L15.4729 37.0044C15.1025 37.54 14.7152 38.0254 14.6311 38.0923C14.3112 38.2931 14.5132 38.4772 15.2035 38.5777C15.5908 38.6446 16.3652 38.8789 16.9377 39.0965C18.1331 39.5651 20.0356 39.6655 20.0356 39.2639C20.0356 38.9291 20.305 38.8789 21.6351 38.9291C22.2918 38.9626 22.8811 38.9961 22.9484 38.9961C23.0326 38.9961 23.0326 39.063 22.9821 39.1634C22.9316 39.2639 22.2918 39.3308 21.5846 39.3475C19.5474 39.381 20.7933 39.6321 23.0494 39.6488L24.952 39.6655L25.6254 38.9793C26.0295 38.5609 26.6356 37.5735 27.1744 36.4354C27.6795 35.3977 28.2856 34.1425 28.5382 33.6404C28.8244 33.0714 28.9928 32.4689 28.976 32.0505C28.9423 31.0798 29.077 30.8454 29.8851 30.3601C30.2892 30.1258 30.8785 29.6572 31.1984 29.289C31.7035 28.7534 31.8045 28.4856 31.9055 27.5484C32.0908 25.8413 31.9055 22.1593 31.5688 20.9208C31.2152 19.6153 30.3566 17.6739 29.6494 16.6362C29.178 15.9668 29.1275 15.7492 29.1275 14.5944C29.1275 13.0881 28.7402 10.176 28.353 8.87055C28.2183 8.36846 27.8311 7.19691 27.4943 6.27641C26.9219 4.68645 26.8209 4.53582 25.6086 3.34754C24.329 2.10904 22.4938 1.00444 20.8606 0.519085C20.0693 0.284775 18.4193 0.284775 17.9647 0.535821C17.7627 0.63624 16.5504 0.753394 15.1193 0.786867C13.1663 0.837076 12.5096 0.786867 12.0214 0.58603C11.2805 0.284775 11.3142 0.284775 9.83259 0.770131ZM13.8229 7.44795C13.8229 7.53164 13.705 7.64879 13.5367 7.699C13.2673 7.79942 13.2841 7.83289 13.6377 8.08394C14.0081 8.33498 14.0586 8.33498 14.3785 8.0672C14.6816 7.79942 14.6984 7.79942 14.5974 8.18436C14.5469 8.41867 14.6142 8.73666 14.7658 8.9877C15.1698 9.60695 14.8668 9.65716 14.2606 9.08812C13.9744 8.8036 13.402 8.40193 13.0147 8.20109C12.2234 7.79942 12.1392 7.63206 12.577 7.39775C12.9137 7.19691 13.8061 7.23038 13.8229 7.44795ZM13.2841 8.75339C13.7892 9.13833 14.2438 9.57348 14.2775 9.70737C14.3617 9.92494 14.328 9.92494 14.0923 9.74084C13.8566 9.54001 13.7724 9.54001 13.5535 9.77431C13.2841 10.0254 12.9642 10.1258 12.9642 9.95842C12.9642 9.90821 13.0652 9.72411 13.1831 9.54001C13.4356 9.10486 13.1158 8.85381 12.4423 8.9877C12.055 9.05465 11.9877 9.02118 11.9203 8.55256C11.8193 7.83289 12.1561 7.8831 13.2841 8.75339ZM19.6316 9.6739C19.4295 9.858 19.3622 9.57348 19.48 9.02118L19.6147 8.45214L19.6652 9.00444C19.6989 9.32243 19.6821 9.60695 19.6316 9.6739ZM15.9948 10.4605C16.2137 10.6948 16.5673 10.8789 16.7693 10.8789C17.0555 10.8789 17.1397 10.9459 17.0724 11.13C17.005 11.2639 17.0555 11.381 17.1566 11.381C17.2576 11.381 17.3418 11.2639 17.3418 11.13C17.3418 10.745 17.7964 10.8287 17.8974 11.2471C17.9647 11.448 18.0489 11.5651 18.1163 11.4982C18.1836 11.4312 18.1331 11.1802 18.0152 10.9459C17.6953 10.3601 17.8805 10.2931 19.5979 10.2262C21.3489 10.176 22.3423 10.5107 22.0729 11.0295C21.8203 11.4814 21.8203 11.4814 22.5443 11.7659C23.2683 12.0672 23.5882 12.3852 23.1504 12.3852C22.9484 12.3852 22.8979 12.4689 22.9652 12.653C23.0494 12.8705 22.9821 12.8873 22.5106 12.7701C21.4668 12.5023 19.6652 12.6195 18.9413 13.0044C18.0152 13.4898 16.904 14.7116 16.6851 15.4982C16.4494 16.3182 16.1127 19.9835 16.2137 20.5191C16.3316 21.1551 16.0959 21.1383 15.4561 20.4521C15.1362 20.1174 14.5132 19.5149 14.0923 19.13C13.4188 18.5275 13.301 18.3434 13.301 17.7911C13.301 17.2722 13.402 17.0714 13.8734 16.7032C14.2438 16.4187 14.4795 16.0505 14.5469 15.6823C14.6142 15.3643 14.8331 14.745 15.0688 14.2931L15.4897 13.4731L14.951 14.0588C14.6311 14.4103 14.4795 14.5107 14.5637 14.3099C14.6311 14.1258 14.7152 13.8245 14.7658 13.6404C14.8331 13.3726 14.8163 13.3559 14.6647 13.5567C14.5132 13.7743 14.4795 13.7576 14.4795 13.4731C14.4795 13.289 14.6311 12.9542 14.8163 12.7199C15.0015 12.4856 15.153 12.2178 15.153 12.1341C15.153 11.9668 15.7423 11.381 15.9106 11.381C15.9443 11.381 15.9443 11.6321 15.8938 11.9166C15.8096 12.4187 15.8265 12.4354 16.0453 12.1676C16.3652 11.7827 16.5504 11.7994 16.3316 12.2178C16.2305 12.4019 16.2137 12.5526 16.2811 12.5526C16.4831 12.5358 17.7627 11.5484 17.5775 11.5484C17.4765 11.5484 17.3249 11.6321 17.2071 11.7492C17.1061 11.8496 16.9882 11.9166 16.9714 11.8664C16.9377 11.8329 16.5504 11.3977 16.079 10.9124C15.6244 10.4438 15.3214 10.0421 15.4224 10.0421C15.5234 10.0421 15.776 10.2262 15.9948 10.4605ZM20.204 13.2387C19.6989 13.3224 19.1096 13.5065 18.8908 13.6572C18.6719 13.8078 18.453 13.8747 18.4025 13.8413C18.2004 13.6237 19.6652 13.0714 20.3724 13.0881H21.13L20.204 13.2387ZM22.8137 13.4731C23.2851 13.7074 23.7229 13.8915 23.8071 13.8915C24.1101 13.8915 25.1035 15.1634 25.3055 15.8162C25.4571 16.3182 25.4908 18.427 25.4234 24.4354C25.3897 28.8036 25.3561 33.3057 25.3392 34.4438C25.3392 35.7325 25.2719 36.4689 25.1709 36.4354C25.0698 36.4019 24.9856 32.971 24.9688 26.6948C24.9351 18.2597 24.9015 16.8873 24.6658 16.1509C24.1606 14.5944 23.5882 14.0588 21.551 13.2387L21.13 13.0714H21.551C21.7867 13.0714 22.3591 13.2555 22.8137 13.4731ZM8.9234 13.5735C8.9234 13.6739 8.85606 13.6906 8.75504 13.6404C8.67085 13.5902 8.58667 13.4563 8.58667 13.3726C8.58667 13.2722 8.67085 13.2555 8.75504 13.3057C8.85606 13.3559 8.9234 13.4898 8.9234 13.5735ZM14.4795 14.8957C14.4795 14.9793 14.4122 15.063 14.3112 15.063C14.227 15.063 14.1428 14.9793 14.1428 14.8957C14.1428 14.7952 14.227 14.7283 14.3112 14.7283C14.4122 14.7283 14.4795 14.7952 14.4795 14.8957ZM19.9515 15.0965C20.2714 15.2304 20.4734 15.2304 20.8101 15.0798C21.2142 14.9124 21.3152 14.9291 21.6688 15.2639C21.9045 15.4814 22.2244 15.8998 22.376 16.2178C22.6453 16.7032 22.6453 16.8538 22.4601 17.2387C22.2749 17.5902 22.2749 17.7911 22.4265 18.1927C22.5948 18.6279 22.5612 18.7618 22.2413 19.2304C21.7698 19.8998 21.2479 20.1844 20.9953 19.9333C20.8943 19.8329 20.6081 19.7492 20.3724 19.7492C20.1367 19.7492 19.8504 19.8329 19.7494 19.9333C19.4969 20.1844 18.9749 19.8831 18.4193 19.1467C18.0321 18.6446 17.9816 18.494 18.1499 18.2262C18.4025 17.8245 18.4025 17.1885 18.1668 16.9542C17.8805 16.6697 18.2678 15.8162 18.9244 15.3141C19.5474 14.8287 19.4127 14.8454 19.9515 15.0965ZM8.26677 16.2346C8.35096 16.2346 8.4183 16.3852 8.4183 16.5526C8.4183 16.7367 8.50249 16.9375 8.58667 16.9877C8.68769 17.0379 8.75504 17.1718 8.75504 17.2555C8.75504 17.3559 8.48565 17.1551 8.16575 16.8036C7.50912 16.1174 7.44177 15.9835 7.84585 16.1341C7.99738 16.1844 8.18259 16.2346 8.26677 16.2346ZM8.58667 18.0756C8.78871 18.176 8.88973 18.4103 8.88973 18.7116C8.87289 18.9626 8.97391 19.3475 9.07494 19.5651C9.32749 20.017 9.34432 20.017 8.01422 20.7534C6.46524 21.607 5.64024 22.176 5.253 22.6613C4.86575 23.1467 4.47851 23.1969 3.87238 22.8287L3.45147 22.5777L4.02391 22.6613C4.73106 22.7785 5.253 22.3936 5.1183 21.858C5.06779 21.607 5.21932 21.289 5.64024 20.7869C5.97698 20.4019 6.17902 20.0839 6.09483 20.0839C5.99381 20.0839 5.60657 20.4354 5.23616 20.8538C4.68055 21.4898 4.56269 21.7074 4.66371 22.0756C4.76473 22.4605 4.74789 22.494 4.49534 22.2764C4.19228 22.0421 4.09126 21.0881 4.37749 21.0881C4.46167 21.0881 4.6132 20.7869 4.73106 20.4354C4.83208 20.0672 5.01728 19.7994 5.1183 19.8162C5.21932 19.8496 5.253 19.8329 5.18565 19.7994C5.10147 19.7492 5.05096 19.5149 5.05096 19.2806C5.05096 18.9291 5.08463 18.8789 5.21932 19.0798C5.35402 19.2806 5.4382 19.2973 5.72442 19.1132C6.17902 18.8454 6.14534 18.8287 6.38106 19.5316C6.48208 19.8831 6.68412 20.3015 6.80198 20.4689C7.02085 20.7534 7.10504 20.7534 7.66065 20.5693C8.53616 20.2513 8.60351 20.1007 8.33412 19.063C7.98055 17.7911 7.99738 17.7576 8.58667 18.0756ZM12.2571 18.9459C12.4928 19.3643 12.5265 19.5316 12.3749 19.4814C12.2571 19.4312 12.0719 19.1634 11.9709 18.8789C11.651 17.9919 11.7015 18.0086 12.2571 18.9459ZM13.8061 19.6655C13.8061 20.1844 13.604 20.3015 13.1999 20.0003C12.9137 19.7827 12.8969 19.7659 13.1831 19.7492C13.3515 19.7492 13.4693 19.6153 13.4693 19.3977C13.4693 19.2136 13.5535 19.1132 13.6377 19.1634C13.7387 19.2136 13.8061 19.448 13.8061 19.6655ZM13.604 21.0212C13.5367 21.0714 13.402 20.9375 13.301 20.7199C13.0989 20.3517 13.0989 20.3517 13.402 20.6195C13.5703 20.7869 13.6545 20.9542 13.604 21.0212ZM13.8061 21.5065C13.8061 21.6404 13.7387 21.7576 13.6377 21.7576C13.5535 21.7576 13.4693 21.6404 13.4693 21.5065C13.4693 21.3726 13.5535 21.2555 13.6377 21.2555C13.7387 21.2555 13.8061 21.3726 13.8061 21.5065ZM19.5979 22.176C19.9683 22.7283 19.9346 23.2471 19.4969 23.7157C18.5035 24.7701 17.0892 23.3308 17.9479 22.1258C18.3183 21.5902 19.2275 21.6237 19.5979 22.176ZM6.97034 23.0128C6.51575 23.3308 6.04432 23.5651 5.92647 23.5149C5.79177 23.4647 5.58973 23.4312 5.45504 23.4312C4.98361 23.4312 5.37085 23.1467 5.85912 23.13C6.12851 23.13 6.59994 22.9626 6.91983 22.7785C7.84585 22.2095 7.87953 22.3768 6.97034 23.0128ZM4.54585 23.699C4.54585 23.9835 4.17545 23.9333 4.07442 23.6321C4.04075 23.5149 4.12494 23.4312 4.27647 23.4312C4.428 23.4312 4.54585 23.5484 4.54585 23.699ZM9.41167 23.8831C9.27698 24.0337 9.04126 24.3015 8.88973 24.4689C8.65402 24.7032 8.58667 25.0546 8.58667 26.0756C8.58667 27.3141 8.62034 27.4145 9.09177 27.8664C9.36116 28.1341 9.5632 28.3852 9.51269 28.4354C9.46218 28.4689 9.15912 28.2513 8.83922 27.95C8.26677 27.3977 8.24994 27.3643 8.24994 26.0086V24.6195L8.87289 24.1174C9.58004 23.5316 9.7484 23.4647 9.41167 23.8831ZM6.81881 24.1007C6.86932 24.1844 6.83565 24.268 6.75147 24.268C6.65045 24.268 6.56626 24.1844 6.56626 24.1007C6.56626 24.0003 6.59994 23.9333 6.63361 23.9333C6.68412 23.9333 6.7683 24.0003 6.81881 24.1007ZM29.6326 25.8413C29.6326 26.7116 29.5821 27.4647 29.5147 27.4982C29.4305 27.5484 29.38 26.8454 29.38 25.9249C29.38 25.0212 29.4305 24.268 29.5147 24.268C29.5821 24.268 29.6326 24.971 29.6326 25.8413ZM31.1479 24.4354C31.1479 24.5191 31.0805 24.6028 30.9795 24.6028C30.8953 24.6028 30.8112 24.5191 30.8112 24.4354C30.8112 24.335 30.8953 24.268 30.9795 24.268C31.0805 24.268 31.1479 24.335 31.1479 24.4354ZM4.32698 24.971C4.27647 25.0881 4.24279 25.0044 4.24279 24.7701C4.24279 24.5358 4.27647 24.4521 4.32698 24.5526C4.36065 24.6697 4.36065 24.8705 4.32698 24.971ZM6.39789 26.0254C6.39789 26.2597 6.33055 26.4438 6.22953 26.4438C6.14534 26.4438 6.06116 26.2597 6.06116 26.0254C6.06116 25.7911 6.14534 25.607 6.22953 25.607C6.33055 25.607 6.39789 25.7911 6.39789 26.0254ZM31.4846 25.9752C31.4846 26.0923 31.4173 26.2931 31.3331 26.427C31.1479 26.7116 30.9459 26.4103 31.0805 26.0421C31.1984 25.7241 31.4846 25.6906 31.4846 25.9752ZM23.0831 26.5442C23.201 26.8789 23.1841 27.0798 22.9821 27.381C22.679 27.8329 22.6622 27.8496 22.2076 27.6153C21.8372 27.4145 21.7698 26.6279 22.0897 26.3099C22.4265 25.9752 22.8979 26.0756 23.0831 26.5442ZM4.54585 28.2178C4.54585 28.3517 4.46167 28.4187 4.37749 28.3685C4.27647 28.3015 4.24279 28.1844 4.2933 28.1007C4.44483 27.8664 4.54585 27.9166 4.54585 28.2178ZM23.0831 28.6362C23.3525 29.1551 23.0158 29.8245 22.5275 29.7576C22.0561 29.6906 21.8203 29.2722 21.955 28.7367C22.0897 28.1676 22.7969 28.1174 23.0831 28.6362ZM24.3459 30.3936C24.1775 30.6279 24.0091 30.7785 23.9586 30.745C23.9249 30.6948 24.0091 30.4605 24.1775 30.2262C24.329 29.9752 24.4974 29.8245 24.5479 29.858C24.5816 29.9082 24.4974 30.1425 24.3459 30.3936ZM10.2703 30.5275C10.2703 30.5777 10.203 30.6613 10.102 30.7116C10.0178 30.7618 9.93361 30.7283 9.93361 30.6446C9.93361 30.5442 10.0178 30.4605 10.102 30.4605C10.203 30.4605 10.2703 30.494 10.2703 30.5275ZM9.78208 31.4145C9.58004 31.7492 9.54636 31.6488 9.69789 31.2136C9.76524 31.063 9.84942 30.9793 9.8831 31.0295C9.93361 31.063 9.8831 31.2471 9.78208 31.4145ZM11.3647 31.6321C11.4152 31.7157 11.3816 31.7994 11.2974 31.7994C11.1964 31.7994 11.1122 31.7157 11.1122 31.6321C11.1122 31.5316 11.1459 31.4647 11.1795 31.4647C11.23 31.4647 11.3142 31.5316 11.3647 31.6321ZM13.0147 34.0086C13.5535 34.8287 13.9913 36.2848 13.6209 36.0672C13.5367 36.0003 13.4693 35.8329 13.4693 35.6823C13.4693 35.5316 13.301 35.13 13.0989 34.812C12.3749 33.6906 12.1392 33.1383 12.3581 33.1383C12.3918 33.1383 12.678 33.54 13.0147 34.0086ZM21.7193 33.8747C21.7193 33.9249 21.652 34.0086 21.551 34.0588C21.4668 34.109 21.3826 34.0756 21.3826 33.9919C21.3826 33.8915 21.4668 33.8078 21.551 33.8078C21.652 33.8078 21.7193 33.8413 21.7193 33.8747ZM22.8979 35.4312C22.8979 35.6488 22.8474 35.6655 22.6959 35.5149C22.4433 35.2639 19.9346 35.2471 19.7831 35.4814C19.7326 35.5651 19.5979 35.6488 19.4969 35.6488C19.379 35.6488 19.3959 35.5484 19.5305 35.3977C19.6821 35.2136 20.1198 35.1467 21.3152 35.1467C22.6959 35.1467 22.8979 35.1802 22.8979 35.4312ZM17.9479 36.5693C18.0152 36.7199 17.7627 37.1551 17.3418 37.6572C16.7525 38.3601 16.5841 38.4605 16.3147 38.3266C16.0285 38.1593 16.0453 38.0923 16.7188 37.2387C17.4428 36.3015 17.7795 36.1174 17.9479 36.5693ZM23.5882 36.653C23.6387 36.7869 23.5714 37.1383 23.4367 37.4396C23.1841 37.9584 23.1673 37.9584 21.5678 38.0756C20.0693 38.1927 19.9178 38.2262 19.4127 38.7116C18.9413 39.1467 18.8402 39.1802 18.6045 38.9961C18.0152 38.5107 17.9647 38.176 18.3856 37.3224C18.8402 36.3685 18.8908 36.3517 21.6351 36.3852C23.1168 36.4019 23.504 36.4521 23.5882 36.653Z" fill="black"/>
<path d="M13.7723 17.657C13.7386 18.0252 13.7891 18.3265 13.9238 18.4436C14.0922 18.5775 14.1427 18.4603 14.1427 17.8411C14.1427 16.9373 13.8733 16.8034 13.7723 17.657Z" fill="black"/>
<path d="M19.4631 16.2512C19.2274 16.4353 19.0254 16.6696 19.0254 16.77C19.0254 16.8704 19.2106 16.7532 19.4463 16.5022C20.3723 15.498 21.8371 16.4855 21.6182 17.9917C21.5509 18.4771 21.5509 18.4938 21.7193 18.0754C22.1402 17.1382 21.4162 15.8997 20.4565 15.8997C20.1535 15.8997 19.7157 16.0503 19.4631 16.2512Z" fill="black"/>
<path d="M12.072 24.7034C12.0046 24.7704 11.9541 24.9377 11.9541 25.0884C11.9541 25.2725 12.0046 25.2892 12.1393 25.1553C12.2403 25.0549 12.3077 24.8875 12.2572 24.7704C12.2235 24.67 12.1393 24.6365 12.072 24.7034Z" fill="black"/>
<path d="M14.0081 29.9585C14.0081 30.1928 14.0417 30.2765 14.0922 30.1593C14.1259 30.0589 14.1259 29.8581 14.0922 29.7409C14.0417 29.6405 14.0081 29.7242 14.0081 29.9585Z" fill="black"/>
<path d="M13.8735 32.2178C13.6883 32.5693 13.6883 33.5735 13.8735 33.7576C14.0756 33.9752 14.1597 33.6572 14.1092 32.7869C14.0587 32.0337 14.0251 31.9333 13.8735 32.2178Z" fill="black"/>
</g>
<defs>
<clipPath id="clip0">
<rect width="243" height="40" fill="white"/>
</clipPath>
</defs>
</svg>
