<svg width="216" height="267" viewBox="0 0 216 267" fill="none" xmlns="http://www.w3.org/2000/svg">
<mask id="path-1-outside-1_118_2" maskUnits="userSpaceOnUse" x="-1" y="0" width="217" height="267" fill="black">
<rect fill="white" x="-1" width="217" height="267"/>
<path d="M124.051 5.1978C122.373 5.40114 120.389 5.80782 119.626 6.11283C117.287 7.0787 104.011 7.84123 93.5334 7.63788C84.5306 7.43454 83.0556 7.33287 80.5633 6.31617C76.8502 4.84195 75.4261 4.89279 69.5259 6.77369C57.6748 10.5355 49.9436 16.6357 42.1106 28.4803C36.007 37.6306 28.0723 53.5928 26.4447 59.998C25.0714 65.1324 24.6645 72.1476 24.6136 87.9573V102.903L21.6636 107.02C12.1521 120.238 6.76061 134.929 5.23472 151.501C4.014 165.278 7.57443 181.545 15.4582 197.659C17.5945 202.082 18.3574 203.15 20.8497 205.132C27.6654 210.521 36.1087 214.384 47.0952 217.129C56.4541 219.468 61.9982 221.552 66.0164 224.246C67.6948 225.365 73.1881 230.499 78.2235 235.633C85.1918 242.75 87.8876 245.19 89.3626 245.648C90.9394 246.156 91.2445 246.461 91.2445 247.63C91.2445 249.155 92.6179 250.731 93.9403 250.731C95.0593 250.731 95.4662 246.868 95.5171 236.192L95.5679 227.449L93.9403 225.517C89.4135 220.129 88.4471 216.367 90.5833 212.3C91.1428 211.232 92.3635 208.945 93.2282 207.318C94.8558 204.268 95.2627 201.777 94.2455 201.116C93.4317 200.608 92.0584 202.641 91.0411 205.793C90.5833 207.267 89.973 208.64 89.7186 208.792C89.0066 209.25 87.6841 206.251 87.1755 203.099C86.8703 201.269 85.9548 199.032 84.6323 196.846C82.0892 192.627 80.8684 187.442 81.3262 182.612C81.6822 179.054 81.6314 179.054 79.2917 182.358C78.6305 183.324 78.5796 183.324 78.5796 182.002C78.5287 180.223 80.3089 176.207 83.259 171.429C85.5987 167.718 86.1074 166.345 85.141 166.345C84.3271 166.345 79.7494 171.225 79.0882 172.903C77.8675 175.8 76.3416 174.53 73.7984 168.531C72.3743 165.074 71.5096 160.855 69.9328 148.553C68.763 139.911 67.7457 136.047 63.8292 125.524C62.4051 121.61 61.2352 118.153 61.2352 117.747C61.2352 117.188 61.5912 117.086 62.6085 117.34C63.931 117.696 63.931 117.696 63.6258 115.307C62.7611 109.054 68 115.866 70.7975 124.66C72.4251 129.845 72.5777 131.015 71.713 132.743C71.2553 133.556 70.8992 135.234 70.8992 136.454C70.9501 138.589 70.9501 138.64 71.8148 137.572C72.2725 137.013 73.0355 135.997 73.4933 135.336C74.3071 134.065 74.3071 134.065 77.2063 139.86C80.2581 145.859 83.6151 155.11 83.6151 157.347C83.6151 158.059 83.8185 159.228 84.0728 159.889C84.4797 160.906 84.7849 161.058 86.2091 160.855C87.9893 160.601 87.9384 160.397 86.8703 163.803C86.5143 165.023 87.5315 165.176 88.9048 164.159C89.6678 163.6 89.8712 162.532 90.0747 158.872C90.3799 153.89 90.8885 152.315 91.7532 153.636C92.7704 155.212 91.8549 163.397 90.3799 165.888C89.6169 167.158 89.6169 167.413 90.4307 169.344C91.1428 171.225 91.1428 171.632 90.5325 172.903C89.8204 174.224 89.8712 174.428 91.0411 176.055C92.0584 177.478 92.3635 178.8 92.7704 183.375C93.2791 188.662 93.4825 189.678 93.9912 189.17C94.1438 189.018 94.4489 176.105 94.6524 160.397C94.8558 144.689 95.2627 131.676 95.4662 131.472C95.6697 131.218 98.6197 133.912 101.926 137.369L107.979 143.723V190.238L108.029 236.752L104.164 242.344C102.028 245.394 99.4844 248.749 98.518 249.816L96.7378 251.646L97.9076 252.409C98.5689 252.866 100.044 253.375 101.163 253.527C102.282 253.731 106.656 255.001 110.878 256.374C119.118 259.017 126.289 260.237 130.104 259.678C131.986 259.373 132.596 259.017 133.207 257.899C133.614 257.086 134.478 256.323 135.089 256.12C138.039 255.357 152.281 256.171 152.281 257.086C152.281 257.95 150.093 258.306 143.023 258.712C139.717 258.865 137.022 259.17 137.022 259.373C137.022 259.932 142.26 260.339 154.315 260.644L165.251 261L168.404 257.492C170.083 255.561 172.473 252.511 173.643 250.68C175.83 247.376 188.953 221.145 190.275 217.434C190.682 216.316 191.191 213.063 191.394 210.165C191.75 205.386 191.903 204.827 193.276 203.404C194.09 202.54 196.277 200.862 198.108 199.642C202.635 196.694 207.518 191.864 208.739 189.018C210.214 185.764 210.722 180.681 210.773 169.802C210.773 153.026 209.502 142.148 206.399 133.251C204.11 126.592 199.329 116.527 196.023 111.443C192.971 106.665 192.615 105.089 192.259 95.5826C191.903 87.3473 190.428 74.791 188.902 67.2166C187.274 59.3372 181.832 42.7141 178.577 35.6989C176.695 31.6829 169.015 23.5493 162.606 18.7199C154.62 12.7214 144.956 7.73955 138.242 6.062C134.427 5.09613 127.968 4.74028 124.051 5.1978ZM92.0075 50.6444C92.9739 51.3561 92.923 51.4069 91.3463 52.3219C90.4816 52.8303 89.7186 53.3895 89.7186 53.5928C89.7186 54.0503 93.3299 56.5412 93.9912 56.5412C94.2455 56.5412 95.2119 55.9821 96.1783 55.2195L97.8568 53.9487V56.5412C97.8568 58.1171 98.2637 59.8964 98.874 61.1164C100.909 65.0815 99.6879 65.234 95.3645 61.5739C93.6351 60.1505 90.2273 57.7613 87.7858 56.2871C82.6995 53.237 82.0892 52.0678 84.734 50.7969C86.8194 49.7802 90.7359 49.6785 92.0075 50.6444ZM85.853 57.2529C89.9221 59.9472 94.7033 64.014 95.3645 65.3357C96.0766 66.6574 95.5171 67.0641 94.3981 66.0474C93.1265 64.8782 92.4144 64.9799 90.6342 66.4541C89.3117 67.5725 87.1755 68.1825 87.1755 67.4708C87.1755 67.3691 87.6841 66.1999 88.2945 64.9799C89.8204 61.8281 89.21 61.2181 84.4797 61.0147L80.8684 60.8622L80.4615 59.083C79.902 56.6429 80.3598 55.0162 81.5297 55.0162C82.0892 55.0162 84.022 56.0329 85.853 57.2529ZM130.816 63.099C130.613 65.7932 129.392 66.6574 129.392 64.0648C129.392 63.1498 129.545 61.4723 129.748 60.4047C130.053 58.5238 130.104 58.473 130.511 59.5914C130.765 60.2522 130.918 61.8281 130.816 63.099ZM106.656 70.5209C108.08 71.7409 109.962 72.9101 110.776 73.0627C113.93 73.7235 114.184 73.876 113.879 74.8927C113.675 75.4011 113.726 76.1128 113.879 76.3669C114.336 77.1295 115.659 76.0111 115.659 74.8419C115.659 72.6051 118.812 73.6727 119.423 76.1128C119.626 76.8244 119.982 77.3836 120.287 77.3836C120.949 77.3836 120.644 75.3502 119.677 72.9101C119.016 71.3851 119.067 71.1309 119.881 70.5209C121.152 69.6059 128.426 69.0467 135.19 69.4025C141.345 69.7075 143.939 70.2667 145.719 71.7409C146.838 72.6051 146.838 72.8085 146.228 74.7402C145.363 77.3328 145.719 77.8412 149.127 79.0612C150.5 79.5695 152.382 80.6371 153.349 81.3996L155.078 82.8738L153.705 83.2297C152.637 83.4838 152.281 83.8905 152.281 84.8564C152.281 86.0764 152.179 86.1273 150.399 85.8223C149.33 85.6189 145.363 85.3647 141.599 85.2122C129.748 84.7039 125.577 86.1781 118.406 93.3967C113.167 98.6835 111.386 102.14 110.369 109.156C109.199 117.238 108.436 125.423 108.284 132.54C108.182 136.149 108.08 139.199 108.08 139.301C107.928 139.809 105.486 137.674 98.3145 130.76C89.4643 122.271 88.7522 121.203 89.4135 116.832C89.7186 114.849 90.2781 114.036 93.1774 111.087C96.3309 107.936 96.7378 107.275 97.8059 103.615C98.4163 101.378 99.8404 97.7685 100.959 95.6334C102.028 93.4475 102.943 91.5158 102.943 91.3125C102.943 91.1599 101.875 92.1766 100.603 93.6C99.3318 95.0234 98.1111 96.1926 97.8568 96.1926C97.6533 96.1926 97.7551 95.1251 98.162 93.8034C99.0775 90.8041 99.0775 90.3466 98.1111 91.1091C96.0257 92.8375 96.7378 89.0757 99.1284 85.5681C100.095 84.1955 101.163 82.3146 101.57 81.3488C102.282 79.6204 105.079 76.8753 106.097 76.8753C106.402 76.8753 106.453 77.9937 106.249 80.0271L105.893 83.2297L107.521 81.5521C108.436 80.6371 109.301 80.0271 109.403 80.1287C109.555 80.2812 109.403 81.1963 109.047 82.213C108.691 83.2297 108.538 84.1447 108.64 84.2972C108.945 84.5514 115.659 79.8746 116.625 78.7053C117.592 77.5361 116.574 77.6886 114.896 79.0104L113.472 80.1287L109.199 75.6044C104.215 70.2667 102.638 68.2333 103.452 68.2333C103.808 68.2333 105.232 69.25 106.656 70.5209ZM152.433 90.9058C156.146 92.4308 159.707 94.2101 160.368 94.8201C162.555 96.8535 166.522 102.954 167.234 105.394C167.641 106.766 168.099 111.596 168.302 116.832C168.709 127.355 167.743 235.481 167.183 238.073L166.827 239.802L166.421 238.277C166.166 237.413 165.759 212.605 165.454 183.121C164.895 120.238 164.589 111.646 162.809 106.41C161.232 101.937 158.944 98.2769 156.146 95.8876C154.162 94.1592 143.583 88.5674 142.26 88.5674C141.955 88.5674 141.497 88.3132 141.294 87.9573C140.531 86.7373 145.923 88.1098 152.433 90.9058ZM136.004 88.4149C132.8 88.974 126.951 90.7533 125.476 91.6683C124.56 92.2275 123.39 92.6342 122.932 92.5325C122.169 92.38 122.271 92.1766 123.492 91.3633C126.035 89.6857 131.477 88.059 134.478 88.1607C136.004 88.1607 136.716 88.3132 136.004 88.4149ZM60.4214 90.2449C60.7266 90.7024 60.7774 91.2108 60.574 91.4141C60.1162 91.8716 58.692 90.6516 58.692 89.7366C58.692 88.8215 59.7093 89.1265 60.4214 90.2449ZM96.7378 99.5986C96.6361 100.107 96.2292 100.514 95.8222 100.514C95.4153 100.514 95.0084 100.107 94.9067 99.5986C94.805 98.9886 95.0593 98.7344 95.8222 98.7344C96.5852 98.7344 96.8395 98.9886 96.7378 99.5986ZM132.037 100.564C133.614 101.378 134.682 101.378 140.073 100.463C141.752 100.209 142.057 100.361 144.498 102.954C145.973 104.479 147.805 107.02 148.567 108.596C149.89 111.291 149.89 111.545 149.28 113.578C148.466 116.018 148.364 119.272 148.974 122.474C149.28 124.304 149.178 124.965 148.008 126.897C146.38 129.642 142.82 132.794 141.294 132.794C140.684 132.794 139.514 132.438 138.751 132.031C136.818 131.015 133.919 131.065 131.732 132.082C130.714 132.591 129.494 132.794 128.731 132.591C127.103 132.184 123.187 128.27 121.457 125.372L120.084 123.084L121.05 120.949C122.22 118.357 122.22 114.697 121.05 112.867C119.372 110.274 121.661 105.75 126.747 101.683C129.443 99.4969 129.85 99.4461 132.037 100.564ZM54.8773 107.936C57.1153 108.546 57.6748 109.105 57.6748 110.731C57.6748 111.341 58.1834 112.409 58.7429 113.172C60.6757 115.612 59.2515 115.256 56.6066 112.663C53.8092 109.918 51.7746 107.376 52.4359 107.376C52.6393 107.376 53.7583 107.631 54.8773 107.936ZM58.0817 120.085C59.9128 121.203 60.7266 122.83 60.7266 125.474C60.7266 126.49 61.2352 128.422 61.8456 129.795C62.9137 132.336 62.9137 132.387 61.9473 133.302C61.4387 133.811 57.8782 135.997 54.1143 138.182C44.8064 143.469 41.7546 145.604 37.7364 149.417C34.888 152.162 34.1251 152.62 32.5483 152.62C30.9207 152.62 28.4284 151.654 26.2413 150.179C25.8344 149.874 27.0551 149.824 29.3948 149.976C33.1587 150.179 33.2604 150.179 34.8372 148.604C36.1596 147.282 36.3631 146.723 36.1087 145.503C35.7018 143.418 36.4139 141.893 39.6183 137.725C41.1442 135.742 42.4158 133.963 42.4158 133.709C42.4158 132.133 34.2268 140.724 33.2095 143.317C32.9552 144.028 32.9043 145.503 33.1078 146.672C33.413 148.705 33.3621 148.756 32.4974 148.044C30.1577 146.113 29.4965 141.385 31.3784 139.606C31.9888 138.996 33.0569 137.064 33.7182 135.336C34.3794 133.607 35.1932 132.082 35.4984 131.981C35.9561 131.828 36.0579 130.811 35.9053 128.829C35.651 125.982 35.7018 125.931 36.6682 126.795C37.889 127.914 38.5502 127.914 40.3813 126.897C42.1615 125.829 43.1787 126.185 43.6365 128.066C44.4503 131.218 47.4004 136.759 48.4685 137.115C49.6892 137.471 53.5548 136.352 56.0471 134.827C57.4713 133.963 57.6748 133.556 57.6748 131.625C57.6748 130.405 57.217 127.71 56.6575 125.626C55.6402 121.712 55.3859 119.068 56.0471 119.068C56.2506 119.068 57.1661 119.526 58.0817 120.085ZM82.3943 125.88C83.9711 128.778 84.1237 129.286 83.3607 129.185C82.3943 128.981 80.4107 125.474 79.8003 122.881C79.2408 120.746 80.0546 121.661 82.3943 125.88ZM92.4144 129.286C92.923 131.472 92.1092 133.811 90.8885 133.811C90.3799 133.811 89.3117 133.251 88.4471 132.54C87.0738 131.421 87.0229 131.32 87.9893 131.269C89.3117 131.269 89.973 130.506 90.4307 128.575C90.8885 126.694 91.8549 127.05 92.4144 129.286ZM91.2445 138.742C91.2445 139.86 90.4816 139.504 89.5661 137.928C88.3453 135.844 88.4979 135.488 89.973 136.861C90.6851 137.522 91.2445 138.335 91.2445 138.742ZM92.4653 141.69C92.8213 142.707 92.3127 143.978 91.4989 143.978C90.5833 143.978 90.2781 142.91 90.8376 141.792C91.3971 140.724 92.0584 140.673 92.4653 141.69ZM128.883 145.503C130.409 146.621 131.935 149.824 131.935 152.01C131.935 153.84 129.952 156.991 128.07 158.211C125.069 160.245 120.694 158.923 118.914 155.568C116.931 151.806 118.507 146.265 121.966 144.689C123.899 143.774 127.001 144.181 128.883 145.503ZM50.5539 150.586C49.5875 151.4 47.4004 152.874 45.7219 153.89C42.9753 155.517 42.4158 155.67 40.1269 155.365C38.7536 155.212 37.3803 154.856 37.126 154.653C36.6682 154.195 39.1605 153.382 42.5684 152.874C43.5856 152.721 46.1288 151.705 48.1633 150.637C50.147 149.519 51.9272 148.756 52.0798 148.909C52.2324 149.01 51.5203 149.773 50.5539 150.586ZM32.1414 156.381C32.2431 156.89 32.1414 157.5 31.8871 157.754C30.8698 158.771 28.7336 156.839 29.4965 155.619C30.0051 154.805 31.9888 155.365 32.1414 156.381ZM64.7956 156.89C64.7956 157.042 63.6766 158.466 62.2525 160.042C60.8792 161.617 59.5059 163.752 59.2007 164.769C58.6412 166.803 58.4886 177.02 58.9972 179.511C59.2007 180.426 60.5231 182.46 62.049 184.188C63.5749 185.866 64.7956 187.34 64.7956 187.442C64.7956 188.712 58.5903 183.324 57.4205 181.036C56.8101 179.969 56.6575 177.58 56.6575 171.073L56.7084 162.532L60.3705 159.635C63.7275 156.941 64.7956 156.331 64.7956 156.89ZM47.1461 159.431C47.2987 159.838 47.2987 160.245 47.1461 160.397C46.6883 160.906 45.4676 160.143 45.4676 159.431C45.4676 158.516 46.79 158.516 47.1461 159.431ZM195.413 170.92C195.413 179.918 194.955 183.527 194.344 179.816C193.887 177.173 193.887 166.193 194.344 162.99C194.955 158.516 195.463 162.126 195.413 170.92ZM205.331 161.058C205.789 161.516 205.127 162.787 204.415 162.787C203.703 162.787 203.042 161.516 203.5 161.058C203.703 160.906 204.11 160.753 204.415 160.753C204.721 160.753 205.127 160.906 205.331 161.058ZM31.2259 163.752C31.2259 164.312 31.0224 164.922 30.7172 165.074C30.412 165.278 30.2086 164.82 30.2086 164.108C30.2086 163.397 30.4629 162.787 30.7172 162.787C31.0224 162.787 31.2259 163.244 31.2259 163.752ZM44.2469 170.666C44.6538 172.344 44.0943 174.58 43.2805 174.326C42.6192 174.123 42.1615 171.276 42.6192 170.107C43.0261 168.988 43.8908 169.293 44.2469 170.666ZM207.569 171.225C207.722 171.683 207.467 172.852 207.009 173.818C206.297 175.292 206.043 175.495 205.433 174.987C204.466 174.174 204.466 172.954 205.484 171.53C206.399 170.209 207.111 170.107 207.569 171.225ZM151.823 173.919C152.942 175.038 153.298 175.902 153.298 177.376C153.298 179.766 151.212 183.121 149.686 183.121C145.007 183.121 143.43 175.241 147.703 173.106C149.585 172.14 150.144 172.293 151.823 173.919ZM32.2431 185.917C32.2431 186.73 31.9379 187.187 31.4802 187.187C30.7172 187.187 30.412 185.612 31.0733 185.002C31.7345 184.29 32.2431 184.697 32.2431 185.917ZM151.619 187.442C153.349 188.662 154.01 191.305 153.094 193.44C151.823 196.49 148.974 197.1 146.686 194.813C145.211 193.338 145.261 189.424 146.787 187.848C148.059 186.527 150.043 186.323 151.619 187.442ZM161.182 200.15C159.91 202.387 158.893 203.099 158.893 201.777C158.893 200.71 162.097 196.541 162.351 197.253C162.453 197.609 161.945 198.88 161.182 200.15ZM69.3733 201.421C69.3733 202.031 67.9492 202.692 67.5423 202.285C67.0845 201.828 67.8474 200.913 68.6612 200.913C69.0682 200.913 69.3733 201.167 69.3733 201.421ZM67.0336 205.59C66.6776 206.861 65.762 208.182 65.5077 207.877C65.406 207.776 65.5586 206.962 65.8638 206.098C66.4741 204.268 67.5931 203.811 67.0336 205.59ZM76.4433 208.233C76.8502 208.742 76.9011 209.047 76.4942 209.301C75.833 209.707 74.9683 209.148 74.9683 208.233C74.9683 207.318 75.6804 207.318 76.4433 208.233ZM85.5987 221.349C88.854 225.72 92.2618 233.346 92.2618 236.345C92.2618 238.429 91.0411 237.362 90.3799 234.718C90.0238 233.397 88.8031 230.651 87.6333 228.669C84.1746 222.772 83.2081 221.044 82.8521 219.824C82.2926 217.892 83.4625 218.553 85.5987 221.349ZM144.041 223.382C143.685 224.348 142.108 224.5 142.108 223.585C142.108 223.077 142.566 222.772 143.176 222.772C143.786 222.772 144.142 223.026 144.041 223.382ZM150.449 231.922C151.263 232.227 151.772 232.787 151.772 233.447C151.772 234.464 151.721 234.464 150.144 233.6C147.652 232.278 133.003 232.278 131.579 233.549C130.511 234.515 129.392 234.769 129.392 234.057C129.392 233.295 131.121 232.024 132.444 231.77C134.987 231.312 149.178 231.414 150.449 231.922ZM119.219 240.056C119.626 240.818 119.575 241.479 118.965 242.801C117.948 244.936 113.777 250.07 111.997 251.392C110.267 252.663 108.029 252.256 108.029 250.63C108.029 249.41 112.912 242.801 115.506 240.513C117.541 238.785 118.456 238.633 119.219 240.056ZM155.485 240.513C155.994 240.869 156.35 241.784 156.35 242.547C156.35 244.58 154.264 248.342 152.738 249.054C152.026 249.41 147.652 250.02 143.023 250.477C138.344 250.884 133.919 251.494 133.156 251.748C132.342 252.053 130.511 253.324 129.087 254.595C126.239 256.984 125.17 257.289 123.39 256.018C120.287 253.883 120.084 250.274 122.78 244.784C125.323 239.598 125.679 239.497 141.65 239.649C151.772 239.751 154.875 239.954 155.485 240.513Z"/>
</mask>
<path d="M124.051 5.1978C122.373 5.40114 120.389 5.80782 119.626 6.11283C117.287 7.0787 104.011 7.84123 93.5334 7.63788C84.5306 7.43454 83.0556 7.33287 80.5633 6.31617C76.8502 4.84195 75.4261 4.89279 69.5259 6.77369C57.6748 10.5355 49.9436 16.6357 42.1106 28.4803C36.007 37.6306 28.0723 53.5928 26.4447 59.998C25.0714 65.1324 24.6645 72.1476 24.6136 87.9573V102.903L21.6636 107.02C12.1521 120.238 6.76061 134.929 5.23472 151.501C4.014 165.278 7.57443 181.545 15.4582 197.659C17.5945 202.082 18.3574 203.15 20.8497 205.132C27.6654 210.521 36.1087 214.384 47.0952 217.129C56.4541 219.468 61.9982 221.552 66.0164 224.246C67.6948 225.365 73.1881 230.499 78.2235 235.633C85.1918 242.75 87.8876 245.19 89.3626 245.648C90.9394 246.156 91.2445 246.461 91.2445 247.63C91.2445 249.155 92.6179 250.731 93.9403 250.731C95.0593 250.731 95.4662 246.868 95.5171 236.192L95.5679 227.449L93.9403 225.517C89.4135 220.129 88.4471 216.367 90.5833 212.3C91.1428 211.232 92.3635 208.945 93.2282 207.318C94.8558 204.268 95.2627 201.777 94.2455 201.116C93.4317 200.608 92.0584 202.641 91.0411 205.793C90.5833 207.267 89.973 208.64 89.7186 208.792C89.0066 209.25 87.6841 206.251 87.1755 203.099C86.8703 201.269 85.9548 199.032 84.6323 196.846C82.0892 192.627 80.8684 187.442 81.3262 182.612C81.6822 179.054 81.6314 179.054 79.2917 182.358C78.6305 183.324 78.5796 183.324 78.5796 182.002C78.5287 180.223 80.3089 176.207 83.259 171.429C85.5987 167.718 86.1074 166.345 85.141 166.345C84.3271 166.345 79.7494 171.225 79.0882 172.903C77.8675 175.8 76.3416 174.53 73.7984 168.531C72.3743 165.074 71.5096 160.855 69.9328 148.553C68.763 139.911 67.7457 136.047 63.8292 125.524C62.4051 121.61 61.2352 118.153 61.2352 117.747C61.2352 117.188 61.5912 117.086 62.6085 117.34C63.931 117.696 63.931 117.696 63.6258 115.307C62.7611 109.054 68 115.866 70.7975 124.66C72.4251 129.845 72.5777 131.015 71.713 132.743C71.2553 133.556 70.8992 135.234 70.8992 136.454C70.9501 138.589 70.9501 138.64 71.8148 137.572C72.2725 137.013 73.0355 135.997 73.4933 135.336C74.3071 134.065 74.3071 134.065 77.2063 139.86C80.2581 145.859 83.6151 155.11 83.6151 157.347C83.6151 158.059 83.8185 159.228 84.0728 159.889C84.4797 160.906 84.7849 161.058 86.2091 160.855C87.9893 160.601 87.9384 160.397 86.8703 163.803C86.5143 165.023 87.5315 165.176 88.9048 164.159C89.6678 163.6 89.8712 162.532 90.0747 158.872C90.3799 153.89 90.8885 152.315 91.7532 153.636C92.7704 155.212 91.8549 163.397 90.3799 165.888C89.6169 167.158 89.6169 167.413 90.4307 169.344C91.1428 171.225 91.1428 171.632 90.5325 172.903C89.8204 174.224 89.8712 174.428 91.0411 176.055C92.0584 177.478 92.3635 178.8 92.7704 183.375C93.2791 188.662 93.4825 189.678 93.9912 189.17C94.1438 189.018 94.4489 176.105 94.6524 160.397C94.8558 144.689 95.2627 131.676 95.4662 131.472C95.6697 131.218 98.6197 133.912 101.926 137.369L107.979 143.723V190.238L108.029 236.752L104.164 242.344C102.028 245.394 99.4844 248.749 98.518 249.816L96.7378 251.646L97.9076 252.409C98.5689 252.866 100.044 253.375 101.163 253.527C102.282 253.731 106.656 255.001 110.878 256.374C119.118 259.017 126.289 260.237 130.104 259.678C131.986 259.373 132.596 259.017 133.207 257.899C133.614 257.086 134.478 256.323 135.089 256.12C138.039 255.357 152.281 256.171 152.281 257.086C152.281 257.95 150.093 258.306 143.023 258.712C139.717 258.865 137.022 259.17 137.022 259.373C137.022 259.932 142.26 260.339 154.315 260.644L165.251 261L168.404 257.492C170.083 255.561 172.473 252.511 173.643 250.68C175.83 247.376 188.953 221.145 190.275 217.434C190.682 216.316 191.191 213.063 191.394 210.165C191.75 205.386 191.903 204.827 193.276 203.404C194.09 202.54 196.277 200.862 198.108 199.642C202.635 196.694 207.518 191.864 208.739 189.018C210.214 185.764 210.722 180.681 210.773 169.802C210.773 153.026 209.502 142.148 206.399 133.251C204.11 126.592 199.329 116.527 196.023 111.443C192.971 106.665 192.615 105.089 192.259 95.5826C191.903 87.3473 190.428 74.791 188.902 67.2166C187.274 59.3372 181.832 42.7141 178.577 35.6989C176.695 31.6829 169.015 23.5493 162.606 18.7199C154.62 12.7214 144.956 7.73955 138.242 6.062C134.427 5.09613 127.968 4.74028 124.051 5.1978ZM92.0075 50.6444C92.9739 51.3561 92.923 51.4069 91.3463 52.3219C90.4816 52.8303 89.7186 53.3895 89.7186 53.5928C89.7186 54.0503 93.3299 56.5412 93.9912 56.5412C94.2455 56.5412 95.2119 55.9821 96.1783 55.2195L97.8568 53.9487V56.5412C97.8568 58.1171 98.2637 59.8964 98.874 61.1164C100.909 65.0815 99.6879 65.234 95.3645 61.5739C93.6351 60.1505 90.2273 57.7613 87.7858 56.2871C82.6995 53.237 82.0892 52.0678 84.734 50.7969C86.8194 49.7802 90.7359 49.6785 92.0075 50.6444ZM85.853 57.2529C89.9221 59.9472 94.7033 64.014 95.3645 65.3357C96.0766 66.6574 95.5171 67.0641 94.3981 66.0474C93.1265 64.8782 92.4144 64.9799 90.6342 66.4541C89.3117 67.5725 87.1755 68.1825 87.1755 67.4708C87.1755 67.3691 87.6841 66.1999 88.2945 64.9799C89.8204 61.8281 89.21 61.2181 84.4797 61.0147L80.8684 60.8622L80.4615 59.083C79.902 56.6429 80.3598 55.0162 81.5297 55.0162C82.0892 55.0162 84.022 56.0329 85.853 57.2529ZM130.816 63.099C130.613 65.7932 129.392 66.6574 129.392 64.0648C129.392 63.1498 129.545 61.4723 129.748 60.4047C130.053 58.5238 130.104 58.473 130.511 59.5914C130.765 60.2522 130.918 61.8281 130.816 63.099ZM106.656 70.5209C108.08 71.7409 109.962 72.9101 110.776 73.0627C113.93 73.7235 114.184 73.876 113.879 74.8927C113.675 75.4011 113.726 76.1128 113.879 76.3669C114.336 77.1295 115.659 76.0111 115.659 74.8419C115.659 72.6051 118.812 73.6727 119.423 76.1128C119.626 76.8244 119.982 77.3836 120.287 77.3836C120.949 77.3836 120.644 75.3502 119.677 72.9101C119.016 71.3851 119.067 71.1309 119.881 70.5209C121.152 69.6059 128.426 69.0467 135.19 69.4025C141.345 69.7075 143.939 70.2667 145.719 71.7409C146.838 72.6051 146.838 72.8085 146.228 74.7402C145.363 77.3328 145.719 77.8412 149.127 79.0612C150.5 79.5695 152.382 80.6371 153.349 81.3996L155.078 82.8738L153.705 83.2297C152.637 83.4838 152.281 83.8905 152.281 84.8564C152.281 86.0764 152.179 86.1273 150.399 85.8223C149.33 85.6189 145.363 85.3647 141.599 85.2122C129.748 84.7039 125.577 86.1781 118.406 93.3967C113.167 98.6835 111.386 102.14 110.369 109.156C109.199 117.238 108.436 125.423 108.284 132.54C108.182 136.149 108.08 139.199 108.08 139.301C107.928 139.809 105.486 137.674 98.3145 130.76C89.4643 122.271 88.7522 121.203 89.4135 116.832C89.7186 114.849 90.2781 114.036 93.1774 111.087C96.3309 107.936 96.7378 107.275 97.8059 103.615C98.4163 101.378 99.8404 97.7685 100.959 95.6334C102.028 93.4475 102.943 91.5158 102.943 91.3125C102.943 91.1599 101.875 92.1766 100.603 93.6C99.3318 95.0234 98.1111 96.1926 97.8568 96.1926C97.6533 96.1926 97.7551 95.1251 98.162 93.8034C99.0775 90.8041 99.0775 90.3466 98.1111 91.1091C96.0257 92.8375 96.7378 89.0757 99.1284 85.5681C100.095 84.1955 101.163 82.3146 101.57 81.3488C102.282 79.6204 105.079 76.8753 106.097 76.8753C106.402 76.8753 106.453 77.9937 106.249 80.0271L105.893 83.2297L107.521 81.5521C108.436 80.6371 109.301 80.0271 109.403 80.1287C109.555 80.2812 109.403 81.1963 109.047 82.213C108.691 83.2297 108.538 84.1447 108.64 84.2972C108.945 84.5514 115.659 79.8746 116.625 78.7053C117.592 77.5361 116.574 77.6886 114.896 79.0104L113.472 80.1287L109.199 75.6044C104.215 70.2667 102.638 68.2333 103.452 68.2333C103.808 68.2333 105.232 69.25 106.656 70.5209ZM152.433 90.9058C156.146 92.4308 159.707 94.2101 160.368 94.8201C162.555 96.8535 166.522 102.954 167.234 105.394C167.641 106.766 168.099 111.596 168.302 116.832C168.709 127.355 167.743 235.481 167.183 238.073L166.827 239.802L166.421 238.277C166.166 237.413 165.759 212.605 165.454 183.121C164.895 120.238 164.589 111.646 162.809 106.41C161.232 101.937 158.944 98.2769 156.146 95.8876C154.162 94.1592 143.583 88.5674 142.26 88.5674C141.955 88.5674 141.497 88.3132 141.294 87.9573C140.531 86.7373 145.923 88.1098 152.433 90.9058ZM136.004 88.4149C132.8 88.974 126.951 90.7533 125.476 91.6683C124.56 92.2275 123.39 92.6342 122.932 92.5325C122.169 92.38 122.271 92.1766 123.492 91.3633C126.035 89.6857 131.477 88.059 134.478 88.1607C136.004 88.1607 136.716 88.3132 136.004 88.4149ZM60.4214 90.2449C60.7266 90.7024 60.7774 91.2108 60.574 91.4141C60.1162 91.8716 58.692 90.6516 58.692 89.7366C58.692 88.8215 59.7093 89.1265 60.4214 90.2449ZM96.7378 99.5986C96.6361 100.107 96.2292 100.514 95.8222 100.514C95.4153 100.514 95.0084 100.107 94.9067 99.5986C94.805 98.9886 95.0593 98.7344 95.8222 98.7344C96.5852 98.7344 96.8395 98.9886 96.7378 99.5986ZM132.037 100.564C133.614 101.378 134.682 101.378 140.073 100.463C141.752 100.209 142.057 100.361 144.498 102.954C145.973 104.479 147.805 107.02 148.567 108.596C149.89 111.291 149.89 111.545 149.28 113.578C148.466 116.018 148.364 119.272 148.974 122.474C149.28 124.304 149.178 124.965 148.008 126.897C146.38 129.642 142.82 132.794 141.294 132.794C140.684 132.794 139.514 132.438 138.751 132.031C136.818 131.015 133.919 131.065 131.732 132.082C130.714 132.591 129.494 132.794 128.731 132.591C127.103 132.184 123.187 128.27 121.457 125.372L120.084 123.084L121.05 120.949C122.22 118.357 122.22 114.697 121.05 112.867C119.372 110.274 121.661 105.75 126.747 101.683C129.443 99.4969 129.85 99.4461 132.037 100.564ZM54.8773 107.936C57.1153 108.546 57.6748 109.105 57.6748 110.731C57.6748 111.341 58.1834 112.409 58.7429 113.172C60.6757 115.612 59.2515 115.256 56.6066 112.663C53.8092 109.918 51.7746 107.376 52.4359 107.376C52.6393 107.376 53.7583 107.631 54.8773 107.936ZM58.0817 120.085C59.9128 121.203 60.7266 122.83 60.7266 125.474C60.7266 126.49 61.2352 128.422 61.8456 129.795C62.9137 132.336 62.9137 132.387 61.9473 133.302C61.4387 133.811 57.8782 135.997 54.1143 138.182C44.8064 143.469 41.7546 145.604 37.7364 149.417C34.888 152.162 34.1251 152.62 32.5483 152.62C30.9207 152.62 28.4284 151.654 26.2413 150.179C25.8344 149.874 27.0551 149.824 29.3948 149.976C33.1587 150.179 33.2604 150.179 34.8372 148.604C36.1596 147.282 36.3631 146.723 36.1087 145.503C35.7018 143.418 36.4139 141.893 39.6183 137.725C41.1442 135.742 42.4158 133.963 42.4158 133.709C42.4158 132.133 34.2268 140.724 33.2095 143.317C32.9552 144.028 32.9043 145.503 33.1078 146.672C33.413 148.705 33.3621 148.756 32.4974 148.044C30.1577 146.113 29.4965 141.385 31.3784 139.606C31.9888 138.996 33.0569 137.064 33.7182 135.336C34.3794 133.607 35.1932 132.082 35.4984 131.981C35.9561 131.828 36.0579 130.811 35.9053 128.829C35.651 125.982 35.7018 125.931 36.6682 126.795C37.889 127.914 38.5502 127.914 40.3813 126.897C42.1615 125.829 43.1787 126.185 43.6365 128.066C44.4503 131.218 47.4004 136.759 48.4685 137.115C49.6892 137.471 53.5548 136.352 56.0471 134.827C57.4713 133.963 57.6748 133.556 57.6748 131.625C57.6748 130.405 57.217 127.71 56.6575 125.626C55.6402 121.712 55.3859 119.068 56.0471 119.068C56.2506 119.068 57.1661 119.526 58.0817 120.085ZM82.3943 125.88C83.9711 128.778 84.1237 129.286 83.3607 129.185C82.3943 128.981 80.4107 125.474 79.8003 122.881C79.2408 120.746 80.0546 121.661 82.3943 125.88ZM92.4144 129.286C92.923 131.472 92.1092 133.811 90.8885 133.811C90.3799 133.811 89.3117 133.251 88.4471 132.54C87.0738 131.421 87.0229 131.32 87.9893 131.269C89.3117 131.269 89.973 130.506 90.4307 128.575C90.8885 126.694 91.8549 127.05 92.4144 129.286ZM91.2445 138.742C91.2445 139.86 90.4816 139.504 89.5661 137.928C88.3453 135.844 88.4979 135.488 89.973 136.861C90.6851 137.522 91.2445 138.335 91.2445 138.742ZM92.4653 141.69C92.8213 142.707 92.3127 143.978 91.4989 143.978C90.5833 143.978 90.2781 142.91 90.8376 141.792C91.3971 140.724 92.0584 140.673 92.4653 141.69ZM128.883 145.503C130.409 146.621 131.935 149.824 131.935 152.01C131.935 153.84 129.952 156.991 128.07 158.211C125.069 160.245 120.694 158.923 118.914 155.568C116.931 151.806 118.507 146.265 121.966 144.689C123.899 143.774 127.001 144.181 128.883 145.503ZM50.5539 150.586C49.5875 151.4 47.4004 152.874 45.7219 153.89C42.9753 155.517 42.4158 155.67 40.1269 155.365C38.7536 155.212 37.3803 154.856 37.126 154.653C36.6682 154.195 39.1605 153.382 42.5684 152.874C43.5856 152.721 46.1288 151.705 48.1633 150.637C50.147 149.519 51.9272 148.756 52.0798 148.909C52.2324 149.01 51.5203 149.773 50.5539 150.586ZM32.1414 156.381C32.2431 156.89 32.1414 157.5 31.8871 157.754C30.8698 158.771 28.7336 156.839 29.4965 155.619C30.0051 154.805 31.9888 155.365 32.1414 156.381ZM64.7956 156.89C64.7956 157.042 63.6766 158.466 62.2525 160.042C60.8792 161.617 59.5059 163.752 59.2007 164.769C58.6412 166.803 58.4886 177.02 58.9972 179.511C59.2007 180.426 60.5231 182.46 62.049 184.188C63.5749 185.866 64.7956 187.34 64.7956 187.442C64.7956 188.712 58.5903 183.324 57.4205 181.036C56.8101 179.969 56.6575 177.58 56.6575 171.073L56.7084 162.532L60.3705 159.635C63.7275 156.941 64.7956 156.331 64.7956 156.89ZM47.1461 159.431C47.2987 159.838 47.2987 160.245 47.1461 160.397C46.6883 160.906 45.4676 160.143 45.4676 159.431C45.4676 158.516 46.79 158.516 47.1461 159.431ZM195.413 170.92C195.413 179.918 194.955 183.527 194.344 179.816C193.887 177.173 193.887 166.193 194.344 162.99C194.955 158.516 195.463 162.126 195.413 170.92ZM205.331 161.058C205.789 161.516 205.127 162.787 204.415 162.787C203.703 162.787 203.042 161.516 203.5 161.058C203.703 160.906 204.11 160.753 204.415 160.753C204.721 160.753 205.127 160.906 205.331 161.058ZM31.2259 163.752C31.2259 164.312 31.0224 164.922 30.7172 165.074C30.412 165.278 30.2086 164.82 30.2086 164.108C30.2086 163.397 30.4629 162.787 30.7172 162.787C31.0224 162.787 31.2259 163.244 31.2259 163.752ZM44.2469 170.666C44.6538 172.344 44.0943 174.58 43.2805 174.326C42.6192 174.123 42.1615 171.276 42.6192 170.107C43.0261 168.988 43.8908 169.293 44.2469 170.666ZM207.569 171.225C207.722 171.683 207.467 172.852 207.009 173.818C206.297 175.292 206.043 175.495 205.433 174.987C204.466 174.174 204.466 172.954 205.484 171.53C206.399 170.209 207.111 170.107 207.569 171.225ZM151.823 173.919C152.942 175.038 153.298 175.902 153.298 177.376C153.298 179.766 151.212 183.121 149.686 183.121C145.007 183.121 143.43 175.241 147.703 173.106C149.585 172.14 150.144 172.293 151.823 173.919ZM32.2431 185.917C32.2431 186.73 31.9379 187.187 31.4802 187.187C30.7172 187.187 30.412 185.612 31.0733 185.002C31.7345 184.29 32.2431 184.697 32.2431 185.917ZM151.619 187.442C153.349 188.662 154.01 191.305 153.094 193.44C151.823 196.49 148.974 197.1 146.686 194.813C145.211 193.338 145.261 189.424 146.787 187.848C148.059 186.527 150.043 186.323 151.619 187.442ZM161.182 200.15C159.91 202.387 158.893 203.099 158.893 201.777C158.893 200.71 162.097 196.541 162.351 197.253C162.453 197.609 161.945 198.88 161.182 200.15ZM69.3733 201.421C69.3733 202.031 67.9492 202.692 67.5423 202.285C67.0845 201.828 67.8474 200.913 68.6612 200.913C69.0682 200.913 69.3733 201.167 69.3733 201.421ZM67.0336 205.59C66.6776 206.861 65.762 208.182 65.5077 207.877C65.406 207.776 65.5586 206.962 65.8638 206.098C66.4741 204.268 67.5931 203.811 67.0336 205.59ZM76.4433 208.233C76.8502 208.742 76.9011 209.047 76.4942 209.301C75.833 209.707 74.9683 209.148 74.9683 208.233C74.9683 207.318 75.6804 207.318 76.4433 208.233ZM85.5987 221.349C88.854 225.72 92.2618 233.346 92.2618 236.345C92.2618 238.429 91.0411 237.362 90.3799 234.718C90.0238 233.397 88.8031 230.651 87.6333 228.669C84.1746 222.772 83.2081 221.044 82.8521 219.824C82.2926 217.892 83.4625 218.553 85.5987 221.349ZM144.041 223.382C143.685 224.348 142.108 224.5 142.108 223.585C142.108 223.077 142.566 222.772 143.176 222.772C143.786 222.772 144.142 223.026 144.041 223.382ZM150.449 231.922C151.263 232.227 151.772 232.787 151.772 233.447C151.772 234.464 151.721 234.464 150.144 233.6C147.652 232.278 133.003 232.278 131.579 233.549C130.511 234.515 129.392 234.769 129.392 234.057C129.392 233.295 131.121 232.024 132.444 231.77C134.987 231.312 149.178 231.414 150.449 231.922ZM119.219 240.056C119.626 240.818 119.575 241.479 118.965 242.801C117.948 244.936 113.777 250.07 111.997 251.392C110.267 252.663 108.029 252.256 108.029 250.63C108.029 249.41 112.912 242.801 115.506 240.513C117.541 238.785 118.456 238.633 119.219 240.056ZM155.485 240.513C155.994 240.869 156.35 241.784 156.35 242.547C156.35 244.58 154.264 248.342 152.738 249.054C152.026 249.41 147.652 250.02 143.023 250.477C138.344 250.884 133.919 251.494 133.156 251.748C132.342 252.053 130.511 253.324 129.087 254.595C126.239 256.984 125.17 257.289 123.39 256.018C120.287 253.883 120.084 250.274 122.78 244.784C125.323 239.598 125.679 239.497 141.65 239.649C151.772 239.751 154.875 239.954 155.485 240.513Z" fill="black"/>
<path d="M124.051 5.1978C122.373 5.40114 120.389 5.80782 119.626 6.11283C117.287 7.0787 104.011 7.84123 93.5334 7.63788C84.5306 7.43454 83.0556 7.33287 80.5633 6.31617C76.8502 4.84195 75.4261 4.89279 69.5259 6.77369C57.6748 10.5355 49.9436 16.6357 42.1106 28.4803C36.007 37.6306 28.0723 53.5928 26.4447 59.998C25.0714 65.1324 24.6645 72.1476 24.6136 87.9573V102.903L21.6636 107.02C12.1521 120.238 6.76061 134.929 5.23472 151.501C4.014 165.278 7.57443 181.545 15.4582 197.659C17.5945 202.082 18.3574 203.15 20.8497 205.132C27.6654 210.521 36.1087 214.384 47.0952 217.129C56.4541 219.468 61.9982 221.552 66.0164 224.246C67.6948 225.365 73.1881 230.499 78.2235 235.633C85.1918 242.75 87.8876 245.19 89.3626 245.648C90.9394 246.156 91.2445 246.461 91.2445 247.63C91.2445 249.155 92.6179 250.731 93.9403 250.731C95.0593 250.731 95.4662 246.868 95.5171 236.192L95.5679 227.449L93.9403 225.517C89.4135 220.129 88.4471 216.367 90.5833 212.3C91.1428 211.232 92.3635 208.945 93.2282 207.318C94.8558 204.268 95.2627 201.777 94.2455 201.116C93.4317 200.608 92.0584 202.641 91.0411 205.793C90.5833 207.267 89.973 208.64 89.7186 208.792C89.0066 209.25 87.6841 206.251 87.1755 203.099C86.8703 201.269 85.9548 199.032 84.6323 196.846C82.0892 192.627 80.8684 187.442 81.3262 182.612C81.6822 179.054 81.6314 179.054 79.2917 182.358C78.6305 183.324 78.5796 183.324 78.5796 182.002C78.5287 180.223 80.3089 176.207 83.259 171.429C85.5987 167.718 86.1074 166.345 85.141 166.345C84.3271 166.345 79.7494 171.225 79.0882 172.903C77.8675 175.8 76.3416 174.53 73.7984 168.531C72.3743 165.074 71.5096 160.855 69.9328 148.553C68.763 139.911 67.7457 136.047 63.8292 125.524C62.4051 121.61 61.2352 118.153 61.2352 117.747C61.2352 117.188 61.5912 117.086 62.6085 117.34C63.931 117.696 63.931 117.696 63.6258 115.307C62.7611 109.054 68 115.866 70.7975 124.66C72.4251 129.845 72.5777 131.015 71.713 132.743C71.2553 133.556 70.8992 135.234 70.8992 136.454C70.9501 138.589 70.9501 138.64 71.8148 137.572C72.2725 137.013 73.0355 135.997 73.4933 135.336C74.3071 134.065 74.3071 134.065 77.2063 139.86C80.2581 145.859 83.6151 155.11 83.6151 157.347C83.6151 158.059 83.8185 159.228 84.0728 159.889C84.4797 160.906 84.7849 161.058 86.2091 160.855C87.9893 160.601 87.9384 160.397 86.8703 163.803C86.5143 165.023 87.5315 165.176 88.9048 164.159C89.6678 163.6 89.8712 162.532 90.0747 158.872C90.3799 153.89 90.8885 152.315 91.7532 153.636C92.7704 155.212 91.8549 163.397 90.3799 165.888C89.6169 167.158 89.6169 167.413 90.4307 169.344C91.1428 171.225 91.1428 171.632 90.5325 172.903C89.8204 174.224 89.8712 174.428 91.0411 176.055C92.0584 177.478 92.3635 178.8 92.7704 183.375C93.2791 188.662 93.4825 189.678 93.9912 189.17C94.1438 189.018 94.4489 176.105 94.6524 160.397C94.8558 144.689 95.2627 131.676 95.4662 131.472C95.6697 131.218 98.6197 133.912 101.926 137.369L107.979 143.723V190.238L108.029 236.752L104.164 242.344C102.028 245.394 99.4844 248.749 98.518 249.816L96.7378 251.646L97.9076 252.409C98.5689 252.866 100.044 253.375 101.163 253.527C102.282 253.731 106.656 255.001 110.878 256.374C119.118 259.017 126.289 260.237 130.104 259.678C131.986 259.373 132.596 259.017 133.207 257.899C133.614 257.086 134.478 256.323 135.089 256.12C138.039 255.357 152.281 256.171 152.281 257.086C152.281 257.95 150.093 258.306 143.023 258.712C139.717 258.865 137.022 259.17 137.022 259.373C137.022 259.932 142.26 260.339 154.315 260.644L165.251 261L168.404 257.492C170.083 255.561 172.473 252.511 173.643 250.68C175.83 247.376 188.953 221.145 190.275 217.434C190.682 216.316 191.191 213.063 191.394 210.165C191.75 205.386 191.903 204.827 193.276 203.404C194.09 202.54 196.277 200.862 198.108 199.642C202.635 196.694 207.518 191.864 208.739 189.018C210.214 185.764 210.722 180.681 210.773 169.802C210.773 153.026 209.502 142.148 206.399 133.251C204.11 126.592 199.329 116.527 196.023 111.443C192.971 106.665 192.615 105.089 192.259 95.5826C191.903 87.3473 190.428 74.791 188.902 67.2166C187.274 59.3372 181.832 42.7141 178.577 35.6989C176.695 31.6829 169.015 23.5493 162.606 18.7199C154.62 12.7214 144.956 7.73955 138.242 6.062C134.427 5.09613 127.968 4.74028 124.051 5.1978ZM92.0075 50.6444C92.9739 51.3561 92.923 51.4069 91.3463 52.3219C90.4816 52.8303 89.7186 53.3895 89.7186 53.5928C89.7186 54.0503 93.3299 56.5412 93.9912 56.5412C94.2455 56.5412 95.2119 55.9821 96.1783 55.2195L97.8568 53.9487V56.5412C97.8568 58.1171 98.2637 59.8964 98.874 61.1164C100.909 65.0815 99.6879 65.234 95.3645 61.5739C93.6351 60.1505 90.2273 57.7613 87.7858 56.2871C82.6995 53.237 82.0892 52.0678 84.734 50.7969C86.8194 49.7802 90.7359 49.6785 92.0075 50.6444ZM85.853 57.2529C89.9221 59.9472 94.7033 64.014 95.3645 65.3357C96.0766 66.6574 95.5171 67.0641 94.3981 66.0474C93.1265 64.8782 92.4144 64.9799 90.6342 66.4541C89.3117 67.5725 87.1755 68.1825 87.1755 67.4708C87.1755 67.3691 87.6841 66.1999 88.2945 64.9799C89.8204 61.8281 89.21 61.2181 84.4797 61.0147L80.8684 60.8622L80.4615 59.083C79.902 56.6429 80.3598 55.0162 81.5297 55.0162C82.0892 55.0162 84.022 56.0329 85.853 57.2529ZM130.816 63.099C130.613 65.7932 129.392 66.6574 129.392 64.0648C129.392 63.1498 129.545 61.4723 129.748 60.4047C130.053 58.5238 130.104 58.473 130.511 59.5914C130.765 60.2522 130.918 61.8281 130.816 63.099ZM106.656 70.5209C108.08 71.7409 109.962 72.9101 110.776 73.0627C113.93 73.7235 114.184 73.876 113.879 74.8927C113.675 75.4011 113.726 76.1128 113.879 76.3669C114.336 77.1295 115.659 76.0111 115.659 74.8419C115.659 72.6051 118.812 73.6727 119.423 76.1128C119.626 76.8244 119.982 77.3836 120.287 77.3836C120.949 77.3836 120.644 75.3502 119.677 72.9101C119.016 71.3851 119.067 71.1309 119.881 70.5209C121.152 69.6059 128.426 69.0467 135.19 69.4025C141.345 69.7075 143.939 70.2667 145.719 71.7409C146.838 72.6051 146.838 72.8085 146.228 74.7402C145.363 77.3328 145.719 77.8412 149.127 79.0612C150.5 79.5695 152.382 80.6371 153.349 81.3996L155.078 82.8738L153.705 83.2297C152.637 83.4838 152.281 83.8905 152.281 84.8564C152.281 86.0764 152.179 86.1273 150.399 85.8223C149.33 85.6189 145.363 85.3647 141.599 85.2122C129.748 84.7039 125.577 86.1781 118.406 93.3967C113.167 98.6835 111.386 102.14 110.369 109.156C109.199 117.238 108.436 125.423 108.284 132.54C108.182 136.149 108.08 139.199 108.08 139.301C107.928 139.809 105.486 137.674 98.3145 130.76C89.4643 122.271 88.7522 121.203 89.4135 116.832C89.7186 114.849 90.2781 114.036 93.1774 111.087C96.3309 107.936 96.7378 107.275 97.8059 103.615C98.4163 101.378 99.8404 97.7685 100.959 95.6334C102.028 93.4475 102.943 91.5158 102.943 91.3125C102.943 91.1599 101.875 92.1766 100.603 93.6C99.3318 95.0234 98.1111 96.1926 97.8568 96.1926C97.6533 96.1926 97.7551 95.1251 98.162 93.8034C99.0775 90.8041 99.0775 90.3466 98.1111 91.1091C96.0257 92.8375 96.7378 89.0757 99.1284 85.5681C100.095 84.1955 101.163 82.3146 101.57 81.3488C102.282 79.6204 105.079 76.8753 106.097 76.8753C106.402 76.8753 106.453 77.9937 106.249 80.0271L105.893 83.2297L107.521 81.5521C108.436 80.6371 109.301 80.0271 109.403 80.1287C109.555 80.2812 109.403 81.1963 109.047 82.213C108.691 83.2297 108.538 84.1447 108.64 84.2972C108.945 84.5514 115.659 79.8746 116.625 78.7053C117.592 77.5361 116.574 77.6886 114.896 79.0104L113.472 80.1287L109.199 75.6044C104.215 70.2667 102.638 68.2333 103.452 68.2333C103.808 68.2333 105.232 69.25 106.656 70.5209ZM152.433 90.9058C156.146 92.4308 159.707 94.2101 160.368 94.8201C162.555 96.8535 166.522 102.954 167.234 105.394C167.641 106.766 168.099 111.596 168.302 116.832C168.709 127.355 167.743 235.481 167.183 238.073L166.827 239.802L166.421 238.277C166.166 237.413 165.759 212.605 165.454 183.121C164.895 120.238 164.589 111.646 162.809 106.41C161.232 101.937 158.944 98.2769 156.146 95.8876C154.162 94.1592 143.583 88.5674 142.26 88.5674C141.955 88.5674 141.497 88.3132 141.294 87.9573C140.531 86.7373 145.923 88.1098 152.433 90.9058ZM136.004 88.4149C132.8 88.974 126.951 90.7533 125.476 91.6683C124.56 92.2275 123.39 92.6342 122.932 92.5325C122.169 92.38 122.271 92.1766 123.492 91.3633C126.035 89.6857 131.477 88.059 134.478 88.1607C136.004 88.1607 136.716 88.3132 136.004 88.4149ZM60.4214 90.2449C60.7266 90.7024 60.7774 91.2108 60.574 91.4141C60.1162 91.8716 58.692 90.6516 58.692 89.7366C58.692 88.8215 59.7093 89.1265 60.4214 90.2449ZM96.7378 99.5986C96.6361 100.107 96.2292 100.514 95.8222 100.514C95.4153 100.514 95.0084 100.107 94.9067 99.5986C94.805 98.9886 95.0593 98.7344 95.8222 98.7344C96.5852 98.7344 96.8395 98.9886 96.7378 99.5986ZM132.037 100.564C133.614 101.378 134.682 101.378 140.073 100.463C141.752 100.209 142.057 100.361 144.498 102.954C145.973 104.479 147.805 107.02 148.567 108.596C149.89 111.291 149.89 111.545 149.28 113.578C148.466 116.018 148.364 119.272 148.974 122.474C149.28 124.304 149.178 124.965 148.008 126.897C146.38 129.642 142.82 132.794 141.294 132.794C140.684 132.794 139.514 132.438 138.751 132.031C136.818 131.015 133.919 131.065 131.732 132.082C130.714 132.591 129.494 132.794 128.731 132.591C127.103 132.184 123.187 128.27 121.457 125.372L120.084 123.084L121.05 120.949C122.22 118.357 122.22 114.697 121.05 112.867C119.372 110.274 121.661 105.75 126.747 101.683C129.443 99.4969 129.85 99.4461 132.037 100.564ZM54.8773 107.936C57.1153 108.546 57.6748 109.105 57.6748 110.731C57.6748 111.341 58.1834 112.409 58.7429 113.172C60.6757 115.612 59.2515 115.256 56.6066 112.663C53.8092 109.918 51.7746 107.376 52.4359 107.376C52.6393 107.376 53.7583 107.631 54.8773 107.936ZM58.0817 120.085C59.9128 121.203 60.7266 122.83 60.7266 125.474C60.7266 126.49 61.2352 128.422 61.8456 129.795C62.9137 132.336 62.9137 132.387 61.9473 133.302C61.4387 133.811 57.8782 135.997 54.1143 138.182C44.8064 143.469 41.7546 145.604 37.7364 149.417C34.888 152.162 34.1251 152.62 32.5483 152.62C30.9207 152.62 28.4284 151.654 26.2413 150.179C25.8344 149.874 27.0551 149.824 29.3948 149.976C33.1587 150.179 33.2604 150.179 34.8372 148.604C36.1596 147.282 36.3631 146.723 36.1087 145.503C35.7018 143.418 36.4139 141.893 39.6183 137.725C41.1442 135.742 42.4158 133.963 42.4158 133.709C42.4158 132.133 34.2268 140.724 33.2095 143.317C32.9552 144.028 32.9043 145.503 33.1078 146.672C33.413 148.705 33.3621 148.756 32.4974 148.044C30.1577 146.113 29.4965 141.385 31.3784 139.606C31.9888 138.996 33.0569 137.064 33.7182 135.336C34.3794 133.607 35.1932 132.082 35.4984 131.981C35.9561 131.828 36.0579 130.811 35.9053 128.829C35.651 125.982 35.7018 125.931 36.6682 126.795C37.889 127.914 38.5502 127.914 40.3813 126.897C42.1615 125.829 43.1787 126.185 43.6365 128.066C44.4503 131.218 47.4004 136.759 48.4685 137.115C49.6892 137.471 53.5548 136.352 56.0471 134.827C57.4713 133.963 57.6748 133.556 57.6748 131.625C57.6748 130.405 57.217 127.71 56.6575 125.626C55.6402 121.712 55.3859 119.068 56.0471 119.068C56.2506 119.068 57.1661 119.526 58.0817 120.085ZM82.3943 125.88C83.9711 128.778 84.1237 129.286 83.3607 129.185C82.3943 128.981 80.4107 125.474 79.8003 122.881C79.2408 120.746 80.0546 121.661 82.3943 125.88ZM92.4144 129.286C92.923 131.472 92.1092 133.811 90.8885 133.811C90.3799 133.811 89.3117 133.251 88.4471 132.54C87.0738 131.421 87.0229 131.32 87.9893 131.269C89.3117 131.269 89.973 130.506 90.4307 128.575C90.8885 126.694 91.8549 127.05 92.4144 129.286ZM91.2445 138.742C91.2445 139.86 90.4816 139.504 89.5661 137.928C88.3453 135.844 88.4979 135.488 89.973 136.861C90.6851 137.522 91.2445 138.335 91.2445 138.742ZM92.4653 141.69C92.8213 142.707 92.3127 143.978 91.4989 143.978C90.5833 143.978 90.2781 142.91 90.8376 141.792C91.3971 140.724 92.0584 140.673 92.4653 141.69ZM128.883 145.503C130.409 146.621 131.935 149.824 131.935 152.01C131.935 153.84 129.952 156.991 128.07 158.211C125.069 160.245 120.694 158.923 118.914 155.568C116.931 151.806 118.507 146.265 121.966 144.689C123.899 143.774 127.001 144.181 128.883 145.503ZM50.5539 150.586C49.5875 151.4 47.4004 152.874 45.7219 153.89C42.9753 155.517 42.4158 155.67 40.1269 155.365C38.7536 155.212 37.3803 154.856 37.126 154.653C36.6682 154.195 39.1605 153.382 42.5684 152.874C43.5856 152.721 46.1288 151.705 48.1633 150.637C50.147 149.519 51.9272 148.756 52.0798 148.909C52.2324 149.01 51.5203 149.773 50.5539 150.586ZM32.1414 156.381C32.2431 156.89 32.1414 157.5 31.8871 157.754C30.8698 158.771 28.7336 156.839 29.4965 155.619C30.0051 154.805 31.9888 155.365 32.1414 156.381ZM64.7956 156.89C64.7956 157.042 63.6766 158.466 62.2525 160.042C60.8792 161.617 59.5059 163.752 59.2007 164.769C58.6412 166.803 58.4886 177.02 58.9972 179.511C59.2007 180.426 60.5231 182.46 62.049 184.188C63.5749 185.866 64.7956 187.34 64.7956 187.442C64.7956 188.712 58.5903 183.324 57.4205 181.036C56.8101 179.969 56.6575 177.58 56.6575 171.073L56.7084 162.532L60.3705 159.635C63.7275 156.941 64.7956 156.331 64.7956 156.89ZM47.1461 159.431C47.2987 159.838 47.2987 160.245 47.1461 160.397C46.6883 160.906 45.4676 160.143 45.4676 159.431C45.4676 158.516 46.79 158.516 47.1461 159.431ZM195.413 170.92C195.413 179.918 194.955 183.527 194.344 179.816C193.887 177.173 193.887 166.193 194.344 162.99C194.955 158.516 195.463 162.126 195.413 170.92ZM205.331 161.058C205.789 161.516 205.127 162.787 204.415 162.787C203.703 162.787 203.042 161.516 203.5 161.058C203.703 160.906 204.11 160.753 204.415 160.753C204.721 160.753 205.127 160.906 205.331 161.058ZM31.2259 163.752C31.2259 164.312 31.0224 164.922 30.7172 165.074C30.412 165.278 30.2086 164.82 30.2086 164.108C30.2086 163.397 30.4629 162.787 30.7172 162.787C31.0224 162.787 31.2259 163.244 31.2259 163.752ZM44.2469 170.666C44.6538 172.344 44.0943 174.58 43.2805 174.326C42.6192 174.123 42.1615 171.276 42.6192 170.107C43.0261 168.988 43.8908 169.293 44.2469 170.666ZM207.569 171.225C207.722 171.683 207.467 172.852 207.009 173.818C206.297 175.292 206.043 175.495 205.433 174.987C204.466 174.174 204.466 172.954 205.484 171.53C206.399 170.209 207.111 170.107 207.569 171.225ZM151.823 173.919C152.942 175.038 153.298 175.902 153.298 177.376C153.298 179.766 151.212 183.121 149.686 183.121C145.007 183.121 143.43 175.241 147.703 173.106C149.585 172.14 150.144 172.293 151.823 173.919ZM32.2431 185.917C32.2431 186.73 31.9379 187.187 31.4802 187.187C30.7172 187.187 30.412 185.612 31.0733 185.002C31.7345 184.29 32.2431 184.697 32.2431 185.917ZM151.619 187.442C153.349 188.662 154.01 191.305 153.094 193.44C151.823 196.49 148.974 197.1 146.686 194.813C145.211 193.338 145.261 189.424 146.787 187.848C148.059 186.527 150.043 186.323 151.619 187.442ZM161.182 200.15C159.91 202.387 158.893 203.099 158.893 201.777C158.893 200.71 162.097 196.541 162.351 197.253C162.453 197.609 161.945 198.88 161.182 200.15ZM69.3733 201.421C69.3733 202.031 67.9492 202.692 67.5423 202.285C67.0845 201.828 67.8474 200.913 68.6612 200.913C69.0682 200.913 69.3733 201.167 69.3733 201.421ZM67.0336 205.59C66.6776 206.861 65.762 208.182 65.5077 207.877C65.406 207.776 65.5586 206.962 65.8638 206.098C66.4741 204.268 67.5931 203.811 67.0336 205.59ZM76.4433 208.233C76.8502 208.742 76.9011 209.047 76.4942 209.301C75.833 209.707 74.9683 209.148 74.9683 208.233C74.9683 207.318 75.6804 207.318 76.4433 208.233ZM85.5987 221.349C88.854 225.72 92.2618 233.346 92.2618 236.345C92.2618 238.429 91.0411 237.362 90.3799 234.718C90.0238 233.397 88.8031 230.651 87.6333 228.669C84.1746 222.772 83.2081 221.044 82.8521 219.824C82.2926 217.892 83.4625 218.553 85.5987 221.349ZM144.041 223.382C143.685 224.348 142.108 224.5 142.108 223.585C142.108 223.077 142.566 222.772 143.176 222.772C143.786 222.772 144.142 223.026 144.041 223.382ZM150.449 231.922C151.263 232.227 151.772 232.787 151.772 233.447C151.772 234.464 151.721 234.464 150.144 233.6C147.652 232.278 133.003 232.278 131.579 233.549C130.511 234.515 129.392 234.769 129.392 234.057C129.392 233.295 131.121 232.024 132.444 231.77C134.987 231.312 149.178 231.414 150.449 231.922ZM119.219 240.056C119.626 240.818 119.575 241.479 118.965 242.801C117.948 244.936 113.777 250.07 111.997 251.392C110.267 252.663 108.029 252.256 108.029 250.63C108.029 249.41 112.912 242.801 115.506 240.513C117.541 238.785 118.456 238.633 119.219 240.056ZM155.485 240.513C155.994 240.869 156.35 241.784 156.35 242.547C156.35 244.58 154.264 248.342 152.738 249.054C152.026 249.41 147.652 250.02 143.023 250.477C138.344 250.884 133.919 251.494 133.156 251.748C132.342 252.053 130.511 253.324 129.087 254.595C126.239 256.984 125.17 257.289 123.39 256.018C120.287 253.883 120.084 250.274 122.78 244.784C125.323 239.598 125.679 239.497 141.65 239.649C151.772 239.751 154.875 239.954 155.485 240.513Z" stroke="white" stroke-width="10" mask="url(#path-1-outside-1_118_2)"/>
<path d="M92.0802 121.503C92.0728 121.524 92.0697 121.536 92.07 121.537C92.0703 121.538 92.0739 121.527 92.0802 121.503ZM95.2847 115.678C95.2846 115.677 95.282 115.682 95.2774 115.693C95.2825 115.683 95.2848 115.678 95.2847 115.678ZM96.8891 114.368L96.901 114.406L96.9116 114.445C97.2443 115.664 97.3173 117.65 97.2854 119.209C97.2684 120.04 97.2186 120.875 97.1313 121.585C97.088 121.937 97.0304 122.3 96.9507 122.635C96.8905 122.888 96.7569 123.408 96.4424 123.889C96.1415 124.354 95.3258 125.391 93.8622 125.383C92.4429 125.376 91.6463 124.379 91.3836 124.004C90.776 123.137 90.4595 121.931 90.2811 120.976C90.082 119.909 89.9737 118.686 89.9951 117.504C90.0157 116.364 90.1596 115.071 90.5869 113.959C90.7665 113.483 91.0546 112.9 91.5432 112.415C92.0769 111.884 93.0011 111.354 94.1679 111.562C95.2087 111.747 95.8492 112.424 96.1711 112.868C96.5163 113.345 96.7389 113.88 96.8891 114.368Z" fill="black" stroke="white" stroke-width="5"/>
<path d="M130.615 104.837L130.615 104.837L130.625 104.833C132.107 104.183 134.016 103.937 135.669 103.93C137.282 103.923 139.19 104.14 140.58 104.835L140.606 104.848L140.632 104.862C142.897 106.06 144.812 108.161 146.074 110.733C146.849 112.261 147.16 114.34 147.195 116.122C147.229 117.859 147.015 119.97 146.21 121.488C146.205 121.5 146.199 121.512 146.193 121.524C146.045 121.818 145.873 122.164 145.724 122.412C145.722 122.414 145.72 122.418 145.717 122.422C145.667 122.506 145.437 122.895 145.052 123.213C144.88 123.355 144.152 123.929 143.071 123.776C141.841 123.602 141.294 122.681 141.135 122.349C140.964 121.989 140.914 121.667 140.897 121.545C140.875 121.387 140.868 121.245 140.866 121.146C140.86 120.948 140.868 120.739 140.878 120.557C140.897 120.193 140.938 119.697 140.986 119.11L140.989 119.068L140.991 119.049L140.993 119.029C141.507 113.761 137.946 109.876 134.58 109.876C134.576 109.876 134.572 109.876 134.568 109.876C134.384 109.876 134.211 109.876 133.633 110.199C132.913 110.603 131.849 111.354 129.91 112.807C129.39 113.224 128.797 113.605 128.207 113.832C127.97 113.924 127.393 114.131 126.7 114.054C126.313 114.012 125.672 113.855 125.118 113.304C124.523 112.713 124.349 111.988 124.349 111.443C124.349 110.712 124.629 110.134 124.778 109.858C124.958 109.523 125.178 109.216 125.385 108.958C125.803 108.435 126.334 107.898 126.879 107.406C127.937 106.454 129.357 105.396 130.615 104.837Z" fill="black" stroke="white" stroke-width="5"/>
<path d="M78.5278 163.23L78.5278 163.23L78.5324 163.218C79.0589 161.837 80.3427 160.808 81.8858 160.808C82.6638 160.808 83.5157 161.088 84.1733 161.761C84.8396 162.443 85.0978 163.313 85.0978 164.108C85.0978 165.216 84.6733 166.327 84.2524 167.09C84.0283 167.495 83.7282 167.945 83.3473 168.331C83.0715 168.61 82.2778 169.354 81.0719 169.354C79.567 169.354 78.7817 168.27 78.5039 167.715C78.2169 167.141 78.1258 166.547 78.0951 166.117C78.0309 165.218 78.1745 164.172 78.5278 163.23ZM83.0863 165.795C83.0866 165.795 83.0859 165.788 83.0837 165.776C83.085 165.789 83.0861 165.796 83.0863 165.795ZM82.1111 165.793C82.4776 165.745 82.7489 165.582 82.9337 165.399C82.8558 165.262 82.716 165.059 82.4818 164.863C82.3945 165.179 82.264 165.502 82.1111 165.793ZM80.7791 164.373C80.6903 164.668 80.6319 164.971 80.6026 165.261C80.6005 165.259 80.5985 165.257 80.5964 165.255C80.3706 165.024 80.2417 164.776 80.1718 164.556C80.3107 164.488 80.5165 164.41 80.7791 164.373Z" fill="black" stroke="white" stroke-width="5"/>
<path d="M94.2964 198.625L94.4014 198.836C94.3669 198.837 94.3319 198.838 94.2964 198.838C93.0374 198.838 92.5055 197.901 92.4293 197.749C92.4137 197.718 92.4001 197.688 92.3882 197.66C92.306 197.464 92.305 197.337 92.305 197.304C92.305 197.301 92.305 197.299 92.3051 197.298C92.3046 197.301 92.3046 197.301 92.3048 197.3C92.3051 197.298 92.3052 197.297 92.3051 197.297C92.3051 197.297 92.3051 197.297 92.3051 197.298C92.3062 197.293 92.31 197.278 92.3194 197.252C92.3304 197.223 92.3696 197.122 92.4656 196.987C92.5315 196.894 92.6723 196.717 92.9122 196.548C92.9479 196.523 92.9859 196.498 93.0261 196.473C93.0742 196.446 93.1259 196.419 93.1808 196.393C93.4735 196.256 93.8598 196.15 94.2964 196.176C94.5308 196.19 94.7798 196.242 95.0366 196.347C95.6982 196.619 96.0138 197.093 96.1301 197.304C96.144 197.329 96.155 197.35 96.1634 197.367C96.2219 197.484 96.2548 197.581 96.2727 197.648C96.2725 197.649 96.2722 197.649 96.2719 197.65C96.2709 197.653 96.2697 197.656 96.2681 197.66C96.2472 197.711 96.1719 197.883 95.9933 198.088C95.8438 198.259 95.3254 198.784 94.4353 198.834L94.2964 198.625ZM94.2964 198.625C94.0227 198.808 93.8309 198.459 93.7941 197.872C93.7899 197.804 93.7877 197.733 93.7877 197.66C93.7877 197.642 93.7879 197.625 93.7882 197.608C93.7899 197.504 93.7972 197.402 93.809 197.304C93.8753 196.756 94.0858 196.338 94.2964 196.338C94.6015 196.338 94.805 196.795 94.805 197.304C94.805 197.422 94.7959 197.542 94.7788 197.66C94.7146 198.1 94.5372 198.505 94.2964 198.625ZM96.2928 197.753C96.2933 197.753 96.2926 197.742 96.2894 197.723C96.2906 197.744 96.2923 197.754 96.2928 197.753ZM97.0108 198.982C96.8674 199.371 96.4763 200.276 95.5257 200.803C94.9467 201.134 94.0765 201.358 93.1397 200.973C92.2754 200.619 91.8601 199.941 91.6918 199.604C91.3454 198.912 91.2877 198.159 91.2877 197.66C91.2877 197.035 91.3949 196.387 91.6215 195.813C91.731 195.536 91.9149 195.157 92.2259 194.801C92.5022 194.484 93.1939 193.838 94.2964 193.838C95.8605 193.838 96.6467 195.003 96.9009 195.512C97.2019 196.113 97.305 196.757 97.305 197.304C97.305 197.859 97.2085 198.445 97.0108 198.982Z" fill="black" stroke="white" stroke-width="5"/>
<path d="M90.4496 212.373L90.4566 212.352L90.4639 212.332C90.6694 211.75 90.9353 211.189 91.2203 210.731C91.3574 210.511 91.5449 210.24 91.7821 209.99C91.8989 209.867 92.0854 209.688 92.3392 209.524C92.5569 209.382 93.0707 209.088 93.7876 209.088C94.5666 209.088 95.1323 209.432 95.444 209.693C95.7446 209.944 95.9271 210.211 96.0221 210.365C96.2126 210.675 96.3201 210.98 96.3767 211.155C96.5013 211.541 96.5931 211.989 96.664 212.402C96.8114 213.26 96.9348 214.367 97.0237 215.489C97.1132 216.62 97.1723 217.822 97.1816 218.879C97.1902 219.855 97.1618 220.945 96.9952 221.719C96.884 222.242 96.7361 222.755 96.5295 223.216C96.3417 223.636 96.002 224.25 95.3796 224.711C94.6146 225.277 93.5787 225.478 92.5838 225.08C91.7856 224.76 91.3097 224.169 91.065 223.806C90.5528 223.044 90.2522 222.066 90.0685 221.154C89.8722 220.18 89.7617 219.037 89.7617 217.79C89.7617 216.047 90.0217 213.656 90.4496 212.373ZM91.966 221.173C91.9667 221.171 91.9675 221.169 91.9684 221.167C91.9571 221.189 91.9571 221.193 91.966 221.173ZM91.6188 212.693C91.6151 212.681 91.6155 212.684 91.6207 212.699C91.62 212.696 91.6194 212.694 91.6188 212.693ZM95.4864 213.341C95.4864 213.341 95.4851 213.342 95.4826 213.346C95.4852 213.343 95.4865 213.341 95.4864 213.341Z" fill="black" stroke="white" stroke-width="5"/>
</svg>
