<svg viewBox="0 0 512 276" xmlns="http://www.w3.org/2000/svg">
<path fill-rule="evenodd" clip-rule="evenodd" d="M334.025 203.17C333.952 205.076 329.466 207.622 327.998 208.553C321.238 212.829 311.525 215.666 305.187 209.328C299.056 203.201 300.782 191.756 307.396 187.703C310.724 185.686 315.034 184.746 319.558 184.363C323.173 184.06 330.567 183.408 333.952 183.795L334.025 203.17ZM288.309 144.077L290.954 154.506C295.414 153.42 298.094 151.849 304.811 150.522C310.042 149.514 315.731 148.935 321.33 149.651C326.974 150.377 330.122 152.489 332.058 156.676C333.039 158.785 333.572 161.277 333.845 163.88L333.779 172.316C333.411 172.511 316.909 173.554 314.543 173.854C298.075 175.966 281.499 184.915 284.075 205.609C285.678 218.484 292.619 224.347 305.625 225.919C312.756 226.781 317.469 225.96 323.37 223.461C325.862 222.406 328.177 221.195 330.279 219.865C333.097 218.116 335.563 215.593 336.126 215.271L337.87 224.117H351.233C351.482 221.414 351.283 188.32 351.283 184.643C351.283 178.04 351.283 171.457 351.283 164.855C351.283 158.463 350.8 153.42 347.805 148.674C338.753 134.261 319.067 134.943 302.806 138.866C299.167 139.74 290.533 142.121 288.309 144.077" />
<path fill-rule="evenodd" clip-rule="evenodd" d="M494.665 204.263C493.511 204.915 492.303 206.081 490.981 207.043C487.215 209.758 482.533 212.268 477.568 212.886C462.841 214.704 459.378 199.524 464.11 191.694C469.167 183.336 485.202 183.795 494.711 183.757L494.665 204.263ZM449.033 144.077C449.126 145.702 451.135 153.279 451.798 154.464C454.279 153.961 459.734 151.664 465.705 150.495C474.371 148.778 488.61 147.343 492.779 156.683C494.477 160.502 495.708 171.062 494.507 172.269C493.761 172.818 486.528 172.872 484.868 172.983C475.306 173.585 467.396 174.309 459.102 178.677C450.302 183.286 442.987 191.38 444.801 205.663C446.449 218.638 453.386 224.304 466.357 225.919C475.889 227.115 483.384 224.65 491.019 219.853C494.343 217.763 495.746 215.949 496.877 215.202L498.556 224.093L512 224.109V164.855C512 158.175 511.478 153.521 508.438 148.536C499.68 134.187 479.462 135.146 463.569 138.858C459.846 139.721 451.353 142.09 449.033 144.077Z" />
<path fill-rule="evenodd" clip-rule="evenodd" d="M388.56 224.282L409.985 224.285C410.695 224.113 412.202 220.658 412.616 219.83C413.425 218.166 414.061 216.659 414.821 215.002C416.262 211.866 417.593 208.366 418.846 205.019C424.019 191.165 428.201 176.047 431.764 161.595C432.638 158.033 436.76 140.849 436.76 138.391L420.744 138.379C417.247 138.337 418.666 137.896 417.727 145.027C416.76 152.424 415.207 159.82 413.425 166.79C412.113 171.879 403.038 204.236 401.228 206.322L396.654 188.991C394.936 183.224 393.364 177.672 391.561 172.013L383.656 146.875C382.755 144.046 381.896 141.016 380.852 138.425L361.923 138.379C362.003 140.051 374.357 178.677 375.194 181.403C377.459 188.757 379.649 195.509 381.88 202.74C384.046 209.865 386.593 217.223 388.56 224.282" />
<path fill-rule="evenodd" clip-rule="evenodd" d="M252.424 136.565L252.436 210.927C252.436 224.753 247.922 240.512 234.055 245.044C234.864 246.728 240.841 252.855 242.428 255.228C247.129 254.396 254.035 250.09 256.631 247.625C260.606 243.871 263.052 240.949 265.994 234.941C271.868 222.967 270.932 210.279 270.932 195.916C270.932 166.569 271.085 137.19 270.924 107.843C268.762 107.456 256.066 107.709 252.424 107.717V136.565" />
<path fill-rule="evenodd" clip-rule="evenodd" d="M100.974 149.391L95.1505 140.925C93.2374 138.145 91.3655 135.054 89.583 131.968C86.3202 126.29 82.4018 119.077 80.6026 111.915C77.3173 98.798 85.4192 90.6657 92.5699 82.0691C93.6506 80.7577 94.9168 79.5347 96.0859 78.3038C103.57 70.4208 113.823 60.9801 121.806 53.2119C129.92 45.271 134.808 36.4987 135.755 23.6539C136.265 16.9478 134.973 2.5884 130.234 0C131.644 10.065 131.971 16.9017 127.895 27.0167C123.175 38.7612 115.491 45.7854 106.573 52.729C99.2838 58.4034 87.3548 68.6373 81.0669 74.5611C76.9992 78.4226 70.1165 85.3279 67.268 92.0644C63.0541 102.026 67.2326 108.548 71.7459 115.511C73.8965 118.832 76.0825 121.666 78.3793 124.637C81.0551 128.107 83.4364 130.5 85.5801 133.214C87.8387 136.09 90.6333 138.735 93.099 141.473C94.6361 143.164 99.4566 148.325 100.974 149.391" />
<path fill-rule="evenodd" clip-rule="evenodd" d="M187.426 235.758C190.282 240.362 187.46 242.315 183.557 244.143C166.21 252.264 107.551 253.786 89.2337 254.051C70.5573 254.327 51.7387 253.583 33.6984 250.419C30.7772 249.918 17.9246 247.866 17.3268 244.457C16.9312 242.311 19.2055 240.696 20.3785 239.968C24.5276 237.387 32.1308 235.608 37.3606 234.657C38.8713 234.388 42.5257 233.994 43.6564 233.533C34.9185 232.246 7.2274 236.923 1.16914 245.535C-2.65015 250.956 3.74969 253.472 8.00873 254.864C23.971 260.074 57.1874 261.129 74.7104 261.385C100.898 261.739 163.917 261.478 187.012 245.608C188.362 244.692 191.011 242.759 191.283 240.884C191.612 238.549 188.844 236.355 187.426 235.758" />
<path fill-rule="evenodd" clip-rule="evenodd" d="M111.856 160.054C114.64 159.099 122.853 152.366 125.065 150.104C127.968 147.09 132.911 141.519 133.34 135.074C133.716 129.223 129.681 121.604 127.217 117.869C119.425 106.056 113.199 99.2928 123.747 86.1948C127.274 81.8346 131.097 78.4148 135.568 74.7222C140.92 70.2982 149.681 64.2547 155.954 60.3176L163.101 55.7239C159.317 56.2225 149.298 60.2332 145.345 61.7056C140.034 63.707 133.911 66.7508 129.272 69.4237C113.352 78.6298 97.689 93.0314 104.096 112.946C108.428 126.42 121.051 134.491 120.142 144.586C119.59 150.771 113.647 156.96 111.856 160.054"/>
<path fill-rule="evenodd" clip-rule="evenodd" d="M145.096 225.938C140.207 224.086 136.526 221.939 132.147 219.339C129.613 217.824 130.59 217.947 127.343 218.753C114.099 222.015 92.6202 222.058 78.7133 221.636C75.1355 221.525 65.0783 221.214 63.0464 217.844C61.7537 215.724 63.5137 214.175 64.2008 212.966C55.0859 214.803 45.8032 222.376 58.4792 228.679C72.7434 235.757 102.72 235.834 118.328 233.058C122.772 232.268 142.968 227.663 145.096 225.938Z" />
<path fill-rule="evenodd" clip-rule="evenodd" d="M149.313 196.195C145.544 195.248 142.162 192.894 139.85 190.869C137.833 189.141 138.523 189.57 134.19 190.295C118.597 192.894 72.1788 197.434 58.8893 191.955C57.1677 191.241 55.1819 190.175 55.0592 188.147C54.9179 185.74 56.9576 184.44 57.8165 183.125C47.1262 184.448 36.8737 194.75 51.183 199.669C67.321 205.198 102.128 205.383 119.291 203.22C124.942 202.495 144.988 198.596 149.313 196.195Z" />
<path fill-rule="evenodd" clip-rule="evenodd" d="M160.049 161.166C158.017 161.25 155.298 161.883 153.247 162.212C150.866 162.566 148.6 162.914 146.223 163.228C131.936 165.23 116.097 166.844 101.795 167.68C90.6294 168.335 48.5141 169.727 42.2301 163.865C41.7658 161.231 44.7832 159.575 46.6354 158.562C53.8549 154.69 61.5357 153.382 68.6481 151.158C58.8206 150.234 34.1125 157.304 25.1793 162.888C15.5167 168.911 31.6203 171.311 37.6442 172.151C72.9003 177.063 105.867 174.428 140.732 169.475C146.418 168.669 147.634 168.995 151.506 166.534C154.179 164.831 157.679 163.041 160.049 161.166" />
<path fill-rule="evenodd" clip-rule="evenodd" d="M38.2039 267.337C48.047 271.47 69.4836 273.989 80.6106 274.89C96.251 276.175 113.421 275.871 129.057 274.767C149.298 273.333 173.304 271.014 191.114 261.972C195.347 259.81 202.981 254.653 203.713 249.699C202.44 250.278 201.34 251.436 200.148 252.237C168.738 273.862 96.9489 271.8 59.8907 269.157L38.2039 267.337" />
<path fill-rule="evenodd" clip-rule="evenodd" d="M167.166 152.73C174.861 150.326 183.615 151.925 188.488 156.258C193.756 160.955 193.817 169.862 190.017 176.763C184.934 185.965 174.262 194.175 165.428 199.719C163.914 200.674 162.449 201.395 161.134 202.368C166.832 201.767 180.344 195.662 185.486 192.488C192.046 188.435 199.37 182.519 202.391 174.854C206.704 163.972 200.432 155.667 193.748 151.737C189.907 149.49 185.267 148.144 179.864 148.367C175.732 148.536 169.029 150.18 167.166 152.73" />
</svg>
