<svg width="344" height="512" viewBox="0 0 344 512" fill="none" xmlns="http://www.w3.org/2000/svg">
<g clip-path="url(#clip0)">
<path d="M187.187 194.249C198.053 213.072 184.471 236.599 162.739 236.599H28.2726C6.54076 236.599 -7.04164 213.07 3.82429 194.249L71.0574 77.787C81.9232 58.9646 109.088 58.9646 119.954 77.787L187.187 194.249Z" fill="#00CD81"/>
<path d="M223.866 350.549C234.732 331.728 261.897 331.728 272.763 350.549L339.996 467C350.862 485.82 337.28 509.346 315.548 509.346H181.081C159.349 509.346 145.767 485.82 156.633 467L223.866 350.549Z" fill="#003E27"/>
<path d="M272.763 158.797C261.897 177.618 234.732 177.618 223.866 158.797L156.633 42.3458C145.767 23.5252 159.349 0 181.081 0H315.548C337.28 0 350.862 23.5252 339.996 42.3458L272.763 158.797Z" fill="#99EBCD"/>
<path d="M162.739 280.15C184.471 280.15 198.053 303.678 187.187 322.5L119.954 438.962C109.088 457.785 81.9232 457.785 71.0574 438.962L3.82429 322.5C-7.04164 303.678 6.54076 280.15 28.2726 280.15H162.739Z" fill="#007B4D"/>
</g>
<defs>
<clipPath id="clip0">
<rect width="343.149" height="512" fill="white"/>
</clipPath>
</defs>
</svg>
