<svg viewBox="0 0 512 133" xmlns="http://www.w3.org/2000/svg">
<path d="M240.64 38.3999C237.909 38.3146 235.69 40.4479 235.605 43.0933C235.605 43.1786 235.605 43.3493 235.605 43.4346V67.6693C223.914 58.2826 206.762 60.1599 197.376 71.8506C193.536 76.7146 191.402 82.6879 191.402 88.9173C191.146 103.936 203.093 116.309 218.112 116.565C233.13 116.821 245.504 104.875 245.76 89.8559C245.76 89.5146 245.76 89.2586 245.76 88.9173V43.4346C245.76 42.0693 245.248 40.7893 244.309 39.8506C243.285 38.9119 242.005 38.3999 240.64 38.3999ZM234.24 95.4879C232.533 99.5839 229.29 102.827 225.194 104.619C220.928 106.411 216.149 106.411 211.882 104.619C207.786 102.912 204.629 99.5839 202.922 95.5733C201.13 91.3919 201.13 86.6133 202.922 82.3466C204.629 78.2506 207.872 75.0079 211.882 73.3013C216.149 71.5093 220.928 71.5093 225.194 73.3013C229.29 75.0933 232.533 78.3359 234.24 82.4319C236.032 86.5279 236.032 91.3066 234.24 95.4879Z" />
<path d="M297.387 69.7172C286.806 59.1359 269.568 59.1359 258.987 69.7172C253.867 74.8372 251.051 81.7492 251.051 88.9172C250.795 103.936 262.742 116.309 277.76 116.565C292.779 116.821 305.152 104.875 305.408 89.8559C305.408 89.5146 305.408 89.2586 305.408 88.9172C305.408 85.3332 304.726 81.8346 303.36 78.5066C301.995 75.1786 299.947 72.1919 297.387 69.7172ZM293.888 95.4026C293.035 97.4506 291.755 99.2426 290.219 100.779C288.683 102.315 286.806 103.595 284.843 104.448C280.576 106.24 275.798 106.24 271.531 104.448C267.435 102.741 264.192 99.4132 262.486 95.4026C260.694 91.2212 260.694 86.4426 262.486 82.1759C264.192 78.0799 267.435 74.9226 271.531 73.1306C275.798 71.3386 280.576 71.3386 284.843 73.1306C286.891 73.9839 288.683 75.2639 290.219 76.7999C291.755 78.3359 293.035 80.2132 293.888 82.1759C295.68 86.5279 295.68 91.3066 293.888 95.4026Z" />
<path d="M409.771 66.7306C409.771 66.0479 409.6 65.3652 409.344 64.7679C409.088 64.1706 408.661 63.6586 408.235 63.1466C407.808 62.7199 407.211 62.2932 406.613 62.0372C406.016 61.7812 405.333 61.6106 404.651 61.6106C403.712 61.6106 402.773 61.8666 401.92 62.3786L372.907 81.2372V43.5199C372.907 42.1546 372.395 40.8746 371.456 39.9359C370.517 38.9972 369.237 38.3999 367.872 38.3999C365.056 38.3999 362.837 40.6186 362.752 43.4346C362.752 43.4346 362.752 43.4346 362.752 43.5199V110.933C362.752 112.299 363.264 113.579 364.203 114.517C365.141 115.541 366.421 116.053 367.787 116.053C369.152 116.053 370.432 115.541 371.371 114.517C372.309 113.579 372.907 112.299 372.821 110.933V93.4399L378.709 89.5999L401.152 114.773C402.091 115.627 403.285 116.139 404.565 116.053C405.248 116.053 405.931 115.968 406.528 115.627C407.125 115.371 407.637 115.029 408.149 114.517C408.576 114.005 409.003 113.493 409.259 112.896C409.515 112.299 409.685 111.616 409.685 110.933C409.685 109.653 409.173 108.373 408.32 107.435L387.499 83.9679L407.808 70.7412C409.173 69.8879 409.856 68.3519 409.771 66.7306Z" />
<path d="M325.547 76.7998C327.083 75.2638 328.96 73.9838 331.008 73.1305C333.142 72.2772 335.36 71.7652 337.664 71.7652C339.712 71.7652 341.675 72.1065 343.552 72.7891C345.43 73.5571 347.222 74.5812 348.758 75.9465C349.696 76.7145 350.891 77.0558 352.086 77.0558C353.451 77.1411 354.816 76.6292 355.755 75.6052C356.694 74.6665 357.206 73.3011 357.206 71.9358C357.206 70.4851 356.608 69.0345 355.414 68.0958C350.55 63.7438 344.235 61.3545 337.664 61.5252C322.646 61.5252 310.443 73.7278 310.443 88.7465C310.443 103.765 322.56 115.882 337.494 115.968C344.064 115.968 350.379 113.664 355.328 109.397C356.352 108.458 356.95 107.093 356.95 105.642C357.035 102.912 354.902 100.693 352.256 100.608C352.171 100.608 352 100.608 351.915 100.608C350.72 100.608 349.611 100.949 348.672 101.632C347.136 102.997 345.43 104.021 343.552 104.789C341.675 105.472 339.627 105.813 337.664 105.813C335.36 105.813 333.142 105.386 331.008 104.448C328.96 103.594 327.168 102.314 325.547 100.778C318.891 94.1225 318.891 83.3705 325.462 76.7145C325.547 76.8851 325.547 76.8852 325.547 76.7998Z" />
<path d="M510.549 65.1092C509.525 64.1706 508.416 63.4879 507.136 63.0612C505.685 62.5492 504.149 62.2079 502.613 62.0373C501.077 61.8666 499.541 61.7812 498.005 61.7812C494.933 61.7812 491.776 62.2932 488.875 63.4026C485.973 64.4266 483.328 65.9626 480.939 67.8399V66.8159C480.853 63.9999 478.464 61.8666 475.648 61.9519C473.003 62.0373 470.869 64.1706 470.784 66.8159V111.104C470.869 113.92 473.259 116.053 476.075 115.968C478.72 115.883 480.853 113.749 480.939 111.104V89.0026C480.939 86.6986 481.365 84.4799 482.304 82.3466C483.157 80.2986 484.352 78.5066 485.973 76.9706C487.509 75.4346 489.387 74.1546 491.349 73.3012C493.483 72.4479 495.701 71.9359 498.005 71.9359C500.309 71.9359 502.528 72.3626 504.661 73.1306C505.344 73.4719 506.027 73.6426 506.795 73.6426C507.477 73.6426 508.16 73.5572 508.757 73.2159C509.355 72.9599 509.867 72.6186 510.379 72.1066C510.805 71.6799 511.232 71.0826 511.488 70.4853C511.744 69.8879 511.915 69.2052 511.915 68.5226C512 67.2426 511.488 66.0479 510.549 65.1092Z" />
<path d="M463.445 78.5066C459.093 68.4373 449.195 61.8666 438.272 61.7812C423.253 61.7812 411.136 73.8986 411.051 88.9173C411.051 103.936 423.253 116.139 438.272 116.139C444.757 116.139 451.072 113.835 456.021 109.568C456.107 109.483 456.192 109.397 456.192 109.397C456.619 109.056 457.045 108.629 457.301 108.117C458.923 105.728 458.325 102.571 456.021 100.949C454.059 99.6692 451.499 99.9253 449.792 101.547C449.621 101.717 449.109 102.144 449.109 102.229L449.024 102.315C447.573 103.509 445.952 104.533 444.16 105.131C442.283 105.813 440.32 106.155 438.272 106.069C436.395 106.069 434.603 105.813 432.811 105.216C431.104 104.619 429.483 103.851 428.032 102.741C426.581 101.717 425.301 100.437 424.277 98.9866C423.168 97.5359 422.4 95.8292 421.888 94.1226H460.288C461.653 94.1226 462.933 93.6106 463.872 92.6719C464.896 91.7333 465.408 90.4532 465.323 89.0879C465.408 85.4186 464.725 81.8346 463.445 78.5066ZM421.888 83.9679C422.4 82.1759 423.168 80.5546 424.277 79.1039C425.301 77.6533 426.581 76.3732 428.032 75.3492C429.483 74.3252 431.104 73.4719 432.811 72.8746C434.517 72.2772 436.395 72.0212 438.187 72.0212C439.979 72.0212 441.856 72.2772 443.563 72.8746C446.976 73.9839 449.963 76.2026 452.096 79.1039C453.205 80.5546 453.973 82.2612 454.571 83.9679H421.888V83.9679Z" />
<path d="M182.101 49.8346C181.589 49.408 176.981 45.9093 167.082 45.9093C164.522 45.9093 161.877 46.1653 159.317 46.592C157.44 33.536 146.602 27.2213 146.176 26.88L143.53 25.344L141.824 27.8187C139.69 31.1467 138.069 34.9013 137.13 38.7413C135.338 46.1653 136.448 53.1626 140.202 59.136C135.68 61.696 128.341 62.2933 126.805 62.3787H5.63179C2.47446 62.3787 -0.0855422 64.9386 -0.0855422 68.096C-0.256209 78.6773 1.53579 89.2586 5.20513 99.2426C9.38646 110.165 15.6158 118.272 23.6371 123.221C32.6825 128.768 47.4451 131.925 64.0851 131.925C71.5945 131.925 79.1038 131.243 86.5278 129.877C96.8531 128 106.752 124.416 115.882 119.211C123.392 114.859 130.133 109.312 135.85 102.827C145.493 91.9893 151.21 79.872 155.392 69.12C155.989 69.12 156.501 69.12 157.098 69.12C167.594 69.12 174.08 64.9386 177.664 61.3546C180.053 59.136 181.845 56.4053 183.125 53.3333L183.893 51.1146L182.101 49.8346Z" />
<path d="M16.896 58.8802H33.1093C33.8773 58.8802 34.56 58.2828 34.56 57.4295V42.9228C34.56 42.1548 33.9626 41.4722 33.1093 41.4722H16.896C16.128 41.4722 15.4453 42.0695 15.4453 42.9228V57.4295C15.5306 58.2828 16.128 58.8802 16.896 58.8802Z" />
<path d="M39.2534 58.8802H55.4667C56.2347 58.8802 56.9174 58.2828 56.9174 57.4295V42.9228C56.9174 42.1548 56.3201 41.4722 55.4667 41.4722H39.2534C38.4854 41.4722 37.8027 42.0695 37.8027 42.9228V57.4295C37.8881 58.2828 38.4854 58.8802 39.2534 58.8802Z" />
<path d="M62.0371 58.8802H78.2504C79.0184 58.8802 79.7011 58.2828 79.7011 57.4295V42.9228C79.7011 42.1548 79.1038 41.4722 78.2504 41.4722H62.0371C61.2691 41.4722 60.5864 42.0695 60.5864 42.9228V57.4295C60.5864 58.2828 61.1838 58.8802 62.0371 58.8802Z" />
<path d="M84.48 58.8802H100.693C101.461 58.8802 102.144 58.2828 102.144 57.4295V42.9228C102.144 42.1548 101.547 41.4722 100.693 41.4722H84.48C83.712 41.4722 83.0293 42.0695 83.0293 42.9228V57.4295C83.0293 58.2828 83.712 58.8802 84.48 58.8802Z" />
<path d="M39.2534 38.1441H55.4667C56.2347 38.1441 56.9174 37.4614 56.9174 36.6934V22.1868C56.9174 21.4188 56.3201 20.7361 55.4667 20.7361H39.2534C38.4854 20.7361 37.8027 21.3334 37.8027 22.1868V36.6934C37.8881 37.4614 38.4854 38.1441 39.2534 38.1441Z" />
<path d="M62.0371 38.1441H78.2504C79.0184 38.1441 79.7011 37.4614 79.7011 36.6934V22.1868C79.7011 21.4188 79.1038 20.7361 78.2504 20.7361H62.0371C61.2691 20.7361 60.5864 21.3334 60.5864 22.1868V36.6934C60.5864 37.4614 61.1838 38.1441 62.0371 38.1441Z" />
<path d="M84.48 38.1441H100.693C101.461 38.1441 102.144 37.4614 102.144 36.6934V22.1868C102.144 21.4188 101.461 20.7361 100.693 20.7361H84.48C83.712 20.7361 83.0293 21.3334 83.0293 22.1868V36.6934C83.0293 37.4614 83.712 38.1441 84.48 38.1441Z" />
<path d="M84.48 17.3225H100.693C101.461 17.3225 102.144 16.7252 102.144 15.8719V1.36523C102.144 0.597228 101.461 -0.0854492 100.693 -0.0854492H84.48C83.712 -0.0854492 83.0293 0.511895 83.0293 1.36523V15.8719C83.0293 16.6399 83.712 17.3225 84.48 17.3225Z" />
<path d="M107.093 58.8802H123.307C124.075 58.8802 124.757 58.2828 124.757 57.4295V42.9228C124.757 42.1548 124.16 41.4722 123.307 41.4722H107.093C106.325 41.4722 105.643 42.0695 105.643 42.9228V57.4295C105.728 58.2828 106.325 58.8802 107.093 58.8802Z" />
</svg>
