<svg viewBox="0 0 512 182" xmlns="http://www.w3.org/2000/svg">
<path d="M190.45 97.275C190.45 100.275 189.675 102.8 188.125 104.85C186.575 106.85 184.475 108.375 181.825 109.425C179.225 110.475 176.375 111 173.275 111H147.55V57.75H176.05C178.55 57.75 180.7 58.425 182.5 59.775C184.3 61.075 185.7 62.775 186.7 64.875C187.7 66.975 188.2 69.125 188.2 71.325C188.2 73.925 187.55 76.375 186.25 78.675C184.95 80.925 183.05 82.6 180.55 83.7C183.6 84.6 186 86.225 187.75 88.575C189.55 90.925 190.45 93.825 190.45 97.275ZM157.9 66.6V80.025H171.7C173.4 80.025 174.875 79.425 176.125 78.225C177.375 77.025 178 75.375 178 73.275C178 71.275 177.425 69.675 176.275 68.475C175.175 67.225 173.8 66.6 172.15 66.6H157.9ZM180.025 95.325C180.025 93.375 179.425 91.7 178.225 90.3C177.025 88.9 175.55 88.2 173.8 88.2H157.9V102.225H173.275C175.175 102.225 176.775 101.55 178.075 100.2C179.375 98.85 180.025 97.225 180.025 95.325ZM194.852 99.375C194.852 96.825 195.552 94.6 196.952 92.7C198.402 90.75 200.402 89.25 202.952 88.2C205.502 87.15 208.427 86.625 211.727 86.625C213.377 86.625 215.052 86.775 216.752 87.075C218.452 87.325 219.927 87.7 221.177 88.2V86.1C221.177 83.6 220.427 81.675 218.927 80.325C217.477 78.975 215.302 78.3 212.402 78.3C210.252 78.3 208.202 78.675 206.252 79.425C204.302 80.175 202.252 81.275 200.102 82.725L196.877 76.125C199.477 74.425 202.127 73.15 204.827 72.3C207.577 71.45 210.452 71.025 213.452 71.025C219.052 71.025 223.402 72.425 226.502 75.225C229.652 78.025 231.227 82.025 231.227 87.225V99.75C231.227 100.85 231.402 101.625 231.752 102.075C232.102 102.475 232.727 102.725 233.627 102.825V111C232.727 111.2 231.902 111.325 231.152 111.375C230.452 111.475 229.852 111.525 229.352 111.525C227.352 111.525 225.827 111.075 224.777 110.175C223.727 109.275 223.102 108.175 222.902 106.875L222.677 104.85C220.927 107.1 218.777 108.825 216.227 110.025C213.727 111.175 211.152 111.75 208.502 111.75C205.852 111.75 203.502 111.225 201.452 110.175C199.402 109.075 197.777 107.6 196.577 105.75C195.427 103.85 194.852 101.725 194.852 99.375ZM219.302 101.4C220.552 100.2 221.177 99.05 221.177 97.95V93.975C218.577 92.925 215.952 92.4 213.302 92.4C210.652 92.4 208.502 92.975 206.852 94.125C205.202 95.225 204.377 96.7 204.377 98.55C204.377 100.05 204.977 101.4 206.177 102.6C207.377 103.8 209.102 104.4 211.352 104.4C212.852 104.4 214.302 104.125 215.702 103.575C217.152 103.025 218.352 102.3 219.302 101.4ZM258.918 111.75C254.668 111.75 250.993 110.8 247.893 108.9C244.793 107 242.393 104.5 240.693 101.4C238.993 98.3 238.143 94.95 238.143 91.35C238.143 87.7 238.968 84.325 240.618 81.225C242.318 78.125 244.718 75.65 247.818 73.8C250.918 71.95 254.593 71.025 258.843 71.025C263.143 71.025 266.793 71.95 269.793 73.8C272.843 75.65 275.118 78.075 276.618 81.075L266.793 84.075C265.043 81.075 262.368 79.575 258.768 79.575C256.818 79.575 255.068 80.075 253.518 81.075C251.968 82.025 250.743 83.4 249.843 85.2C248.943 86.95 248.493 89 248.493 91.35C248.493 93.65 248.943 95.7 249.843 97.5C250.793 99.25 252.043 100.65 253.593 101.7C255.143 102.7 256.868 103.2 258.768 103.2C260.568 103.2 262.218 102.775 263.718 101.925C265.268 101.025 266.343 99.9 266.943 98.55L276.768 101.55C275.418 104.5 273.168 106.95 270.018 108.9C266.918 110.8 263.218 111.75 258.918 111.75ZM309.802 111L298.327 94.05L293.002 99.3V111H282.952V56.25H293.002V89.4L308.827 71.775H319.477L304.852 88.425L320.527 111H309.802ZM499.304 111V100.2H507.554V111H499.304Z" />
<path d="M348.323 111.75C345.223 111.75 342.523 111.05 340.223 109.65C337.923 108.25 336.123 106.4 334.823 104.1V126.975H324.773V71.7H333.548V78.45C334.998 76.15 336.873 74.35 339.173 73.05C341.523 71.7 344.173 71.025 347.123 71.025C350.673 71.025 353.823 71.95 356.573 73.8C359.323 75.6 361.498 78.05 363.098 81.15C364.698 84.2 365.498 87.575 365.498 91.275C365.498 95.125 364.748 98.6 363.248 101.7C361.798 104.75 359.773 107.2 357.173 109.05C354.623 110.85 351.673 111.75 348.323 111.75ZM344.948 103.2C346.998 103.2 348.773 102.65 350.273 101.55C351.823 100.4 353.023 98.925 353.873 97.125C354.773 95.275 355.223 93.325 355.223 91.275C355.223 89.075 354.748 87.1 353.798 85.35C352.848 83.55 351.548 82.15 349.898 81.15C348.298 80.1 346.448 79.575 344.348 79.575C342.448 79.575 340.548 80.2 338.648 81.45C336.748 82.7 335.473 84.275 334.823 86.175V95.4C335.723 97.6 337.098 99.45 338.948 100.95C340.798 102.45 342.798 103.2 344.948 103.2ZM369.607 99.375C369.607 96.825 370.307 94.6 371.707 92.7C373.157 90.75 375.157 89.25 377.707 88.2C380.257 87.15 383.182 86.625 386.482 86.625C388.132 86.625 389.807 86.775 391.507 87.075C393.207 87.325 394.682 87.7 395.932 88.2V86.1C395.932 83.6 395.182 81.675 393.682 80.325C392.232 78.975 390.057 78.3 387.157 78.3C385.007 78.3 382.957 78.675 381.007 79.425C379.057 80.175 377.007 81.275 374.857 82.725L371.632 76.125C374.232 74.425 376.882 73.15 379.582 72.3C382.332 71.45 385.207 71.025 388.207 71.025C393.807 71.025 398.157 72.425 401.257 75.225C404.407 78.025 405.982 82.025 405.982 87.225V99.75C405.982 100.85 406.157 101.625 406.507 102.075C406.857 102.475 407.482 102.725 408.382 102.825V111C407.482 111.2 406.657 111.325 405.907 111.375C405.207 111.475 404.607 111.525 404.107 111.525C402.107 111.525 400.582 111.075 399.532 110.175C398.482 109.275 397.857 108.175 397.657 106.875L397.432 104.85C395.682 107.1 393.532 108.825 390.982 110.025C388.482 111.175 385.907 111.75 383.257 111.75C380.607 111.75 378.257 111.225 376.207 110.175C374.157 109.075 372.532 107.6 371.332 105.75C370.182 103.85 369.607 101.725 369.607 99.375ZM394.057 101.4C395.307 100.2 395.932 99.05 395.932 97.95V93.975C393.332 92.925 390.707 92.4 388.057 92.4C385.407 92.4 383.257 92.975 381.607 94.125C379.957 95.225 379.132 96.7 379.132 98.55C379.132 100.05 379.732 101.4 380.932 102.6C382.132 103.8 383.857 104.4 386.107 104.4C387.607 104.4 389.057 104.125 390.457 103.575C391.907 103.025 393.107 102.3 394.057 101.4ZM433.674 111.75C429.424 111.75 425.749 110.8 422.649 108.9C419.549 107 417.149 104.5 415.449 101.4C413.749 98.3 412.899 94.95 412.899 91.35C412.899 87.7 413.724 84.325 415.374 81.225C417.074 78.125 419.474 75.65 422.574 73.8C425.674 71.95 429.349 71.025 433.599 71.025C437.899 71.025 441.549 71.95 444.549 73.8C447.599 75.65 449.874 78.075 451.374 81.075L441.549 84.075C439.799 81.075 437.124 79.575 433.524 79.575C431.574 79.575 429.824 80.075 428.274 81.075C426.724 82.025 425.499 83.4 424.599 85.2C423.699 86.95 423.249 89 423.249 91.35C423.249 93.65 423.699 95.7 424.599 97.5C425.549 99.25 426.799 100.65 428.349 101.7C429.899 102.7 431.624 103.2 433.524 103.2C435.324 103.2 436.974 102.775 438.474 101.925C440.024 101.025 441.099 99.9 441.699 98.55L451.524 101.55C450.174 104.5 447.924 106.95 444.774 108.9C441.674 110.8 437.974 111.75 433.674 111.75ZM484.558 111L473.083 94.05L467.758 99.3V111H457.708V56.25H467.758V89.4L483.583 71.775H494.233L479.608 88.425L495.283 111H484.558Z" />
<path d="M28.3373 41.8822C17.9144 43.5108 17.263 44.3576 21.1716 51.0022C23.7773 55.4971 23.9727 56.1485 22.2138 54.5851C20.7807 53.2822 18.175 53.4125 7.49155 55.4319C2.47555 56.3439 1.56355 56.7348 0.716693 58.1679C-0.195307 59.7313 0.130407 60.4479 8.14298 74.7793C12.703 82.9873 16.9373 90.4788 17.4584 91.4559C18.4356 93.0845 18.3704 93.2799 16.4161 95.5599C15.2435 96.7976 14.3315 98.4913 14.3315 99.273C14.3315 100.967 23.8424 119.337 25.2756 120.51C25.8618 120.9 27.4904 121.291 28.9235 121.291C33.223 121.291 34.3956 121.943 36.4801 125.265C38.6298 128.783 38.8253 128.848 43.1898 127.545L46.2515 126.633L50.3555 133.929C53.0915 138.619 54.9807 141.225 55.7624 141.355C57.2607 141.551 107.486 126.177 110.938 124.483C112.306 123.767 113.349 122.724 113.349 122.073C113.349 121.487 111.785 118.751 109.896 116.08C108.007 113.409 106.248 110.868 105.988 110.478C105.727 110.022 106.444 109.305 107.812 108.654C110.482 107.351 110.613 106.374 108.463 103.247L106.9 100.836L108.202 98.6868C108.984 97.5142 109.44 96.1462 109.245 95.625C108.789 94.4525 97.8447 79.2091 96.8675 78.4273C96.4115 78.1016 94.5224 77.3199 92.6984 76.7336L89.2458 75.5611L79.0184 60.9039C73.4161 52.8262 68.4001 46.1165 67.9441 45.9211C66.511 45.3348 51.8538 47.7451 50.7464 48.7222C49.8344 49.5039 49.3784 49.1131 46.5773 45.0742L43.4504 40.5142L39.8024 40.5793C37.783 40.6445 32.6367 41.2308 28.3373 41.8822ZM39.4767 47.4845C40.975 49.5039 40.519 50.0902 37.0664 50.5462C35.1773 50.8068 32.8973 51.1976 31.855 51.3931C30.3567 51.6536 29.9007 51.3931 29.0538 49.7645L28.0116 47.7451L30.4218 47.3542C31.7898 47.0936 33.3533 46.8331 33.8744 46.7028C36.5453 46.1816 38.695 46.4422 39.4767 47.4845ZM73.807 66.2456L83.7738 80.5771L87.6824 81.8148C91.4607 82.9873 91.591 83.1176 96.607 90.153L101.623 97.2536L100.581 99.273C99.9944 100.315 99.343 100.967 99.0824 100.706C98.7567 100.38 95.695 96.081 92.2424 91.1302L85.9235 82.2056H83.1875C81.6893 82.2708 69.4424 85.0068 56.023 88.3291C33.679 93.8662 31.5293 94.5176 30.6824 96.0159C29.7053 97.7096 30.031 98.4262 40.5841 116.731L41.887 119.011L40.519 117.643C39.5418 116.601 38.0435 116.145 34.7213 115.819L30.2915 115.363L25.9921 107.09L21.6927 98.7519L23.8424 96.2113C25.0801 94.7782 26.0573 93.1496 26.0573 92.6285C26.0573 92.0422 22.2138 84.7462 17.5236 76.4079C12.8333 68.0696 9.12012 61.0993 9.31555 60.9691C9.44584 60.7736 11.2698 60.3828 13.3544 60.0571L17.0676 59.4708L20.6504 62.4022C22.8001 64.0959 24.6893 65.2033 25.3407 65.0079C25.927 64.8125 32.5064 63.5096 39.9327 62.0765C55.4367 59.0799 57.6516 58.1679 57.6516 54.7805C57.6516 52.6959 57.7818 52.5656 60.2573 52.1748C61.6904 51.9793 63.0584 51.7839 63.319 51.8491C63.5795 51.9142 68.2698 58.3633 73.807 66.2456ZM50.1601 53.4776C50.1601 53.8685 49.9647 54.2593 49.7041 54.3896C48.727 54.9759 27.2298 58.8193 26.839 58.4936C26.3178 57.9725 27.6207 57.6468 37.1315 56.0833C41.9521 55.3016 46.6424 54.3245 47.5544 53.8033C49.5087 52.7611 50.1601 52.6959 50.1601 53.4776ZM87.8778 97.5793C91.5258 102.791 94.4573 107.155 94.327 107.22C93.871 107.611 52.0493 119.337 51.3327 119.337C50.551 119.337 39.6721 100.902 39.2161 98.8822C39.0858 98.361 45.6001 96.4719 59.0847 93.1496C70.0938 90.4136 79.6047 88.1988 80.1258 88.1336C80.7121 88.0685 83.9041 91.977 87.8778 97.5793ZM101.232 116.471C102.926 118.816 104.164 120.966 103.968 121.161C103.577 121.487 60.7784 134.906 59.8664 134.971C59.6058 134.971 58.1075 132.626 56.479 129.76C53.6127 124.744 53.5476 124.548 54.9156 124.158C55.6973 123.962 65.2733 121.226 76.2173 118.034C87.1613 114.907 96.5418 112.302 97.1281 112.236C97.6493 112.171 99.5384 114.126 101.232 116.471Z" />
</svg>
