<svg width="512" height="277" viewBox="0 0 512 277" fill="none" xmlns="http://www.w3.org/2000/svg">
<path d="M7.19922 138.078C7.19922 210.359 118.593 268.956 256 268.956C393.406 268.956 504.801 210.359 504.801 138.078C504.801 65.7969 393.406 7.19904 256 7.19904C118.593 7.19904 7.19922 65.7969 7.19922 138.078Z" fill="url(#paint0_radial)"/>
<path d="M256 259.239C388.039 259.239 495.081 204.993 495.081 138.077C495.081 71.1626 388.039 16.9157 256 16.9157C123.96 16.9157 16.918 71.1626 16.918 138.077C16.918 204.993 123.96 259.239 256 259.239Z" fill="#777BB3"/>
<path d="M142.375 153.1C153.232 153.1 161.338 151.097 166.466 147.15C171.54 143.244 175.044 136.476 176.88 127.035C178.593 118.211 177.94 112.05 174.942 108.724C171.876 105.328 165.248 103.606 155.241 103.606H137.89L128.271 153.1H142.375ZM85.6257 214.067C84.8203 214.067 84.0554 213.707 83.5433 213.084C83.0304 212.462 82.8225 211.644 82.9764 210.853L108.468 79.6932C108.715 78.4253 109.826 77.5092 111.119 77.5092H166.06C183.327 77.5092 196.179 82.1976 204.258 91.4457C212.379 100.742 214.887 113.738 211.711 130.07C210.419 136.723 208.196 142.903 205.105 148.436C202.011 153.974 197.921 159.099 192.947 163.671C186.993 169.243 180.255 173.283 172.937 175.661C165.735 178.007 156.486 179.196 145.447 179.196H123.2L116.847 211.882C116.601 213.151 115.49 214.067 114.198 214.067H85.6257Z" fill="black"/>
<path d="M140.116 106.305H155.241C167.318 106.305 171.514 108.955 172.939 110.535C175.304 113.157 175.75 118.686 174.23 126.523C172.522 135.297 169.357 141.518 164.819 145.011C160.174 148.587 152.622 150.4 142.375 150.4H131.546L140.116 106.305ZM166.06 74.8091H111.118C108.533 74.8091 106.311 76.6413 105.818 79.1781L80.3264 210.337C80.0186 211.92 80.4344 213.557 81.4593 214.802C82.4852 216.046 84.0132 216.766 85.6258 216.766H114.197C116.783 216.766 119.004 214.934 119.498 212.397L125.426 181.896H145.448C156.77 181.896 166.301 180.661 173.775 178.227C181.461 175.73 188.532 171.496 194.791 165.643C199.967 160.881 204.231 155.535 207.461 149.753C210.693 143.97 213.015 137.52 214.362 130.584C217.705 113.393 214.989 99.6262 206.291 89.6698C197.677 79.8089 184.141 74.8091 166.06 74.8091ZM124.996 155.799H142.375C153.895 155.799 162.475 153.629 168.113 149.289C173.752 144.948 177.555 137.703 179.531 127.551C181.421 117.803 180.56 110.924 176.947 106.917C173.33 102.91 166.095 100.906 155.241 100.906H135.665L124.996 155.799V155.799ZM166.06 80.2084C182.589 80.2084 194.646 84.5459 202.225 93.2217C209.803 101.897 212.085 114.007 209.061 129.555C207.817 135.959 205.712 141.815 202.749 147.119C199.782 152.428 195.908 157.282 191.12 161.683C185.415 167.022 179.077 170.827 172.103 173.093C165.129 175.365 156.246 176.496 145.448 176.496H120.974L114.197 211.367H85.6258L111.118 80.2084H166.06" fill="white"/>
<path d="M277.222 179.196C276.416 179.196 275.652 178.836 275.14 178.214C274.626 177.592 274.418 176.774 274.572 175.982L285.848 117.949C286.921 112.43 286.656 108.469 285.104 106.795C284.154 105.772 281.299 104.056 272.859 104.056H252.43L238.252 177.011C238.006 178.28 236.894 179.196 235.602 179.196H207.256C206.449 179.196 205.685 178.836 205.172 178.214C204.66 177.592 204.452 176.773 204.606 175.982L230.098 44.8226C230.344 43.5547 231.455 42.6386 232.748 42.6386H261.094C261.9 42.6386 262.664 42.9985 263.177 43.6204C263.69 44.2431 263.898 45.0611 263.744 45.853L257.593 77.5092H279.57C296.312 77.5092 307.665 80.4608 314.277 86.5332C321.018 92.728 323.121 102.633 320.529 115.977L308.668 177.011C308.422 178.28 307.311 179.196 306.018 179.196H277.222Z" fill="black"/>
<path d="M261.094 39.9385H232.748C230.162 39.9385 227.94 41.7707 227.447 44.3074L201.955 175.467C201.647 177.05 202.063 178.687 203.089 179.931C204.115 181.176 205.643 181.896 207.256 181.896H235.602C238.186 181.896 240.409 180.063 240.902 177.527L254.655 106.755H272.859C281.285 106.755 283.053 108.555 283.124 108.632C283.635 109.182 284.307 111.729 283.198 117.434L271.921 175.467C271.614 177.05 272.029 178.687 273.055 179.931C274.081 181.176 275.609 181.896 277.222 181.896H306.018C308.603 181.896 310.825 180.063 311.318 177.527L323.178 116.492C325.961 102.165 323.58 91.4174 316.104 84.5458C308.97 77.9938 297.019 74.8091 279.57 74.8091H260.866L266.394 46.3682C266.701 44.7853 266.286 43.1475 265.26 41.9038C264.235 40.6593 262.707 39.9385 261.094 39.9385ZM261.094 45.3378L254.317 80.2084H279.57C295.459 80.2084 306.419 82.9818 312.45 88.5215C318.482 94.0648 320.289 103.047 317.879 115.462L306.018 176.496H277.222L288.498 118.464C289.781 111.863 289.31 107.36 287.082 104.959C284.853 102.558 280.111 101.356 272.859 101.356H250.204L235.602 176.496H207.256L232.748 45.3378H261.094Z" fill="white"/>
<path d="M365.381 153.1C376.238 153.1 384.343 151.097 389.472 147.15C394.545 143.245 398.049 136.477 399.887 127.035C401.599 118.211 400.947 112.05 397.948 108.724C394.882 105.328 388.253 103.606 378.246 103.606H360.896L351.277 153.1H365.381ZM308.632 214.067C307.827 214.067 307.062 213.707 306.55 213.084C306.037 212.462 305.828 211.644 305.982 210.853L331.474 79.6932C331.721 78.4253 332.832 77.5092 334.125 77.5092H389.066C406.334 77.5092 419.185 82.1976 427.264 91.4457C435.386 100.742 437.893 113.737 434.718 130.07C433.424 136.723 431.202 142.903 428.111 148.436C425.016 153.974 420.926 159.099 415.952 163.671C409.999 169.243 403.261 173.283 395.943 175.661C388.741 178.007 379.492 179.196 368.453 179.196H346.205L339.855 211.882C339.607 213.151 338.497 214.067 337.203 214.067H308.632Z" fill="black"/>
<path d="M363.121 106.305H378.247C390.324 106.305 394.519 108.955 395.945 110.535C398.311 113.157 398.757 118.686 397.236 126.522C395.528 135.297 392.361 141.518 387.825 145.011C383.18 148.587 375.628 150.4 365.381 150.4H354.553L363.121 106.305ZM389.066 74.8091H334.124C331.54 74.8091 329.318 76.6413 328.825 79.1781L303.333 210.337C303.025 211.92 303.441 213.557 304.466 214.802C305.492 216.046 307.02 216.766 308.632 216.766H337.204C339.788 216.766 342.011 214.934 342.504 212.397L348.432 181.896H368.453C379.776 181.896 389.307 180.661 396.781 178.227C404.467 175.73 411.54 171.495 417.798 165.641C422.975 160.88 427.236 155.535 430.467 149.753C433.699 143.97 436.02 137.52 437.367 130.584C440.71 113.392 437.995 99.6253 429.296 89.6689C420.683 79.8089 407.147 74.8091 389.066 74.8091ZM348.002 155.799H365.381C376.9 155.799 385.481 153.629 391.119 149.289C396.758 144.948 400.56 137.703 402.536 127.551C404.428 117.803 403.567 110.924 399.953 106.917C396.335 102.91 389.101 100.906 378.247 100.906H358.671L348.002 155.799ZM389.066 80.2084C405.594 80.2084 417.652 84.5459 425.231 93.2217C432.809 101.897 435.091 114.007 432.067 129.555C430.823 135.959 428.718 141.815 425.754 147.119C422.787 152.428 418.913 157.282 414.126 161.683C408.421 167.022 402.083 170.827 395.109 173.093C388.135 175.365 379.252 176.496 368.453 176.496H343.98L337.204 211.367H308.632L334.124 80.2084H389.066" fill="white"/>
<defs>
<radialGradient id="paint0_radial" cx="0" cy="0" r="1" gradientUnits="userSpaceOnUse" gradientTransform="translate(156.58 53.2119) scale(326.711)">
<stop stop-color="#AEB2D5"/>
<stop offset="0.3" stop-color="#AEB2D5"/>
<stop offset="0.75" stop-color="#484C89"/>
<stop offset="1" stop-color="#484C89"/>
</radialGradient>
</defs>
</svg>
