<svg viewBox="0 0 512 381" xmlns="http://www.w3.org/2000/svg">
<path fill-rule="evenodd" clip-rule="evenodd" d="M156.194 368.201C155.814 367.528 155.474 366.831 155.179 366.116C153.128 361.373 152.497 356.137 153.361 351.042H32.0709L212.323 33.8373L271.498 137.862L288.657 107.499L237.073 16.6246C235.629 14.0053 226.916 0 211.895 0C205.106 0 195.377 2.94005 187.466 16.8385L4.86206 337.892C3.31185 340.672 -4.22536 355.265 3.2584 368.201C6.67955 374.081 13.9495 381.084 29.9861 381.084H182.922C166.992 381.084 159.616 374.188 156.194 368.201V368.201Z" fill="#00C58E"/>
<path fill-rule="evenodd" clip-rule="evenodd" d="M507.826 337.892L357.776 73.5553C356.226 70.7756 347.566 56.7168 332.492 56.7168C325.703 56.7168 315.974 59.6034 308.063 73.5018L288.658 107.499L305.924 137.862L332.652 90.5541L481.098 351.043H424.649C425.371 355.349 424.966 359.769 423.473 363.872C423.158 364.778 422.765 365.654 422.297 366.491L421.816 367.453C414.225 380.39 397.814 381.084 394.607 381.084H482.915C486.176 381.084 502.533 380.39 510.124 367.453C513.492 361.573 515.897 351.684 507.826 337.892Z" fill="#108775"/>
<path d="M421.816 367.453L422.297 366.491C422.765 365.654 423.159 364.777 423.473 363.871C424.967 359.768 425.372 355.348 424.649 351.042C423.817 346.398 422.151 341.943 419.732 337.892L306.032 137.862L288.659 107.499L271.393 137.862L157.746 337.892C155.54 341.991 154.057 346.439 153.363 351.042C152.448 356.121 153.024 361.357 155.02 366.116C155.316 366.832 155.655 367.528 156.036 368.201C159.457 374.081 166.727 381.084 182.764 381.084H394.447C397.815 381.084 414.226 380.389 421.816 367.453V367.453ZM288.659 168.224L392.576 351.042H184.795L288.659 168.224Z" fill="#2F495E"/>
</svg>
