<svg viewBox="0 0 512 512" xmlns="http://www.w3.org/2000/svg">
<path d="M258.186 162.788C217.927 162.788 189.92 193.421 188.169 232.805H324.703C322.952 196.046 297.571 162.788 258.186 162.788Z" />
<path d="M258.186 158.412C217.927 158.412 189.92 196.047 188.169 228.429H324.703C322.952 196.047 297.571 158.412 258.186 158.412Z" />
<path d="M257.311 7C120.778 7 9.62564 118.152 9.62564 255.561C9.62564 309.824 27.1299 359.711 56.012 399.971L7 505.872L119.903 462.111C159.287 488.368 206.549 503.246 257.311 503.246C394.72 503.246 505.872 392.094 505.872 255.561C505.872 118.152 394.72 7 257.311 7ZM383.342 272.19H188.169C188.169 310.699 210.925 349.209 259.937 349.209V396.47C172.415 396.47 129.53 338.706 129.53 256.436C129.53 181.168 178.542 116.402 258.186 116.402C342.207 116.402 392.969 196.046 383.342 272.19Z" />
</svg>
