<svg width="512" height="127" viewBox="0 0 512 127" fill="none" xmlns="http://www.w3.org/2000/svg">
<g clip-path="url(#clip0)">
<path d="M469.623 31.9457C459.409 31.9457 448.109 37.3786 442.676 46.0713H442.241V0H422.248V58.4584C415.946 43.0289 401.82 31.9457 383.131 31.9457C367.484 31.9457 355.531 39.5518 347.925 50.8523L353.141 34.5535H332.93L314.676 101.922H314.241L297.942 34.5535H278.166L261.216 101.922H260.781L243.178 34.5535H222.099L249.915 124.74H270.778L287.294 57.5891H287.728L304.462 124.74H324.89L339.667 77.365C339.667 78.2343 339.45 78.8862 339.45 79.7555C339.45 107.572 355.314 127.348 383.565 127.348V111.701C367.049 111.701 359.226 99.0968 359.226 84.9711H422.031V124.958H440.937V112.57H441.372C447.239 124.523 460.496 127.348 472.666 127.348C499.396 127.348 511.565 104.53 511.565 80.1902C512 53.6774 498.092 31.9457 469.623 31.9457ZM359.66 71.4975C360.095 58.0238 369.657 47.5925 383.348 47.5925C396.822 47.5925 405.297 58.893 405.949 71.4975H359.66ZM467.015 111.484C450.934 111.484 441.589 97.7929 441.589 79.7555C441.589 60.6316 450.065 47.8098 467.015 47.8098C483.531 47.8098 492.007 63.4567 492.007 79.7555C492.007 95.4024 485.27 111.484 467.015 111.484Z" fill="white"/>
<path d="M191.674 31.9456C173.202 31.9456 159.728 42.3768 152.992 57.3717C149.514 39.117 133.433 31.9456 115.83 31.9456C101.705 31.9456 84.1019 36.5092 79.3209 50.4175V34.336H59.3277V86.7096C59.3277 100.618 53.6774 111.266 37.1613 111.266C26.2954 111.266 19.7759 105.399 19.7759 89.5347V34.336H0V91.7079C0 115.178 10.2139 127.131 33.6842 127.131C43.6808 127.131 54.5467 121.263 59.3277 112.136H59.7623V124.74H79.3209V109.528C85.1885 121.48 99.0968 127.131 116.048 127.131C131.694 127.131 149.297 121.48 154.73 106.92C161.902 119.307 174.723 127.131 192.326 127.131V111.484C175.81 111.484 167.986 98.8793 167.986 84.7537H234.268C237.528 57.589 220.143 31.9456 191.674 31.9456ZM116.482 111.484C105.834 111.484 97.1409 107.355 96.0543 95.8369H79.3209V65.8471C83.0153 77.7995 94.7504 81.9286 107.138 84.5364C121.698 87.7962 136.041 89.1001 136.693 99.5313C137.127 109.745 123.871 111.484 116.482 111.484ZM127.348 71.4973C112.788 68.2376 98.0102 66.7164 98.0102 56.9371C98.0102 49.1136 108.659 47.5924 114.526 47.5924C123.219 47.5924 131.042 50.2002 132.781 59.5449H151.905C149.514 65.6298 148.211 72.3666 148.211 79.5381V79.7554C142.56 75.4091 134.954 73.2359 127.348 71.4973ZM167.986 71.4973C168.421 58.0237 177.983 47.5924 191.674 47.5924C205.148 47.5924 213.623 58.8929 214.275 71.4973H167.986Z" fill="#4A81BD"/>
</g>
<defs>
<clipPath id="clip0">
<rect width="512" height="127" fill="white"/>
</clipPath>
</defs>
</svg>
