<svg width="380" height="380" viewBox="0 0 380 380" fill="none" xmlns="http://www.w3.org/2000/svg">
  <style>
    .color {
    fill: #1b1b1f;
    }
  </style>
  <path
    d="M213.619 0.293612C211.129 0.595431 208.186 1.1991 207.054 1.65186C203.583 3.08557 183.888 4.21744 168.344 3.91559C154.988 3.61377 152.799 3.46286 149.102 1.95368C143.594 -0.234616 141.481 -0.159146 132.728 2.63282C115.146 8.21674 103.676 17.2717 92.0555 34.8535C83.0005 48.436 71.229 72.1299 68.8143 81.6377C66.777 89.259 66.1733 99.6722 66.0978 123.14V145.325L61.7213 151.437C47.6105 171.056 39.612 192.863 37.3482 217.463C35.5372 237.912 40.8193 262.059 52.5153 285.979C55.6846 292.544 56.8165 294.128 60.5139 297.071C70.6253 305.07 83.1514 310.805 99.4504 314.879C113.335 318.351 121.56 321.444 127.521 325.444C130.011 327.104 138.161 334.725 145.631 342.346C155.969 352.91 159.968 356.532 162.156 357.212C164.496 357.966 164.948 358.419 164.948 360.154C164.948 362.418 166.986 364.757 168.948 364.757C170.608 364.757 171.211 359.023 171.287 343.176L171.362 330.197L168.948 327.33C162.232 319.331 160.798 313.748 163.967 307.711C164.797 306.126 166.608 302.731 167.891 300.316C170.306 295.788 170.909 292.091 169.4 291.11C168.193 290.355 166.156 293.374 164.646 298.052C163.967 300.241 163.062 302.278 162.685 302.504C161.628 303.183 159.666 298.731 158.912 294.053C158.459 291.336 157.101 288.016 155.139 284.772C151.366 278.508 149.555 270.812 150.234 263.643C150.762 258.361 150.687 258.361 147.216 263.266C146.235 264.7 146.159 264.7 146.159 262.738C146.084 260.097 148.725 254.135 153.101 247.042C156.572 241.534 157.327 239.497 155.893 239.497C154.686 239.497 147.895 246.741 146.914 249.231C145.103 253.532 142.839 251.645 139.066 242.741C136.953 237.61 135.67 231.347 133.331 213.086C131.596 200.258 130.087 194.523 124.276 178.903C122.163 173.093 120.428 167.962 120.428 167.358C120.428 166.528 120.956 166.377 122.465 166.755C124.427 167.283 124.427 167.283 123.974 163.736C122.692 154.455 130.464 164.566 134.614 177.621C137.029 185.317 137.255 187.053 135.972 189.619C135.293 190.826 134.765 193.316 134.765 195.127C134.84 198.296 134.84 198.372 136.123 196.787C136.802 195.957 137.934 194.448 138.613 193.467C139.821 191.58 139.821 191.58 144.122 200.183C148.649 209.087 153.63 222.82 153.63 226.14C153.63 227.197 153.931 228.932 154.309 229.913C154.912 231.423 155.365 231.649 157.478 231.347C160.119 230.97 160.043 230.668 158.459 235.724C157.931 237.535 159.44 237.761 161.477 236.252C162.609 235.422 162.911 233.837 163.213 228.404C163.665 221.009 164.42 218.67 165.703 220.632C167.212 222.971 165.854 235.12 163.665 238.817C162.534 240.704 162.534 241.081 163.741 243.949C164.797 246.741 164.797 247.344 163.892 249.231C162.835 251.193 162.911 251.494 164.646 253.909C166.156 256.022 166.608 257.984 167.212 264.775C167.967 272.623 168.268 274.132 169.023 273.377C169.249 273.151 169.702 253.985 170.004 230.668C170.306 207.351 170.909 188.034 171.211 187.732C171.513 187.355 175.89 191.354 180.795 196.485L189.774 205.918V274.962L189.85 344.006L184.115 352.307C180.945 356.834 177.173 361.815 175.739 363.399L173.098 366.116L174.833 367.248C175.814 367.927 178.003 368.681 179.663 368.908C181.323 369.209 187.812 371.096 194.075 373.133C206.299 377.057 216.939 378.868 222.598 378.038C225.39 377.585 226.296 377.057 227.201 375.397C227.805 374.19 229.088 373.058 229.993 372.756C234.37 371.624 255.498 372.831 255.498 374.19C255.498 375.472 252.254 376.001 241.765 376.604C236.86 376.831 232.861 377.283 232.861 377.585C232.861 378.415 240.633 379.019 258.517 379.472L274.74 380L279.419 374.793C281.909 371.926 285.455 367.398 287.191 364.682C290.436 359.777 309.904 320.841 311.866 315.332C312.469 313.672 313.224 308.843 313.526 304.542C314.054 297.449 314.28 296.619 316.318 294.506C317.525 293.223 320.77 290.733 323.486 288.922C330.202 284.545 337.446 277.377 339.257 273.151C341.445 268.322 342.2 260.776 342.275 244.628C342.275 219.726 340.389 203.578 335.786 190.373C332.39 180.488 325.297 165.547 320.392 158.002C315.865 150.908 315.337 148.569 314.809 134.459C314.28 122.234 312.092 103.596 309.828 92.3528C307.414 80.6567 299.34 55.9818 294.51 45.5686C291.718 39.6074 280.324 27.5341 270.816 20.3655C258.969 11.4614 244.632 4.06653 234.672 1.57639C229.012 0.142673 219.429 -0.385526 213.619 0.293612ZM166.08 67.7534C167.514 68.8098 167.438 68.8852 165.099 70.2435C163.816 70.9981 162.685 71.8281 162.685 72.1299C162.685 72.8091 168.042 76.5065 169.023 76.5065C169.4 76.5065 170.834 75.6765 172.268 74.5446L174.758 72.6581V76.5065C174.758 78.8457 175.362 81.4868 176.267 83.2978C179.285 89.1835 177.474 89.4099 171.06 83.9769C168.495 81.8641 163.439 78.3175 159.817 76.1292C152.271 71.6017 151.366 69.8662 155.29 67.9797C158.383 66.4706 164.194 66.3196 166.08 67.7534ZM156.95 77.5629C162.986 81.5622 170.079 87.5989 171.06 89.5608C172.117 91.5227 171.287 92.1264 169.627 90.6172C167.74 88.8817 166.684 89.0326 164.043 91.2209C162.081 92.881 158.912 93.7865 158.912 92.7301C158.912 92.5792 159.666 90.8436 160.572 89.0326C162.835 84.3542 161.93 83.4487 154.912 83.1469L149.555 82.9205L148.951 80.2794C148.121 76.6574 148.8 74.2428 150.536 74.2428C151.366 74.2428 154.233 75.752 156.95 77.5629ZM223.655 86.2407C223.353 90.2399 221.542 91.5227 221.542 87.6743C221.542 86.3161 221.768 83.826 222.07 82.2414C222.523 79.4494 222.598 79.3739 223.202 81.034C223.579 82.015 223.806 84.3542 223.655 86.2407ZM187.812 97.2576C189.925 99.0686 192.717 100.804 193.924 101.03C198.603 102.011 198.98 102.238 198.527 103.747C198.225 104.502 198.301 105.558 198.527 105.935C199.206 107.067 201.168 105.407 201.168 103.672C201.168 100.351 205.847 101.936 206.752 105.558C207.054 106.614 207.582 107.444 208.035 107.444C209.016 107.444 208.563 104.426 207.13 100.804C206.149 98.5404 206.224 98.1631 207.431 97.2576C209.318 95.8993 220.108 95.0693 230.144 95.5975C239.275 96.0502 243.123 96.8803 245.764 99.0686C247.424 100.351 247.424 100.653 246.519 103.521C245.236 107.369 245.764 108.124 250.82 109.935C252.857 110.689 255.649 112.274 257.083 113.406L259.649 115.594L257.611 116.122C256.027 116.499 255.498 117.103 255.498 118.537C255.498 120.348 255.347 120.423 252.706 119.971C251.122 119.669 245.236 119.291 239.652 119.065C222.07 118.31 215.883 120.499 205.243 131.214C197.471 139.061 194.83 144.193 193.321 154.606C191.585 166.604 190.453 178.753 190.227 189.317C190.076 194.674 189.925 199.202 189.925 199.353C189.699 200.107 186.077 196.938 175.437 186.676C162.307 174.074 161.251 172.49 162.232 166C162.685 163.057 163.515 161.85 167.816 157.473C172.494 152.795 173.098 151.814 174.682 146.381C175.588 143.061 177.701 137.703 179.361 134.534C180.945 131.289 182.304 128.422 182.304 128.12C182.304 127.894 180.719 129.403 178.833 131.516C176.946 133.628 175.135 135.364 174.758 135.364C174.456 135.364 174.607 133.779 175.211 131.817C176.569 127.365 176.569 126.686 175.135 127.818C172.041 130.384 173.098 124.8 176.644 119.593C178.078 117.556 179.663 114.764 180.266 113.33C181.323 110.765 185.473 106.69 186.982 106.69C187.435 106.69 187.51 108.35 187.208 111.368L186.68 116.122L189.095 113.632C190.453 112.274 191.736 111.368 191.887 111.519C192.113 111.746 191.887 113.104 191.359 114.613C190.83 116.122 190.604 117.48 190.755 117.707C191.208 118.084 201.168 111.142 202.602 109.406C204.036 107.671 202.527 107.897 200.036 109.859L197.924 111.519L191.585 104.803C184.19 96.8803 181.851 93.8619 183.058 93.8619C183.586 93.8619 185.699 95.3711 187.812 97.2576ZM255.725 127.516C261.233 129.78 266.515 132.421 267.496 133.327C270.741 136.345 276.627 145.4 277.683 149.022C278.287 151.059 278.966 158.228 279.268 166C279.871 181.62 278.438 342.12 277.608 345.968L277.079 348.534L276.476 346.27C276.098 344.987 275.495 308.164 275.042 264.398C274.212 171.056 273.759 158.303 271.118 150.531C268.779 143.891 265.383 138.458 261.233 134.911C258.29 132.346 242.595 124.045 240.633 124.045C240.18 124.045 239.501 123.668 239.199 123.14C238.067 121.329 246.066 123.366 255.725 127.516ZM231.352 123.819C226.598 124.649 217.92 127.29 215.732 128.648C214.374 129.478 212.638 130.082 211.959 129.931C210.827 129.705 210.978 129.403 212.789 128.195C216.562 125.705 224.636 123.291 229.088 123.442C231.352 123.442 232.408 123.668 231.352 123.819ZM119.221 126.535C119.673 127.215 119.749 127.969 119.447 128.271C118.768 128.95 116.655 127.139 116.655 125.781C116.655 124.423 118.164 124.875 119.221 126.535ZM173.098 140.42C172.947 141.174 172.343 141.778 171.74 141.778C171.136 141.778 170.532 141.174 170.381 140.42C170.23 139.514 170.608 139.137 171.74 139.137C172.871 139.137 173.249 139.514 173.098 140.42ZM225.466 141.853C227.805 143.061 229.39 143.061 237.388 141.703C239.878 141.325 240.331 141.552 243.953 145.4C246.141 147.664 248.858 151.437 249.99 153.776C251.952 157.775 251.952 158.152 251.046 161.171C249.839 164.793 249.688 169.622 250.594 174.376C251.046 177.092 250.895 178.073 249.16 180.941C246.745 185.016 241.463 189.694 239.199 189.694C238.294 189.694 236.558 189.166 235.426 188.562C232.559 187.053 228.258 187.128 225.013 188.638C223.504 189.392 221.693 189.694 220.561 189.392C218.146 188.789 212.336 182.978 209.771 178.677L207.733 175.281L209.167 172.112C210.902 168.264 210.902 162.831 209.167 160.114C206.677 156.266 210.072 149.55 217.618 143.514C221.618 140.269 222.221 140.193 225.466 141.853ZM110.996 152.795C114.316 153.7 115.146 154.53 115.146 156.945C115.146 157.851 115.9 159.435 116.73 160.567C119.598 164.189 117.485 163.661 113.561 159.813C109.411 155.738 106.393 151.965 107.374 151.965C107.675 151.965 109.335 152.342 110.996 152.795ZM115.749 170.829C118.466 172.49 119.673 174.904 119.673 178.828C119.673 180.337 120.428 183.205 121.333 185.242C122.918 189.015 122.918 189.09 121.484 190.449C120.73 191.203 115.448 194.448 109.864 197.693C96.0548 205.54 91.5273 208.71 85.5661 214.369C81.3404 218.444 80.2086 219.123 77.8693 219.123C75.4547 219.123 71.7572 217.689 68.5125 215.501C67.9088 215.048 69.7198 214.973 73.1909 215.199C78.7748 215.501 78.9258 215.501 81.265 213.162C83.2269 211.2 83.5287 210.37 83.1514 208.559C82.5478 205.465 83.6042 203.201 88.3581 197.013C90.6218 194.071 92.5083 191.43 92.5083 191.052C92.5083 188.713 80.3595 201.466 78.8503 205.314C78.473 206.37 78.3976 208.559 78.6994 210.294C79.1521 213.312 79.0767 213.388 77.7939 212.332C74.3228 209.464 73.3418 202.446 76.1338 199.805C77.0393 198.9 78.6239 196.033 79.6049 193.467C80.5858 190.901 81.7932 188.638 82.2459 188.487C82.9251 188.26 83.076 186.751 82.8496 183.808C82.4723 179.583 82.5478 179.507 83.9815 180.79C85.7925 182.45 86.7734 182.45 89.4899 180.941C92.131 179.356 93.6401 179.884 94.3193 182.676C95.5266 187.355 99.9032 195.58 101.488 196.108C103.299 196.636 109.034 194.976 112.731 192.712C114.844 191.43 115.146 190.826 115.146 187.958C115.146 186.147 114.467 182.148 113.637 179.054C112.127 173.244 111.75 169.32 112.731 169.32C113.033 169.32 114.391 169.999 115.749 170.829ZM151.819 179.432C154.158 183.733 154.384 184.487 153.252 184.336C151.819 184.035 148.876 178.828 147.97 174.98C147.14 171.81 148.347 173.169 151.819 179.432ZM166.684 184.487C167.438 187.732 166.231 191.203 164.42 191.203C163.665 191.203 162.081 190.373 160.798 189.317C158.761 187.657 158.685 187.506 160.119 187.43C162.081 187.43 163.062 186.298 163.741 183.431C164.42 180.639 165.854 181.167 166.684 184.487ZM164.948 198.523C164.948 200.183 163.816 199.655 162.458 197.315C160.647 194.222 160.874 193.693 163.062 195.731C164.118 196.712 164.948 197.919 164.948 198.523ZM166.759 202.899C167.287 204.408 166.533 206.295 165.326 206.295C163.967 206.295 163.515 204.71 164.345 203.05C165.175 201.466 166.156 201.39 166.759 202.899ZM220.787 208.559C223.051 210.219 225.315 214.973 225.315 218.217C225.315 220.934 222.372 225.612 219.58 227.423C215.128 230.442 208.639 228.48 205.998 223.499C203.055 217.915 205.394 209.69 210.525 207.351C213.393 205.993 217.995 206.597 220.787 208.559ZM104.582 216.104C103.148 217.312 99.9032 219.5 97.4131 221.009C93.3383 223.424 92.5083 223.65 89.1126 223.198C87.0753 222.971 85.0379 222.443 84.6606 222.141C83.9815 221.462 87.6789 220.255 92.7346 219.5C94.2438 219.274 98.0167 217.765 101.035 216.18C103.978 214.52 106.619 213.388 106.845 213.614C107.072 213.765 106.015 214.897 104.582 216.104ZM77.2657 224.707C77.4166 225.461 77.2657 226.367 76.8884 226.744C75.3792 228.253 72.21 225.386 73.3418 223.575C74.0964 222.367 77.0393 223.198 77.2657 224.707ZM125.71 225.461C125.71 225.688 124.05 227.8 121.937 230.14C119.9 232.479 117.862 235.648 117.41 237.157C116.579 240.176 116.353 255.343 117.108 259.04C117.41 260.398 119.371 263.417 121.635 265.982C123.899 268.473 125.71 270.661 125.71 270.812C125.71 272.698 116.504 264.7 114.768 261.304C113.863 259.719 113.637 256.173 113.637 246.514L113.712 233.837L119.145 229.536C124.125 225.537 125.71 224.631 125.71 225.461ZM99.5259 229.234C99.7523 229.838 99.7523 230.442 99.5259 230.668C98.8468 231.423 97.0358 230.291 97.0358 229.234C97.0358 227.876 98.9977 227.876 99.5259 229.234ZM319.487 246.288C319.487 259.644 318.808 265.001 317.902 259.493C317.223 255.569 317.223 239.27 317.902 234.516C318.808 227.876 319.562 233.233 319.487 246.288ZM334.201 231.649C334.88 232.328 333.9 234.214 332.843 234.214C331.787 234.214 330.806 232.328 331.485 231.649C331.787 231.423 332.39 231.196 332.843 231.196C333.296 231.196 333.9 231.423 334.201 231.649ZM75.9074 235.648C75.9074 236.478 75.6056 237.384 75.1528 237.61C74.7001 237.912 74.3983 237.233 74.3983 236.176C74.3983 235.12 74.7756 234.214 75.1528 234.214C75.6056 234.214 75.9074 234.894 75.9074 235.648ZM95.2248 245.91C95.8284 248.401 94.9984 251.721 93.7911 251.344C92.8101 251.042 92.131 246.816 92.8101 245.08C93.4138 243.42 94.6966 243.873 95.2248 245.91ZM337.522 246.741C337.748 247.42 337.371 249.155 336.691 250.589C335.635 252.777 335.258 253.079 334.352 252.324C332.919 251.117 332.919 249.306 334.428 247.193C335.786 245.231 336.842 245.08 337.522 246.741ZM254.819 250.74C256.479 252.4 257.007 253.683 257.007 255.871C257.007 259.418 253.914 264.398 251.65 264.398C244.708 264.398 242.369 252.702 248.707 249.533C251.499 248.099 252.329 248.325 254.819 250.74ZM77.4166 268.548C77.4166 269.755 76.9638 270.434 76.2847 270.434C75.1528 270.434 74.7001 268.095 75.6811 267.19C76.662 266.133 77.4166 266.737 77.4166 268.548ZM254.517 270.812C257.083 272.623 258.064 276.547 256.706 279.716C254.819 284.243 250.594 285.149 247.198 281.753C245.01 279.565 245.085 273.755 247.349 271.415C249.235 269.454 252.178 269.152 254.517 270.812ZM268.704 289.676C266.817 292.996 265.308 294.053 265.308 292.091C265.308 290.506 270.062 284.319 270.439 285.375C270.59 285.903 269.835 287.79 268.704 289.676ZM132.501 291.563C132.501 292.468 130.388 293.449 129.785 292.846C129.106 292.166 130.237 290.808 131.445 290.808C132.048 290.808 132.501 291.186 132.501 291.563ZM129.03 297.75C128.502 299.637 127.144 301.599 126.766 301.146C126.615 300.995 126.842 299.788 127.295 298.505C128.2 295.788 129.86 295.109 129.03 297.75ZM142.99 301.674C143.594 302.429 143.669 302.882 143.065 303.259C142.084 303.863 140.802 303.032 140.802 301.674C140.802 300.316 141.858 300.316 142.99 301.674ZM156.572 321.142C161.402 327.632 166.457 338.951 166.457 343.403C166.457 346.496 164.646 344.912 163.665 340.988C163.137 339.026 161.326 334.951 159.591 332.008C154.46 323.255 153.026 320.69 152.498 318.879C151.668 316.011 153.403 316.992 156.572 321.142ZM243.274 324.161C242.746 325.595 240.407 325.821 240.407 324.463C240.407 323.708 241.086 323.255 241.991 323.255C242.897 323.255 243.425 323.633 243.274 324.161ZM252.782 336.838C253.989 337.291 254.744 338.121 254.744 339.102C254.744 340.611 254.668 340.611 252.329 339.328C248.632 337.366 226.9 337.366 224.787 339.252C223.202 340.686 221.542 341.063 221.542 340.007C221.542 338.875 224.108 336.989 226.07 336.611C229.842 335.932 250.895 336.083 252.782 336.838ZM206.45 348.911C207.054 350.043 206.979 351.024 206.073 352.986C204.564 356.155 198.376 363.776 195.735 365.738C193.17 367.625 189.85 367.021 189.85 364.606C189.85 362.795 197.094 352.986 200.942 349.59C203.96 347.025 205.318 346.798 206.45 348.911ZM260.252 349.59C261.007 350.118 261.535 351.477 261.535 352.609C261.535 355.627 258.441 361.211 256.177 362.267C255.121 362.795 248.632 363.701 241.765 364.38C234.823 364.984 228.258 365.889 227.126 366.267C225.919 366.719 223.202 368.606 221.089 370.492C216.864 374.039 215.279 374.492 212.638 372.605C208.035 369.436 207.733 364.078 211.732 355.929C215.505 348.232 216.034 348.081 239.728 348.307C254.744 348.458 259.347 348.76 260.252 349.59Z"
    class="color" />
</svg>