<svg width="799" height="130" viewBox="0 0 799 130" fill="none" xmlns="http://www.w3.org/2000/svg">
<g clip-path="url(#clip0_603_10)">
<path d="M60.4222 0.100481C59.5704 0.20374 58.5636 0.410258 58.1764 0.565146C56.9889 1.05562 50.2513 1.44285 44.9334 1.33959C40.3642 1.23633 39.6156 1.1847 38.3507 0.668405C36.4662 -0.0802214 35.7434 -0.0544067 32.7489 0.900737C26.7341 2.81102 22.8102 5.90879 18.8348 11.9236C15.737 16.5703 11.7099 24.6761 10.8839 27.9287C10.1869 30.536 9.98034 34.0984 9.95452 42.1268V49.7163L8.45727 51.8073C3.62992 58.5191 0.893566 65.9796 0.119126 74.3952C-0.500427 81.3909 1.3066 89.6516 5.30788 97.8349C6.3921 100.081 6.77932 100.623 8.04424 101.63C11.5034 104.366 15.7886 106.328 21.3646 107.722C26.1145 108.909 28.9283 109.968 30.9677 111.336C31.8196 111.904 34.6076 114.511 37.1632 117.118C40.6998 120.733 42.068 121.972 42.8166 122.204C43.6169 122.462 43.7718 122.617 43.7718 123.211C43.7718 123.985 44.4688 124.785 45.1399 124.785C45.7079 124.785 45.9144 122.824 45.9402 117.402L45.966 112.962L45.1399 111.981C42.8424 109.245 42.352 107.335 43.4362 105.27C43.7201 104.727 44.3397 103.566 44.7785 102.74C45.6046 101.191 45.8111 99.9259 45.2948 99.5903C44.8818 99.3321 44.1848 100.365 43.6685 101.965C43.4362 102.714 43.1264 103.411 42.9973 103.488C42.6359 103.721 41.9647 102.198 41.7066 100.597C41.5517 99.6677 41.087 98.5319 40.4159 97.4219C39.1251 95.2792 38.5056 92.6461 38.7379 90.1937C38.9186 88.3867 38.8928 88.3867 37.7053 90.0647C37.3697 90.5552 37.3439 90.5552 37.3439 89.884C37.3181 88.9805 38.2216 86.9411 39.7189 84.5145C40.9063 82.63 41.1645 81.933 40.674 81.933C40.261 81.933 37.9376 84.4113 37.6021 85.2631C36.9825 86.7346 36.2081 86.0892 34.9173 83.0431C34.1945 81.2877 33.7557 79.1451 32.9554 72.8979C32.3617 68.5094 31.8454 66.5475 29.8576 61.2039C29.1348 59.2161 28.5411 57.4607 28.5411 57.2542C28.5411 56.9702 28.7218 56.9186 29.2381 57.0477C29.9093 57.2284 29.9093 57.2284 29.7544 56.0151C29.3155 52.8399 31.9745 56.2991 33.3943 60.765C34.2203 63.3981 34.2978 63.9918 33.8589 64.8695C33.6266 65.2826 33.4459 66.1345 33.4459 66.754C33.4717 67.8382 33.4717 67.864 33.9106 67.3219C34.1429 67.038 34.5301 66.5217 34.7624 66.1861C35.1755 65.5407 35.1755 65.5407 36.6469 68.4836C38.1958 71.5297 39.8996 76.228 39.8996 77.3638C39.8996 77.7253 40.0028 78.319 40.1319 78.6546C40.3384 79.1709 40.4933 79.2483 41.2161 79.1451C42.1196 79.016 42.0938 78.9127 41.5517 80.6423C41.371 81.2619 41.8873 81.3393 42.5843 80.823C42.9715 80.5391 43.0748 79.9969 43.178 78.1383C43.3329 75.6084 43.5911 74.8082 44.0299 75.4794C44.5462 76.2796 44.0815 80.4358 43.3329 81.7007C42.9457 82.3461 42.9457 82.4752 43.3587 83.4561C43.7201 84.4113 43.7201 84.6178 43.4104 85.2631C43.049 85.9343 43.0748 86.0376 43.6685 86.8637C44.1848 87.5865 44.3397 88.2576 44.5462 90.581C44.8044 93.2657 44.9076 93.782 45.1658 93.5238C45.2432 93.4464 45.3981 86.8895 45.5014 78.9127C45.6046 70.936 45.8111 64.3274 45.9144 64.2242C46.0176 64.0951 47.5149 65.4633 49.1929 67.2187L52.2648 70.4455V94.066L52.2906 117.686L50.3287 120.526C49.2445 122.075 47.9537 123.779 47.4633 124.321L46.5598 125.25L47.1535 125.637C47.4891 125.87 48.2377 126.128 48.8056 126.205C49.3736 126.308 51.5936 126.954 53.7362 127.651C57.9182 128.993 61.5581 129.613 63.4942 129.329C64.4493 129.174 64.7591 128.993 65.0689 128.425C65.2754 128.012 65.7143 127.625 66.024 127.522C67.5213 127.135 74.7494 127.548 74.7494 128.012C74.7494 128.451 73.6394 128.632 70.0511 128.838C68.3732 128.916 67.005 129.071 67.005 129.174C67.005 129.458 69.6639 129.664 75.782 129.819L81.3321 130L82.9327 128.219C83.7845 127.238 84.9978 125.689 85.5916 124.76C86.7016 123.082 93.3618 109.761 94.033 107.877C94.2395 107.309 94.4976 105.657 94.6009 104.185C94.7816 101.759 94.859 101.475 95.556 100.752C95.9691 100.313 97.0791 99.4612 98.0084 98.8417C100.306 97.3444 102.784 94.892 103.404 93.4464C104.152 91.7943 104.41 89.2128 104.436 83.6884C104.436 75.1696 103.791 69.6453 102.216 65.1277C101.055 61.746 98.628 56.6347 96.95 54.0532C95.4012 51.6266 95.2205 50.8263 95.0397 45.999C94.859 41.817 94.1104 35.4408 93.336 31.5944C92.5099 27.5931 89.7477 19.1517 88.0956 15.5893C87.1405 13.5499 83.2424 9.41958 79.9898 6.96719C75.9369 3.92106 71.0321 1.39122 67.6245 0.539331C65.6884 0.0488521 62.41 -0.131851 60.4222 0.100481ZM44.159 23.1788C44.6495 23.5402 44.6237 23.566 43.8234 24.0307C43.3845 24.2888 42.9973 24.5728 42.9973 24.6761C42.9973 24.9084 44.8302 26.1733 45.1658 26.1733C45.2948 26.1733 45.7853 25.8894 46.2758 25.5021L47.1277 24.8568V26.1733C47.1277 26.9736 47.3342 27.8771 47.644 28.4966C48.6766 30.5102 48.057 30.5876 45.8628 28.729C44.9851 28.0062 43.2555 26.7929 42.0164 26.0442C39.4349 24.4954 39.1251 23.9016 40.4675 23.2563C41.5259 22.74 43.5136 22.6883 44.159 23.1788ZM41.0354 26.5347C43.1006 27.9029 45.5272 29.9681 45.8628 30.6393C46.2242 31.3104 45.9402 31.517 45.3723 31.0007C44.7269 30.4069 44.3655 30.4586 43.462 31.2072C42.7908 31.7751 41.7066 32.0849 41.7066 31.7235C41.7066 31.6718 41.9647 31.0781 42.2745 30.4586C43.049 28.858 42.7392 28.5483 40.3384 28.445L38.5056 28.3676L38.2991 27.4641C38.0151 26.2249 38.2474 25.3989 38.8412 25.3989C39.1251 25.3989 40.1061 25.9152 41.0354 26.5347ZM63.8556 29.5034C63.7523 30.8716 63.1328 31.3104 63.1328 29.9939C63.1328 29.5292 63.2102 28.6773 63.3135 28.1352C63.4684 27.1801 63.4942 27.1543 63.7007 27.7222C63.8298 28.0578 63.9072 28.858 63.8556 29.5034ZM51.5936 33.2724C52.3164 33.8919 53.2716 34.4856 53.6846 34.5631C55.2851 34.8987 55.4142 34.9761 55.2593 35.4924C55.1561 35.7506 55.1819 36.112 55.2593 36.241C55.4916 36.6283 56.1628 36.0603 56.1628 35.4666C56.1628 34.3308 57.7633 34.8729 58.0731 36.112C58.1764 36.4734 58.3571 36.7573 58.512 36.7573C58.8476 36.7573 58.6927 35.7248 58.2022 34.4856C57.8666 33.7112 57.8924 33.5821 58.3054 33.2724C58.9508 32.8077 62.6423 32.5237 66.0757 32.7044C69.1992 32.8593 70.5158 33.1433 71.4193 33.8919C71.9872 34.3308 71.9872 34.434 71.6775 35.415C71.2386 36.7315 71.4193 36.9897 73.1489 37.6092C73.8459 37.8674 74.801 38.4095 75.2915 38.7967L76.1692 39.5453L75.4722 39.726C74.9301 39.8551 74.7494 40.0616 74.7494 40.5521C74.7494 41.1717 74.6978 41.1975 73.7943 41.0426C73.2521 40.9393 71.2386 40.8102 69.3283 40.7328C63.3135 40.4747 61.1967 41.2233 57.5568 44.889C54.8979 47.5737 53.9944 49.3291 53.4781 52.8915C52.8844 56.9961 52.4971 61.1522 52.4197 64.7663C52.3681 66.5991 52.3164 68.148 52.3164 68.1996C52.239 68.4578 50.9999 67.3736 47.36 63.8628C42.8683 59.5517 42.5068 59.0096 42.8424 56.7895C42.9973 55.7828 43.2813 55.3697 44.7527 53.8725C46.3532 52.272 46.5598 51.9364 47.1019 50.0777C47.4116 48.9419 48.1345 47.109 48.7024 46.0248C49.2445 44.9148 49.7091 43.9338 49.7091 43.8306C49.7091 43.7531 49.167 44.2694 48.5217 44.9922C47.8763 45.715 47.2568 46.3088 47.1277 46.3088C47.0244 46.3088 47.076 45.7667 47.2826 45.0955C47.7472 43.5724 47.7472 43.3401 47.2568 43.7273C46.1983 44.605 46.5598 42.6947 47.773 40.9135C48.2635 40.2165 48.8056 39.2614 49.0122 38.7709C49.3736 37.8932 50.7934 36.4992 51.3097 36.4992C51.4645 36.4992 51.4904 37.0671 51.3871 38.0997L51.2064 39.726L52.0325 38.8741C52.4971 38.4095 52.936 38.0997 52.9876 38.1513C53.0651 38.2288 52.9876 38.6934 52.8069 39.2097C52.6262 39.726 52.5488 40.1907 52.6004 40.2681C52.7553 40.3972 56.1628 38.0223 56.6533 37.4285C57.1438 36.8348 56.6275 36.9122 55.7756 37.5834L55.0528 38.1513L52.8844 35.8538C50.3545 33.1433 49.5543 32.1107 49.9673 32.1107C50.148 32.1107 50.8708 32.627 51.5936 33.2724ZM74.8268 43.624C76.7113 44.3985 78.5183 45.302 78.8539 45.6118C79.964 46.6444 81.9775 49.7421 82.3389 50.9812C82.5454 51.6782 82.7778 54.1306 82.881 56.7895C83.0875 62.1332 82.5971 117.041 82.3131 118.358L82.1324 119.235L81.9259 118.461C81.7968 118.022 81.5903 105.424 81.4354 90.4519C81.1514 58.5191 80.9966 54.1564 80.093 51.4975C79.2928 49.2258 78.1311 47.3672 76.7113 46.1539C75.7045 45.2762 70.3351 42.4366 69.6639 42.4366C69.509 42.4366 69.2767 42.3075 69.1734 42.1268C68.7862 41.5072 71.5226 42.2042 74.8268 43.624ZM66.4887 42.3591C64.8624 42.6431 61.8937 43.5466 61.1451 44.0113C60.6804 44.2952 60.0867 44.5017 59.8543 44.4501C59.4671 44.3727 59.5187 44.2694 60.1383 43.8564C61.429 43.0045 64.1912 42.1784 65.7143 42.2301C66.4887 42.2301 66.8501 42.3075 66.4887 42.3591ZM28.1281 43.2885C28.283 43.5208 28.3088 43.7789 28.2055 43.8822C27.9732 44.1145 27.2504 43.495 27.2504 43.0303C27.2504 42.5656 27.7667 42.7205 28.1281 43.2885ZM46.5598 48.0384C46.5081 48.2965 46.3016 48.503 46.0951 48.503C45.8886 48.503 45.6821 48.2965 45.6304 48.0384C45.5788 47.7286 45.7079 47.5995 46.0951 47.5995C46.4823 47.5995 46.6114 47.7286 46.5598 48.0384ZM64.4752 48.5288C65.2754 48.9419 65.8175 48.9419 68.5539 48.4772C69.4058 48.3481 69.5606 48.4256 70.7998 49.7421C71.5484 50.5166 72.4777 51.8073 72.8649 52.6076C73.5361 53.9757 73.5361 54.1048 73.2263 55.1374C72.8133 56.3765 72.7617 58.0286 73.0714 59.655C73.2263 60.5843 73.1747 60.9199 72.581 61.9008C71.7549 63.2948 69.9479 64.8954 69.1734 64.8954C68.8637 64.8954 68.2699 64.7146 67.8827 64.5081C66.9017 63.9918 65.4303 64.0177 64.3203 64.5339C63.804 64.7921 63.1844 64.8954 62.7972 64.7921C61.9711 64.5856 59.9834 62.5978 59.1057 61.1264L58.4087 59.9647L58.8992 58.8805C59.4929 57.564 59.4929 55.7053 58.8992 54.776C58.0473 53.4594 59.209 51.1619 61.7904 49.0968C63.1586 47.9867 63.3651 47.9609 64.4752 48.5288ZM25.3143 52.272C26.4501 52.5817 26.7341 52.8657 26.7341 53.6918C26.7341 54.0016 26.9922 54.5437 27.2762 54.9309C28.2571 56.17 27.5343 55.9893 26.192 54.6727C24.7722 53.2787 23.7396 51.988 24.0752 51.988C24.1784 51.988 24.7463 52.1171 25.3143 52.272ZM26.9406 58.4417C27.8699 59.0096 28.283 59.8357 28.283 61.178C28.283 61.6943 28.5411 62.6753 28.8509 63.3723C29.393 64.663 29.393 64.6888 28.9025 65.1535C28.6444 65.4116 26.8373 66.5217 24.927 67.6317C20.203 70.3164 18.6541 71.4007 16.6147 73.3368C15.1691 74.7307 14.7819 74.9631 13.9816 74.9631C13.1555 74.9631 11.8906 74.4726 10.7806 73.724C10.5741 73.5691 11.1936 73.5433 12.3811 73.6207C14.2914 73.724 14.343 73.724 15.1433 72.9237C15.8145 72.2525 15.9177 71.9686 15.7886 71.349C15.5821 70.2906 15.9435 69.5162 17.5699 67.3994C18.3443 66.3926 18.9897 65.4891 18.9897 65.36C18.9897 64.5598 14.8335 68.9224 14.3172 70.239C14.1881 70.6004 14.1623 71.349 14.2656 71.9428C14.4205 72.9754 14.3946 73.0012 13.9558 72.6398C12.7683 71.6588 12.4327 69.258 13.3879 68.3545C13.6977 68.0447 14.2398 67.0638 14.5754 66.1861C14.9109 65.3084 15.324 64.5339 15.4789 64.4823C15.7112 64.4049 15.7628 63.8886 15.6854 62.8818C15.5563 61.4362 15.5821 61.4104 16.0726 61.8492C16.6922 62.4171 17.0277 62.4171 17.9571 61.9008C18.8606 61.3587 19.3769 61.5394 19.6092 62.4946C20.0223 64.0951 21.5195 66.9089 22.0616 67.0896C22.6812 67.2703 24.6431 66.7024 25.908 65.9279C26.6308 65.4891 26.7341 65.2826 26.7341 64.3016C26.7341 63.6821 26.5017 62.3139 26.2178 61.2555C25.7015 59.2678 25.5724 57.9254 25.908 57.9254C26.0113 57.9254 26.4759 58.1577 26.9406 58.4417ZM39.28 61.3846C40.0803 62.856 40.1577 63.1141 39.7705 63.0625C39.28 62.9593 38.2732 61.178 37.9635 59.8615C37.6795 58.7773 38.0925 59.2419 39.28 61.3846ZM44.3655 63.1141C44.6237 64.2242 44.2106 65.4116 43.5911 65.4116C43.3329 65.4116 42.7908 65.1277 42.352 64.7663C41.655 64.1984 41.6291 64.1467 42.1196 64.1209C42.7908 64.1209 43.1264 63.7337 43.3587 62.7527C43.5911 61.7976 44.0815 61.9783 44.3655 63.1141ZM43.7718 67.9157C43.7718 68.4836 43.3845 68.3029 42.9199 67.5026C42.3003 66.4442 42.3778 66.2635 43.1264 66.9605C43.4878 67.2961 43.7718 67.7092 43.7718 67.9157ZM44.3913 69.4129C44.572 69.9292 44.3139 70.5746 43.9008 70.5746C43.4362 70.5746 43.2813 70.0325 43.5653 69.4646C43.8492 68.9224 44.1848 68.8966 44.3913 69.4129ZM62.8746 71.349C63.6491 71.9169 64.4235 73.5433 64.4235 74.6533C64.4235 75.5826 63.4168 77.1831 62.4616 77.8027C60.9385 78.8353 58.7185 78.1641 57.815 76.4603C56.8082 74.55 57.6084 71.7362 59.3638 70.936C60.3448 70.4713 61.9195 70.6778 62.8746 71.349ZM23.12 73.9305C22.6295 74.3435 21.5195 75.0922 20.6676 75.6084C19.2736 76.4345 18.9897 76.512 17.828 76.3571C17.131 76.2796 16.434 76.0989 16.3049 75.9957C16.0726 75.7633 17.3375 75.3503 19.0671 75.0922C19.5834 75.0147 20.8741 74.4984 21.9067 73.9563C22.9135 73.3884 23.817 73.0012 23.8945 73.0786C23.9719 73.1302 23.6105 73.5175 23.12 73.9305ZM13.7751 76.8734C13.8267 77.1315 13.7751 77.4413 13.646 77.5704C13.1297 78.0867 12.0455 77.1057 12.4327 76.4861C12.6909 76.0731 13.6977 76.3571 13.7751 76.8734ZM30.3481 77.1315C30.3481 77.209 29.7802 77.9318 29.0574 78.732C28.3604 79.5323 27.6634 80.6165 27.5085 81.1328C27.2246 82.1654 27.1471 87.3541 27.4053 88.6191C27.5085 89.0837 28.1797 90.1163 28.9541 90.994C29.7286 91.8459 30.3481 92.5945 30.3481 92.6461C30.3481 93.2915 27.1987 90.5552 26.605 89.3935C26.2952 88.8514 26.2178 87.6381 26.2178 84.3338L26.2436 79.9969L28.1023 78.5255C29.806 77.1573 30.3481 76.8476 30.3481 77.1315ZM21.3904 78.4222C21.4679 78.6288 21.4679 78.8353 21.3904 78.9127C21.1581 79.1709 20.5385 78.7837 20.5385 78.4222C20.5385 77.9576 21.2097 77.9576 21.3904 78.4222ZM96.6403 84.2564C96.6403 88.8256 96.4079 90.6584 96.0982 88.7739C95.8658 87.4316 95.8658 81.8556 96.0982 80.2293C96.4079 77.9576 96.6661 79.7904 96.6403 84.2564ZM101.674 79.2483C101.906 79.4807 101.571 80.126 101.209 80.126C100.848 80.126 100.512 79.4807 100.745 79.2483C100.848 79.1709 101.055 79.0934 101.209 79.0934C101.364 79.0934 101.571 79.1709 101.674 79.2483ZM13.3104 80.6165C13.3104 80.9005 13.2072 81.2102 13.0523 81.2877C12.8974 81.3909 12.7941 81.1586 12.7941 80.7972C12.7941 80.4358 12.9232 80.126 13.0523 80.126C13.2072 80.126 13.3104 80.3584 13.3104 80.6165ZM19.919 84.1273C20.1255 84.9792 19.8415 86.115 19.4285 85.986C19.0929 85.8827 18.8606 84.4371 19.0929 83.8433C19.2994 83.2754 19.7383 83.4303 19.919 84.1273ZM102.81 84.4113C102.887 84.6436 102.758 85.2373 102.526 85.7278C102.165 86.4764 102.036 86.5797 101.726 86.3215C101.235 85.9085 101.235 85.289 101.752 84.5661C102.216 83.895 102.578 83.8433 102.81 84.4113ZM74.5171 85.7794C75.085 86.3474 75.2657 86.7862 75.2657 87.5348C75.2657 88.7481 74.2073 90.4519 73.4329 90.4519C71.0579 90.4519 70.2576 86.4506 72.4261 85.3664C73.3812 84.8759 73.6652 84.9534 74.5171 85.7794ZM13.8267 91.8717C13.8267 92.2847 13.6718 92.5171 13.4395 92.5171C13.0523 92.5171 12.8974 91.7168 13.233 91.407C13.5686 91.0456 13.8267 91.2522 13.8267 91.8717ZM74.4138 92.6461C75.2915 93.2657 75.6271 94.6081 75.1624 95.6923C74.5171 97.2412 73.0714 97.5509 71.9098 96.3893C71.1612 95.6406 71.187 93.6529 71.9614 92.8527C72.6068 92.1815 73.6136 92.0782 74.4138 92.6461ZM79.267 99.0998C78.6216 100.236 78.1053 100.597 78.1053 99.9259C78.1053 99.3838 79.7316 97.267 79.8607 97.6284C79.9123 97.8091 79.6542 98.4544 79.267 99.0998ZM32.6715 99.7452C32.6715 100.055 31.9486 100.391 31.7421 100.184C31.5098 99.9517 31.897 99.487 32.31 99.487C32.5166 99.487 32.6715 99.6161 32.6715 99.7452ZM31.484 101.862C31.3033 102.507 30.8386 103.179 30.7095 103.024C30.6579 102.972 30.7353 102.559 30.8902 102.12C31.2 101.191 31.7679 100.958 31.484 101.862ZM36.2597 103.204C36.4662 103.462 36.492 103.617 36.2855 103.746C35.9499 103.953 35.5111 103.669 35.5111 103.204C35.5111 102.74 35.8725 102.74 36.2597 103.204ZM40.9063 109.865C42.5585 112.085 44.2881 115.957 44.2881 117.48C44.2881 118.538 43.6685 117.996 43.3329 116.654C43.1522 115.983 42.5327 114.589 41.9389 113.582C40.1835 110.587 39.693 109.71 39.5123 109.09C39.2284 108.109 39.8221 108.445 40.9063 109.865ZM70.5674 110.897C70.3867 111.388 69.5865 111.465 69.5865 111C69.5865 110.742 69.8188 110.587 70.1286 110.587C70.4383 110.587 70.6191 110.716 70.5674 110.897ZM73.8201 115.234C74.2331 115.389 74.4913 115.673 74.4913 116.008C74.4913 116.525 74.4654 116.525 73.6652 116.086C72.4003 115.415 64.9656 115.415 64.2428 116.06C63.7007 116.551 63.1328 116.68 63.1328 116.318C63.1328 115.931 64.0105 115.286 64.6817 115.157C65.9724 114.924 73.1747 114.976 73.8201 115.234ZM57.9699 119.364C58.1764 119.752 58.1506 120.087 57.8408 120.758C57.3245 121.843 55.2077 124.45 54.3042 125.121C53.4265 125.766 52.2906 125.56 52.2906 124.734C52.2906 124.114 54.7688 120.758 56.0854 119.597C57.118 118.719 57.5826 118.642 57.9699 119.364ZM76.3757 119.597C76.6339 119.777 76.8146 120.242 76.8146 120.629C76.8146 121.662 75.7562 123.572 74.9817 123.934C74.6203 124.114 72.4003 124.424 70.0511 124.656C67.6762 124.863 65.4303 125.173 65.0431 125.302C64.63 125.457 63.7007 126.102 62.9779 126.747C61.5323 127.961 60.9902 128.116 60.0867 127.47C58.512 126.386 58.4087 124.553 59.7769 121.765C61.0676 119.132 61.2483 119.08 69.3541 119.158C74.4913 119.209 76.066 119.313 76.3757 119.597Z" fill="black"/>
<path d="M44.6238 55.7827C44.0559 57.2542 44.7013 60.6875 45.3466 59.6808C45.6048 59.2935 45.6564 56.7637 45.4241 55.9118C45.2176 55.2406 44.8562 55.1632 44.6238 55.7827Z" fill="black"/>
<path d="M64.2686 51.8589C63.3393 52.272 61.842 53.6143 61.842 54.0532C61.842 54.2081 62.2034 54.079 62.6165 53.7434C64.5784 52.272 65.0689 51.988 65.7659 51.988C68.4506 51.988 70.5932 54.8534 70.2834 58.0287C70.1802 59.2936 70.1802 59.2936 70.5416 58.5708C71.0579 57.6156 71.0063 55.3181 70.4641 54.2597C69.922 53.1497 69.1218 52.2978 68.2441 51.8331C67.3664 51.3943 65.327 51.3943 64.2686 51.8589Z" fill="black"/>
<path d="M38.5057 80.7972C38.2734 81.4167 38.325 82.1912 38.6089 82.1912C38.9187 82.1912 39.3834 81.3393 39.3834 80.7972C39.3834 80.2551 38.7122 80.2551 38.5057 80.7972Z" fill="black"/>
<path d="M45.0625 97.8349C45.0625 98.1963 45.1658 98.4287 45.3206 98.3254C45.4755 98.248 45.5788 97.9382 45.5788 97.6542C45.5788 97.3961 45.4755 97.1637 45.3206 97.1637C45.1916 97.1637 45.0625 97.4735 45.0625 97.8349Z" fill="black"/>
<path d="M44.572 105.708C44.4172 106.173 44.2881 107.231 44.2881 108.057C44.2881 110.303 45.0883 111.491 45.4497 109.787C45.6563 108.832 45.3465 104.908 45.0625 104.908C44.9593 104.908 44.7269 105.269 44.572 105.708Z" fill="black"/>
<path d="M134.3 29.9C135.1 29.9 135.933 30.1 136.8 30.5C137.667 30.9 138.333 31.4667 138.8 32.2L164.2 70.9L159.9 70.7L185.8 32.2C186.867 30.6667 188.233 29.9 189.9 29.9C191.233 29.9 192.4 30.4 193.4 31.4C194.467 32.3333 195 33.5333 195 35V94.9C195 96.3667 194.533 97.6 193.6 98.6C192.667 99.5333 191.433 100 189.9 100C188.3 100 187 99.5333 186 98.6C185.067 97.6 184.6 96.3667 184.6 94.9V44.2L187.8 44.9L165.8 78.4C165.333 79 164.733 79.5333 164 80C163.267 80.4 162.5 80.5667 161.7 80.5C160.967 80.5667 160.2 80.4 159.4 80C158.667 79.5333 158.067 79 157.6 78.4L136.4 45.4L138.8 41.4V94.9C138.8 96.3667 138.333 97.6 137.4 98.6C136.533 99.5333 135.367 100 133.9 100C132.5 100 131.333 99.5333 130.4 98.6C129.533 97.6 129.1 96.3667 129.1 94.9V35C129.1 33.6 129.6 32.4 130.6 31.4C131.667 30.4 132.9 29.9 134.3 29.9ZM234.727 101C229.193 101 224.393 99.8667 220.327 97.6C216.26 95.2667 213.093 92.1 210.827 88.1C208.627 84.0333 207.527 79.4 207.527 74.2C207.527 68.3333 208.693 63.3333 211.027 59.2C213.427 55 216.527 51.8 220.327 49.6C224.127 47.3333 228.16 46.2 232.427 46.2C235.693 46.2 238.793 46.8667 241.727 48.2C244.66 49.4667 247.26 51.2667 249.527 53.6C251.86 55.8667 253.693 58.5667 255.027 61.7C256.36 64.7667 257.06 68.1333 257.127 71.8C257.06 73.1333 256.527 74.2333 255.527 75.1C254.527 75.9667 253.36 76.4 252.027 76.4H213.127L210.727 67.9H248.327L246.427 69.7V67.2C246.293 64.8667 245.527 62.8333 244.127 61.1C242.727 59.3 240.993 57.9333 238.927 57C236.86 56 234.693 55.5 232.427 55.5C230.427 55.5 228.493 55.8333 226.627 56.5C224.827 57.1 223.193 58.1 221.727 59.5C220.327 60.9 219.193 62.7667 218.327 65.1C217.527 67.3667 217.127 70.2 217.127 73.6C217.127 77.2667 217.893 80.4667 219.427 83.2C220.96 85.9333 223.027 88.0667 225.627 89.6C228.227 91.0667 231.093 91.8 234.227 91.8C236.693 91.8 238.727 91.5667 240.327 91.1C241.927 90.5667 243.26 89.9333 244.327 89.2C245.393 88.4667 246.327 87.7667 247.127 87.1C248.127 86.5 249.127 86.2 250.127 86.2C251.327 86.2 252.327 86.6333 253.127 87.5C253.927 88.3 254.327 89.2667 254.327 90.4C254.327 91.8667 253.593 93.2 252.127 94.4C250.327 96.1333 247.827 97.6667 244.627 99C241.493 100.333 238.193 101 234.727 101ZM294.83 46.5C299.763 46.5 303.563 47.7333 306.23 50.2C308.896 52.6 310.663 55.8667 311.53 60L309.93 59.5L310.63 57.9C311.496 56.1667 312.796 54.4333 314.53 52.7C316.33 50.9 318.463 49.4333 320.93 48.3C323.396 47.1 326.03 46.5 328.83 46.5C333.43 46.5 336.996 47.5 339.53 49.5C342.063 51.4333 343.83 54.0667 344.83 57.4C345.83 60.6667 346.33 64.3333 346.33 68.4V94.9C346.33 96.3667 345.863 97.6 344.93 98.6C343.996 99.5333 342.796 100 341.33 100C339.93 100 338.73 99.5333 337.73 98.6C336.796 97.6 336.33 96.3667 336.33 94.9V68.5C336.33 66.1667 335.996 64.0333 335.33 62.1C334.73 60.1667 333.63 58.6333 332.03 57.5C330.496 56.3 328.363 55.7 325.63 55.7C323.03 55.7 320.696 56.3 318.63 57.5C316.63 58.6333 315.063 60.1667 313.93 62.1C312.796 64.0333 312.23 66.1667 312.23 68.5V94.9C312.23 96.3667 311.763 97.6 310.83 98.6C309.896 99.5333 308.696 100 307.23 100C305.763 100 304.563 99.5333 303.63 98.6C302.696 97.6 302.23 96.3667 302.23 94.9V68.4C302.23 66.0667 301.896 63.9333 301.23 62C300.63 60.0667 299.563 58.5333 298.03 57.4C296.496 56.2667 294.363 55.7 291.63 55.7C289.03 55.7 286.73 56.2667 284.73 57.4C282.73 58.5333 281.163 60.0667 280.03 62C278.963 63.9333 278.43 66.0667 278.43 68.4V94.9C278.43 96.3667 277.93 97.6 276.93 98.6C275.996 99.5333 274.83 100 273.43 100C271.963 100 270.763 99.5333 269.83 98.6C268.896 97.6 268.43 96.3667 268.43 94.9V52.5C268.43 51.0333 268.896 49.8333 269.83 48.9C270.763 47.9 271.963 47.4 273.43 47.4C274.83 47.4 275.996 47.9 276.93 48.9C277.93 49.8333 278.43 51.0333 278.43 52.5V58.4L276.53 59.5C276.996 58.0333 277.763 56.5333 278.83 55C279.896 53.4667 281.23 52.0667 282.83 50.8C284.496 49.5333 286.33 48.5 288.33 47.7C290.33 46.9 292.496 46.5 294.83 46.5ZM410.724 73.7C410.724 79.0333 409.558 83.7667 407.224 87.9C404.891 91.9667 401.724 95.1667 397.724 97.5C393.724 99.8333 389.224 101 384.224 101C379.224 101 374.724 99.8333 370.724 97.5C366.724 95.1667 363.524 91.9667 361.124 87.9C358.791 83.7667 357.624 79.0333 357.624 73.7C357.624 68.3 358.791 63.5667 361.124 59.5C363.524 55.3667 366.724 52.1333 370.724 49.8C374.724 47.4 379.224 46.2 384.224 46.2C389.224 46.2 393.724 47.4 397.724 49.8C401.724 52.1333 404.891 55.3667 407.224 59.5C409.558 63.5667 410.724 68.3 410.724 73.7ZM400.724 73.7C400.724 70.0333 399.991 66.8667 398.524 64.2C397.058 61.4667 395.058 59.3333 392.524 57.8C390.058 56.2 387.291 55.4 384.224 55.4C381.158 55.4 378.358 56.2 375.824 57.8C373.291 59.3333 371.291 61.4667 369.824 64.2C368.358 66.8667 367.624 70.0333 367.624 73.7C367.624 77.2333 368.358 80.3667 369.824 83.1C371.291 85.8333 373.291 87.9667 375.824 89.5C378.358 91.0333 381.158 91.8 384.224 91.8C387.291 91.8 390.058 91.0333 392.524 89.5C395.058 87.9667 397.058 85.8333 398.524 83.1C399.991 80.3667 400.724 77.2333 400.724 73.7ZM427.043 100C425.576 100 424.376 99.5333 423.443 98.6C422.51 97.6 422.043 96.3667 422.043 94.9V52.5C422.043 51.0333 422.51 49.8333 423.443 48.9C424.376 47.9 425.576 47.4 427.043 47.4C428.443 47.4 429.61 47.9 430.543 48.9C431.543 49.8333 432.043 51.0333 432.043 52.5V63.7L431.043 59.4C431.576 57.5333 432.376 55.8 433.443 54.2C434.576 52.6 435.91 51.2 437.443 50C438.976 48.8 440.676 47.8667 442.543 47.2C444.476 46.5333 446.476 46.2 448.543 46.2C450.276 46.2 451.776 46.6667 453.043 47.6C454.31 48.5333 454.943 49.7 454.943 51.1C454.943 52.9 454.476 54.2333 453.543 55.1C452.61 55.9 451.576 56.3 450.443 56.3C449.443 56.3 448.476 56.1 447.543 55.7C446.61 55.2333 445.51 55 444.243 55C442.843 55 441.41 55.3667 439.943 56.1C438.476 56.8333 437.143 57.9333 435.943 59.4C434.743 60.8 433.776 62.4667 433.043 64.4C432.376 66.3333 432.043 68.5 432.043 70.9V94.9C432.043 96.3667 431.543 97.6 430.543 98.6C429.61 99.5333 428.443 100 427.043 100ZM505.768 46.6C507.235 46.6 508.435 47.1 509.368 48.1C510.301 49.0333 510.768 50.2333 510.768 51.7V94.9C510.768 96.3667 510.301 97.6 509.368 98.6C508.435 99.5333 507.235 100 505.768 100C504.368 100 503.168 99.5333 502.168 98.6C501.235 97.6 500.768 96.3667 500.768 94.9V87.7L502.868 88C502.868 89.2 502.368 90.5333 501.368 92C500.435 93.4667 499.135 94.9 497.468 96.3C495.801 97.6333 493.835 98.7667 491.568 99.7C489.301 100.567 486.868 101 484.268 101C479.668 101 475.535 99.8333 471.868 97.5C468.201 95.1 465.301 91.8333 463.168 87.7C461.035 83.5667 459.968 78.8667 459.968 73.6C459.968 68.2 461.035 63.4667 463.168 59.4C465.301 55.2667 468.168 52.0333 471.768 49.7C475.435 47.3667 479.501 46.2 483.968 46.2C486.835 46.2 489.468 46.6667 491.868 47.6C494.335 48.5333 496.468 49.7333 498.268 51.2C500.068 52.6667 501.435 54.2333 502.368 55.9C503.368 57.5 503.868 59.0333 503.868 60.5L500.768 60.8V51.7C500.768 50.3 501.235 49.1 502.168 48.1C503.168 47.1 504.368 46.6 505.768 46.6ZM485.368 91.8C488.501 91.8 491.268 91 493.668 89.4C496.068 87.8 497.935 85.6333 499.268 82.9C500.601 80.1 501.268 77 501.268 73.6C501.268 70.1333 500.601 67.0333 499.268 64.3C497.935 61.5667 496.068 59.4 493.668 57.8C491.268 56.2 488.501 55.4 485.368 55.4C482.301 55.4 479.568 56.2 477.168 57.8C474.835 59.4 472.968 61.5667 471.568 64.3C470.235 67.0333 469.568 70.1333 469.568 73.6C469.568 77 470.235 80.1 471.568 82.9C472.968 85.6333 474.835 87.8 477.168 89.4C479.568 91 482.301 91.8 485.368 91.8ZM551.877 46.2C556.611 46.2 560.277 47.2 562.877 49.2C565.477 51.1333 567.277 53.7667 568.277 57.1C569.344 60.3667 569.877 64.0333 569.877 68.1V94.9C569.877 96.3667 569.377 97.6 568.377 98.6C567.444 99.5333 566.277 100 564.877 100C563.411 100 562.211 99.5333 561.277 98.6C560.344 97.6 559.877 96.3667 559.877 94.9V68.2C559.877 65.8 559.544 63.6667 558.877 61.8C558.211 59.8667 557.044 58.3333 555.377 57.2C553.777 56 551.511 55.4 548.577 55.4C545.844 55.4 543.444 56 541.377 57.2C539.311 58.3333 537.677 59.8667 536.477 61.8C535.344 63.6667 534.777 65.8 534.777 68.2V94.9C534.777 96.3667 534.277 97.6 533.277 98.6C532.344 99.5333 531.177 100 529.777 100C528.311 100 527.111 99.5333 526.177 98.6C525.244 97.6 524.777 96.3667 524.777 94.9V52.5C524.777 51.0333 525.244 49.8333 526.177 48.9C527.111 47.9 528.311 47.4 529.777 47.4C531.177 47.4 532.344 47.9 533.277 48.9C534.277 49.8333 534.777 51.0333 534.777 52.5V58.1L532.977 59.1C533.444 57.6333 534.244 56.1667 535.377 54.7C536.577 53.1667 538.011 51.7667 539.677 50.5C541.344 49.1667 543.211 48.1333 545.277 47.4C547.344 46.6 549.544 46.2 551.877 46.2ZM626.862 26C628.328 26 629.528 26.4667 630.462 27.4C631.395 28.3333 631.862 29.5667 631.862 31.1V94.9C631.862 96.3667 631.395 97.6 630.462 98.6C629.528 99.5333 628.328 100 626.862 100C625.462 100 624.262 99.5333 623.262 98.6C622.328 97.6 621.862 96.3667 621.862 94.9V87.7L623.962 87.8C623.962 89 623.462 90.3667 622.462 91.9C621.528 93.3667 620.228 94.8 618.562 96.2C616.895 97.6 614.928 98.7667 612.662 99.7C610.395 100.567 607.962 101 605.362 101C600.762 101 596.628 99.8333 592.962 97.5C589.295 95.1 586.395 91.8667 584.262 87.8C582.128 83.6667 581.062 78.9333 581.062 73.6C581.062 68.2667 582.128 63.5667 584.262 59.5C586.395 55.3667 589.262 52.1333 592.862 49.8C596.528 47.4 600.595 46.2 605.062 46.2C607.862 46.2 610.462 46.6667 612.862 47.6C615.328 48.5333 617.462 49.7333 619.262 51.2C621.062 52.6667 622.462 54.2333 623.462 55.9C624.462 57.5 624.962 59.0333 624.962 60.5L621.862 60.8V31.1C621.862 29.6333 622.328 28.4333 623.262 27.5C624.262 26.5 625.462 26 626.862 26ZM606.462 91.8C609.662 91.8 612.428 91 614.762 89.4C617.162 87.8 619.028 85.6333 620.362 82.9C621.695 80.1667 622.362 77.0667 622.362 73.6C622.362 70.1333 621.695 67.0333 620.362 64.3C619.028 61.5667 617.162 59.4 614.762 57.8C612.362 56.2 609.595 55.4 606.462 55.4C603.395 55.4 600.662 56.2 598.262 57.8C595.928 59.4 594.062 61.5667 592.662 64.3C591.328 67.0333 590.662 70.1333 590.662 73.6C590.662 77.0667 591.328 80.1667 592.662 82.9C594.062 85.6333 595.928 87.8 598.262 89.4C600.662 91 603.395 91.8 606.462 91.8ZM686.634 47.4C688.034 47.4 689.2 47.9 690.134 48.9C691.134 49.8333 691.634 51.0333 691.634 52.5V78.8C691.634 85.7333 689.7 91.1667 685.834 95.1C681.967 98.9667 676.5 100.9 669.434 100.9C662.434 100.9 657 98.9667 653.134 95.1C649.334 91.1667 647.434 85.7333 647.434 78.8V52.5C647.434 51.0333 647.9 49.8333 648.834 48.9C649.767 47.9 650.967 47.4 652.434 47.4C653.834 47.4 655 47.9 655.934 48.9C656.934 49.8333 657.434 51.0333 657.434 52.5V78.8C657.434 83.1333 658.434 86.3667 660.434 88.5C662.5 90.6333 665.5 91.7 669.434 91.7C673.434 91.7 676.467 90.6333 678.534 88.5C680.6 86.3667 681.634 83.1333 681.634 78.8V52.5C681.634 51.0333 682.1 49.8333 683.034 48.9C683.967 47.9 685.167 47.4 686.634 47.4ZM731.939 46.5C736.872 46.5 740.672 47.7333 743.339 50.2C746.006 52.6 747.772 55.8667 748.639 60L747.039 59.5L747.739 57.9C748.606 56.1667 749.906 54.4333 751.639 52.7C753.439 50.9 755.572 49.4333 758.039 48.3C760.506 47.1 763.139 46.5 765.939 46.5C770.539 46.5 774.106 47.5 776.639 49.5C779.172 51.4333 780.939 54.0667 781.939 57.4C782.939 60.6667 783.439 64.3333 783.439 68.4V94.9C783.439 96.3667 782.972 97.6 782.039 98.6C781.106 99.5333 779.906 100 778.439 100C777.039 100 775.839 99.5333 774.839 98.6C773.906 97.6 773.439 96.3667 773.439 94.9V68.5C773.439 66.1667 773.106 64.0333 772.439 62.1C771.839 60.1667 770.739 58.6333 769.139 57.5C767.606 56.3 765.472 55.7 762.739 55.7C760.139 55.7 757.806 56.3 755.739 57.5C753.739 58.6333 752.172 60.1667 751.039 62.1C749.906 64.0333 749.339 66.1667 749.339 68.5V94.9C749.339 96.3667 748.872 97.6 747.939 98.6C747.006 99.5333 745.806 100 744.339 100C742.872 100 741.672 99.5333 740.739 98.6C739.806 97.6 739.339 96.3667 739.339 94.9V68.4C739.339 66.0667 739.006 63.9333 738.339 62C737.739 60.0667 736.672 58.5333 735.139 57.4C733.606 56.2667 731.472 55.7 728.739 55.7C726.139 55.7 723.839 56.2667 721.839 57.4C719.839 58.5333 718.272 60.0667 717.139 62C716.072 63.9333 715.539 66.0667 715.539 68.4V94.9C715.539 96.3667 715.039 97.6 714.039 98.6C713.106 99.5333 711.939 100 710.539 100C709.072 100 707.872 99.5333 706.939 98.6C706.006 97.6 705.539 96.3667 705.539 94.9V52.5C705.539 51.0333 706.006 49.8333 706.939 48.9C707.872 47.9 709.072 47.4 710.539 47.4C711.939 47.4 713.106 47.9 714.039 48.9C715.039 49.8333 715.539 51.0333 715.539 52.5V58.4L713.639 59.5C714.106 58.0333 714.872 56.5333 715.939 55C717.006 53.4667 718.339 52.0667 719.939 50.8C721.606 49.5333 723.439 48.5 725.439 47.7C727.439 46.9 729.606 46.5 731.939 46.5Z" fill="black"/>
</g>
<defs>
<clipPath id="clip0_603_10">
<rect width="799" height="130" fill="white"/>
</clipPath>
</defs>
</svg>
