<svg width="512" height="144" viewBox="0 0 512 144" fill="none" xmlns="http://www.w3.org/2000/svg">
<path fill-rule="evenodd" clip-rule="evenodd" d="M73.3139 145.049L34.0972 105.996L55.7715 83.8901L116.905 145.049H73.3139Z" fill="#02539A"/>
<path fill-rule="evenodd" clip-rule="evenodd" d="M33.5562 106.077L72.5387 67.1121H116.364L55.7191 127.729L33.5562 106.077Z" fill="#45D1FD" fill-opacity="0.85"/>
<path fill-rule="evenodd" clip-rule="evenodd" d="M0 72.1138L22.0967 94.1734L116.364 0H72.3825L0 72.1138Z" fill="#45D1FD"/>
<path d="M180.228 74.9597V116.364H184.828H189.429L189.537 98.3948L189.699 80.372L206.91 80.2096L224.067 80.1014V75.7716V71.4418L206.91 71.3335L189.699 71.1711V56.8286V42.4862L208.805 42.3238L227.856 42.2155V37.8857V33.5559H204.042H180.228V74.9597Z" fill="#6A6A6A" fill-opacity="0.85"/>
<path d="M240.304 74.9597V116.364H244.905H249.505V74.9597V33.5559H244.905H240.304V74.9597Z" fill="#6A6A6A" fill-opacity="0.85"/>
<path d="M337.075 48.8187L336.913 57.0995L331.663 57.2618L326.359 57.4242V61.6999V66.0297H331.771H337.183V85.9468C337.183 107.758 337.292 108.895 340.377 112.629C341.243 113.658 343.245 115.227 344.815 116.093C347.25 117.392 348.549 117.717 352.392 117.879C355.206 118.042 357.858 117.879 359.049 117.446L360.997 116.797V112.305V107.758L358.778 108.516C353.907 110.248 349.199 108.732 347.467 104.89C346.493 102.725 346.384 101.209 346.384 84.269V66.0297H353.691H360.997V61.6999V57.3701H353.691H346.384V48.9811V40.5921H341.784H337.238L337.075 48.8187Z" fill="#6A6A6A" fill-opacity="0.85"/>
<path d="M378.858 48.981V57.37H373.716H368.575V61.6998V66.0296H373.662H378.804L379.02 86.1632C379.183 101.696 379.399 106.838 379.94 108.516C381.023 111.601 385.569 115.985 388.817 117.067C391.847 118.096 398.072 118.258 401.211 117.392L403.213 116.851V112.304C403.213 109.761 403.159 107.704 403.105 107.704C402.997 107.704 401.968 108.083 400.778 108.516C396.231 110.14 392.118 109.057 389.845 105.593C388.6 103.753 388.6 103.591 388.6 84.9184V66.0296H395.636H402.672V61.6998V57.37H395.636H388.6V48.981V40.592H383.729H378.858V48.981Z" fill="#6A6A6A" fill-opacity="0.85"/>
<path d="M432.981 55.7464C424.375 57.316 417.177 62.8906 413.28 71.0632C410.52 76.9084 410.033 79.1274 410.033 86.867C409.979 92.8746 410.141 94.4982 411.278 97.8538C414.633 108.083 422.968 115.714 432.71 117.5C439.638 118.799 449.272 117.121 454.63 113.658C457.553 111.763 462.857 106.351 464.101 103.916L464.913 102.4L461.016 100.56L457.12 98.7198L455.117 101.155C452.249 104.782 450.95 105.864 447.323 107.542C442.94 109.598 436.553 109.653 431.628 107.704C425.025 105.106 419.667 97.8538 419.288 91.0344L419.18 88.4906L442.615 88.3283L465.996 88.22V84.2691C465.942 75.8801 463.29 68.7359 458.094 63.2695C451.924 56.8289 442.615 54.0686 432.981 55.7464ZM441.911 64.4602C445.97 65.2179 448.46 66.4627 451.058 69.1147C453.331 71.3879 455.604 75.7177 456.091 78.7486L456.416 80.6429H437.906H419.396L419.721 79.398C422.102 71.3338 427.785 65.5426 434.55 64.4061C438.123 63.8107 438.393 63.8107 441.911 64.4602Z" fill="#6A6A6A" fill-opacity="0.85"/>
<path d="M500.634 56.0168C496.629 57.1534 492.083 60.3466 489.918 63.594C488.89 65.1094 487.861 66.3542 487.591 66.4625C487.32 66.5707 487.103 64.6223 487.103 62.0244V57.3699H482.774H478.444V86.8667V116.364H483.044H487.591L487.753 97.5289L487.915 78.7483L489.323 75.7716C493.544 66.7872 500.959 63.4857 510.809 66.3542C512 66.679 512 66.6248 512 61.5373C512 56.6122 511.946 56.3957 510.755 56.0709C507.562 55.3132 503.449 55.2591 500.634 56.0168Z" fill="#6A6A6A" fill-opacity="0.85"/>
<path d="M264.226 78.8568C264.443 99.1527 264.551 100.614 265.633 103.916C267.744 110.302 270.883 113.982 276.458 116.526C278.623 117.5 279.976 117.717 285.496 117.717C291.666 117.717 292.154 117.609 295.617 115.985C299.406 114.199 303.898 110.518 304.439 108.732C304.656 108.137 305.089 107.758 305.359 107.812C305.738 107.975 305.901 109.598 305.847 112.196L305.738 116.364H310.339H314.993V86.8669V57.3701H310.122H305.305L305.143 76.9625L304.981 96.609L303.465 99.4775C300.272 105.539 295.509 108.787 289.123 109.22C282.844 109.598 278.028 107.109 275.321 102.075C274.185 99.9105 274.131 99.261 273.968 78.5861L273.806 57.3701H268.935H264.01L264.226 78.8568Z" fill="#6A6A6A" fill-opacity="0.85"/>
</svg>
