<svg width="512" height="314" viewBox="0 0 512 314" fill="none" xmlns="http://www.w3.org/2000/svg">
<g clip-path="url(#clip0)">
<path d="M253.11 313.052C251.377 313.052 249.76 312.591 248.257 311.782L232.888 302.653C230.576 301.381 231.732 300.919 232.426 300.688C235.546 299.648 236.124 299.416 239.359 297.569C239.706 297.337 240.169 297.453 240.515 297.683L252.302 304.733C252.764 304.964 253.342 304.964 253.688 304.733L299.797 278.038C300.259 277.807 300.491 277.344 300.491 276.767V223.494C300.491 222.915 300.259 222.454 299.797 222.222L253.688 195.644C253.226 195.412 252.648 195.412 252.302 195.644L206.193 222.222C205.732 222.453 205.5 223.031 205.5 223.493V276.766C205.5 277.229 205.732 277.806 206.193 278.038L218.79 285.318C225.608 288.785 229.883 284.74 229.883 280.696V228.116C229.883 227.423 230.461 226.729 231.27 226.729H237.163C237.857 226.729 238.55 227.307 238.55 228.116V280.696C238.55 289.825 233.581 295.141 224.914 295.141C222.256 295.141 220.177 295.141 214.282 292.251L202.149 285.318C199.144 283.585 197.296 280.349 197.296 276.882V223.609C197.296 220.143 199.144 216.906 202.149 215.173L248.257 188.479C251.147 186.861 255.076 186.861 257.965 188.479L304.073 215.173C307.077 216.906 308.927 220.143 308.927 223.609V276.882C308.927 280.349 307.077 283.585 304.073 285.318L257.965 312.013C256.462 312.706 254.729 313.052 253.111 313.052H253.11ZM267.324 276.42C247.102 276.42 242.942 267.176 242.942 259.318C242.942 258.624 243.52 257.931 244.328 257.931H250.338C251.031 257.931 251.608 258.393 251.608 259.087C252.533 265.211 255.191 268.215 267.44 268.215C277.147 268.215 281.309 266.02 281.309 260.819C281.309 257.815 280.152 255.62 265.014 254.117C252.417 252.845 244.559 250.073 244.559 240.019C244.559 230.658 252.418 225.111 265.592 225.111C280.383 225.111 287.664 230.196 288.589 241.289C288.589 241.637 288.473 241.983 288.242 242.33C288.01 242.561 287.664 242.792 287.317 242.792H281.308C280.73 242.792 280.152 242.33 280.037 241.752C278.65 235.397 275.067 233.316 265.592 233.316C254.96 233.316 253.688 237.015 253.688 239.787C253.688 243.139 255.191 244.179 269.52 246.027C283.734 247.877 290.437 250.535 290.437 260.472C290.321 270.642 282.001 276.42 267.324 276.42Z" fill="#539E43"/>
<path d="M110.047 104.698C110.047 102.618 108.891 100.652 107.043 99.6126L58.0452 71.4163C57.2353 70.9534 56.3115 70.7224 55.3876 70.6064H54.9246C54.0008 70.6064 53.0759 70.9534 52.267 71.4163L3.26949 99.6126C1.41974 100.652 0.264893 102.617 0.264893 104.698L0.380877 180.505C0.380877 181.545 0.958801 182.585 1.88268 183.048C2.80756 183.625 3.9624 183.625 4.7723 183.048L33.8934 166.407C35.7422 165.367 36.898 163.402 36.898 161.322V125.845C36.898 123.765 38.0529 121.801 39.9026 120.761L52.267 113.596C53.1919 113.018 54.2317 112.786 55.2716 112.786C56.3115 112.786 57.3513 113.018 58.1612 113.596L70.5256 120.761C72.3753 121.801 73.5302 123.764 73.5302 125.845V161.322C73.5302 163.402 74.686 165.367 76.5348 166.407L105.656 183.048C106.581 183.625 107.736 183.625 108.661 183.048C109.585 182.585 110.163 181.545 110.163 180.505L110.047 104.698ZM345.559 0.346716C344.635 -0.116223 343.479 -0.116223 342.67 0.346716C341.746 0.924639 341.168 1.84852 341.168 2.88838V78.0034C341.168 78.6963 340.822 79.3892 340.128 79.8522C339.435 80.1981 338.741 80.1981 338.048 79.8522L325.799 72.8031C324.901 72.2918 323.885 72.0229 322.852 72.0229C321.818 72.0229 320.803 72.2918 319.905 72.8031L270.907 101.115C269.058 102.155 267.902 104.12 267.902 106.2V162.708C267.902 164.788 269.058 166.754 270.907 167.794L319.905 196.106C320.803 196.617 321.818 196.886 322.852 196.886C323.885 196.886 324.901 196.617 325.799 196.106L374.796 167.794C376.645 166.754 377.801 164.789 377.801 162.708V21.8409C377.801 19.6452 376.645 17.6814 374.796 16.6406L345.56 0.346716H345.559ZM341.053 144.104C341.053 144.682 340.822 145.144 340.359 145.374L323.603 155.081C323.369 155.195 323.112 155.255 322.852 155.255C322.591 155.255 322.334 155.195 322.1 155.081L305.344 145.374C304.882 145.144 304.651 144.566 304.651 144.104V124.689C304.651 124.111 304.882 123.649 305.344 123.418L322.1 113.711C322.334 113.597 322.591 113.537 322.852 113.537C323.112 113.537 323.369 113.597 323.603 113.711L340.359 123.418C340.822 123.648 341.053 124.227 341.053 124.689V144.104ZM508.615 124.227C510.464 123.187 511.504 121.223 511.504 119.142V105.391C511.504 103.311 510.348 101.346 508.615 100.306L459.964 72.1102C459.066 71.5991 458.051 71.3303 457.017 71.3303C455.984 71.3303 454.969 71.5991 454.071 72.1102L405.073 100.421C403.223 101.461 402.069 103.426 402.069 105.507V162.015C402.069 164.095 403.223 166.06 405.073 167.1L453.724 194.834C455.574 195.874 457.768 195.874 459.502 194.834L488.969 178.426C489.894 177.963 490.472 176.923 490.472 175.883C490.472 174.844 489.894 173.804 488.969 173.341L439.741 145.029C438.817 144.452 438.239 143.527 438.239 142.487V124.806C438.239 123.766 438.817 122.727 439.741 122.264L455.111 113.481C455.561 113.198 456.081 113.047 456.613 113.047C457.145 113.047 457.665 113.198 458.115 113.481L473.484 122.264C474.409 122.841 474.987 123.765 474.987 124.806V138.673C474.987 139.713 475.565 140.753 476.489 141.215C477.414 141.793 478.569 141.793 479.493 141.215L508.615 124.227V124.227Z" fill="#333333"/>
<path d="M456.267 121.57C456.438 121.457 456.639 121.396 456.844 121.396C457.049 121.396 457.25 121.457 457.421 121.57L466.782 127.001C467.129 127.231 467.36 127.578 467.36 128.041V138.903C467.36 139.365 467.129 139.712 466.782 139.943L457.421 145.374C457.25 145.487 457.049 145.547 456.844 145.547C456.639 145.547 456.438 145.487 456.267 145.374L446.906 139.943C446.559 139.712 446.328 139.365 446.328 138.903V128.041C446.328 127.578 446.559 127.231 446.906 127.001L456.267 121.57V121.57Z" fill="#539E43"/>
<path d="M186.507 72.8885C187.396 72.3089 188.436 72 189.5 72C190.564 72 191.604 72.3089 192.493 72.8885L241.005 100.775C242.803 101.955 244 103.737 244 106.114V161.886C244 164.258 242.803 166.039 241.005 167.225L192.493 195.111C191.604 195.691 190.564 196 189.5 196C188.436 196 187.396 195.691 186.507 195.111L137.995 167.225C136.197 166.039 135 164.258 135 161.886V106.114C135 103.737 136.197 101.955 137.995 100.775L186.507 72.8885V72.8885Z" fill="#539E43"/>
</g>
<defs>
<clipPath id="clip0">
<rect width="512" height="313.958" fill="white"/>
</clipPath>
</defs>
</svg>
