<svg viewBox="0 0 128 15"
  xmlns="http://www.w3.org/2000/svg">
  <path d="M11.7721 0.756364C12.0954 0.756364 12.3733 0.872727 12.6061 1.10545C12.8517 1.32525 12.9745 1.60323 12.9745 1.93939V13.1685C12.9745 13.5046 12.8646 13.7891 12.6448 14.0218C12.4251 14.2416 12.1341 14.3515 11.7721 14.3515C11.4101 14.3515 11.1127 14.2416 10.88 14.0218C10.6602 13.802 10.5503 13.5176 10.5503 13.1685V5.35273L7.3503 10.24C7.22101 10.3952 7.07232 10.5244 6.90424 10.6279C6.73616 10.7184 6.56162 10.7572 6.38061 10.7442C6.21252 10.7572 6.04444 10.7184 5.87636 10.6279C5.70828 10.5244 5.5596 10.3952 5.4303 10.24L2.2303 5.17818V13.1685C2.2303 13.5176 2.12687 13.802 1.92 14.0218C1.71313 14.2416 1.44162 14.3515 1.10545 14.3515C0.782222 14.3515 0.517171 14.2416 0.310303 14.0218C0.103434 13.7891 0 13.5046 0 13.1685V1.93939C0 1.61616 0.116364 1.33818 0.349092 1.10545C0.594748 0.872727 0.885656 0.756364 1.22182 0.756364C1.41576 0.756364 1.6097 0.808081 1.80364 0.911515C1.99758 1.00202 2.14626 1.12485 2.2497 1.28L6.47758 7.77697L10.8218 1.28C10.9253 1.12485 11.061 1.00202 11.2291 0.911515C11.4101 0.808081 11.5911 0.756364 11.7721 0.756364ZM25.0053 8.92121C24.9924 9.23152 24.8696 9.48364 24.6368 9.67758C24.4041 9.87152 24.1326 9.96848 23.8223 9.96848H17.4223C17.5774 10.7313 17.933 11.3325 18.489 11.7721C19.0449 12.1988 19.672 12.4121 20.3702 12.4121C20.9003 12.4121 21.314 12.3669 21.6114 12.2764C21.9088 12.1729 22.1415 12.0695 22.3096 11.9661C22.4906 11.8497 22.6134 11.7721 22.678 11.7333C22.9108 11.617 23.1306 11.5588 23.3374 11.5588C23.609 11.5588 23.8417 11.6558 24.0356 11.8497C24.2296 12.0436 24.3265 12.2699 24.3265 12.5285C24.3265 12.8776 24.1455 13.1943 23.7835 13.4788C23.4215 13.7762 22.9366 14.0283 22.329 14.2352C21.7213 14.442 21.1071 14.5455 20.4865 14.5455C19.4005 14.5455 18.4502 14.3192 17.6356 13.8667C16.834 13.4141 16.2134 12.7935 15.7738 12.0048C15.3342 11.2032 15.1144 10.3046 15.1144 9.30909C15.1144 8.19717 15.3471 7.22101 15.8126 6.38061C16.278 5.5402 16.8922 4.9002 17.655 4.46061C18.4178 4.00808 19.2324 3.78182 20.0987 3.78182C20.952 3.78182 21.7536 4.01455 22.5035 4.48C23.2663 4.94545 23.874 5.57252 24.3265 6.36121C24.7791 7.1499 25.0053 8.00323 25.0053 8.92121ZM20.0987 5.91515C18.5989 5.91515 17.7132 6.6198 17.4417 8.02909H22.5229V7.89333C22.4712 7.3503 22.2061 6.88485 21.7277 6.49697C21.2494 6.10909 20.7063 5.91515 20.0987 5.91515ZM38.912 3.78182C40.192 3.78182 41.0777 4.17616 41.569 4.96485C42.0603 5.74061 42.3059 6.8202 42.3059 8.20364V13.1685C42.3059 13.5046 42.196 13.7891 41.9762 14.0218C41.7564 14.2416 41.4785 14.3515 41.1423 14.3515C40.8061 14.3515 40.5282 14.2416 40.3084 14.0218C40.0886 13.7891 39.9787 13.5046 39.9787 13.1685V8.20364C39.9787 7.49252 39.8364 6.93657 39.552 6.53576C39.2805 6.12202 38.7956 5.91515 38.0977 5.91515C37.3737 5.91515 36.8048 6.13495 36.391 6.57454C35.9902 7.00121 35.7898 7.54424 35.7898 8.20364V13.1685C35.7898 13.5046 35.6799 13.7891 35.4601 14.0218C35.2403 14.2416 34.9624 14.3515 34.6262 14.3515C34.29 14.3515 34.0121 14.2416 33.7923 14.0218C33.5725 13.7891 33.4626 13.5046 33.4626 13.1685V8.20364C33.4626 7.49252 33.3203 6.93657 33.0359 6.53576C32.7644 6.12202 32.2795 5.91515 31.5814 5.91515C30.8573 5.91515 30.2884 6.13495 29.8747 6.57454C29.4739 7.00121 29.2735 7.54424 29.2735 8.20364V13.1685C29.2735 13.5046 29.1636 13.7891 28.9438 14.0218C28.724 14.2416 28.446 14.3515 28.1098 14.3515C27.7737 14.3515 27.4957 14.2416 27.2759 14.0218C27.0561 13.7891 26.9462 13.5046 26.9462 13.1685V5.15879C26.9462 4.82263 27.0561 4.54465 27.2759 4.32485C27.4957 4.09212 27.7737 3.97576 28.1098 3.97576C28.446 3.97576 28.724 4.09212 28.9438 4.32485C29.1636 4.54465 29.2735 4.82263 29.2735 5.15879V5.46909C29.6226 5.00364 30.0622 4.60929 30.5923 4.28606C31.1353 3.9499 31.7365 3.78182 32.3959 3.78182C34.025 3.78182 35.0658 4.49293 35.5183 5.91515C35.8157 5.37212 36.2618 4.88081 36.8565 4.44121C37.4642 4.00162 38.1494 3.78182 38.912 3.78182ZM54.7937 9.17333C54.7937 10.2077 54.561 11.1386 54.0955 11.9661C53.6301 12.7806 52.9901 13.4141 52.1755 13.8667C51.3739 14.3192 50.4882 14.5455 49.5185 14.5455C48.5359 14.5455 47.6438 14.3192 46.8422 13.8667C46.0406 13.4141 45.407 12.7806 44.9416 11.9661C44.4761 11.1386 44.2434 10.2077 44.2434 9.17333C44.2434 8.13899 44.4761 7.21455 44.9416 6.4C45.407 5.57253 46.0406 4.93252 46.8422 4.48C47.6438 4.01455 48.5359 3.78182 49.5185 3.78182C50.4882 3.78182 51.3739 4.01455 52.1755 4.48C52.9901 4.93252 53.6301 5.57253 54.0955 6.4C54.561 7.21455 54.7937 8.13899 54.7937 9.17333ZM52.4664 9.17333C52.4664 8.5398 52.3307 7.97737 52.0592 7.48606C51.8006 6.98182 51.445 6.59394 50.9925 6.32242C50.5529 6.05091 50.0616 5.91515 49.5185 5.91515C48.9755 5.91515 48.4777 6.05091 48.0252 6.32242C47.5856 6.59394 47.2301 6.98182 46.9585 7.48606C46.7 7.97737 46.5707 8.5398 46.5707 9.17333C46.5707 9.80687 46.7 10.3693 46.9585 10.8606C47.2301 11.3519 47.5856 11.7333 48.0252 12.0048C48.4777 12.2764 48.9755 12.4121 49.5185 12.4121C50.0616 12.4121 50.5529 12.2764 50.9925 12.0048C51.445 11.7333 51.8006 11.3519 52.0592 10.8606C52.3307 10.3693 52.4664 9.80687 52.4664 9.17333ZM62.1291 3.78182C62.517 3.78182 62.8402 3.89172 63.0988 4.11151C63.3703 4.33131 63.5061 4.5899 63.5061 4.88727C63.5061 5.28808 63.4027 5.59192 63.1958 5.79879C62.9889 5.99273 62.7433 6.0897 62.4588 6.0897C62.2649 6.0897 62.0451 6.04444 61.7994 5.95394C61.7606 5.94101 61.6701 5.91515 61.5279 5.87636C61.3986 5.83758 61.2564 5.81818 61.1013 5.81818C60.7651 5.81818 60.4419 5.92162 60.1316 6.12849C59.8213 6.33535 59.5627 6.65212 59.3558 7.07879C59.1619 7.49253 59.0649 7.9903 59.0649 8.57212V13.1685C59.0649 13.5046 58.955 13.7891 58.7352 14.0218C58.5154 14.2416 58.2374 14.3515 57.9012 14.3515C57.5651 14.3515 57.2871 14.2416 57.0673 14.0218C56.8475 13.7891 56.7376 13.5046 56.7376 13.1685V5.15879C56.7376 4.82263 56.8475 4.54465 57.0673 4.32485C57.2871 4.09212 57.5651 3.97576 57.9012 3.97576C58.2374 3.97576 58.5154 4.09212 58.7352 4.32485C58.955 4.54465 59.0649 4.82263 59.0649 5.15879V5.41091C59.3623 4.88081 59.7889 4.48 60.3449 4.20848C60.9008 3.92404 61.4956 3.78182 62.1291 3.78182ZM73.3175 3.78182C73.6537 3.78182 73.9316 3.89172 74.1514 4.11151C74.3712 4.33131 74.4811 4.61576 74.4811 4.96485V13.1685C74.4811 13.5046 74.3712 13.7891 74.1514 14.0218C73.9316 14.2416 73.6537 14.3515 73.3175 14.3515C72.9813 14.3515 72.7034 14.2416 72.4836 14.0218C72.2767 13.802 72.1668 13.524 72.1539 13.1879C71.8306 13.5628 71.391 13.8861 70.8351 14.1576C70.292 14.4162 69.7167 14.5455 69.109 14.5455C68.2169 14.5455 67.4088 14.3192 66.6848 13.8667C65.9607 13.4012 65.3854 12.7612 64.9587 11.9467C64.545 11.1321 64.3381 10.2077 64.3381 9.17333C64.3381 8.13899 64.545 7.21455 64.9587 6.4C65.3724 5.57253 65.9349 4.93252 66.646 4.48C67.37 4.01455 68.1652 3.78182 69.0314 3.78182C69.652 3.78182 70.2339 3.89818 70.7769 4.13091C71.3199 4.35071 71.7789 4.63515 72.1539 4.98424V4.96485C72.1539 4.62869 72.2638 4.35071 72.4836 4.13091C72.7034 3.89818 72.9813 3.78182 73.3175 3.78182ZM69.3999 12.4121C70.2403 12.4121 70.9256 12.1083 71.4557 11.5006C71.9858 10.88 72.2508 10.1042 72.2508 9.17333C72.2508 8.24242 71.9858 7.46667 71.4557 6.84606C70.9256 6.22545 70.2403 5.91515 69.3999 5.91515C68.5724 5.91515 67.8937 6.22545 67.3636 6.84606C66.8335 7.46667 66.5684 8.24242 66.5684 9.17333C66.5684 10.1042 66.827 10.88 67.3442 11.5006C67.8743 12.1083 68.5595 12.4121 69.3999 12.4121ZM82.5497 3.78182C83.8684 3.78182 84.78 4.17616 85.2842 4.96485C85.7884 5.74061 86.0406 6.8202 86.0406 8.20364V13.1685C86.0406 13.5046 85.9307 13.7891 85.7109 14.0218C85.4911 14.2416 85.2131 14.3515 84.8769 14.3515C84.5408 14.3515 84.2628 14.2416 84.043 14.0218C83.8232 13.7891 83.7133 13.5046 83.7133 13.1685V8.20364C83.7133 7.49252 83.5646 6.93657 83.2672 6.53576C82.9699 6.12202 82.4592 5.91515 81.7351 5.91515C80.9852 5.91515 80.3969 6.13495 79.9703 6.57454C79.5436 7.00121 79.3303 7.54424 79.3303 8.20364V13.1685C79.3303 13.5046 79.2204 13.7891 79.0006 14.0218C78.7808 14.2416 78.5028 14.3515 78.1666 14.3515C77.8305 14.3515 77.5525 14.2416 77.3327 14.0218C77.1129 13.7891 77.003 13.5046 77.003 13.1685V5.15879C77.003 4.82263 77.1129 4.54465 77.3327 4.32485C77.5525 4.09212 77.8305 3.97576 78.1666 3.97576C78.5028 3.97576 78.7808 4.09212 79.0006 4.32485C79.2204 4.54465 79.3303 4.82263 79.3303 5.15879V5.48849C79.6794 5.02303 80.1319 4.62222 80.6878 4.28606C81.2567 3.9499 81.8773 3.78182 82.5497 3.78182ZM96.9535 0C97.2897 0 97.5677 0.109899 97.7875 0.329697C98.0073 0.549495 98.1172 0.833939 98.1172 1.18303V13.1685C98.1172 13.5046 98.0073 13.7891 97.7875 14.0218C97.5677 14.2416 97.2897 14.3515 96.9535 14.3515C96.6174 14.3515 96.3394 14.2416 96.1196 14.0218C95.9127 13.802 95.8028 13.524 95.7899 13.1879C95.4667 13.5628 95.0271 13.8861 94.4711 14.1576C93.9281 14.4162 93.3527 14.5455 92.745 14.5455C91.8529 14.5455 91.0448 14.3192 90.3208 13.8667C89.5968 13.4012 89.0214 12.7612 88.5947 11.9467C88.181 11.1321 87.9741 10.2077 87.9741 9.17333C87.9741 8.13899 88.181 7.21455 88.5947 6.4C89.0085 5.57253 89.5709 4.93252 90.282 4.48C91.0061 4.01455 91.8012 3.78182 92.6675 3.78182C93.2881 3.78182 93.8699 3.89818 94.4129 4.13091C94.956 4.35071 95.415 4.63515 95.7899 4.98424V1.18303C95.7899 0.846869 95.8998 0.568889 96.1196 0.349091C96.3394 0.116364 96.6174 0 96.9535 0ZM93.036 12.4121C93.8764 12.4121 94.5616 12.1083 95.0917 11.5006C95.6218 10.88 95.8869 10.1042 95.8869 9.17333C95.8869 8.24242 95.6218 7.46667 95.0917 6.84606C94.5616 6.22545 93.8764 5.91515 93.036 5.91515C92.2085 5.91515 91.5297 6.22545 90.9996 6.84606C90.4695 7.46667 90.2044 8.24242 90.2044 9.17333C90.2044 10.1042 90.463 10.88 90.9802 11.5006C91.5103 12.1083 92.1956 12.4121 93.036 12.4121ZM108.642 3.97576C108.978 3.97576 109.256 4.09212 109.476 4.32485C109.695 4.54465 109.805 4.82263 109.805 5.15879V10.0848C109.805 11.4812 109.417 12.5737 108.642 13.3624C107.879 14.1511 106.786 14.5455 105.364 14.5455C103.942 14.5455 102.849 14.1511 102.086 13.3624C101.324 12.5737 100.942 11.4812 100.942 10.0848V5.15879C100.942 4.82263 101.052 4.54465 101.272 4.32485C101.492 4.09212 101.77 3.97576 102.106 3.97576C102.442 3.97576 102.72 4.09212 102.94 4.32485C103.16 4.54465 103.269 4.82263 103.269 5.15879V10.0848C103.269 10.8735 103.444 11.4618 103.793 11.8497C104.142 12.2246 104.666 12.4121 105.364 12.4121C106.075 12.4121 106.605 12.2246 106.954 11.8497C107.303 11.4618 107.478 10.8735 107.478 10.0848V5.15879C107.478 4.82263 107.588 4.54465 107.808 4.32485C108.027 4.09212 108.305 3.97576 108.642 3.97576ZM124.291 3.78182C125.571 3.78182 126.457 4.17616 126.948 4.96485C127.44 5.74061 127.685 6.8202 127.685 8.20364V13.1685C127.685 13.5046 127.575 13.7891 127.355 14.0218C127.136 14.2416 126.858 14.3515 126.522 14.3515C126.185 14.3515 125.907 14.2416 125.688 14.0218C125.468 13.7891 125.358 13.5046 125.358 13.1685V8.20364C125.358 7.49252 125.216 6.93657 124.931 6.53576C124.66 6.12202 124.175 5.91515 123.477 5.91515C122.753 5.91515 122.184 6.13495 121.77 6.57454C121.369 7.00121 121.169 7.54424 121.169 8.20364V13.1685C121.169 13.5046 121.059 13.7891 120.839 14.0218C120.619 14.2416 120.341 14.3515 120.005 14.3515C119.669 14.3515 119.391 14.2416 119.171 14.0218C118.951 13.7891 118.842 13.5046 118.842 13.1685V8.20364C118.842 7.49252 118.699 6.93657 118.415 6.53576C118.143 6.12202 117.659 5.91515 116.96 5.91515C116.236 5.91515 115.667 6.13495 115.254 6.57454C114.853 7.00121 114.652 7.54424 114.652 8.20364V13.1685C114.652 13.5046 114.543 13.7891 114.323 14.0218C114.103 14.2416 113.825 14.3515 113.489 14.3515C113.153 14.3515 112.875 14.2416 112.655 14.0218C112.435 13.7891 112.325 13.5046 112.325 13.1685V5.15879C112.325 4.82263 112.435 4.54465 112.655 4.32485C112.875 4.09212 113.153 3.97576 113.489 3.97576C113.825 3.97576 114.103 4.09212 114.323 4.32485C114.543 4.54465 114.652 4.82263 114.652 5.15879V5.46909C115.002 5.00364 115.441 4.60929 115.971 4.28606C116.514 3.9499 117.115 3.78182 117.775 3.78182C119.404 3.78182 120.445 4.49293 120.897 5.91515C121.195 5.37212 121.641 4.88081 122.235 4.44121C122.843 4.00162 123.528 3.78182 124.291 3.78182Z" fill="black"/>
</svg>