<svg width="512" height="149" viewBox="0 0 512 149" fill="none" xmlns="http://www.w3.org/2000/svg">
<g clip-path="url(#clip0)">
<path fill-rule="evenodd" clip-rule="evenodd" d="M195.075 34.1025V100.857H219.401V112.372H182.124V34.1025H195.075ZM265.12 67.3098V60.2698H277.393V112.372H265.117V105.326C263.468 107.935 261.12 109.986 258.077 111.476C255.04 112.965 251.98 113.71 248.902 113.71C244.922 113.71 241.28 112.983 237.978 111.531C234.764 110.141 231.869 108.105 229.475 105.55C227.108 103.013 225.237 100.054 223.959 96.8283C222.632 93.4843 221.962 89.9156 221.987 86.3178C221.987 82.6669 222.644 79.1818 223.959 75.8625C225.229 72.6165 227.1 69.6397 229.475 67.0887C231.87 64.5327 234.764 62.496 237.978 61.1047C241.28 59.6501 244.922 58.9229 248.902 58.9229C251.98 58.9229 255.04 59.6705 258.08 61.1629C261.12 62.6523 263.468 64.7032 265.12 67.3098V67.3098ZM263.991 92.6916C264.747 90.6529 265.129 88.4949 265.12 86.3207C265.12 84.0807 264.742 81.9571 263.991 79.944C263.286 78.0076 262.217 76.2242 260.841 74.6901C259.464 73.1815 257.798 71.9648 255.942 71.112C254.025 70.2189 251.904 69.7709 249.577 69.7709C247.249 69.7709 245.146 70.2189 243.27 71.112C241.393 72.008 239.779 73.2007 238.429 74.6901C237.056 76.2168 236.004 78.0033 235.334 79.944C234.613 81.9912 234.251 84.1474 234.263 86.3178C234.263 88.5549 234.618 90.6814 235.334 92.6887C236.003 94.6306 237.056 96.4182 238.429 97.9454C239.791 99.4452 241.436 100.661 243.27 101.524C245.146 102.42 247.249 102.865 249.577 102.865C251.904 102.865 254.028 102.42 255.942 101.527C257.798 100.674 259.464 99.4576 260.841 97.9483C262.217 96.4136 263.287 94.6291 263.991 92.6916V92.6916ZM287.078 112.369V60.2669H320.413V72.2582H299.351V112.369H287.078V112.369ZM364.896 67.3098V60.2698H377.169V112.372H364.893V105.326C363.241 107.935 360.896 109.986 357.853 111.476C354.816 112.965 351.756 113.71 348.678 113.71C344.695 113.71 341.056 112.983 337.754 111.531C334.54 110.141 331.645 108.105 329.251 105.55C326.884 103.013 325.013 100.054 323.735 96.8283C322.408 93.4843 321.738 89.9156 321.763 86.3178C321.763 82.6669 322.417 79.1818 323.735 75.8625C325.005 72.6165 326.876 69.6397 329.251 67.0887C331.646 64.5327 334.54 62.496 337.754 61.1047C341.056 59.6501 344.695 58.9229 348.678 58.9229C351.756 58.9229 354.816 59.6705 357.856 61.1629C360.896 62.6523 363.241 64.7032 364.896 67.3098V67.3098ZM363.767 92.6916C364.522 90.6527 364.903 88.4947 364.893 86.3207C364.893 84.0807 364.515 81.9571 363.767 79.944C363.061 78.0074 361.991 76.224 360.614 74.6901C359.237 73.1815 357.571 71.9648 355.715 71.112C353.801 70.2189 351.68 69.7709 349.353 69.7709C347.025 69.7709 344.922 70.2189 343.046 71.112C341.169 72.008 339.555 73.2007 338.205 74.6901C336.831 76.2165 335.778 78.0031 335.107 79.944C334.386 81.9912 334.024 84.1474 334.036 86.3178C334.036 88.5549 334.391 90.6814 335.107 92.6887C335.777 94.6308 336.831 96.4185 338.205 97.9454C339.567 99.4452 341.212 100.661 343.046 101.524C344.922 102.42 347.025 102.865 349.353 102.865C351.68 102.865 353.804 102.42 355.715 101.527C357.571 100.674 359.237 99.4576 360.614 97.9483C361.991 96.4138 363.062 94.6294 363.767 92.6916V92.6916ZM426.38 60.2669H438.813L418.665 112.369H403.241L383.092 60.2669H395.526L410.953 100.165L426.38 60.2669V60.2669ZM465.583 58.9287C482.298 58.9287 493.696 73.6342 491.555 90.8472H450.833C450.833 95.3418 455.404 104.031 466.257 104.031C475.596 104.031 481.85 95.8771 481.856 95.8712L490.147 102.242C482.735 110.103 476.663 113.713 467.156 113.713C450.167 113.713 438.656 103.042 438.656 86.3207C438.656 71.1934 450.554 58.9287 465.583 58.9287V58.9287ZM450.865 81.7912H480.282C480.192 80.7876 478.598 68.6072 465.487 68.6072C452.375 68.6072 450.961 80.7876 450.865 81.7912V81.7912ZM499.549 112.369V34.1025H511.825V112.369H499.549V112.369ZM144.768 33.4916C144.822 33.6889 144.849 33.8923 144.849 34.0967V65.8756C144.849 66.2843 144.74 66.6856 144.534 67.0387C144.328 67.3917 144.033 67.684 143.677 67.8858L116.815 83.2429V113.681C116.813 114.089 116.704 114.49 116.498 114.842C116.293 115.195 115.997 115.486 115.642 115.688L59.5724 147.743C59.4444 147.819 59.3018 147.863 59.1651 147.912C59.1098 147.929 59.0604 147.961 59.008 147.976C58.6151 148.079 58.2023 148.079 57.8095 147.976C57.7455 147.959 57.6873 147.924 57.6262 147.9C57.4953 147.857 57.3644 147.813 57.2422 147.743L1.16945 115.694C0.814136 115.491 0.518753 115.198 0.313343 114.845C0.107932 114.491 -0.000179455 114.09 2.236e-07 113.681V18.344C0.000462017 18.1396 0.0278492 17.9361 0.0814548 17.7389C0.0989093 17.6691 0.139637 17.608 0.162909 17.544C0.209455 17.4218 0.250182 17.2967 0.314182 17.1832C0.357818 17.1076 0.421818 17.0465 0.471273 16.9796C0.541091 16.8865 0.599273 16.7876 0.680728 16.7062C0.747637 16.6392 0.834909 16.5898 0.910546 16.5316C0.994909 16.4676 1.07055 16.392 1.16655 16.3367L1.16945 16.3338L29.2073 0.307608C29.562 0.106153 29.963 0.000244141 30.3709 0.000244141C30.7789 0.000244141 31.1798 0.106153 31.5345 0.307608L59.5724 16.3338H59.5782C59.6713 16.392 59.7469 16.4676 59.8342 16.5316C59.9098 16.5898 59.9942 16.6392 60.0611 16.7062C60.1425 16.7876 60.2007 16.8865 60.2705 16.9767C60.3229 17.0465 60.3869 17.1076 60.4305 17.1832C60.4945 17.2967 60.5353 17.4218 60.5818 17.544C60.6051 17.608 60.6429 17.6691 60.6633 17.7389C60.7159 17.9363 60.7423 18.1397 60.7418 18.344V77.8901L84.1076 64.5345V34.0967C84.1072 33.8924 84.1336 33.689 84.1862 33.4916C84.2065 33.4218 84.2444 33.3636 84.2705 33.2967C84.3142 33.1745 84.3549 33.0494 84.4189 32.936C84.4625 32.8603 84.5265 32.7992 84.5789 32.7323C84.6487 32.6392 84.7069 32.5403 84.7884 32.4618C84.8553 32.3949 84.9396 32.3454 85.0153 32.2872C85.1026 32.2203 85.1782 32.1418 85.2742 32.0894V32.0865L113.312 16.0603C113.667 15.8578 114.068 15.7513 114.477 15.7513C114.886 15.7513 115.287 15.8578 115.642 16.0603L143.677 32.0865H143.68C143.779 32.1447 143.855 32.2203 143.942 32.2843C144.015 32.3425 144.102 32.3949 144.169 32.4589C144.25 32.5403 144.308 32.6392 144.375 32.7294C144.428 32.7992 144.492 32.8603 144.535 32.936C144.602 33.0494 144.64 33.1745 144.687 33.2967C144.713 33.3636 144.751 33.4218 144.768 33.4916V33.4916ZM140.177 64.5345V38.1083L130.365 43.7171L116.815 51.464V77.8901L140.175 64.5345H140.177ZM112.143 112.34V85.896L98.8073 93.4538L60.7418 115.025V141.716L112.143 112.334V112.34ZM4.672 22.3556V112.34L56.0698 141.721V115.033L29.2189 99.9469L29.2131 99.9381L29.2015 99.9352C29.1084 99.8829 29.0356 99.8072 28.9513 99.7432C28.8756 99.6851 28.7942 99.6385 28.7273 99.5745L28.7215 99.5658C28.6458 99.4931 28.5935 99.4029 28.5295 99.3214C28.4713 99.2458 28.4015 99.1789 28.3549 99.0974L28.352 99.0887C28.2996 99.0014 28.2676 98.8967 28.2298 98.7978C28.192 98.7134 28.1425 98.632 28.1193 98.5389V98.536C28.0873 98.4254 28.0844 98.3091 28.0698 98.1956C28.0611 98.1083 28.0349 98.024 28.0349 97.9338V35.7083L14.4873 27.9643L4.672 22.3556ZM30.3709 4.99415L7.01964 18.3469L30.3709 31.6938L53.7251 18.344L30.3709 4.99415V4.99415ZM42.5193 88.3047L56.0698 80.5607V22.3556L46.2604 27.9643L32.7069 35.7112V93.9134L42.5193 88.3047V88.3047ZM114.479 20.7498L91.1244 34.0967L114.479 47.4465L137.83 34.0967L114.479 20.7498V20.7498ZM112.143 51.464L98.5891 43.7171L88.7796 38.1083V64.5345L102.33 72.2814L112.143 77.8901V51.4611V51.464ZM58.4029 111.013L92.6575 91.5978L109.78 81.8931L86.4436 68.552L59.5724 83.912L35.0836 97.9105L58.4029 111.013Z" fill="#FF2D20"/>
</g>
<defs>
<clipPath id="clip0">
<rect width="512" height="148.364" fill="white"/>
</clipPath>
</defs>
</svg>
