<svg width="512" height="152" viewBox="0 0 512 152" fill="none" xmlns="http://www.w3.org/2000/svg">
<path d="M107.092 9.31531e-05L87 34.8001L66.9083 9.31531e-05H0L87 150.69L174 9.31531e-05H107.092Z" fill="#41B883"/>
<path d="M107.092 7.10741e-05L86.9998 34.8001L66.9081 7.10741e-05H34.7998L86.9998 90.4124L139.2 7.10741e-05H107.092Z" fill="#34495E"/>
<path d="M204.4 38.64C204.4 37.68 204.88 36.88 205.84 36.24C206.8 35.6 207.84 35.28 208.96 35.28C210.72 35.28 211.76 35.96 212.08 37.32L234.28 111L256.36 37.32C256.84 35.96 257.84 35.28 259.36 35.28C260.48 35.28 261.56 35.64 262.6 36.36C263.64 37 264.16 37.8 264.16 38.76C264.16 38.84 264.12 38.96 264.04 39.12C264.04 39.28 264.04 39.4 264.04 39.48L239.08 120.84C238.52 122.76 236.92 123.72 234.28 123.72C231.72 123.72 230.16 122.76 229.6 120.84L204.52 39.48C204.44 39.32 204.4 39.04 204.4 38.64ZM268.96 101.28V69.24C268.96 68.52 269.32 67.84 270.04 67.2C270.84 66.56 271.8 66.24 272.92 66.24C273.88 66.24 274.76 66.56 275.56 67.2C276.36 67.84 276.76 68.52 276.76 69.24V101.28C276.76 105.28 278.24 108.84 281.2 111.96C284.16 115.08 287.68 116.64 291.76 116.64C295.84 116.64 299.36 115.08 302.32 111.96C305.28 108.84 306.76 105.28 306.76 101.28V69.12C306.76 68.32 307.16 67.64 307.96 67.08C308.76 66.52 309.68 66.24 310.72 66.24C311.76 66.24 312.64 66.52 313.36 67.08C314.16 67.64 314.56 68.32 314.56 69.12V101.28C314.56 107.28 312.28 112.56 307.72 117.12C303.24 121.6 297.92 123.84 291.76 123.84C285.52 123.84 280.16 121.6 275.68 117.12C271.2 112.56 268.96 107.28 268.96 101.28ZM326.931 101.04V87.6C326.931 81.6 329.171 76.44 333.651 72.12C338.131 67.72 343.531 65.52 349.851 65.52C355.931 65.52 361.171 67.6 365.571 71.76C370.051 75.92 372.291 81.12 372.291 87.36C372.291 89.6 372.011 91.4 371.451 92.76C370.971 94.12 370.131 95.08 368.931 95.64C367.811 96.2 366.771 96.56 365.811 96.72C364.851 96.88 363.531 96.96 361.851 96.96H334.731V101.4C334.731 106.12 336.411 109.92 339.771 112.8C343.211 115.6 347.611 117 352.971 117C355.691 117 358.051 116.6 360.051 115.8C362.131 115 363.691 114.2 364.731 113.4C365.851 112.6 366.731 112.2 367.371 112.2C368.251 112.2 369.011 112.64 369.651 113.52C370.371 114.32 370.731 115.12 370.731 115.92C370.731 117.6 369.011 119.36 365.571 121.2C362.131 122.96 357.851 123.84 352.731 123.84C345.131 123.84 338.931 121.76 334.131 117.6C329.331 113.36 326.931 107.84 326.931 101.04ZM334.731 91.2H358.731C361.131 91.2 362.731 90.96 363.531 90.48C364.331 89.92 364.731 88.8 364.731 87.12C364.731 83.12 363.291 79.6 360.411 76.56C357.611 73.52 354.051 72 349.731 72C345.571 72 342.011 73.44 339.051 76.32C336.171 79.2 334.731 82.64 334.731 86.64V91.2ZM381.292 118.2C381.292 116.6 381.812 115.28 382.852 114.24C383.892 113.12 385.212 112.56 386.812 112.56C388.252 112.56 389.492 113.12 390.532 114.24C391.652 115.36 392.212 116.68 392.212 118.2C392.212 119.64 391.652 120.92 390.532 122.04C389.492 123.16 388.252 123.72 386.812 123.72C385.212 123.72 383.892 123.2 382.852 122.16C381.812 121.04 381.292 119.72 381.292 118.2ZM392.56 147.36C392.56 146.32 392.88 145.44 393.52 144.72C394.16 144.08 394.96 143.76 395.92 143.76C399.44 143.76 401.76 142.44 402.88 139.8C404 137.24 404.56 133.36 404.56 128.16V69.12C404.56 68.24 404.92 67.56 405.64 67.08C406.36 66.52 407.28 66.24 408.4 66.24C409.52 66.24 410.44 66.52 411.16 67.08C411.96 67.64 412.36 68.32 412.36 69.12V128.16C412.36 143.28 407.08 150.84 396.52 150.84C395.16 150.84 394.16 150.48 393.52 149.76C392.88 149.12 392.56 148.32 392.56 147.36ZM404.56 48C403.52 46.96 403 45.76 403 44.4C403 43.04 403.52 41.88 404.56 40.92C405.6 39.96 406.88 39.48 408.4 39.48C409.84 39.48 411.04 39.96 412 40.92C413.04 41.88 413.56 43.04 413.56 44.4C413.56 45.76 413.04 46.96 412 48C411.04 48.96 409.84 49.44 408.4 49.44C406.88 49.44 405.6 48.96 404.56 48ZM423.929 115.2C423.929 114.4 424.209 113.6 424.769 112.8C425.329 112 425.969 111.6 426.689 111.6C427.249 111.6 428.129 112.08 429.329 113.04C430.529 113.92 432.249 114.84 434.489 115.8C436.729 116.76 439.409 117.24 442.529 117.24C446.769 117.24 449.889 116.44 451.889 114.84C453.889 113.24 454.889 111.2 454.889 108.72C454.889 105.84 453.849 103.56 451.769 101.88C449.769 100.12 447.329 98.84 444.449 98.04C441.569 97.24 438.649 96.36 435.689 95.4C432.809 94.44 430.329 92.88 428.249 90.72C426.249 88.48 425.249 85.52 425.249 81.84C425.249 77.44 426.809 73.64 429.929 70.44C433.129 67.16 437.889 65.52 444.209 65.52C448.129 65.52 451.769 66.16 455.129 67.44C458.569 68.64 460.289 69.96 460.289 71.4C460.289 72.2 459.969 73.08 459.329 74.04C458.689 75 457.929 75.48 457.049 75.48C456.809 75.48 455.329 74.92 452.609 73.8C449.889 72.68 447.129 72.12 444.329 72.12C440.329 72.12 437.329 73.08 435.329 75C433.329 76.92 432.329 79.08 432.329 81.48C432.329 83.96 433.329 85.92 435.329 87.36C437.409 88.8 439.889 89.92 442.769 90.72C445.729 91.44 448.649 92.32 451.529 93.36C454.489 94.32 456.969 96.08 458.969 98.64C461.049 101.12 462.089 104.36 462.089 108.36C462.089 113.16 460.369 116.96 456.929 119.76C453.569 122.48 448.849 123.84 442.769 123.84C437.489 123.84 433.009 122.92 429.329 121.08C425.729 119.16 423.929 117.2 423.929 115.2Z" fill="#273849"/>
</svg>
