<?xml version="1.0" encoding="UTF-8" standalone="no"?>
<!DOCTYPE svg PUBLIC "-//W3C//DTD SVG 20010904//EN" "http://www.w3.org/TR/2001/REC-SVG-20010904/DTD/svg10.dtd">
<svg version="1.0" xmlns="http://www.w3.org/2000/svg" width="300.000000pt" height="360.000000pt" viewBox="0 0 300.000000 360.000000" preserveAspectRatio="xMidYMid meet">

<g transform="translate(0.000000,360.000000) scale(0.100000,-0.100000)" fill="#000000" stroke="none">
<path d="M1523 3479 c-73 -28 -141 -106 -205 -235 l-52 -105 -5 -143 c-5 -113 -9 -148 -22 -162 -84 -95 -123 -321 -80 -459 41 -130 62 -164 121 -196 65 -34 64 -32 42 -75 -10 -22 -28 -56 -38 -78 -16 -32 -33 -45 -109 -83 -49 -24 -108 -53 -129 -65 -55 -29 -203 -135 -254 -182 l-42 -39 -135 5 c-144 6 -147 5 -207 -49 -21 -20 -35 -24 -68 -21 -40 3 -45 0 -83 -44 l-40 -47 16 -46 c15 -46 14 -47 -24 -133 -54 -124 -73 -237 -66 -415 4 -114 10 -159 31 -230 37 -125 49 -144 95 -157 l38 -10 12 -98 c7 -53 19 -123 27 -155 12 -44 13 -70 5 -110 -5 -29 -12 -73 -16 -99 l-6 -48 225 0 225 0 3 112 3 113 47 -110 46 -110 950 -3 949 -2 -4 52 c-5 62 -28 150 -51 193 -26 49 -34 113 -32 240 1 66 -3 140 -9 165 -9 39 -8 47 8 60 28 22 50 73 78 174 21 75 24 104 19 166 -14 172 -81 327 -185 430 -86 86 -138 110 -236 110 -42 0 -75 4 -75 10 0 5 -29 45 -64 88 -63 79 -63 79 -56 127 4 27 15 54 24 61 28 20 139 255 141 299 3 35 9 44 54 78 65 48 75 82 68 237 -5 131 -27 213 -80 301 -31 51 -34 66 -41 159 -7 118 -16 161 -59 285 -27 77 -39 97 -84 141 -29 28 -81 66 -115 85 -56 29 -71 33 -133 32 -38 -1 -124 -3 -190 -4 -66 -1 -133 1 -150 4 -20 5 -48 0 -82 -14z m175 -283 c-18 -14 -14 -26 9 -26 7 0 13 8 13 18 0 13 2 14 9 3 5 -7 6 -21 4 -31 -3 -10 0 -21 6 -24 6 -4 11 -12 11 -18 0 -6 -10 -2 -22 9 -13 11 -40 30 -61 43 -43 25 -36 40 18 40 27 -1 28 -2 13 -14z m-30 -40 c20 -13 46 -34 57 -47 14 -16 15 -20 3 -11 -9 8 -25 11 -36 8 -15 -5 -18 -1 -18 16 1 17 -4 23 -17 21 -11 0 -27 7 -38 18 -28 28 2 25 49 -5z m278 -42 c-3 -8 -10 -14 -15 -14 -5 0 -4 13 2 31 8 21 13 26 15 14 2 -9 1 -23 -2 -31z m-122 -54 c9 0 14 -4 11 -10 -3 -5 -1 -10 4 -10 6 0 11 5 11 10 0 6 5 10 10 10 6 0 10 -7 10 -15 0 -8 5 -15 10 -15 11 0 -6 40 -21 51 -14 8 165 4 179 -5 7 -4 10 -16 7 -26 -5 -15 2 -23 31 -35 20 -8 34 -18 31 -22 -4 -3 -13 0 -22 7 -9 7 -18 10 -22 6 -3 -3 -1 -6 5 -6 7 0 12 -6 12 -13 0 -11 -10 -12 -49 -4 -64 14 -126 -9 -174 -62 -41 -46 -57 -107 -57 -219 l0 -76 -60 59 c-68 67 -77 101 -36 128 13 9 26 30 30 49 3 18 18 50 31 70 14 21 23 38 20 38 -3 0 -19 -21 -36 -47 -18 -27 -28 -39 -24 -28 5 11 8 32 7 47 -1 14 6 32 14 39 8 7 11 15 6 18 -6 3 1 14 14 24 23 17 24 17 21 0 -1 -10 -6 -25 -11 -33 -4 -8 2 -4 15 10 l22 25 -8 -25 -7 -25 28 25 c16 14 31 27 34 29 3 2 -4 1 -15 -2 -15 -4 -29 6 -55 36 -22 27 -25 34 -9 20 14 -13 33 -23 43 -23z m248 -110 c23 -11 44 -18 46 -15 13 13 61 -70 67 -116 10 -69 2 -840 -8 -836 -5 1 -8 144 -8 317 1 500 -11 587 -83 631 -70 43 -141 37 -207 -18 -34 -29 -38 -30 -19 -9 60 68 134 84 212 46z m-113 -69 c9 -6 22 -6 34 0 36 20 88 -52 67 -92 -8 -13 -7 -25 0 -39 8 -16 5 -25 -19 -52 -25 -28 -31 -31 -45 -19 -13 11 -22 11 -40 3 -20 -9 -27 -7 -47 14 -18 20 -24 37 -25 82 -1 48 3 61 24 85 28 30 31 31 51 18z m-475 -71 c5 -27 26 -43 26 -20 0 6 6 10 13 10 19 0 45 -96 41 -150 -1 -25 -1 -36 2 -25 3 11 9 24 13 28 11 11 61 -104 61 -138 0 -20 4 -26 15 -21 17 6 19 -2 5 -24 -8 -12 -12 -13 -19 -2 -7 11 -9 10 -14 -3 -4 -9 -3 -13 3 -10 16 10 11 -8 -9 -34 l-18 -23 -16 34 c-9 19 -23 78 -32 131 -19 116 -48 198 -87 239 -33 36 -34 38 -9 38 13 0 20 -9 25 -30z m12 -75 c1 -11 4 -30 8 -42 6 -19 1 -25 -35 -43 -53 -27 -122 -77 -132 -96 -10 -18 -28 -18 -53 1 -18 15 -17 16 12 10 23 -4 35 -1 50 16 10 12 14 19 7 16 -24 -15 -22 12 3 45 l26 33 -31 -33 c-17 -18 -31 -42 -31 -53 0 -11 -4 -17 -10 -14 -5 3 -10 14 -10 24 0 24 29 81 41 81 6 0 8 4 4 9 -3 6 3 15 14 20 16 9 21 6 31 -20 9 -20 18 -28 28 -24 12 4 13 3 2 -10 -16 -19 -9 -19 34 1 l34 17 -14 40 c-18 50 -18 49 4 45 9 -2 17 -12 18 -23z m134 -10 c0 -5 -5 -3 -10 5 -5 8 -10 20 -10 25 0 6 5 3 10 -5 5 -8 10 -19 10 -25z m63 -27 c4 13 5 11 6 -5 1 -28 -16 -29 -49 -2 l-25 20 32 -15 c29 -15 32 -14 36 2z m107 -395 l0 -303 -32 -44 c-18 -25 -36 -45 -40 -45 -5 -1 -8 34 -8 77 0 67 -3 82 -21 98 -16 15 -20 27 -16 56 3 21 1 41 -4 44 -5 3 -9 15 -9 27 0 12 -9 36 -20 52 -12 19 -20 47 -20 75 0 34 -3 41 -11 30 -8 -11 -9 -9 -3 10 7 28 35 70 58 89 7 6 14 28 14 47 0 19 2 38 5 40 3 3 5 -17 5 -45 1 -28 -4 -51 -9 -51 -6 0 -6 -7 1 -19 7 -14 7 -22 -1 -27 -8 -4 -8 -9 0 -17 6 -6 11 -26 11 -44 0 -18 4 -33 8 -33 5 0 7 84 5 187 l-3 187 45 -44 45 -44 0 -303z m-102 312 c-2 -12 -7 -7 -15 16 -12 30 -11 32 3 17 9 -8 14 -23 12 -33z m245 -36 c14 -23 0 -67 -24 -74 -13 -4 -27 0 -40 11 -22 19 -24 36 -8 65 12 24 57 23 72 -2z m-531 -34 c-24 -20 -35 -23 -54 -16 -25 11 -26 11 17 17 17 3 34 9 40 15 5 5 13 9 18 9 5 0 -5 -11 -21 -25z m-92 -26 c0 -11 -3 -11 -24 -3 -23 9 -20 23 4 17 11 -3 20 -9 20 -14z m182 -22 c-31 -33 -31 -120 1 -156 l22 -26 -27 24 c-25 22 -28 31 -28 87 0 54 3 65 22 78 32 22 35 20 10 -7z m-92 3 c0 -5 -2 -10 -4 -10 -3 0 -8 5 -11 10 -3 6 -1 10 4 10 6 0 11 -4 11 -10z m950 -70 c0 -38 -3 -70 -7 -70 -5 0 -7 31 -5 70 2 38 6 70 8 70 2 0 4 -31 4 -70z m-1053 38 c-3 -8 -6 -5 -6 6 -1 11 2 17 5 13 3 -3 4 -12 1 -19z m80 -60 c-3 -7 -5 -2 -5 12 0 14 2 19 5 13 2 -7 2 -19 0 -25z m1045 0 c-9 -9 -12 -7 -12 12 0 19 3 21 12 12 9 -9 9 -15 0 -24z m-344 -19 c3 -26 -19 -46 -39 -33 -11 6 -12 48 -2 58 15 14 38 0 41 -25z m0 -85 c3 -23 -21 -49 -38 -39 -11 7 -14 48 -3 59 13 13 38 1 41 -20z m-547 -91 c-11 -21 -20 -35 -21 -31 0 12 33 78 38 74 2 -2 -6 -21 -17 -43z m599 26 c-7 -11 -14 -18 -17 -15 -3 3 0 12 7 21 18 21 23 19 10 -6z m-13 -111 c-3 -7 -5 -2 -5 12 0 14 2 19 5 13 2 -7 2 -19 0 -25z m-428 -108 l0 -25 -10 25 c-6 13 -16 31 -23 40 -8 8 -17 26 -21 40 -6 20 -1 17 24 -15 17 -22 30 -51 30 -65z m381 13 c0 -5 -31 -8 -69 -8 -38 0 -67 3 -64 8 2 4 33 7 69 7 35 0 64 -3 64 -7z m-206 -51 c7 -11 -44 -82 -59 -82 -25 0 -23 14 6 51 31 39 43 46 53 31z m236 -10 c0 -37 -20 -50 -87 -57 -48 -5 -75 -13 -91 -29 l-23 -21 -19 25 c-21 27 -25 40 -11 40 5 0 14 14 20 31 l10 31 101 -4 c74 -2 100 -6 100 -16z m-618 -34 c-7 -7 -12 -8 -12 -2 0 6 3 14 7 17 3 4 9 5 12 2 2 -3 -1 -11 -7 -17z m568 -68 c-36 -12 -100 -12 -100 0 0 6 27 10 63 9 46 -1 56 -3 37 -9z m-640 -221 c0 -5 -14 7 -32 28 -56 66 -62 80 -14 30 25 -27 46 -53 46 -58z m-433 45 c3 -8 12 -13 19 -10 8 3 26 -5 41 -18 25 -22 26 -26 16 -60 -6 -21 -10 -46 -8 -57 2 -10 0 -19 -6 -19 -5 0 -9 5 -9 10 0 15 -67 80 -82 80 -7 1 -24 7 -38 16 -23 14 -23 14 -2 9 13 -4 22 -2 22 4 0 6 9 11 21 11 14 0 18 4 12 13 -11 18 -12 37 -2 37 5 0 12 -7 16 -16z m489 -119 c26 -35 26 -36 8 -50 -23 -17 -34 -19 -34 -5 0 6 -8 10 -18 10 -17 0 -42 36 -42 60 0 8 20 16 47 19 7 0 24 -15 39 -34z m-646 -44 c0 -4 -6 -8 -14 -8 -8 0 -12 6 -9 14 5 13 23 9 23 -6z m5 -47 c28 -30 41 -67 50 -142 6 -52 -6 -89 -25 -77 -11 7 -33 -62 -25 -75 4 -6 4 -24 0 -40 -5 -22 -15 -32 -41 -42 -29 -10 -37 -21 -61 -82 -15 -39 -31 -72 -35 -74 -4 -2 -3 -13 1 -25 5 -12 12 -52 15 -89 6 -56 5 -68 -7 -68 -7 0 -22 9 -31 19 -16 18 -16 19 1 17 14 -1 19 7 21 37 2 21 -1 37 -7 37 -6 0 -14 0 -18 1 -5 0 -11 -10 -15 -23 -6 -22 -6 -22 -7 4 -1 14 5 28 12 31 9 3 9 7 1 18 -20 25 -28 80 -13 91 12 8 12 10 1 15 -7 3 -18 16 -23 30 -6 16 -15 23 -23 20 -21 -8 -39 48 -22 65 7 7 16 27 20 43 15 60 91 205 104 200 7 -3 10 0 7 5 -4 6 10 35 29 64 31 46 44 60 64 65 2 1 14 -11 27 -25z m749 -93 c26 -42 78 -105 115 -140 36 -35 57 -58 46 -51 -11 8 -41 34 -67 58 -25 24 -51 41 -57 38 -10 -7 -16 7 -12 28 1 5 -12 26 -29 47 -16 21 -30 43 -30 48 0 6 -5 11 -12 11 -6 0 -8 3 -5 7 4 3 3 11 -2 17 -4 6 -11 20 -14 31 -7 23 -13 31 67 -94z m-119 -73 c-22 -23 -31 -35 -19 -25 11 9 25 17 30 17 5 -1 -1 -9 -12 -18 l-21 -18 23 -27 c29 -34 32 -34 27 1 -3 26 -3 26 7 4 11 -27 6 -42 -15 -42 -8 0 -17 -5 -21 -11 -4 -8 0 -9 15 -4 34 11 26 -24 -9 -36 -16 -6 -30 -15 -30 -19 0 -5 22 1 49 13 27 12 45 24 40 25 -13 5 -11 32 3 32 6 0 4 7 -5 18 -10 10 -17 29 -17 41 0 12 -5 31 -10 42 -6 10 -8 19 -4 19 11 0 33 -34 34 -52 0 -9 12 -30 26 -47 14 -17 22 -31 17 -31 -4 0 1 -7 11 -15 19 -15 19 -15 -2 -15 -21 0 -27 -12 -23 -51 1 -9 -5 -21 -13 -28 -8 -7 -12 -19 -9 -26 8 -23 -23 -48 -44 -36 -16 9 -16 10 5 11 13 0 22 6 22 15 0 8 -5 14 -11 12 -6 -1 -14 4 -16 11 -3 8 1 10 11 6 11 -4 16 -1 16 10 0 9 7 16 15 16 8 0 15 5 15 10 0 19 -44 4 -78 -27 -7 -7 -18 -13 -24 -13 -20 0 15 31 61 55 25 13 42 24 36 24 -5 1 -30 -10 -54 -24 -44 -25 -81 -33 -81 -16 0 5 5 11 11 13 8 3 6 10 -5 20 -15 15 -13 19 19 46 l36 29 -21 26 c-12 15 -25 27 -29 27 -5 0 -29 -18 -54 -40 -25 -22 -48 -40 -52 -40 -4 0 13 18 39 41 44 39 62 75 32 63 -8 -3 -17 -1 -21 5 -4 7 5 11 25 11 18 0 29 -4 25 -10 -12 -19 10 -9 45 20 49 41 51 37 5 -12z m-265 -59 c0 -5 -4 -9 -10 -9 -5 0 -10 7 -10 16 0 8 5 12 10 9 6 -3 10 -10 10 -16z m141 -2 c-1 -12 -15 -9 -19 4 -3 6 1 10 8 8 6 -3 11 -8 11 -12z m97 -43 c-4 -3 -12 5 -18 18 -12 22 -12 22 6 6 10 -10 15 -20 12 -24z m-990 -41 l9 -51 -23 15 c-24 15 -25 24 -7 88 7 23 9 18 21 -52z m862 59 c0 -13 -12 -22 -22 -16 -10 6 -1 24 13 24 5 0 9 -4 9 -8z m294 -7 c11 -8 17 -17 14 -21 -7 -6 -48 17 -48 28 0 12 13 9 34 -7z m-743 -22 c-12 -20 -14 -14 -5 12 4 9 9 14 11 11 3 -2 0 -13 -6 -23z m348 -37 c-1 -53 -7 -44 -22 31 -5 26 -3 31 8 26 11 -4 15 -20 14 -57z m206 26 c-6 -7 -35 18 -35 31 0 5 9 2 20 -8 11 -10 18 -20 15 -23z m-143 -8 c21 -15 38 -31 38 -35 0 -5 4 -9 9 -9 4 0 6 11 4 24 -6 31 30 55 53 35 8 -6 14 -16 14 -21 0 -6 -7 -5 -16 3 -13 10 -17 10 -25 -2 -5 -8 -9 -18 -9 -24 0 -5 4 -4 9 4 12 19 33 3 26 -20 -4 -13 -2 -19 8 -19 15 0 37 -143 37 -248 l0 -58 52 -27 c29 -15 47 -27 40 -27 -7 0 -12 -4 -12 -9 0 -5 9 -7 20 -4 23 6 26 23 8 42 -11 11 -10 13 2 9 8 -3 24 -20 34 -38 18 -31 18 -33 2 -27 -10 4 -15 3 -11 -3 3 -6 12 -10 19 -10 8 0 31 -16 52 -35 22 -19 65 -48 97 -65 31 -17 57 -38 57 -46 0 -8 -4 -14 -10 -14 -16 0 -11 -17 7 -24 9 -4 20 -1 24 6 6 9 24 -1 65 -33 61 -49 76 -69 49 -69 -9 0 -13 -5 -9 -11 4 -8 -1 -9 -16 -4 -20 6 -21 4 -15 -16 7 -21 6 -22 -8 -10 -12 10 -14 18 -7 31 7 13 7 21 0 25 -14 9 -30 -3 -30 -22 0 -9 -6 -13 -15 -9 -18 7 -20 -5 -2 -23 10 -10 9 -11 -5 -6 -10 4 -18 15 -19 24 0 9 -3 11 -5 5 -6 -14 -87 1 -92 17 -2 5 -10 9 -18 9 -8 0 -11 -6 -7 -17 4 -14 3 -15 -6 -7 -8 8 -28 8 -64 1 -29 -5 -63 -9 -76 -9 -15 0 -25 -7 -28 -19 -3 -10 -10 -19 -15 -19 -5 0 -6 5 -2 12 5 8 2 9 -10 5 -12 -5 -29 4 -54 29 -20 20 -36 41 -34 46 1 5 -2 7 -7 4 -16 -10 -83 63 -76 83 15 38 55 223 50 231 -3 5 0 29 6 54 12 49 4 180 -11 171 -5 -3 -18 8 -30 25 -12 16 -28 30 -35 30 -19 0 -29 20 -27 53 1 16 -4 42 -12 58 -18 36 -12 36 36 3z m403 -34 c3 -5 2 -10 -4 -10 -5 0 -13 5 -16 10 -3 6 -2 10 4 10 5 0 13 -4 16 -10z m74 -53 c9 -12 8 -16 -4 -21 -8 -3 -15 0 -15 6 0 6 -8 20 -17 31 -17 19 -17 20 3 9 11 -6 26 -17 33 -25z m-533 -119 c-3 -57 -11 -119 -16 -138 l-10 -35 5 40 c3 22 8 84 11 138 4 53 9 97 12 97 3 0 2 -46 -2 -102z m591 80 c2 -17 0 -19 -7 -8 -5 8 -6 18 -4 22 8 12 10 10 11 -14z m-1320 -103 c13 -60 22 -117 20 -125 -1 -8 -9 13 -16 48 -12 55 -18 64 -47 78 -40 19 -52 56 -29 90 31 48 47 27 72 -91z m1099 80 c-4 -11 2 -15 27 -15 24 0 28 -3 17 -10 -8 -5 -11 -10 -6 -10 4 0 -2 -9 -15 -21 -23 -19 -23 -20 -2 -9 19 9 22 8 17 -5 -4 -8 -2 -15 4 -15 6 0 8 -9 5 -20 -3 -11 -12 -20 -19 -20 -8 0 -14 -8 -14 -17 -1 -17 -1 -17 -11 -1 -5 10 -17 15 -27 12 -12 -4 -10 0 7 15 19 17 20 21 7 21 -10 0 -14 5 -11 10 4 6 -8 10 -27 11 -18 0 -27 3 -20 6 6 2 12 11 12 19 0 10 -13 14 -47 14 -59 0 -50 10 12 15 26 1 50 7 54 12 5 8 24 19 40 22 2 1 1 -6 -3 -14z m239 -15 c12 -5 14 -9 6 -9 -11 -1 -10 -6 5 -22 17 -19 19 -19 25 -2 6 13 8 8 8 -17 l1 -34 -40 39 c-52 50 -53 66 -5 45z m-89 -147 c-6 -6 -56 20 -56 29 0 5 13 1 30 -8 16 -10 28 -19 26 -21z m341 5 c-3 -8 -6 -5 -6 6 -1 11 2 17 5 13 3 -3 4 -12 1 -19z m-1560 -100 c-3 -7 -5 -2 -5 12 0 14 2 19 5 13 2 -7 2 -19 0 -25z m210 -50 c-3 -8 -6 -5 -6 6 -1 11 2 17 5 13 3 -3 4 -12 1 -19z m1750 -55 c-3 -10 -5 -2 -5 17 0 19 2 27 5 18 2 -10 2 -26 0 -35z m-1741 11 c-4 -9 -9 -15 -11 -12 -3 3 -3 13 1 22 4 9 9 15 11 12 3 -3 3 -13 -1 -22z m561 -46 c-3 -8 -6 -5 -6 6 -1 11 2 17 5 13 3 -3 4 -12 1 -19z m1202 -81 c1 -5 -3 -5 -9 -2 -5 3 -10 16 -9 28 0 21 1 21 9 2 5 -11 9 -24 9 -28z m-390 -62 c0 -26 -2 -27 -9 -10 -5 11 -9 34 -9 50 0 26 2 27 9 10 5 -11 9 -33 9 -50z m404 -35 l6 -35 -18 35 c-9 19 -15 41 -13 49 7 18 17 -2 25 -49z m-328 -21 c4 -18 16 -34 28 -39 15 -6 17 -9 6 -9 -16 -1 -59 42 -59 58 0 5 -10 7 -22 4 -22 -4 -21 -4 2 10 31 17 37 14 45 -24z m-165 -12 c0 -10 -4 -16 -9 -13 -5 3 -8 17 -8 32 0 18 2 22 8 13 5 -8 9 -22 9 -32z m-46 4 c-2 -2 5 -14 16 -26 22 -24 41 -93 22 -81 -7 4 -12 18 -12 31 0 14 -13 36 -32 54 -29 27 -30 30 -11 28 12 0 20 -3 17 -6z m203 -37 c4 -11 -56 -29 -65 -19 -3 2 1 12 8 20 15 17 51 17 57 -1z m-302 -24 c3 -5 2 -10 -4 -10 -5 0 -13 5 -16 10 -3 6 -2 10 4 10 5 0 13 -4 16 -10z m320 -20 c10 -11 16 -20 13 -20 -3 0 -13 9 -23 20 -10 11 -16 20 -13 20 3 0 13 -9 23 -20z m-38 -12 c-3 -8 -6 -5 -6 6 -1 11 2 17 5 13 3 -3 4 -12 1 -19z m-1792 -38 c7 -24 7 -24 -9 -5 -8 11 -15 29 -15 40 0 16 1 17 8 5 5 -8 12 -26 16 -40z m1784 -95 c0 -5 -4 -3 -9 5 -5 8 -9 22 -9 30 0 16 17 -16 18 -35z m84 -52 c-7 -2 -19 -2 -25 0 -7 3 -2 5 12 5 14 0 19 -2 13 -5z"/>
<path d="M1700 2768 c0 -36 4 -35 14 5 4 16 2 27 -4 27 -5 0 -10 -14 -10 -32z"/>
<path d="M1944 2838 c-4 -7 -3 -8 5 -4 36 23 85 -27 75 -75 -5 -22 -4 -22 6 -6 14 22 6 59 -16 81 -18 19 -60 21 -70 4z"/>
<path d="M1699 2238 c0 -2 -3 -16 -5 -33 -4 -28 -3 -29 11 -11 8 11 15 23 15 27 0 8 -19 23 -21 17z"/>
<path d="M1700 2135 c0 -19 5 -35 10 -35 6 0 10 16 10 35 0 19 -4 35 -10 35 -5 0 -10 -16 -10 -35z"/>
<path d="M861 1384 c0 -11 3 -14 6 -6 3 7 2 16 -1 19 -3 4 -6 -2 -5 -13z"/>
<path d="M750 1160 c0 -19 3 -21 12 -12 9 9 9 15 0 24 -9 9 -12 7 -12 -12z"/>
<path d="M601 1104 c0 -11 3 -14 6 -6 3 7 2 16 -1 19 -3 4 -6 -2 -5 -13z"/>
<path d="M1735 580 c3 -5 8 -10 11 -10 2 0 4 5 4 10 0 6 -5 10 -11 10 -5 0 -7 -4 -4 -10z"/>
<path d="M1735 450 c-3 -5 -1 -10 4 -10 6 0 11 5 11 10 0 6 -2 10 -4 10 -3 0 -8 -4 -11 -10z"/>
<path d="M1530 429 c0 -5 5 -7 10 -4 6 3 10 8 10 11 0 2 -4 4 -10 4 -5 0 -10 -5 -10 -11z"/>
<path d="M1553 1003 c-18 -7 -16 -23 3 -23 8 0 13 4 10 9 -4 5 0 12 6 14 7 3 9 5 3 5 -5 0 -16 -2 -22 -5z"/>
</g>
</svg>