<?xml version="1.0" encoding="iso-8859-1"?>
<!-- Generator: Adobe Illustrator 19.0.0, SVG Export Plug-In . SVG Version: 6.00 Build 0)  -->
<svg version="1.1" id="Capa_1" xmlns="http://www.w3.org/2000/svg" xmlns:xlink="http://www.w3.org/1999/xlink" x="0px" y="0px"
	 viewBox="0 0 351.72 351.72" style="enable-background:new 0 0 351.72 351.72;" xml:space="preserve">
<g>
	<g>
		<path d="M286.66,0h-30.28v102.48c0,7.2-7.28,10.76-12.92,1.72l-20-32l-20,32c-5.68,9-12.92,5.48-12.92-1.72V0H89.02
			c-24.541,0.066-44.4,19.979-44.4,44.52v262.8c0.066,24.494,19.906,44.334,44.4,44.4H286.7c5.406-0.009,10.587-2.167,14.4-6
			c3.833-3.813,5.991-8.994,6-14.4V20.44C307.078,9.16,297.94,0.022,286.66,0z M290.46,298.92l-192.88,0.24
			c-4.204,0.29-7.549,3.636-7.839,7.839c-0.321,4.65,3.189,8.68,7.839,9.001h192.88l-0.04,15.52c0.002,0.925-0.357,1.815-1,2.48
			c-0.665,0.643-1.555,1.002-2.48,1H89.02c-15.188,0-27.5-12.312-27.5-27.5c0-15.188,12.312-27.5,27.5-27.5h197.92
			c1.935,0.022,3.498,1.585,3.52,3.52V298.92z"/>
	</g>
</g>
<g>
</g>
<g>
</g>
<g>
</g>
<g>
</g>
<g>
</g>
<g>
</g>
<g>
</g>
<g>
</g>
<g>
</g>
<g>
</g>
<g>
</g>
<g>
</g>
<g>
</g>
<g>
</g>
<g>
</g>
</svg>
