<svg viewBox="0 0 516 168" xmlns="http://www.w3.org/2000/svg">
<path d="M0 65.817V131.634H9.37667C14.5338 131.634 18.7533 131.562 18.7533 131.454C18.7533 130.949 19.5107 124.097 19.6549 123.123L19.8353 121.969L22.1073 124.313C26.0383 128.424 31.0151 131.201 37.0379 132.608C39.1656 133.113 41.2213 133.257 45.4408 133.221C51.4996 133.221 53.8798 132.788 58.5681 130.985C67.1514 127.631 74.5085 119.156 78.2231 108.373L78.9444 106.209L78.9804 118.903V131.634H89.439H99.8976L99.9697 117.641L100.078 103.684L100.943 106.029C103.143 112.051 106.642 117.569 111.114 122.005C117.136 127.956 124.493 131.526 133.509 132.86C153.489 135.854 170.98 127.198 179.022 110.392L180.321 107.687L180.753 108.95C181.583 111.366 184.684 117.064 186.452 119.408C189.048 122.907 193.845 127.234 197.054 129.073C202.789 132.319 208.992 133.726 216.204 133.329C224.247 132.896 230.558 130.336 236.184 125.287L238.131 123.556L237.915 129.11C237.626 137.657 236.364 141.299 232.289 145.374C228.394 149.233 224.03 150.964 217.106 151.361C208.378 151.83 200.697 148.909 194.097 142.598C192.799 141.335 191.681 140.362 191.681 140.398C191.645 140.434 189.481 143.175 186.884 146.492C184.252 149.81 182.124 152.623 182.124 152.768C182.124 152.876 182.773 153.777 183.602 154.751C185.802 157.384 190.491 160.738 194.927 162.866C202.248 166.328 207.369 167.626 215.303 167.951C236.725 168.816 252.954 158.249 257.498 140.47C258.868 135.132 258.94 132.139 258.94 84.931V38.9493L249.492 39.0214L240.007 39.1296L239.574 43.277C239.358 45.549 239.141 47.5686 239.141 47.785C239.105 47.9653 238.023 47.0637 236.689 45.7654C232.541 41.6901 228.719 39.5984 222.948 38.1198C220.352 37.4706 218.801 37.3624 214.041 37.3624C207.801 37.3624 205.385 37.7952 200.913 39.5623C192.222 43.0245 184.54 51.2832 180.862 61.0205L180.212 62.7516L179.203 60.5517C176.281 54.3486 170.295 47.3883 164.849 43.8179C152.515 35.7035 134.159 34.9101 120.49 41.8705C111.51 46.4506 104.802 54.3486 100.943 64.9154L100.078 67.2596L99.9697 33.6118L99.8976 7.58687e-06H89.439H78.9804V32.1692L78.9444 64.3745L78.0428 61.6697C75.8428 55.2142 71.2627 48.2177 66.8629 44.5753C60.3713 39.2378 52.3651 36.7493 43.0966 37.2542C34.6576 37.7231 28.671 40.1394 23.0089 45.3687L20.9172 47.3161V23.6581V7.58687e-06H10.4586H0V65.817ZM147.791 54.9257C152.948 56.7289 156.951 60.5517 159.8 66.5383C163.226 73.6429 164.236 84.354 162.469 95.1732C160.233 108.878 152.335 116.848 141.011 116.848C129.254 116.848 121.32 108.733 119.192 94.488C118.579 90.4849 118.507 82.2262 119.012 77.8985C119.553 73.5708 120.923 68.63 122.51 65.3843C124.277 61.7778 128.605 57.2698 131.778 55.7551C136.467 53.5192 142.778 53.1946 147.791 54.9257ZM44.431 54.6011C51.2832 56.0797 56.0797 60.8762 58.5321 68.7022C59.9746 73.3544 60.4074 77.069 60.4074 85.2917C60.4074 93.5143 59.9746 97.2289 58.5321 101.881C56.801 107.399 53.6634 111.799 49.7324 114.071C47.4964 115.405 42.9884 116.487 39.8869 116.487C32.2413 116.451 25.7858 113.025 22.2876 107.074L20.9172 104.766V85.0753V65.3482L22.7204 62.6434C23.6941 61.1648 25.2449 59.3616 26.1104 58.6403C30.7627 54.8175 37.9755 53.2667 44.431 54.6011ZM224.463 54.6372C229.548 55.7191 234.345 58.9648 236.977 63.0762L238.023 64.699V85.2556V105.848L236.22 108.265C231.964 114.035 225.473 116.884 217.827 116.379C206.467 115.622 199.543 106.894 197.956 91.4226C196.91 81.0361 199.038 69.0989 203.041 62.968C207.693 55.8273 215.627 52.7618 224.463 54.6372Z" />
<path d="M439.223 26.2229L439.187 52.4815L438.076 51.0486C434.924 47.0364 430.195 43.1674 425.789 40.9464C414.898 35.4654 398.42 35.6087 387.099 41.2688C380.58 44.5287 374.812 50.153 371.051 56.8878L369.868 59.0731L368.686 56.7087C366.071 51.4068 362.166 46.714 357.688 43.4899C353.318 40.3374 347.085 38.0447 340.887 37.2924C325.268 35.3938 311.942 40.6598 302.484 52.4815L301.338 53.9145L301.302 46.2841V38.6895H293.063H284.823V27.4051V16.1207H274.435H264.046V27.4051V38.6895H256.523H249V46.3916V54.0936H256.523H264.046V80.8537C264.046 96.0787 264.225 109.118 264.404 111.053C265.586 122.158 270.422 128.786 279.199 131.365C284.394 132.905 292.06 132.834 299.117 131.257L301.66 130.684V123.663V116.641L303.989 119.185C314.521 130.72 332.684 135.377 349.628 130.935C358.333 128.606 366.286 123.484 371.015 117.071L372.483 115.029L373.701 116.713C375.493 119.256 379.29 123.09 381.905 125.024C391.542 132.117 406.337 134.481 418.767 130.899C426.398 128.678 433.24 124.2 437.825 118.468L439.223 116.713V123.734V130.756H449.611H460V97.6908V64.5899L461.147 62.8704C465.266 56.6729 472.252 53.3055 480.061 53.8428C487.584 54.3444 491.776 57.1386 493.782 63.0136L494.57 65.378L494.677 98.049L494.785 130.756H505.138H515.527V98.9446C515.527 79.7432 515.383 65.8795 515.168 63.9451C514.667 59.7179 513.305 54.5235 511.801 51.4068C507.43 42.2002 499.657 37.579 487.584 37.0058C477.625 36.5759 469.601 39.3702 462.974 45.6393L460 48.4335V24.2168V0.000171347H449.611H439.223V26.2229ZM338.989 53.8787C347.335 55.6698 352.422 62.4763 353.139 72.7935L353.354 75.9459H333.615H313.876L314.055 74.7637C314.7 71.0381 315.811 67.4916 317.28 64.5182C321.578 55.8131 329.531 51.9084 338.989 53.8787ZM413.107 54.3802C419.161 56.5296 423.389 61.6524 424.75 68.5305L425.359 71.6471H432.309H439.223V85.9765V100.306H432.237H425.287L425.072 101.631C424.427 105.357 423.281 107.686 420.666 110.408C416.797 114.456 411.746 116.319 405.549 115.961C394.372 115.28 387.959 108.044 386.204 94.1084C385.666 89.6305 385.774 78.5969 386.419 74.1906C388.102 62.7271 393.369 55.8848 401.966 53.9145C405.047 53.198 410.42 53.4488 413.107 54.3802ZM299.833 56.458C297.039 61.0434 294.639 67.4916 293.564 73.3666C292.776 77.5221 292.49 89.4514 293.063 94.2517C293.851 101.022 295.893 107.399 298.83 112.307C299.654 113.632 300.192 114.814 300.048 114.922C299.941 115.065 297.792 115.173 295.284 115.173C290.161 115.173 288.083 114.564 286.722 112.629C284.967 110.122 285.003 110.802 284.895 81.5702L284.788 54.0936H293.027H301.266L299.833 56.458ZM365.211 91.7799C365.319 92.2456 365.57 94.0368 365.784 95.7563C366.537 101.667 368.615 108.187 371.194 112.737C371.767 113.775 372.161 114.635 372.054 114.635C371.946 114.635 369.51 112.378 366.608 109.584L361.307 104.533L359.515 106.503C354.142 112.378 347.694 115.495 339.812 115.961C330.785 116.462 323.011 112.772 318.39 105.751C315.847 101.954 314.664 98.5863 313.661 92.3172L313.446 90.9918H339.239H365.068L365.211 91.7799Z" />
</svg>
