<svg width="512" height="512" viewBox="0 0 512 512" fill="none" xmlns="http://www.w3.org/2000/svg">
<path d="M61.1585 459.947V477.867C61.1585 496.718 76.4405 512 95.2918 512H179.2C198.051 512 213.333 496.718 213.333 477.867V460.8H298.667V477.867C298.667 496.718 313.949 512 332.8 512H416.708C435.56 512 450.842 496.718 450.842 477.867V460.083C471.327 456.622 486.341 438.909 486.4 418.133V42.6667C486.372 19.1142 467.286 0.0282122 443.733 0H69.7175C46.165 0.0282122 27.079 19.1142 27.0508 42.6667V76.8C27.0508 81.5128 30.8713 85.3333 35.5841 85.3333C40.2969 85.3333 44.1174 81.5128 44.1174 76.8V42.6667C44.1174 28.5282 55.579 17.0667 69.7175 17.0667H443.733C457.872 17.0667 469.333 28.5282 469.333 42.6667V418.133C469.333 432.272 457.872 443.733 443.733 443.733H69.7175C55.579 443.733 44.1174 432.272 44.1174 418.133V119.467C44.1174 114.754 40.2969 110.933 35.5841 110.933C30.8713 110.933 27.0508 114.754 27.0508 119.467V418.133C27.0739 438.393 41.3166 455.854 61.1585 459.947V459.947ZM433.775 460.8V477.867C433.775 487.292 426.134 494.933 416.708 494.933H332.8C323.374 494.933 315.733 487.292 315.733 477.867V460.8H433.775ZM196.267 460.8V477.867C196.267 487.292 188.626 494.933 179.2 494.933H95.2918C85.8662 494.933 78.2252 487.292 78.2252 477.867V460.8H196.267Z" />
<path d="M93.8668 290.133C89.154 290.133 85.3335 293.954 85.3335 298.667V375.467C85.3335 389.605 96.795 401.067 110.933 401.067H401.067C415.205 401.067 426.667 389.605 426.667 375.467V366.933C440.805 366.933 452.267 355.472 452.267 341.333V290.133C452.267 275.995 440.805 264.533 426.667 264.533V196.267C440.805 196.267 452.267 184.805 452.267 170.667V119.467C452.267 105.328 440.805 93.8667 426.667 93.8667V85.3333C426.667 71.1948 415.205 59.7333 401.067 59.7333H110.933C96.795 59.7333 85.3335 71.1948 85.3335 85.3333V256C85.3335 260.713 89.154 264.533 93.8668 264.533C98.5797 264.533 102.4 260.713 102.4 256V85.3333C102.4 80.6205 106.221 76.8 110.933 76.8H401.067C405.78 76.8 409.6 80.6205 409.6 85.3333V93.8667C395.462 93.8667 384 105.328 384 119.467V170.667C384 184.805 395.462 196.267 409.6 196.267V264.533C395.462 264.533 384 275.995 384 290.133V341.333C384 355.472 395.462 366.933 409.6 366.933V375.467C409.6 380.18 405.78 384 401.067 384H110.933C106.221 384 102.4 380.18 102.4 375.467V298.667C102.4 293.954 98.5797 290.133 93.8668 290.133ZM401.067 170.667V119.467C401.067 114.754 404.887 110.933 409.6 110.933H426.667C431.38 110.933 435.2 114.754 435.2 119.467V170.667C435.2 175.38 431.38 179.2 426.667 179.2H409.6C404.887 179.2 401.067 175.38 401.067 170.667ZM401.067 341.333V290.133C401.067 285.421 404.887 281.6 409.6 281.6H426.667C431.38 281.6 435.2 285.421 435.2 290.133V341.333C435.2 346.046 431.38 349.867 426.667 349.867H409.6C404.887 349.867 401.067 346.046 401.067 341.333Z" />
<path d="M161.399 269.585C180.094 314.719 228.068 340.363 275.982 330.833C323.896 321.302 358.405 279.253 358.405 230.4C358.405 181.547 323.896 139.498 275.982 129.967C228.068 120.437 180.094 146.081 161.399 191.215C150.924 216.288 150.924 244.512 161.399 269.585V269.585ZM215.62 155.238L218.726 162.731C219.849 165.612 222.443 167.66 225.506 168.084C228.569 168.508 231.622 167.242 233.486 164.775C235.35 162.307 235.733 159.024 234.487 156.194L231.39 148.702C247.434 143.821 264.566 143.821 280.61 148.702L277.512 156.194C276.267 159.024 276.65 162.307 278.514 164.775C280.378 167.242 283.43 168.508 286.493 168.084C289.556 167.66 292.15 165.612 293.274 162.731L296.38 155.23C311.173 163.127 323.285 175.242 331.179 190.037L323.686 193.143C320.805 194.267 318.757 196.861 318.333 199.924C317.909 202.987 319.175 206.039 321.642 207.903C324.11 209.767 327.393 210.15 330.223 208.905L337.715 205.807C342.596 221.851 342.596 238.983 337.715 255.027L330.223 251.93C327.393 250.684 324.11 251.067 321.642 252.931C319.175 254.795 317.909 257.848 318.333 260.911C318.757 263.974 320.805 266.568 323.686 267.691L331.187 270.797C323.29 285.59 311.175 297.703 296.38 305.596L293.274 298.103C292.15 295.222 289.556 293.174 286.493 292.75C283.43 292.326 280.378 293.592 278.514 296.06C276.65 298.527 276.267 301.81 277.512 304.64L280.61 312.132C264.566 317.013 247.434 317.013 231.39 312.132L234.487 304.64C235.733 301.81 235.35 298.527 233.486 296.06C231.622 293.592 228.569 292.326 225.506 292.75C222.443 293.174 219.849 295.222 218.726 298.103L215.62 305.604C200.827 297.707 188.714 285.592 180.821 270.797L188.314 267.691C191.195 266.568 193.243 263.974 193.667 260.911C194.091 257.848 192.825 254.795 190.357 252.931C187.89 251.067 184.607 250.684 181.777 251.93L174.285 255.027C169.404 238.983 169.404 221.851 174.285 205.807L181.777 208.905C184.607 210.15 187.89 209.767 190.357 207.903C192.825 206.039 194.091 202.987 193.667 199.924C193.243 196.861 191.195 194.267 188.314 193.143L180.813 190.037C188.707 175.238 200.822 163.119 215.62 155.221V155.238Z" />
<path d="M256.068 281.6C278.616 281.565 298.487 266.783 305.004 245.197C311.52 223.611 303.148 200.303 284.386 187.797C265.623 175.291 240.888 176.531 223.471 190.852C206.055 205.172 200.056 229.201 208.7 250.027C216.661 269.154 235.35 281.611 256.068 281.6V281.6ZM242.935 198.827C260.353 191.641 280.299 199.928 287.497 217.341C294.695 234.754 286.422 254.705 269.015 261.916C251.607 269.126 231.649 260.867 224.427 243.465C220.928 235.094 220.915 225.673 224.389 217.293C227.864 208.912 234.54 202.265 242.935 198.827V198.827Z" />
<path d="M170.667 93.8667H128C123.287 93.8667 119.467 97.6872 119.467 102.4V145.067C119.467 149.78 123.287 153.6 128 153.6C132.713 153.6 136.533 149.78 136.533 145.067V110.933H170.667C175.38 110.933 179.2 107.113 179.2 102.4C179.2 97.6872 175.38 93.8667 170.667 93.8667Z" />
</svg>