<svg width="512" height="512" viewBox="0 0 512 512" fill="none" xmlns="http://www.w3.org/2000/svg">
<path d="M491.729 112.971L259.261 0.745012C257.2 -0.248988 254.8 -0.248988 252.74 0.745012L20.2712 112.971C17.6792 114.222 16.0322 116.847 16.0322 119.725V392.274C16.0322 395.152 17.6792 397.777 20.2712 399.028L252.739 511.254C253.769 511.751 254.885 512 256 512C257.115 512 258.23 511.751 259.261 511.254L491.729 399.028C494.321 397.777 495.968 395.152 495.968 392.274V119.726C495.968 116.846 494.32 114.223 491.729 112.971ZM256 15.828L471.217 119.725L408.83 149.843C408.435 149.542 408.018 149.264 407.56 149.043L193.805 45.853L256 15.828ZM176.867 54.333L391.771 158.079L347.756 179.328L132.941 75.624L176.867 54.333ZM396.799 172.307V250.853L355.686 270.701V192.155L396.799 172.307ZM480.968 387.568L263.5 492.55V236.658L315.373 211.616C319.103 209.815 320.667 205.332 318.866 201.601C317.065 197.872 312.582 196.306 308.851 198.108L256 223.623L235.204 213.583C231.473 211.78 226.99 213.346 225.189 217.076C223.388 220.806 224.952 225.29 228.682 227.091L248.5 236.658V492.55L31.0322 387.566V131.674L196.632 211.619C197.683 212.127 198.794 212.367 199.887 212.367C202.675 212.367 205.353 210.805 206.646 208.126C208.447 204.396 206.883 199.912 203.153 198.111L40.7832 119.725L115.288 83.757L340.582 192.52C340.615 192.566 340.652 192.607 340.686 192.652V282.651C340.686 285.232 342.013 287.631 344.199 289.004C345.413 289.766 346.798 290.151 348.187 290.151C349.299 290.151 350.414 289.904 351.447 289.405L407.56 262.316C410.152 261.065 411.799 258.441 411.799 255.562V165.067L480.968 131.675V387.568V387.568Z" />
<path d="M92.9261 358.479L58.8111 342.01C55.0791 340.207 50.5971 341.773 48.7961 345.503C46.9951 349.233 48.5591 353.717 52.2891 355.518L86.4041 371.987C87.4551 372.495 88.5661 372.735 89.6591 372.735C92.4471 372.735 95.1251 371.173 96.4181 368.494C98.2201 364.763 96.6561 360.281 92.9261 358.479Z" />
<path d="M124.323 338.042L58.8578 306.438C55.1268 304.637 50.6438 306.201 48.8428 309.932C47.0428 313.662 48.6068 318.146 52.3368 319.947L117.802 351.551C118.853 352.058 119.964 352.299 121.057 352.299C123.845 352.299 126.523 350.737 127.816 348.058C129.617 344.326 128.053 339.842 124.323 338.042Z" />
</svg>