<svg width="512" height="512" viewBox="0 0 512 512" fill="none"
  xmlns="http://www.w3.org/2000/svg">
  <path d="M511.726 320.423C510.45 291.088 505.349 258.564 497.696 227.954C490.043 198.619 480.478 171.197 468.999 150.152C424.358 71.713 375.892 83.8296 317.86 99.1349C299.366 103.599 279.596 108.701 259.19 110.614H252.812C232.405 108.701 212.636 103.599 194.142 99.1349C136.11 84.4674 87.6433 71.713 43.003 150.79C31.5241 171.835 21.3206 199.257 14.3057 228.592C6.65311 259.202 1.55136 291.726 0.275929 321.061C-0.999508 353.584 2.18908 377.18 9.20398 393.761C16.2189 409.066 26.4224 418.632 39.8145 422.458C51.9311 425.647 65.9609 424.371 80.6284 417.994C105.499 407.791 134.197 386.108 162.256 359.962C182.026 340.83 219.013 331.264 256.001 331.264C292.989 331.264 329.976 340.83 349.745 359.962C377.805 386.108 406.502 407.791 431.373 417.994C446.041 423.733 460.071 425.647 472.187 422.458C484.942 418.632 495.783 409.704 502.798 393.123C509.813 377.18 513.001 353.584 511.726 320.423ZM481.115 384.195C477.289 393.123 472.187 398.225 465.81 400.138C458.795 402.051 449.867 400.776 439.664 396.949C417.344 388.021 391.197 368.252 365.688 344.019C341.455 319.785 298.728 307.669 256.001 307.669C213.274 307.669 170.547 319.785 145.676 342.743C119.529 366.977 93.3828 387.384 71.7004 395.674C61.4969 399.5 52.5688 401.413 45.5539 398.862C39.1767 396.949 34.075 391.848 30.2487 382.92C25.1469 370.803 22.5961 351.034 23.8715 321.699C25.1469 294.277 29.611 263.028 37.2636 233.693C44.2785 206.272 53.2065 180.763 64.0477 161.631C99.1222 98.4972 139.936 108.701 188.403 121.455C208.172 126.557 228.579 131.659 250.899 133.572C251.537 133.572 251.537 133.572 252.175 133.572H259.19C259.827 133.572 259.827 133.572 260.465 133.572C283.423 131.659 303.83 126.557 323.599 121.455C372.066 109.338 412.88 98.4972 447.954 161.631C458.795 180.763 467.723 205.634 474.738 233.693C481.753 263.028 486.855 293.639 488.13 321.699C489.406 351.034 486.855 370.803 481.115 384.195Z" />
  <path d="M197.331 196.068C190.954 190.329 183.301 185.865 174.373 185.227C173.735 176.936 169.909 168.646 164.17 162.907L163.532 162.269C156.517 155.254 147.589 151.428 137.385 151.428C127.182 151.428 117.616 155.892 111.239 162.269C105.499 168.008 101.035 176.299 100.398 185.227C91.4697 185.865 83.817 189.691 77.4399 195.43L76.8021 196.068C69.7872 203.083 65.9609 212.011 65.9609 222.214C65.9609 232.418 70.425 241.984 76.8021 248.361C83.1793 254.738 90.8319 258.564 100.398 259.202C101.035 268.13 104.862 276.421 111.239 282.16C118.254 289.175 127.182 293.001 137.385 293.001C147.589 293.001 157.155 288.537 163.532 282.16C169.271 275.783 173.735 268.13 174.373 259.202C183.301 258.564 191.591 254.738 197.331 248.361C204.346 241.346 208.172 232.418 208.172 222.214C208.172 212.011 203.708 202.445 197.331 196.068ZM181.388 231.78C178.837 234.331 175.648 235.607 171.822 235.607H162.894C156.517 235.607 150.777 240.708 150.777 247.723V256.014C150.777 259.84 149.502 263.028 146.951 265.579C144.4 268.13 141.212 269.406 137.385 269.406C133.559 269.406 130.37 268.13 127.82 265.579C125.269 263.028 123.993 259.84 123.993 256.014V247.085C123.993 240.708 118.892 234.969 111.877 234.969H102.949C99.1223 234.969 95.9337 233.693 93.3828 231.143C91.4697 229.229 89.5565 226.041 89.5565 222.214C89.5565 218.388 90.8319 215.2 93.3828 212.649C93.3828 212.649 93.3828 212.649 94.0205 212.011C96.5714 210.098 99.76 208.822 102.949 208.822H111.877C118.254 208.822 123.993 203.721 123.993 196.706V187.778C123.993 183.951 125.269 180.763 127.82 178.212C130.37 175.661 133.559 174.386 137.385 174.386C141.212 174.386 144.4 175.661 146.951 178.212C146.951 178.212 146.951 178.212 147.589 178.85C149.502 181.4 150.777 184.589 150.777 187.778V196.706C150.777 203.083 155.879 208.822 162.894 208.822H171.822C175.648 208.822 178.837 210.098 181.388 212.649C183.939 215.2 185.214 218.388 185.214 222.214C185.214 226.041 183.939 229.229 181.388 231.78Z" />
  <path d="M366.964 199.257C379.291 199.257 389.284 189.264 389.284 176.936C389.284 164.609 379.291 154.616 366.964 154.616C354.637 154.616 344.644 164.609 344.644 176.936C344.644 189.264 354.637 199.257 366.964 199.257Z" />
  <path d="M366.964 289.813C379.291 289.813 389.284 279.82 389.284 267.492C389.284 255.165 379.291 245.172 366.964 245.172C354.637 245.172 344.644 255.165 344.644 267.492C344.644 279.82 354.637 289.813 366.964 289.813Z" />
  <path d="M321.686 244.535C334.013 244.535 344.006 234.542 344.006 222.214C344.006 209.887 334.013 199.894 321.686 199.894C309.359 199.894 299.366 209.887 299.366 222.214C299.366 234.542 309.359 244.535 321.686 244.535Z" />
  <path d="M412.242 244.535C424.569 244.535 434.562 234.542 434.562 222.214C434.562 209.887 424.569 199.894 412.242 199.894C399.915 199.894 389.922 209.887 389.922 222.214C389.922 234.542 399.915 244.535 412.242 244.535Z" />
</svg>