<svg width="512" height="512" viewBox="0 0 512 512" fill="none" xmlns="http://www.w3.org/2000/svg">
<path d="M488.727 279.273C481.745 279.273 477.091 283.928 477.091 290.909V442.182C477.091 449.164 472.436 453.818 465.455 453.818H46.5452C39.5632 453.818 34.9092 449.163 34.9092 442.182V290.909C34.9092 283.927 30.2542 279.273 23.2732 279.273C16.2922 279.273 11.6372 283.928 11.6372 290.909V442.182C11.6372 461.964 26.7642 477.091 46.5462 477.091H465.455C485.237 477.091 500.364 461.964 500.364 442.182V290.909C500.364 283.927 495.709 279.273 488.727 279.273Z" />
<path d="M477.091 116.364H34.909C15.127 116.364 0 131.491 0 151.273V225.746C0 242.036 11.636 256 26.764 259.491L209.455 300.218V337.454C209.455 344.436 214.11 349.09 221.091 349.09H290.909C297.891 349.09 302.545 344.435 302.545 337.454V300.218L485.236 259.491C500.364 256 512 242.036 512 225.745V151.272C512 131.491 496.873 116.364 477.091 116.364ZM279.273 325.818H232.728V279.273H279.273V325.818ZM488.727 225.745C488.727 231.563 485.236 236.218 479.418 237.381L302.545 276.945V267.636C302.545 260.654 297.89 256 290.909 256H221.091C214.109 256 209.455 260.655 209.455 267.636V276.945L32.582 237.382C26.764 236.218 23.273 231.564 23.273 225.746V151.273C23.273 144.291 27.928 139.637 34.909 139.637H477.091C484.073 139.637 488.727 144.292 488.727 151.273V225.745V225.745Z" />
<path d="M314.182 34.909H197.818C178.036 34.909 162.909 50.036 162.909 69.818V81.454C162.909 88.436 167.564 93.09 174.545 93.09C181.526 93.09 186.181 88.435 186.181 81.454V69.818C186.181 62.836 190.836 58.182 197.817 58.182H314.181C321.163 58.182 325.817 62.837 325.817 69.818V81.454C325.817 88.436 330.472 93.09 337.453 93.09C344.435 93.09 349.089 88.435 349.089 81.454V69.818C349.091 50.036 333.964 34.909 314.182 34.909Z" />
</svg>