<svg viewBox="0 0 512 512"
  xmlns="http://www.w3.org/2000/svg">
  <path d="M202.009 358.802C200.075 358.802 198.127 358.137 196.538 356.783L141.84 310.208C139.953 308.599 138.868 306.25 138.868 303.769C138.868 301.292 139.958 298.943 141.84 297.335L196.538 250.759C200.09 247.731 205.425 248.16 208.453 251.712C211.476 255.269 211.052 260.604 207.495 263.627L160.358 303.769L207.495 343.91C211.052 346.939 211.476 352.274 208.453 355.825C206.778 357.792 204.401 358.802 202.009 358.802Z" />
  <path d="M309.991 358.802C307.599 358.802 305.222 357.792 303.552 355.825C300.524 352.274 300.953 346.939 304.505 343.91L351.642 303.769L304.505 263.627C300.953 260.604 300.524 255.269 303.552 251.712C306.576 248.16 311.915 247.731 315.462 250.759L370.161 297.335C372.047 298.943 373.132 301.292 373.132 303.769C373.132 306.25 372.047 308.599 370.161 310.208L315.462 356.783C313.873 358.137 311.925 358.802 309.991 358.802V358.802Z" />
  <path d="M236.637 393.736C236.057 393.736 235.472 393.675 234.882 393.552C230.316 392.59 227.392 388.104 228.354 383.538L262.443 221.684C263.406 217.118 267.887 214.193 272.458 215.156C277.024 216.118 279.948 220.599 278.986 225.17L244.896 387.024C244.057 391.005 240.547 393.736 236.637 393.736V393.736Z" />
  <path d="M455.245 481.915H56.7547C25.4623 481.915 0 456.458 0 425.16V86.9434C0 55.6509 25.4623 30.1887 56.7547 30.1887H455.245C486.538 30.1887 512 55.6509 512 86.9434V425.16C512 456.458 486.538 481.915 455.245 481.915ZM56.7547 47.0943C34.783 47.0943 16.9057 64.9717 16.9057 86.9434V425.16C16.9057 447.132 34.783 465.009 56.7547 465.009H455.245C477.217 465.009 495.094 447.132 495.094 425.16V86.9434C495.094 64.9717 477.217 47.0943 455.245 47.0943H56.7547Z" />
  <path d="M503.547 165.542H8.45283C3.78302 165.542 0 161.759 0 157.09C0 152.425 3.78302 148.637 8.45283 148.637H503.547C508.217 148.637 512 152.425 512 157.09C512 161.759 508.217 165.542 503.547 165.542Z" />
  <path d="M144.425 125.094C129.679 125.094 117.675 113.09 117.675 98.3444C117.675 83.5944 129.679 71.5944 144.425 71.5944C159.175 71.5944 171.175 83.5944 171.175 98.3444C171.175 113.09 159.175 125.094 144.425 125.094ZM144.425 88.5C139 88.5 134.58 92.9151 134.58 98.3444C134.58 103.774 139 108.189 144.425 108.189C149.854 108.189 154.269 103.774 154.269 98.3444C154.269 92.9151 149.854 88.5 144.425 88.5Z" />
  <path d="M62.2358 124.835C47.4858 124.835 35.4858 112.835 35.4858 98.0849C35.4858 83.3349 47.4858 71.3349 62.2358 71.3349C76.9858 71.3349 88.9858 83.3349 88.9858 98.0849C88.9858 112.835 76.9858 124.835 62.2358 124.835ZM62.2358 88.2406C56.8113 88.2406 52.3915 92.6604 52.3915 98.0849C52.3915 103.514 56.8113 107.929 62.2358 107.929C67.6651 107.929 72.0802 103.514 72.0802 98.0849C72.0802 92.6604 67.6651 88.2406 62.2358 88.2406Z" />
  <path d="M226.613 125.349C211.868 125.349 199.868 113.349 199.868 98.599C199.868 83.8538 211.868 71.8538 226.613 71.8538C241.363 71.8538 253.363 83.8538 253.363 98.599C253.363 113.349 241.363 125.349 226.613 125.349ZM226.613 88.7547C221.189 88.7547 216.774 93.1698 216.774 98.599C216.774 104.028 221.189 108.443 226.613 108.443C232.042 108.443 236.458 104.028 236.458 98.599C236.458 93.1698 232.042 88.7547 226.613 88.7547Z" />
</svg>