<svg width="485" height="77" viewBox="0 0 485 77" fill="none" xmlns="http://www.w3.org/2000/svg">
<path d="M16.9 71.9C15.3 71.7667 13.7 71.2667 12.1 70.4C10.5 69.5333 9.03333 68.6333 7.7 67.7C6.36667 66.7667 5.46667 66.1333 5 65.8C3.86667 64.6667 3 63.4667 2.4 62.2C1.8 60.8667 1.3 59.1333 0.9 57C0.766667 56.2 0.700001 55.5 0.700001 54.9C0.700001 52.9 1.03333 50.4667 1.7 47.6C2.43333 44.6667 3.16667 42.4 3.9 40.8C5.36667 37.2667 8.6 31.6 13.6 23.8C13.8667 23.5333 14.0333 23.3667 14.1 23.3C14.2333 23.1667 14.2667 23.1 14.2 23.1C14.2 23.0333 14.2 23 14.2 23C14.2 22.5333 15.1667 20.4667 17.1 16.8C18.2333 15.6 18.8 14.5667 18.8 13.7C18.8 13.2333 18.7 12.8667 18.5 12.6C18.3 12.3333 18.5667 11.7667 19.3 10.9C20.0333 9.96666 21.0333 8.96666 22.3 7.9C23.6333 6.76666 25.0333 5.8 26.5 4.99999C28.3 3.6 30.0667 2.9 31.8 2.9C32.3333 2.9 32.7667 3 33.1 3.2C33.5 3.33333 33.7333 3.56666 33.8 3.9C33.8 4.3 35.1333 4.16666 37.8 3.5C39 3.23333 39.8667 3.06666 40.4 3C40.6667 2.66666 41.3333 2.4 42.4 2.19999C43.5333 1.93333 45.1 1.66666 47.1 1.4C48.1667 1.46666 49.4667 1.46666 51 1.4C52.6 1.33333 53.6333 1.26666 54.1 1.2C54.5667 1.06666 55.2333 1.36666 56.1 2.1C57.0333 2.83333 57.7667 3.76667 58.3 4.9C58.4333 5.3 58.5 5.6 58.5 5.8C58.5 6.8 57.8667 7.66666 56.6 8.4C55.3333 9.06666 53.5 9.53333 51.1 9.8C48.6333 10.1333 46.4667 10.4667 44.6 10.8C42.7333 11.1333 40.4 11.6 37.6 12.2L35.5 12.6C33.4333 12.9333 31.9 13.3667 30.9 13.9C29.9 14.4333 28.8333 15.6 27.7 17.4C27.2333 17.7333 26.6333 18.6 25.9 20C25.1667 21.3333 24.4333 22.7333 23.7 24.2L21.7 26.9C20.1667 28.9667 19.2 30.3333 18.8 31C18.4667 31.6 18.4 32.0333 18.6 32.3C18.8667 32.3667 19.3333 32.4667 20 32.6C20.7333 32.7333 21.3333 32.8333 21.8 32.9C22.4 32.5667 23.2333 32.3333 24.3 32.2C25.3667 32.0667 26.1333 31.9333 26.6 31.8L28.8 31.2C32.9333 30.1333 35.9667 29.3667 37.9 28.9C39.8333 28.4333 41.2667 28.1333 42.2 28C42.5333 27.7333 42.9333 27.6 43.4 27.6C44.1333 27.6 44.8333 27.9667 45.5 28.7C46.2333 29.3667 46.7667 30.1667 47.1 31.1C47.3667 32.0333 47.5 32.6333 47.5 32.9C47.5 34.0333 46.8333 34.9 45.5 35.5C44.1667 36.0333 41.5 36.7667 37.5 37.7C31.7 39.1 28.0667 40 26.6 40.4C22.2667 41.6667 19.0667 42.3 17 42.3C15.2667 42.3 14.4333 41.7333 14.5 40.6C13.9 40.2667 13.2 40.8667 12.4 42.4C11.6 43.9333 10.9 45.8333 10.3 48.1C9.76667 50.3667 9.5 52.3333 9.5 54C9.5 54.8667 9.6 55.6 9.8 56.2C10.4 57.8 11.3 59.1667 12.5 60.3C13.7 61.3667 15.3667 62.2 17.5 62.8C17.9667 62.8667 18.5333 62.9333 19.2 63C19.9333 63.0667 20.7667 63.1 21.7 63.1C23.0333 63.1 24.3667 62.8333 25.7 62.3C30.9 61.4333 34.5667 60.2333 36.7 58.7C37.0333 58.5667 37.3333 58.3333 37.6 58C37.9333 57.6667 38.2333 57.5 38.5 57.5L38.4 57.7C38.4 57.7667 38.6 57.6333 39 57.3C39.4 56.9 39.8333 56.5 40.3 56.1C42.1667 54.5 44.2333 53.7 46.5 53.7C47.3 53.7 47.9667 53.8333 48.5 54.1C49.1 54.3 49.4333 54.5 49.5 54.7C49.9 55.3667 49.7 56.4333 48.9 57.9C48.1 59.3667 46.8333 60.9 45.1 62.5C43.4333 64.1 41.5667 65.5 39.5 66.7C36.2333 68.4333 32.5667 69.7 28.5 70.5C24.5 71.3667 20.6333 71.8333 16.9 71.9ZM62.4414 65C61.4414 65 60.4414 64.2667 59.4414 62.8C58.4414 61.2667 57.6414 59.4 57.0414 57.2C56.5081 54.9333 56.3081 52.7667 56.4414 50.7C56.4414 48.3 56.6081 46.3 56.9414 44.7C57.2747 43.1 57.4747 42.1 57.5414 41.7C57.6747 41.3667 57.8081 40.8 57.9414 40C58.0747 39.1333 58.3414 37.9333 58.7414 36.4C59.2081 34.4667 59.7414 33.0333 60.3414 32.1C61.2747 30.7667 62.5081 30.1 64.0414 30.1C64.8414 30.1 65.5414 30.3333 66.1414 30.8C66.8081 31.2 67.1747 31.8 67.2414 32.6C67.6414 33 67.8414 33.9667 67.8414 35.5C67.8414 36.6333 67.7414 37.7333 67.5414 38.8C67.3414 39.8667 67.0747 40.6333 66.7414 41.1C66.5414 41.5 66.2414 43.4333 65.8414 46.9C65.5747 49.4333 65.3747 51.0667 65.2414 51.8C65.1747 52.0667 65.1414 52.4333 65.1414 52.9C65.1414 53.7667 65.3747 54.2 65.8414 54.2C66.8414 54.2 68.6747 52.2333 71.3414 48.3C73.1414 45.6333 74.3081 43.7333 74.8414 42.6C75.4414 41.4 76.1747 39.6 77.0414 37.2C77.7081 35.1333 78.3081 33.8 78.8414 33.2C79.5081 32.2667 80.4414 31.8 81.6414 31.8C82.7747 31.8 83.8414 32.1667 84.8414 32.9C85.8414 33.9 86.3414 35.2 86.3414 36.8C86.3414 38 86.0081 39.2667 85.3414 40.6C84.5414 42.2667 83.8081 44.3 83.1414 46.7C82.4747 49.1 82.1414 51.0667 82.1414 52.6C82.1414 53.8 82.2747 54.5667 82.5414 54.9C82.8747 55.1667 83.3747 55.3 84.0414 55.3C84.7747 55.3 85.4747 55.0333 86.1414 54.5C86.8747 53.9667 88.0081 52.9333 89.5414 51.4C90.6747 50.2667 92.2414 48.1333 94.2414 45C96.2414 41.8667 97.2414 40 97.2414 39.4C97.2414 39 97.5414 38.4333 98.1414 37.7C98.4747 37.2333 98.7747 36.8333 99.0414 36.5C99.3747 36.1667 99.8414 35.8333 100.441 35.5C100.841 35.3667 101.175 35.3 101.441 35.3C102.375 35.3 103.208 35.6667 103.941 36.4C104.208 36.6667 104.441 37.3 104.641 38.3C104.841 39.3 104.941 40.2333 104.941 41.1C103.541 46.3 102.441 49.3333 101.641 50.2C100.375 51.2 99.3081 52.4333 98.4414 53.9C96.8414 55.8333 95.5747 57.2 94.6414 58C93.7747 58.7333 93.2081 59.2333 92.9414 59.5C91.4747 60.9667 89.7747 62.1333 87.8414 63C85.9081 63.8667 84.1081 64.3 82.4414 64.3C81.1081 64.3 80.0414 64 79.2414 63.4C77.1747 62.3333 76.1414 60.5333 76.1414 58C76.1414 57.5333 76.0747 57.1 75.9414 56.7C75.8081 56.3 75.7081 56.0333 75.6414 55.9C74.6414 55.9 73.8414 56.4333 73.2414 57.5C72.3081 59.1 70.5747 60.7667 68.0414 62.5C65.5747 64.1667 63.7081 65 62.4414 65ZM119.178 26.2C118.511 25.7333 117.978 25.1333 117.578 24.4C117.178 23.6667 116.945 22.9667 116.878 22.3C116.811 21.6333 116.878 21.2333 117.078 21.1C117.478 20.6333 117.878 20 118.278 19.2C118.678 18.4 118.978 17.8333 119.178 17.5C119.711 16.3 120.145 15.4333 120.478 14.9C120.945 13.9667 121.378 13.4667 121.778 13.4C122.311 13.1333 122.745 13 123.078 13C123.945 13 124.878 13.3 125.878 13.9C126.945 14.5 127.745 15.2 128.278 16C128.745 17.0667 128.978 18 128.978 18.8C128.978 20.4 128.211 22.1667 126.678 24.1C126.011 24.9667 125.211 25.6333 124.278 26.1C123.345 26.5667 122.411 26.8 121.478 26.8C120.545 26.8 119.778 26.6 119.178 26.2ZM108.378 66.3C107.445 65.3667 106.978 63.7 106.978 61.3C106.978 60.0333 107.145 59.0667 107.478 58.4C107.478 58.0667 107.545 57.6667 107.678 57.2C107.811 56.7333 107.878 56.4333 107.878 56.3C107.811 55.9 108.078 54.8 108.678 53C109.478 51.2 110.478 48.4333 111.678 44.7C112.945 40.9667 113.811 38.3 114.278 36.7C114.278 36.3667 114.411 36.1 114.678 35.9C114.945 35.6333 115.345 35.4667 115.878 35.4C116.611 35.1333 117.545 35.4667 118.678 36.4C119.811 37.2667 120.745 38.2667 121.478 39.4C121.878 39.8 122.078 40.3333 122.078 41C122.078 42 121.645 43.4 120.778 45.2C120.445 45.9333 120.111 46.8333 119.778 47.9C119.511 48.9667 119.278 49.9667 119.078 50.9C118.278 52.7 117.645 54.3667 117.178 55.9C116.978 56.7667 116.845 57.4333 116.778 57.9C116.311 60.3667 115.878 61.9667 115.478 62.7C115.078 64.3667 114.511 65.6333 113.778 66.5C113.045 67.3 112.211 67.7 111.278 67.7C110.145 67.7 109.178 67.2333 108.378 66.3ZM130.307 65.6C129.44 65.1333 128.64 64.5333 127.907 63.8C127.24 63 126.907 62.2667 126.907 61.6C126.907 60.6667 127.007 59.4667 127.207 58C127.474 56.5333 127.774 55.2 128.107 54C128.307 52.3333 128.507 51 128.707 50C128.974 48.9333 129.407 47.9 130.007 46.9C130.274 45.9 130.74 44.4 131.407 42.4C132.874 37.7333 133.874 34.1333 134.407 31.6C134.94 30.1333 135.407 28.8333 135.807 27.7C136.207 26.5667 136.574 25.5333 136.907 24.6C136.774 25 137.607 22.7333 139.407 17.8C139.94 16.2 140.307 14.9667 140.507 14.1C141.24 11.1 142.074 8.83333 143.007 7.29999C143.474 6.63333 143.807 6.06666 144.007 5.6C144.274 5.13333 144.507 4.76666 144.707 4.49999C144.774 4.23333 145.107 4 145.707 3.8C146.374 3.6 147.04 3.5 147.707 3.5C148.44 3.5 148.94 3.63333 149.207 3.9C149.54 3.76667 150.107 4.33333 150.907 5.6C151.774 6.8 152.174 7.66666 152.107 8.2C152.107 9.06666 151.874 9.86666 151.407 10.6C151.14 10.8667 150.84 11.3667 150.507 12.1C150.174 12.7667 149.874 13.3333 149.607 13.8C149.474 14.2667 149.24 15.0667 148.907 16.2C148.64 17.2667 148.374 18.1667 148.107 18.9C147.774 19.7 147.44 20.4667 147.107 21.2C146.84 21.8667 146.607 22.4667 146.407 23C146.14 23.8667 145.674 25.1667 145.007 26.9C144.074 29.1667 143.44 30.9333 143.107 32.2C142.974 32.6 142.74 33.4333 142.407 34.7C141.474 38.0333 140.574 40.4667 139.707 42C139.174 42.8667 138.774 44.0333 138.507 45.5C138.307 46.9667 138.174 47.8667 138.107 48.2C137.107 51.2 136.607 52.9667 136.607 53.5C136.474 54.1 136.24 55.2667 135.907 57C135.507 59.1333 135.107 60.6667 134.707 61.6C134.574 62.6 134.174 63.5667 133.507 64.5C132.907 65.4333 132.207 65.9 131.407 65.9C131.074 65.9 130.707 65.8 130.307 65.6ZM154.38 66.6C153.714 66.7333 153.114 66.8 152.58 66.8C151.714 66.8 150.914 66.7333 150.18 66.6C149.447 66.4 149.08 66.1667 149.08 65.9C149.08 65.7 149.047 65.5667 148.98 65.5C148.914 65.4333 148.78 65.4 148.58 65.4C148.38 65.2 147.914 64.8667 147.18 64.4C146.514 63.8667 145.947 63.5 145.48 63.3C144.68 62.1667 144.28 60.9333 144.28 59.6C144.28 58.3333 144.68 56.3 145.48 53.5C145.547 50.9 146.48 48 148.28 44.8C150.147 41.5333 152.38 38.5333 154.98 35.8C157.58 33 159.914 31 161.98 29.8C162.98 28.8 164.38 28.3 166.18 28.3C167.58 28.3 168.814 28.6 169.88 29.2C170.747 29.7333 171.814 30.8667 173.08 32.6C174.414 34.3333 175.414 35.9 176.08 37.3C176.214 37.7667 176.38 38.4 176.58 39.2C176.847 40 176.98 40.9667 176.98 42.1L176.78 44.9C175.98 47.6333 175.58 50.1 175.58 52.3C175.447 53.2333 175.514 54 175.78 54.6C176.047 55.1333 176.414 55.4 176.88 55.4C177.214 55.4 177.58 55.3 177.98 55.1C178.38 54.9 178.847 54.8 179.38 54.8C180.247 54.8 180.98 55.0667 181.58 55.6C182.18 56.1333 182.48 56.8 182.48 57.6C182.48 58.2667 182.314 58.9 181.98 59.5C181.38 60.8333 180.247 62.0333 178.58 63.1C176.98 64.1667 175.48 64.7 174.08 64.7C172.947 64.7 171.847 64.1 170.78 62.9C169.78 61.7 168.98 60.1333 168.38 58.2L167.78 55.9L164.18 59.2L161.88 61.5C160.814 62.5667 160.214 63.2 160.08 63.4C159.747 63.9333 159.147 64.4333 158.28 64.9C157.48 65.3667 156.18 65.9333 154.38 66.6ZM157.08 57C158.28 56.3333 159.28 55.5 160.08 54.5C160.947 53.5 162.014 52.1 163.28 50.3C163.547 49.9 163.814 49.5 164.08 49.1C164.347 48.6333 164.68 48.1667 165.08 47.7C166.214 46.1667 167.014 44.9333 167.48 44C168.014 43.0667 168.414 42.0667 168.68 41C168.414 40.1333 168.014 39.3333 167.48 38.6C167.014 37.8 166.58 37.3667 166.18 37.3C164.314 37.3 161.78 39.5 158.58 43.9C158.247 44.3667 157.714 45.2 156.98 46.4C156.314 47.6 155.88 48.4 155.68 48.8C155.347 49.2667 154.88 50.4 154.28 52.2C153.747 53.9333 153.48 55.0667 153.48 55.6C153.48 57.0667 153.914 57.8 154.78 57.8C155.447 57.8 156.214 57.5333 157.08 57ZM217.696 65C216.696 65 215.696 64.7333 214.696 64.2C213.696 63.6667 212.896 62.8667 212.296 61.8L211.796 60.8C210.996 58.5333 210.596 56.3333 210.596 54.2V49.8C210.596 49.0667 210.529 48.7 210.396 48.7C209.863 48.7 207.563 50.8667 203.496 55.2C200.629 58.2 198.129 60.5333 195.996 62.2C193.929 63.8 192.496 64.6 191.696 64.6C191.429 64.6 190.796 64.3667 189.796 63.9C188.796 63.3667 188.163 62.9667 187.896 62.7C187.429 62.2333 187.129 61.6667 186.996 61C186.863 60.3333 186.796 59.0667 186.796 57.2C186.796 55.0667 187.229 52.6667 188.096 50C188.963 47.2667 190.429 43.6333 192.496 39.1C193.029 38.1667 193.563 37.0333 194.096 35.7C195.629 32.2333 197.063 29.8333 198.396 28.5C198.929 28.5 199.296 28.5333 199.496 28.6C200.363 28.6667 201.363 29.0667 202.496 29.8C203.696 30.5333 204.429 31.5 204.696 32.7C204.696 33.8333 204.529 34.9667 204.196 36.1C203.863 37.2333 203.096 38.6333 201.896 40.3C201.163 41.3 200.196 43.4667 198.996 46.8C198.663 47.3333 198.196 48.1667 197.596 49.3C197.063 50.3667 196.796 50.9667 196.796 51.1C196.863 51.1667 197.063 51.0333 197.396 50.7C197.729 50.3 198.063 49.9333 198.396 49.6L201.096 46.9C206.363 41.6333 210.429 38.9333 213.296 38.8C214.763 38.8 216.063 39.5667 217.196 41.1C218.329 42.6333 218.896 44.4667 218.896 46.6C218.896 47 218.829 48.1333 218.696 50V55.7C220.229 55.3 221.396 54.9333 222.196 54.6C223.863 54 225.596 53.6333 227.396 53.5C227.263 54.6333 226.629 56.1333 225.496 58C224.429 59.8667 223.163 61.5 221.696 62.9C220.229 64.3 218.896 65 217.696 65ZM303.713 3.3C306.98 5.23333 309.38 7.46666 310.913 10C312.447 12.5333 313.213 15.1 313.213 17.7C313.213 19.4333 312.913 21.0667 312.313 22.6C311.247 25.2667 308.547 28.4333 304.213 32.1C299.88 35.7 295.847 38.3 292.113 39.9C288.447 41.7 284.58 43.2333 280.513 44.5L278.913 44.8C280.78 48.4667 283.113 51.8667 285.913 55C287.98 57.4 290.813 60.1667 294.413 63.3C298.013 66.3667 301.113 68.5333 303.713 69.8C303.98 70.0667 304.113 70.4667 304.113 71C304.113 71.8667 303.88 72.8667 303.413 74C302.947 75.1333 302.58 75.7667 302.313 75.9C301.513 76.1 300.947 76.2 300.613 76.2C298.947 76.2 297.247 75.6333 295.513 74.5C292.38 72.6333 289.347 70.4667 286.413 68C283.48 65.4667 280.28 62.2 276.813 58.2C275.68 56.8667 274.813 55.6 274.213 54.4C273.613 53.1333 272.713 51.0667 271.513 48.2C269.98 53.8 267.013 62.4 262.613 74C262.547 74.3333 262.247 74.6 261.713 74.8C261.247 75 260.68 75.1 260.013 75.1C258.413 75.1 257.047 74.6333 255.913 73.7C255.78 73.5667 255.547 73.3333 255.213 73C254.88 72.6667 254.647 72.3667 254.513 72.1C254.38 71.9 254.313 71.6667 254.313 71.4C254.313 70.8 254.847 69.3 255.913 66.9L257.113 64.2C257.513 61.8 258.48 59.0333 260.013 55.9C260.48 54.3 263.18 47.5 268.113 35.5L269.913 31.1L271.013 28.5C272.813 23.9667 275.247 18.3333 278.313 11.6C278.58 10.8667 278.447 10.1667 277.913 9.5C277.447 8.76666 276.68 8.4 275.613 8.4C274.88 7.53333 274.513 6.7 274.513 5.89999C274.513 5.1 274.847 4.56666 275.513 4.3L284.713 1.2C287.047 0.666661 289.313 0.399994 291.513 0.399994C295.98 0.399994 300.047 1.36666 303.713 3.3ZM288.013 33.1C298.88 28.0333 304.147 22.7333 303.813 17.2C303.813 15.8667 303.213 14.4 302.013 12.8C300.88 11.1333 299.68 10.1 298.413 9.7C295.213 8.9 292.913 8.5 291.513 8.5C290.38 8.5 289.547 8.76666 289.013 9.3C288.547 9.76666 288.147 10.6333 287.813 11.9C287.813 12.0333 287.413 12.9 286.613 14.5C284.88 18.1667 283.613 21.0333 282.813 23.1C282.147 24.3 281.413 25.8 280.613 27.6C279.547 29.8 278.68 31.6 278.013 33C277.347 34.3333 276.947 35.2333 276.813 35.7C276.747 36.1 276.847 36.4333 277.113 36.7C278.447 36.6333 279.813 36.3333 281.213 35.8C282.68 35.2667 284.947 34.3667 288.013 33.1ZM327.708 26.4C326.908 26.4 325.941 26.0333 324.808 25.3C323.674 24.5667 322.674 23.6333 321.808 22.5C321.008 21.3 320.608 20.1 320.608 18.9C320.608 18.5 321.308 17.2667 322.708 15.2C323.641 13.9333 324.108 13.1667 324.108 12.9C324.574 12.9 325.174 13 325.908 13.2C326.641 13.4 327.274 13.6333 327.808 13.9C328.208 14.8333 329.008 16.0333 330.208 17.5C331.008 18.5 331.574 19.3333 331.908 20C332.308 20.6667 332.508 21.3667 332.508 22.1C332.508 23.5667 332.108 24.6667 331.308 25.4C330.574 26.0667 329.374 26.4 327.708 26.4ZM314.108 64.7C313.908 64.7 313.408 64.5333 312.608 64.2C311.874 63.8667 311.374 63.6333 311.108 63.5C311.108 63.3 311.008 62.9667 310.808 62.5C310.674 61.9667 310.608 61.6333 310.608 61.5C310.008 61.2333 309.508 60.8 309.108 60.2C308.774 59.5333 308.708 58.8667 308.908 58.2C309.841 56.6 311.508 52.9333 313.908 47.2C316.374 41.4 317.741 38.0667 318.008 37.2C318.008 35.7333 318.474 34.7 319.408 34.1C319.874 33.7667 320.341 33.6 320.808 33.6C321.941 33.6 323.008 34.3667 324.008 35.9C325.008 37.4333 325.508 39.2333 325.508 41.3C325.508 42.1 324.741 44.4 323.208 48.2C321.741 51.9333 320.074 55.7 318.208 59.5C317.141 61.6333 316.341 63.0333 315.808 63.7C315.341 64.3667 314.774 64.7 314.108 64.7ZM338.537 62.7C337.803 62.1667 336.803 59.9 335.537 55.9C334.27 51.9 333.37 48.1667 332.837 44.7C332.57 43.3 332.037 41.4 331.237 39C331.103 38.4667 331.037 38.0333 331.037 37.7C331.037 36.7 331.303 35.7 331.837 34.7C332.37 33.6333 332.97 32.9 333.637 32.5C333.903 32.3 334.47 32.1667 335.337 32.1C336.27 31.9667 336.903 31.9333 337.237 32C338.703 32.5333 340.037 36.6 341.237 44.2C341.503 46.2667 341.703 47.7667 341.837 48.7C342.037 49.6333 342.137 50.2667 342.137 50.6C342.27 51 342.403 51.4667 342.537 52C342.67 52.5333 342.803 52.9 342.937 53.1C343.07 53.3 343.303 53.2333 343.637 52.9C344.37 52.1667 345.47 50.8333 346.937 48.9C347.67 47.9667 348.77 46.4333 350.237 44.3L353.137 40.4C353.937 39.3333 355.003 38.1667 356.337 36.9C357.67 35.6333 358.703 34.9 359.437 34.7C360.37 34.5667 361.103 34.7667 361.637 35.3C362.237 35.7667 362.537 36.4333 362.537 37.3C362.537 38.5667 362.003 39.9333 360.937 41.4C360.537 41.9333 360.103 42.6667 359.637 43.6C359.237 44.4667 358.97 44.9667 358.837 45.1C358.103 46.5667 356.737 48.6333 354.737 51.3C352.803 53.9667 351.503 55.6333 350.837 56.3C350.703 56.4333 350.137 56.9 349.137 57.7C348.203 58.5 347.337 59.4667 346.537 60.6C344.47 62.6 342.537 63.6 340.737 63.6C339.87 63.6 339.137 63.3 338.537 62.7ZM375.819 26.2C375.152 25.7333 374.619 25.1333 374.219 24.4C373.819 23.6667 373.585 22.9667 373.519 22.3C373.452 21.6333 373.519 21.2333 373.719 21.1C374.119 20.6333 374.519 20 374.919 19.2C375.319 18.4 375.619 17.8333 375.819 17.5C376.352 16.3 376.785 15.4333 377.119 14.9C377.585 13.9667 378.019 13.4667 378.419 13.4C378.952 13.1333 379.385 13 379.719 13C380.585 13 381.519 13.3 382.519 13.9C383.585 14.5 384.385 15.2 384.919 16C385.385 17.0667 385.619 18 385.619 18.8C385.619 20.4 384.852 22.1667 383.319 24.1C382.652 24.9667 381.852 25.6333 380.919 26.1C379.985 26.5667 379.052 26.8 378.119 26.8C377.185 26.8 376.419 26.6 375.819 26.2ZM365.019 66.3C364.085 65.3667 363.619 63.7 363.619 61.3C363.619 60.0333 363.785 59.0667 364.119 58.4C364.119 58.0667 364.185 57.6667 364.319 57.2C364.452 56.7333 364.519 56.4333 364.519 56.3C364.452 55.9 364.719 54.8 365.319 53C366.119 51.2 367.119 48.4333 368.319 44.7C369.585 40.9667 370.452 38.3 370.919 36.7C370.919 36.3667 371.052 36.1 371.319 35.9C371.585 35.6333 371.985 35.4667 372.519 35.4C373.252 35.1333 374.185 35.4667 375.319 36.4C376.452 37.2667 377.385 38.2667 378.119 39.4C378.519 39.8 378.719 40.3333 378.719 41C378.719 42 378.285 43.4 377.419 45.2C377.085 45.9333 376.752 46.8333 376.419 47.9C376.152 48.9667 375.919 49.9667 375.719 50.9C374.919 52.7 374.285 54.3667 373.819 55.9C373.619 56.7667 373.485 57.4333 373.419 57.9C372.952 60.3667 372.519 61.9667 372.119 62.7C371.719 64.3667 371.152 65.6333 370.419 66.5C369.685 67.3 368.852 67.7 367.919 67.7C366.785 67.7 365.819 67.2333 365.019 66.3ZM396.248 68C392.448 68 389.381 66.9333 387.048 64.8C384.714 62.6667 383.548 59.6333 383.548 55.7C383.548 54.1667 383.648 52.4667 383.848 50.6C383.981 49 384.614 46.8 385.748 44C386.948 41.2 388.548 38.4667 390.548 35.8C392.614 33.1333 395.014 31.1667 397.748 29.9C399.014 29.3 400.081 28.9 400.948 28.7C401.814 28.4333 402.814 28.3 403.948 28.3C406.681 28.3 408.881 28.8 410.548 29.8C412.281 30.8 413.481 31.9333 414.148 33.2C414.881 34.4667 415.248 35.5667 415.248 36.5V37V37.3C415.248 38.1 414.781 39.5667 413.848 41.7C412.914 43.8333 411.414 45.8333 409.348 47.7C407.348 49.5667 404.748 50.6 401.548 50.8C399.948 50.8 398.381 50.6667 396.848 50.4C395.381 50.0667 394.448 49.9 394.048 49.9C393.048 49.9 392.414 50.2667 392.148 51C391.881 51.7333 391.748 52.9667 391.748 54.7C391.948 56.5667 392.448 57.8667 393.248 58.6C394.114 59.3333 395.348 59.7 396.948 59.7C397.748 59.7 398.681 59.4667 399.748 59C400.814 58.4667 402.081 57.6333 403.548 56.5C404.348 55.8333 404.981 55.3667 405.448 55.1C405.914 54.8333 406.481 54.7 407.148 54.7C407.748 54.7 408.448 55.1 409.248 55.9C410.048 56.7 410.481 57.4667 410.548 58.2C410.414 59 409.681 60.2 408.348 61.8C407.014 63.4 405.281 64.8333 403.148 66.1C401.014 67.3667 398.714 68 396.248 68ZM399.748 43.9C401.014 43.9 401.881 43.7667 402.348 43.5C403.014 43.1667 404.014 42.3333 405.348 41C406.748 39.6 407.481 38.6333 407.548 38.1C407.548 37.4333 407.248 36.9 406.648 36.5C406.114 36.0333 405.348 35.7333 404.348 35.6H403.248C402.381 35.6 401.114 36.3333 399.448 37.8C397.848 39.2 396.448 40.8333 395.248 42.7C395.314 43.0333 395.814 43.3333 396.748 43.6C397.681 43.8 398.681 43.9 399.748 43.9ZM405.348 26.2C404.948 26.2 404.614 25.9667 404.348 25.5C404.081 24.9667 403.881 24.2 403.748 23.2C403.548 22.5333 402.748 20.9667 401.348 18.5C400.414 16.9 399.681 15.5667 399.148 14.5C398.614 13.4333 398.348 12.5333 398.348 11.8C398.348 11.0667 398.614 10.3667 399.148 9.7C399.748 9.03333 400.414 8.5 401.148 8.1C401.881 7.7 402.348 7.5 402.548 7.5C403.481 7.5 404.248 7.93333 404.848 8.8C405.581 9.4 406.681 11.4667 408.148 15C409.614 18.5333 410.348 20.7333 410.348 21.6C410.348 22.1333 409.714 23 408.448 24.2C407.181 25.3333 406.281 25.9667 405.748 26.1L405.348 26.2ZM418.767 65.3C417.834 64.5667 417.101 63.8667 416.567 63.2C416.034 62.5333 415.867 61.6 416.067 60.4C416.267 58.1333 416.767 55.5 417.567 52.5L418.067 50.5C418.267 48.7 419.301 45.1667 421.167 39.9C423.101 34.5667 424.701 30.9667 425.967 29.1C426.634 28.4333 427.767 28.1 429.367 28.1C430.701 28.1 431.634 28.3667 432.167 28.9C432.701 29.3 432.967 29.9667 432.967 30.9C432.967 32.4333 432.001 35.1333 430.067 39L429.067 41.1C428.601 41.9667 428.201 42.7667 427.867 43.5C427.601 44.2333 427.634 44.5667 427.967 44.5C428.701 43.2333 430.467 41.5 433.267 39.3C436.134 37.1 438.101 35.7333 439.167 35.2C439.634 34.9333 440.234 34.6667 440.967 34.4C441.701 34.1333 442.201 33.9333 442.467 33.8C443.667 33.2 445.034 32.9 446.567 32.9C447.634 32.9 448.534 33.0667 449.267 33.4C450.067 33.6667 450.601 34.1 450.867 34.7C450.934 35.1667 451.101 35.5333 451.367 35.8C451.701 36.0667 451.934 36.2333 452.067 36.3C452.267 36.3 452.401 36.4 452.467 36.6C452.534 36.7333 452.567 36.8333 452.567 36.9C452.567 37.4333 452.101 38.1333 451.167 39C450.234 39.8 449.267 40.2333 448.267 40.3C447.534 40.3667 446.767 40.5333 445.967 40.8C445.167 41.0667 444.367 41.4 443.567 41.8L440.967 43.3C438.701 44.4333 436.767 45.5667 435.167 46.7C433.634 47.7667 432.067 49.1667 430.467 50.9C430.134 51.2333 429.634 51.7 428.967 52.3C428.367 52.9 427.834 53.6 427.367 54.4C426.901 54.8667 426.401 56.1 425.867 58.1C425.401 60.0333 425.167 61.2333 425.167 61.7C425.101 61.9 424.967 62.3 424.767 62.9C424.567 63.5 424.267 64.0333 423.867 64.5C423.267 65.2333 422.767 65.7667 422.367 66.1C421.967 66.4333 421.534 66.6 421.067 66.6C420.401 66.6 419.634 66.1667 418.767 65.3ZM465.202 68C461.402 68 458.336 66.9333 456.002 64.8C453.669 62.6667 452.502 59.6333 452.502 55.7C452.502 54.1667 452.602 52.4667 452.802 50.6C452.936 49 453.569 46.8 454.702 44C455.902 41.2 457.502 38.4667 459.502 35.8C461.569 33.1333 463.969 31.1667 466.702 29.9C467.969 29.3 469.036 28.9 469.902 28.7C470.769 28.4333 471.769 28.3 472.902 28.3C475.636 28.3 477.836 28.8 479.502 29.8C481.236 30.8 482.436 31.9333 483.102 33.2C483.836 34.4667 484.202 35.5667 484.202 36.5V37V37.3C484.202 38.1 483.736 39.5667 482.802 41.7C481.869 43.8333 480.369 45.8333 478.302 47.7C476.302 49.5667 473.702 50.6 470.502 50.8C468.902 50.8 467.336 50.6667 465.802 50.4C464.336 50.0667 463.402 49.9 463.002 49.9C462.002 49.9 461.369 50.2667 461.102 51C460.836 51.7333 460.702 52.9667 460.702 54.7C460.902 56.5667 461.402 57.8667 462.202 58.6C463.069 59.3333 464.302 59.7 465.902 59.7C466.702 59.7 467.636 59.4667 468.702 59C469.769 58.4667 471.036 57.6333 472.502 56.5C473.302 55.8333 473.936 55.3667 474.402 55.1C474.869 54.8333 475.436 54.7 476.102 54.7C476.702 54.7 477.402 55.1 478.202 55.9C479.002 56.7 479.436 57.4667 479.502 58.2C479.369 59 478.636 60.2 477.302 61.8C475.969 63.4 474.236 64.8333 472.102 66.1C469.969 67.3667 467.669 68 465.202 68ZM468.702 43.9C469.969 43.9 470.836 43.7667 471.302 43.5C471.969 43.1667 472.969 42.3333 474.302 41C475.702 39.6 476.436 38.6333 476.502 38.1C476.502 37.4333 476.202 36.9 475.602 36.5C475.069 36.0333 474.302 35.7333 473.302 35.6H472.202C471.336 35.6 470.069 36.3333 468.402 37.8C466.802 39.2 465.402 40.8333 464.202 42.7C464.269 43.0333 464.769 43.3333 465.702 43.6C466.636 43.8 467.636 43.9 468.702 43.9Z" fill="black"/>
</svg>