<svg viewBox="0 0 512 189" xmlns="http://www.w3.org/2000/svg">
<path d="M157.538 39.5887L93.5385 2.63827C87.4456 -0.879423 79.939 -0.879423 73.8462 2.63827L9.84615 39.5886C3.76166 43.1147 0.0113766 49.6104 0 56.6428V130.544C0.0112334 137.576 3.76156 144.072 9.84615 147.598L73.8462 184.548C79.939 188.066 87.4456 188.066 93.5385 184.548L157.538 147.598C163.623 144.072 167.373 137.576 167.385 130.544V56.6428C167.373 49.6104 163.623 43.1147 157.538 39.5887ZM154.256 130.544C154.256 132.889 153.005 135.056 150.974 136.228L86.9744 173.179C84.9434 174.351 82.4412 174.351 80.4103 173.179L16.4103 136.228C14.3793 135.056 13.1282 132.889 13.1282 130.544V56.6428C13.1282 54.2977 14.3793 52.1307 16.4103 50.9581L80.4103 14.0076C82.4412 12.8351 84.9434 12.8351 86.9744 14.0076L150.974 50.9581C153.005 52.1307 154.256 54.2977 154.256 56.6428V130.544Z" />
<path d="M121.471 114.989H116.768C115.664 114.989 114.578 115.267 113.61 115.799L85.2512 131.364L52.5127 112.462V74.7554L85.2512 55.8531L113.624 71.369C114.589 71.8971 115.672 72.1739 116.773 72.1739H121.472C123.284 72.1739 124.754 70.7045 124.754 68.8919V64.4418C124.754 63.2421 124.099 62.1381 123.047 61.5622L91.5576 44.3387C87.533 42.1498 82.6608 42.2057 78.6874 44.4864L45.9486 63.3867C41.8925 65.7381 39.3925 70.0686 39.3845 74.7569V112.461C39.3845 117.151 41.8867 121.485 45.9486 123.831L78.6871 142.733C82.6616 145.012 87.5335 145.066 91.5581 142.877L123.049 125.595C124.1 125.019 124.752 123.916 124.752 122.718V118.271C124.752 116.459 123.283 114.989 121.471 114.989Z" />
<path d="M276.914 54.8569C263.326 54.8719 252.314 65.8833 252.299 79.4715V107.824C252.299 121.419 263.32 132.44 276.914 132.44C290.509 132.44 301.53 121.419 301.53 107.824V79.4715C301.514 65.8833 290.502 54.8719 276.914 54.8569ZM288.401 107.824C288.401 114.168 283.258 119.311 276.914 119.311C270.57 119.311 265.427 114.168 265.427 107.824V79.4715C265.427 73.1273 270.57 67.9843 276.914 67.9843C283.258 67.9843 288.401 73.1273 288.401 79.4715V107.824Z" />
<path d="M216.745 68.0824C219.78 67.6837 222.85 68.5116 225.273 70.3828C227.697 72.254 229.274 75.0141 229.656 78.052C229.759 78.865 230.452 79.4738 231.272 79.4715H241.168C241.63 79.4676 242.069 79.2711 242.381 78.9293C242.692 78.5876 242.846 78.1315 242.807 77.6711C241.813 64.3382 230.37 54.2293 217.016 54.8876C203.752 55.7946 193.498 66.8917 193.641 80.1861V107.11C193.498 120.404 203.752 131.501 217.016 132.408C230.369 133.066 241.812 122.957 242.806 109.624C242.845 109.164 242.691 108.708 242.38 108.366C242.069 108.024 241.629 107.828 241.167 107.824H231.271C230.451 107.822 229.759 108.431 229.656 109.244C229.274 112.282 227.696 115.042 225.273 116.913C222.849 118.785 219.78 119.613 216.744 119.214C210.942 118.325 206.684 113.293 206.769 107.423V79.8725C206.684 74.0032 210.942 68.9708 216.745 68.0824Z" />
<path d="M352.693 100.093C359.857 96.8813 364.471 89.7666 364.482 81.9155V75.8418C364.482 64.8306 355.556 55.9043 344.545 55.9043H316.718C315.812 55.9043 315.077 56.639 315.077 57.5453V129.75C315.077 130.657 315.812 131.391 316.718 131.391H326.564C327.47 131.391 328.205 130.657 328.205 129.75V101.853H339.071L352.061 130.429C352.327 131.015 352.911 131.391 353.554 131.391H364.37C364.928 131.391 365.447 131.108 365.749 130.639C366.051 130.17 366.094 129.579 365.863 129.071L352.693 100.093ZM351.354 81.9155C351.35 85.6742 348.304 88.7204 344.546 88.7248H328.38V69.0325H344.546C348.304 69.0369 351.35 72.0831 351.354 75.8418V81.9155Z" />
<path d="M421.743 55.9043H379.077C378.171 55.9043 377.436 56.639 377.436 57.5453V129.75C377.436 130.657 378.171 131.391 379.077 131.391H421.743C422.65 131.391 423.384 130.657 423.384 129.75V119.904C423.384 118.998 422.65 118.263 421.743 118.263H390.564V98.571H411.897C412.804 98.571 413.538 97.8362 413.538 96.9299V87.0838C413.538 86.1775 412.804 85.4428 411.897 85.4428H390.564V69.0325H421.743C422.65 69.0325 423.384 68.2978 423.384 67.3915V57.5453C423.384 56.639 422.65 55.9043 421.743 55.9043Z" />
<path d="M484.102 55.9043H474.256C473.35 55.9043 472.615 56.639 472.615 57.5453V94.7104C472.799 98.9334 470.65 102.917 467.021 105.083C463.391 107.249 458.865 107.249 455.236 105.083C451.606 102.917 449.457 98.9334 449.641 94.7104V57.5453C449.641 56.639 448.906 55.9043 448 55.9043H438.154C437.247 55.9043 436.513 56.639 436.513 57.5453V94.7104C436.331 103.624 440.983 111.939 448.674 116.449C456.364 120.959 465.892 120.959 473.582 116.449C481.273 111.939 485.925 103.624 485.743 94.7104V57.5453C485.743 56.639 485.009 55.9043 484.102 55.9043Z" />
<path d="M510.359 55.9043H500.513C499.606 55.9043 498.872 56.639 498.872 57.5453V116.622C498.872 117.529 499.606 118.263 500.513 118.263H510.359C511.265 118.263 512 117.529 512 116.622V57.5453C512 56.639 511.265 55.9043 510.359 55.9043Z" />
</svg>
