<svg width="512" height="94" viewBox="0 0 512 94" fill="none" xmlns="http://www.w3.org/2000/svg">
<g clip-path="url(#clip0)">
<path d="M34.3664 35.663C36.3614 39.1186 33.8677 43.4381 29.8779 43.4381H5.19067C1.20084 43.4381 -1.2928 39.1184 0.702115 35.663L13.0457 14.2812C15.0406 10.8255 20.0279 10.8255 22.0228 14.2812L34.3664 35.663Z" fill="#00CD81"/>
<path d="M41.1005 64.3587C43.0954 60.9032 48.0826 60.9032 50.0775 64.3587L62.4212 85.7383C64.4161 89.1935 61.9225 93.5127 57.9326 93.5127H33.2453C29.2555 93.5127 26.7619 89.1935 28.7568 85.7383L41.1005 64.3587Z" fill="#003E27"/>
<path d="M50.0775 29.1541C48.0826 32.6095 43.0954 32.6095 41.1005 29.1541L28.7568 7.77443C26.7619 4.31908 29.2555 0 33.2453 0H57.9326C61.9225 0 64.4161 4.31908 62.4212 7.77443L50.0775 29.1541Z" fill="#99EBCD"/>
<path d="M29.8779 51.4338C33.8677 51.4338 36.3614 55.7533 34.3664 59.209L22.0228 80.5907C20.0279 84.0464 15.0406 84.0464 13.0457 80.5907L0.702115 59.209C-1.2928 55.7533 1.20084 51.4338 5.19067 51.4338H29.8779Z" fill="#007B4D"/>
<path d="M93.0947 65.461V32.9923H100.492L101.146 38.491C102.15 36.5709 103.59 35.0433 105.467 33.9087C107.387 32.7741 109.635 32.2067 112.209 32.2067C116.224 32.2067 119.345 33.4722 121.57 36.0035C123.796 38.5347 124.909 42.244 124.909 47.1319V65.461H116.53V47.9174C116.53 45.1243 115.962 42.9861 114.828 41.5022C113.693 40.0183 111.926 39.2765 109.525 39.2765C107.169 39.2765 105.227 40.1058 103.699 41.7641C102.216 43.4223 101.474 45.7354 101.474 48.7029V65.461H93.0947ZM164.212 32.9923V65.461H156.815L156.16 59.9623C155.156 61.8824 153.694 63.41 151.774 64.5445C149.897 65.6791 147.672 66.2465 145.097 66.2465C141.082 66.2465 137.962 64.981 135.736 62.4498C133.51 59.9185 132.398 56.2092 132.398 51.3214V32.9923H140.777V50.5358C140.777 53.3289 141.344 55.4672 142.479 56.951C143.613 58.4349 145.381 59.1767 147.781 59.1767C150.138 59.1767 152.058 58.3475 153.542 56.6892C155.069 55.0309 155.833 52.7178 155.833 49.7503V32.9923H164.212ZM169.671 65.461L181.454 49.2266L169.671 32.9923H178.639L186.887 44.5134L195.07 32.9923H204.104L192.255 49.2266L204.104 65.461H195.07L186.887 53.9398L178.639 65.461H169.671ZM223.909 65.461C220.505 65.461 217.777 64.6318 215.726 62.9735C213.675 61.3152 212.649 58.3695 212.649 54.1362V39.9966H207.085V32.9923H212.649L213.631 24.2859H221.028V32.9923H229.8V39.9966H221.028V54.2017C221.028 55.7727 221.356 56.8638 222.01 57.4747C222.709 58.0421 223.887 58.3257 225.545 58.3257H229.604V65.461H223.909ZM234.245 72.7272L250.611 14.5977H258.793L242.363 72.7272H234.245Z" fill="#003E27"/>
<path d="M280.454 66.2468C277.137 66.2468 274.215 65.5267 271.683 64.0865C269.151 62.6464 267.145 60.6388 265.66 58.0641C264.22 55.4894 263.5 52.5436 263.5 49.2268C263.5 45.9101 264.22 42.9643 265.66 40.3896C267.145 37.8149 269.151 35.8073 271.683 34.3672C274.215 32.927 277.137 32.2069 280.454 32.2069C284.6 32.2069 288.092 33.298 290.928 35.48C293.764 37.6185 295.576 40.586 296.362 44.3827H287.524C287.087 42.8116 286.215 41.5896 284.906 40.7169C283.641 39.8004 282.135 39.3422 280.389 39.3422C278.077 39.3422 276.113 40.2149 274.497 41.9607C272.882 43.7064 272.075 46.1284 272.075 49.2268C272.075 52.3253 272.882 54.7473 274.497 56.493C276.113 58.2387 278.077 59.1115 280.389 59.1115C282.135 59.1115 283.641 58.675 284.906 57.8023C286.215 56.9295 287.087 55.6858 287.524 54.071H296.362C295.576 57.7368 293.764 60.6826 290.928 62.9082C288.092 65.1339 284.6 66.2468 280.454 66.2468ZM319.378 66.2468C316.236 66.2468 313.4 65.5267 310.868 64.0865C308.381 62.6464 306.396 60.6608 304.911 58.1296C303.471 55.5548 302.751 52.5871 302.751 49.2268C302.751 45.8666 303.492 42.9208 304.977 40.3896C306.461 37.8149 308.446 35.8073 310.934 34.3672C313.466 32.927 316.301 32.2069 319.444 32.2069C322.541 32.2069 325.335 32.927 327.823 34.3672C330.355 35.8073 332.339 37.8149 333.78 40.3896C335.264 42.9208 336.005 45.8666 336.005 49.2268C336.005 52.5871 335.264 55.5548 333.78 58.1296C332.339 60.6608 330.355 62.6464 327.823 64.0865C325.291 65.5267 322.476 66.2468 319.378 66.2468ZM319.378 58.9806C321.559 58.9806 323.458 58.1733 325.073 56.5585C326.689 54.9002 327.495 52.4562 327.495 49.2268C327.495 45.9975 326.689 43.5754 325.073 41.9607C323.458 40.3024 321.583 39.4731 319.444 39.4731C317.218 39.4731 315.299 40.3024 313.683 41.9607C312.112 43.5754 311.326 45.9975 311.326 49.2268C311.326 52.4562 312.112 54.9002 313.683 56.5585C315.299 58.1733 317.197 58.9806 319.378 58.9806ZM343.496 65.4612V32.9925H350.893L351.548 38.4912C352.553 36.5711 353.993 35.0435 355.868 33.9089C357.79 32.7743 360.037 32.2069 362.611 32.2069C366.627 32.2069 369.746 33.4724 371.972 36.0037C374.197 38.5349 375.31 42.2442 375.31 47.1321V65.4612H366.931V47.9176C366.931 45.1245 366.365 42.9863 365.229 41.5024C364.095 40.0186 362.328 39.2767 359.927 39.2767C357.57 39.2767 355.63 40.106 354.101 41.7643C352.618 43.4225 351.875 45.7357 351.875 48.7032V65.4612H343.496ZM397.791 65.4612C394.387 65.4612 391.659 64.632 389.609 62.9737C387.556 61.3154 386.532 58.3697 386.532 54.1364V39.9968H380.968V32.9925H386.532L387.514 24.2861H394.911V32.9925H403.683V39.9968H394.911V54.2019C394.911 55.773 395.238 56.8641 395.893 57.475C396.59 58.0424 397.768 58.3259 399.428 58.3259H403.486V65.4612H397.791ZM425.82 66.2468C422.547 66.2468 419.646 65.5484 417.114 64.152C414.584 62.7556 412.597 60.7917 411.157 58.2605C409.717 55.7292 408.997 52.8055 408.997 49.4887C408.997 46.1284 409.696 43.139 411.092 40.5205C412.532 37.9021 414.496 35.8728 416.983 34.4326C419.515 32.9488 422.482 32.2069 425.886 32.2069C429.072 32.2069 431.887 32.9053 434.33 34.3017C436.776 35.6981 438.674 37.6185 440.025 40.0623C441.424 42.4626 442.12 45.1465 442.12 48.114C442.12 48.594 442.099 49.0959 442.055 49.6196C442.055 50.1433 442.034 50.6887 441.989 51.2561H417.31C417.486 53.7874 418.358 55.773 419.929 57.2131C421.544 58.6533 423.487 59.3733 425.755 59.3733C427.457 59.3733 428.876 59.0023 430.01 58.2605C431.188 57.475 432.063 56.4713 432.628 55.2493H441.138C440.528 57.3003 439.502 59.1769 438.062 60.8789C436.666 62.5372 434.919 63.8464 432.825 64.8066C430.774 65.7668 428.439 66.2468 425.82 66.2468ZM425.886 39.0149C423.835 39.0149 422.024 39.6041 420.453 40.7824C418.881 41.9169 417.879 43.6626 417.441 46.0192H433.61C433.479 43.8808 432.694 42.1788 431.254 40.9133C429.814 39.6478 428.025 39.0149 425.886 39.0149ZM449.169 65.4612V32.9925H456.566L457.221 38.4912C458.224 36.5711 459.664 35.0435 461.541 33.9089C463.461 32.7743 465.707 32.2069 468.284 32.2069C472.298 32.2069 475.419 33.4724 477.645 36.0037C479.87 38.5349 480.983 42.2442 480.983 47.1321V65.4612H472.604V47.9176C472.604 45.1245 472.036 42.9863 470.902 41.5024C469.766 40.0186 467.998 39.2767 465.6 39.2767C463.243 39.2767 461.3 40.106 459.774 41.7643C458.289 43.4225 457.548 45.7357 457.548 48.7032V65.4612H449.169ZM503.462 65.4612C500.058 65.4612 497.33 64.632 495.279 62.9737C493.229 61.3154 492.203 58.3697 492.203 54.1364V39.9968H486.638V32.9925H492.203L493.185 24.2861H500.582V32.9925H509.354V39.9968H500.582V54.2019C500.582 55.773 500.909 56.8641 501.564 57.475C502.263 58.0424 503.441 58.3259 505.099 58.3259H509.157V65.4612H503.462Z" fill="#00DC81"/>
</g>
<defs>
<clipPath id="clip0">
<rect width="512" height="93.516" fill="white"/>
</clipPath>
</defs>
</svg>
