<svg viewBox="0 0 512 88" xmlns="http://www.w3.org/2000/svg">
<path fill-rule="evenodd" clip-rule="evenodd" d="M203.276 25.7743C203.973 26.5014 204.348 27.4792 204.314 28.4861V80.6215C204.343 81.7378 203.926 82.8195 203.154 83.6265C202.382 84.4359 201.303 84.8799 200.185 84.848C199.559 84.8491 198.936 84.7501 198.341 84.5549C197.796 84.3868 197.306 84.0745 196.924 83.6509L163.148 39.6755V81.0735C163.179 82.0837 162.791 83.0617 162.077 83.7764C161.362 84.491 160.384 84.8788 159.374 84.848C158.373 84.8864 157.404 84.4952 156.711 83.7731C156.021 83.047 155.651 82.0745 155.685 81.0735V28.8282C155.659 27.7151 156.103 26.6425 156.906 25.872C157.658 25.1003 158.7 24.6794 159.777 24.7116C160.455 24.7083 161.127 24.8369 161.756 25.0903C162.328 25.3117 162.83 25.683 163.209 26.1652L196.838 70.2384V28.4861C196.808 27.4759 197.195 26.4979 197.91 25.7832C198.625 25.0686 199.603 24.6808 200.613 24.7116C201.611 24.6747 202.578 25.0606 203.276 25.7743ZM272.659 25.7743C273.39 26.5864 273.775 27.6511 273.734 28.7427V61.7243C273.804 65.9872 272.769 70.1957 270.729 73.9397C268.798 77.4719 265.927 80.4016 262.435 82.4049C258.817 84.4811 254.709 85.5523 250.537 85.5077C246.328 85.5742 242.177 84.5247 238.505 82.466C234.997 80.4711 232.113 77.5402 230.174 74.0008C228.135 70.2567 227.099 66.0483 227.169 61.7853V28.8037C227.137 27.6859 227.581 26.607 228.391 25.8354C229.215 25.0293 230.329 24.589 231.481 24.6139C232.568 24.6146 233.608 25.0553 234.364 25.8354C235.165 26.5929 235.608 27.653 235.586 28.7549V61.7365C235.542 64.5523 236.254 67.3282 237.65 69.7742C240.282 74.4139 245.203 77.2826 250.537 77.2867C253.215 77.3057 255.852 76.6235 258.184 75.3078C260.537 74.0074 262.496 72.0955 263.852 69.7742C265.27 67.3358 265.997 64.5569 265.953 61.7365V28.7549C265.913 27.6722 266.279 26.6136 266.979 25.7865C267.701 24.9787 268.743 24.5315 269.825 24.565C270.9 24.5403 271.934 24.9812 272.659 25.7743V25.7743ZM338.781 78.667C339.297 79.3761 339.567 80.2337 339.551 81.1101C339.596 82.2161 339.149 83.2853 338.329 84.0296C337.573 84.7442 336.572 85.142 335.532 85.1412C334.195 85.1919 332.928 84.5443 332.185 83.431L315.487 61.1379L299.167 83.3944C298.432 84.5259 297.169 85.2032 295.82 85.1901C294.833 85.2119 293.882 84.8225 293.194 84.1151C292.511 83.4859 292.121 82.6005 292.119 81.672C292.137 80.6377 292.503 79.6397 293.157 78.838L310.771 54.8592L293.071 31.0636C292.519 30.3683 292.214 29.5087 292.204 28.6205C292.181 27.5187 292.625 26.4585 293.426 25.701C294.182 24.9209 295.222 24.4802 296.308 24.4795C296.949 24.4828 297.58 24.6332 298.153 24.9192C298.758 25.2063 299.277 25.6489 299.655 26.2019L316.158 48.3728L332.503 26.4217C333.224 25.3049 334.437 24.6011 335.764 24.5284C336.8 24.5339 337.785 24.9777 338.476 25.7499C339.227 26.4204 339.668 27.3702 339.698 28.3762C339.669 29.2588 339.37 30.1113 338.842 30.8193L320.91 54.6882L338.781 78.667ZM400.775 25.7743C401.583 26.5112 402.029 27.5641 401.996 28.6572C402.026 29.7356 401.579 30.7723 400.775 31.4911C399.948 32.191 398.889 32.5569 397.806 32.5172H382.513V80.7314C382.534 81.833 382.09 82.8926 381.291 83.6509C379.502 85.247 376.801 85.247 375.012 83.6509C374.217 82.89 373.774 81.8321 373.791 80.7314V32.5172H358.534C357.448 32.5585 356.389 32.1776 355.578 31.4545C354.792 30.7066 354.369 29.6552 354.417 28.5717C354.383 27.5155 354.806 26.4958 355.578 25.7743C356.389 25.0512 357.448 24.6703 358.534 24.7116H397.806C398.895 24.6722 399.958 25.0527 400.775 25.7743V25.7743Z" />
<path fill-rule="evenodd" clip-rule="evenodd" d="M419.586 83.3092C416.805 81.734 414.491 79.4494 412.88 76.6884C412.402 76.0057 412.131 75.2001 412.098 74.3675C412.098 73.2901 412.571 72.2669 413.393 71.5702C414.092 70.8384 415.045 70.4014 416.056 70.3486C417.591 70.492 418.995 71.2718 419.928 72.4986C421.837 75.6403 425.267 77.5364 428.943 77.4825C431.927 77.552 434.811 76.4056 436.932 74.3064C439.074 72.2767 440.262 69.4389 440.206 66.4886V28.8285C440.193 27.716 440.66 26.6518 441.488 25.909C442.289 25.1206 443.37 24.6814 444.493 24.6875C445.629 24.6321 446.735 25.0526 447.547 25.8479C448.324 26.6322 448.743 27.7011 448.708 28.8041V66.5497C448.74 69.9329 447.849 73.2609 446.13 76.1754C444.427 79.0799 441.982 81.4789 439.045 83.126C435.967 84.8692 432.481 85.7629 428.943 85.7156C425.667 85.7503 422.439 84.9203 419.586 83.3092ZM478.66 83.9444C475.256 82.652 472.132 80.7151 469.462 78.2398C468.36 77.3948 467.7 76.0972 467.666 74.7096C467.679 73.654 468.12 72.649 468.888 71.9244C469.619 71.1372 470.647 70.6938 471.722 70.7029C472.627 70.6905 473.502 71.0273 474.165 71.6435C476.228 73.6134 478.628 75.1979 481.25 76.322C483.887 77.3706 486.706 77.8855 489.544 77.8367C492.776 77.939 495.964 77.0664 498.693 75.3325C500.964 74.0564 502.387 71.6707 502.431 69.066C502.474 66.2678 501.058 63.6489 498.693 62.1521C495.262 60.1373 491.497 58.7553 487.577 58.0722C481.665 56.8506 477.133 54.8839 473.945 52.1355C470.757 49.387 469.181 45.5758 469.181 40.7141C469.113 37.5212 470.054 34.3883 471.868 31.7602C473.713 29.1514 476.252 27.1117 479.197 25.8724C482.566 24.4513 486.194 23.7482 489.849 23.808C493.276 23.7862 496.679 24.3692 499.903 25.5303C502.746 26.4893 505.353 28.0425 507.549 30.0867C508.723 30.9519 509.448 32.2957 509.528 33.7513C509.528 34.7865 509.11 35.7777 508.368 36.4998C507.657 37.2944 506.636 37.7403 505.57 37.7213C504.85 37.749 504.146 37.4998 503.604 37.025C501.822 35.3534 499.713 34.0683 497.411 33.2505C495.026 32.289 492.482 31.7835 489.91 31.7602C486.69 31.5946 483.496 32.4218 480.761 34.13C478.637 35.5374 477.36 37.9157 477.36 40.4637C477.36 43.0116 478.637 45.3899 480.761 46.7973C483.89 48.622 487.306 49.9024 490.863 50.5841C494.641 51.3276 498.327 52.4785 501.857 54.0167C504.521 55.1946 506.799 57.0998 508.429 59.5136C510.08 62.2883 510.883 65.486 510.738 68.7118C510.785 71.8827 509.809 74.9844 507.952 77.5557C506 80.2073 503.372 82.2869 500.342 83.5779C497.012 85.0351 493.411 85.7679 489.776 85.7278C485.994 85.7982 482.23 85.1943 478.66 83.9444V83.9444Z" />
<path fill-rule="evenodd" clip-rule="evenodd" d="M35.6929 84.1397C35.6058 83.9858 35.5283 83.8267 35.4608 83.6633C34.9922 82.5794 34.848 81.3828 35.0455 80.2186H7.3287L48.519 7.73235L62.0415 31.5035L65.9626 24.5652L54.1748 3.79899C53.845 3.20044 51.8539 0 48.4213 0C46.87 0 44.6468 0.671847 42.8389 3.84785L1.11106 77.2136C0.75681 77.8488 -0.965562 81.1836 0.744595 84.1397C1.52638 85.4834 3.18768 87.0836 6.8523 87.0836H41.8006C38.1604 87.0836 36.4747 85.5078 35.6929 84.1397V84.1397Z" />
<path fill-rule="evenodd" clip-rule="evenodd" d="M116.046 77.2137L81.7574 16.8085C81.4032 16.1733 79.4243 12.9607 75.9795 12.9607C74.4282 12.9607 72.205 13.6203 70.3971 16.7963L65.9629 24.5653L69.9085 31.5037L76.0162 20.693L109.938 80.2187H97.0389C97.2039 81.2028 97.1114 82.2128 96.7701 83.1504C96.6983 83.3574 96.6084 83.5577 96.5014 83.749L96.3915 83.9688C94.6569 86.925 90.9067 87.0838 90.1738 87.0838H110.354C111.099 87.0838 114.837 86.925 116.571 83.9688C117.341 82.6252 117.891 80.3653 116.046 77.2137Z" />
<path d="M96.3917 83.9687L96.5016 83.7488C96.6085 83.5576 96.6985 83.3573 96.7703 83.1503C97.1116 82.2126 97.2041 81.2026 97.0391 80.2186C96.849 79.1573 96.4682 78.1392 95.9153 77.2136L69.9331 31.5035L65.9631 24.5652L62.0175 31.5035L36.0476 77.2136C35.5433 78.1502 35.2045 79.1668 35.0459 80.2186C34.8369 81.3793 34.9684 82.5757 35.4246 83.6633C35.4921 83.8267 35.5696 83.9858 35.6567 84.1397C36.4385 85.4834 38.0997 87.0836 41.7644 87.0836H90.1374C90.9069 87.0836 94.6571 86.9248 96.3917 83.9687V83.9687ZM65.9631 38.4419L89.7098 80.2186H42.2286L65.9631 38.4419Z" />
</svg>
