<svg width="256" height="256" viewBox="0 0 256 256" fill="none" xmlns="http://www.w3.org/2000/svg">
<path d="M219 50.3101L202.51 235.41L128.389 256L54.4721 235.439L38 50.3101H219Z" fill="#264DE4"/>
<path d="M188.394 223.623L202.485 65.447H128.5V240.262L188.394 223.623Z" fill="#2965F1"/>
<path d="M75.762 134.109L77.7928 156.814H128.5V134.109H75.762Z" fill="#EBEBEB"/>
<path d="M128.5 88.1525H128.422H71.6812L73.741 110.858H128.5V88.1525Z" fill="#EBEBEB"/>
<path d="M128.5 216.699V193.077L128.401 193.103L103.165 186.275L101.552 168.167H89.289H78.8052L81.9798 203.817L128.396 216.729L128.5 216.699Z" fill="#EBEBEB"/>
<path d="M80.5971 0H108.041V11.5H92.0738V23H108.041V34.5H80.5971V0Z" fill="black"/>
<path d="M113.53 0H140.975V10H125.007V12H140.975V35H113.53V24.5H129.498V22.5H113.53V0Z" fill="black"/>
<path d="M146.464 0H173.908V10H157.94V12H173.908V35H146.464V24.5H162.431V22.5H146.464V0Z" fill="black"/>
<path d="M156.324 156.813L153.694 186.26L128.422 193.095V216.717L174.874 203.817L175.215 199.981L180.54 140.205L181.093 134.108L185.184 88.1525H128.422V110.858H160.351L158.289 134.108H128.422V156.813H156.324Z" fill="white"/>
</svg>
