<svg width="256" height="256" viewBox="0 0 256 256" fill="none" xmlns="http://www.w3.org/2000/svg">
<g clip-path="url(#clip0_903_41)">
<rect width="256" height="258" fill="black"/>
<path fill-rule="evenodd" clip-rule="evenodd" d="M0 0H256V256H0V0ZM195.698 214.609C183.832 214.609 177.124 208.421 171.967 200.001L152.417 211.359C159.48 225.313 173.913 235.959 196.254 235.959C219.103 235.959 236.117 224.094 236.117 202.435C236.117 182.345 224.577 173.41 204.138 164.645L198.124 162.068C187.802 157.599 183.333 154.677 183.333 147.46C183.333 141.621 187.798 137.151 194.844 137.151C201.752 137.151 206.202 140.065 210.326 147.46L229.059 135.432C221.135 121.494 210.139 116.171 194.844 116.171C173.361 116.171 159.614 129.906 159.614 147.948C159.614 167.534 171.146 176.799 188.505 184.194L194.519 186.774C205.491 191.573 212.033 194.495 212.033 202.744C212.033 209.628 205.665 214.609 195.698 214.609ZM102.469 214.459C94.2039 214.459 90.7662 208.79 86.9871 202.086L67.4052 213.941C73.0778 225.947 84.2321 235.914 103.493 235.914C124.81 235.914 139.414 224.577 139.414 199.668V117.545H115.358V199.343C115.358 211.367 110.373 214.459 102.469 214.459Z" fill="#F7DF1E"/>
</g>
<defs>
<clipPath id="clip0_903_41">
<rect width="256" height="256" fill="white"/>
</clipPath>
</defs>
</svg>
