<svg width="256" height="256" viewBox="0 0 256 256" fill="none" xmlns="http://www.w3.org/2000/svg">
<path fill-rule="evenodd" clip-rule="evenodd" d="M251.86 57.9139C251.952 58.2552 251.999 58.6071 252 58.9606V113.91C252 114.616 251.814 115.308 251.46 115.919C251.106 116.529 250.597 117.035 249.984 117.386L203.804 143.939V196.57C203.804 198.003 203.041 199.325 201.798 200.046L105.4 255.466C105.18 255.592 104.939 255.672 104.698 255.757C104.608 255.787 104.523 255.842 104.427 255.867C103.754 256.044 103.045 256.044 102.371 255.867C102.261 255.837 102.161 255.777 102.055 255.737C101.835 255.657 101.604 255.587 101.393 255.466L5.01591 200.046C4.40365 199.695 3.89493 199.188 3.54101 198.578C3.18709 197.968 3.00049 197.275 3 196.57L3 31.7211C3 31.3606 3.05015 31.01 3.14041 30.6694C3.1705 30.5542 3.24071 30.4491 3.28082 30.3339C3.35604 30.1235 3.42625 29.9082 3.53657 29.7129C3.61179 29.5827 3.72212 29.4775 3.81238 29.3573C3.92772 29.197 4.03303 29.0318 4.16843 28.8915C4.28376 28.7763 4.4342 28.6912 4.56459 28.591C4.71001 28.4708 4.8404 28.3406 5.00588 28.2455H5.0109L53.2022 0.53523C53.8124 0.18456 54.5041 0 55.2081 0C55.9121 0 56.6037 0.18456 57.2139 0.53523L105.405 28.2455H105.415C105.576 28.3456 105.711 28.4708 105.857 28.586C105.987 28.6862 106.132 28.7763 106.248 28.8865C106.388 29.0318 106.488 29.197 106.609 29.3573C106.694 29.4775 106.809 29.5827 106.88 29.7129C106.995 29.9132 107.06 30.1235 107.14 30.3339C107.18 30.4491 107.251 30.5542 107.281 30.6744C107.373 31.0157 107.42 31.3676 107.421 31.7211V134.684L147.579 111.592V58.9556C147.579 58.605 147.629 58.2495 147.719 57.9139C147.754 57.7937 147.82 57.6885 147.86 57.5734C147.94 57.363 148.01 57.1477 148.12 56.9523C148.196 56.8221 148.306 56.717 148.391 56.5968C148.512 56.4365 148.612 56.2712 148.752 56.131C148.868 56.0158 149.013 55.9307 149.143 55.8305C149.294 55.7103 149.424 55.5801 149.585 55.4849H149.59L197.786 27.7747C198.396 27.4235 199.088 27.2387 199.792 27.2387C200.496 27.2387 201.188 27.4235 201.798 27.7747L249.989 55.4849C250.16 55.5851 250.29 55.7103 250.44 55.8255C250.566 55.9257 250.711 56.0158 250.827 56.126C250.967 56.2712 251.067 56.4365 251.188 56.5968C251.278 56.717 251.388 56.8221 251.458 56.9523C251.574 57.1477 251.639 57.363 251.719 57.5734C251.764 57.6885 251.83 57.7937 251.86 57.9139V57.9139ZM243.966 111.592V65.8969L227.102 75.5928L203.804 88.9896V134.684L243.971 111.592H243.966ZM195.775 194.251V148.527L172.858 161.598L107.416 198.899V245.054L195.775 194.251ZM11.0336 38.6575V194.251L99.3826 245.049V198.904L53.2273 172.816L53.2122 172.806L53.1921 172.796C53.0367 172.706 52.9063 172.576 52.7609 172.466C52.6355 172.366 52.4901 172.286 52.3798 172.175L52.3697 172.16C52.2394 172.035 52.1491 171.88 52.0388 171.74C51.9385 171.605 51.8181 171.489 51.7379 171.349L51.7329 171.334C51.6426 171.184 51.5874 171.004 51.5223 170.833C51.4571 170.683 51.3718 170.543 51.3317 170.383V170.378C51.2815 170.187 51.2715 169.987 51.2515 169.792C51.2314 169.641 51.1913 169.491 51.1913 169.341V169.331V61.7502L27.898 48.3483L11.0336 38.6625V38.6575ZM55.2131 8.63846L15.0604 31.7211L55.203 54.8038L95.3508 31.7161L55.203 8.63846H55.2131ZM76.0943 152.694L99.3876 139.302V38.6575L82.5231 48.3533L59.2248 61.7502V162.394L76.0943 152.694ZM199.792 35.8779L159.644 58.9606L199.792 82.0433L239.935 58.9556L199.792 35.8779V35.8779ZM195.775 88.9896L172.477 75.5928L155.612 65.8969V111.592L178.906 124.983L195.775 134.684V88.9896ZM103.394 191.963L162.282 158.388L191.718 141.611L151.601 118.543L105.41 145.101L63.3118 169.306L103.394 191.963V191.963Z" fill="#FF2D20"/>
</svg>
