<svg width="256" height="256" viewBox="0 0 256 256" fill="none" xmlns="http://www.w3.org/2000/svg">
<path d="M226.293 201.963C226.289 201.961 226.287 201.957 226.287 201.953C224.471 199.909 223.607 196.12 222.676 192.082C221.749 188.047 220.71 183.696 217.389 180.876C217.384 180.869 217.374 180.865 217.368 180.857C216.711 180.284 216.034 179.802 215.355 179.397C214.673 178.995 213.983 178.667 213.291 178.406C217.907 164.751 216.098 151.151 211.437 138.865C205.72 123.782 195.737 110.642 188.113 101.654C179.577 90.9127 171.231 80.7182 171.396 65.6582C171.65 42.6766 173.928 0.0567689 133.388 3.83175e-05C131.741 -0.0018527 130.02 0.066224 128.229 0.209942C82.9253 3.84637 94.943 51.5965 94.2701 67.5832C93.4399 79.2773 91.0647 88.4922 83.003 99.9216C73.5348 111.154 60.1977 129.338 53.8837 148.269C50.9039 157.201 49.486 166.306 50.794 174.925C50.3845 175.292 49.9959 175.678 49.6206 176.071C46.8418 179.034 44.787 182.622 42.4991 185.036C40.359 187.168 37.3148 187.975 33.9634 189.172C30.614 190.371 26.9367 192.139 24.7056 196.411C24.7056 196.411 24.7056 196.415 24.7018 196.415C24.698 196.42 24.6961 196.43 24.6904 196.435C23.6403 198.391 23.2991 200.501 23.2991 202.64C23.2991 204.62 23.591 206.624 23.8886 208.555C24.5047 212.572 25.1302 216.371 24.3 218.944C21.6519 226.176 21.3088 231.173 23.1759 234.802C25.0487 238.439 28.8929 240.04 33.2393 240.948C41.9323 242.756 53.7055 242.308 62.9804 247.215L63.7803 245.714L62.9899 247.217C72.9225 252.398 82.9916 254.238 91.023 252.408C96.8499 251.082 101.577 247.622 104.006 242.296C110.289 242.266 117.183 239.611 128.229 239.004C135.722 238.403 145.082 241.661 155.849 241.064C156.129 242.228 156.537 243.35 157.094 244.414C157.1 244.424 157.105 244.435 157.111 244.445C161.285 252.771 169.038 256.579 177.304 255.929C185.578 255.278 194.376 250.411 201.491 241.969L200.185 240.876L201.499 241.956C208.279 233.755 219.529 230.357 226.994 225.867C230.723 223.623 233.748 220.813 233.985 216.73C234.216 212.651 231.814 208.078 226.293 201.963Z" fill="#202020"/>
<path d="M230.579 216.536C230.435 219.055 228.608 220.927 225.23 222.956C218.482 227.016 206.519 230.55 198.882 239.78C192.246 247.656 184.157 251.981 177.034 252.543C169.912 253.102 163.767 250.154 160.141 242.9L160.135 242.885L160.128 242.866C157.878 238.598 158.814 231.868 160.708 224.767C162.601 217.667 165.323 210.373 165.687 204.448V204.431C166.07 196.839 166.498 190.207 167.776 185.09C169.056 179.971 171.069 176.508 174.636 174.561C174.803 174.472 174.968 174.385 175.133 174.304C175.534 180.879 178.8 187.588 184.567 189.036C190.879 190.697 199.976 185.294 203.818 180.888C204.586 180.858 205.334 180.818 206.06 180.801C209.432 180.72 212.255 180.915 215.146 183.433L215.155 183.441L215.165 183.448C217.384 185.324 218.44 188.87 219.356 192.839C220.271 196.812 220.999 201.135 223.748 204.219L223.749 204.221L223.751 204.229C229.03 210.068 230.727 214.015 230.579 216.536Z" fill="#FFCD00"/>
<path d="M102.319 235.152L102.317 235.169V235.192C101.707 243.17 97.1952 247.516 90.267 249.095C83.3445 250.674 73.954 249.1 64.5786 244.21C64.5748 244.21 64.5729 244.206 64.5691 244.206C54.1948 238.724 41.8549 239.271 33.9372 237.62C29.9793 236.796 27.3938 235.555 26.2091 233.252C25.0262 230.945 24.9978 226.924 27.517 220.069L27.5284 220.039L27.5378 220.009C28.7851 216.174 27.862 211.978 27.2573 208.039C26.6526 204.104 26.3569 200.518 27.7046 198.024L27.7179 197.999C29.4429 194.681 31.9753 193.493 35.1143 192.372C38.259 191.247 41.9838 190.363 44.9237 187.421L44.9427 187.404L44.9579 187.391C47.6761 184.528 49.7195 180.939 52.1097 178.393C54.1266 176.243 56.1454 174.819 59.1877 174.798C59.2237 174.802 59.2559 174.802 59.292 174.798C59.8246 174.802 60.3895 174.848 60.9885 174.94C65.0279 175.549 68.5479 178.365 71.9409 182.954L81.7352 200.762L81.739 200.772L81.7446 200.777C84.3491 206.206 89.8538 212.178 94.5168 218.269C99.1817 224.358 102.789 230.472 102.319 235.152Z" fill="#FFCD00"/>
<path d="M151.164 69.1444C150.378 67.6071 148.77 66.1453 146.037 65.0258L146.031 65.0239L146.022 65.0201C140.335 62.5902 137.867 62.4181 134.694 60.3588C129.527 57.0457 125.258 55.8846 121.709 55.8997C119.852 55.9054 118.191 56.2345 116.705 56.7469C112.383 58.2314 109.514 61.3251 107.717 63.0232L107.713 63.027C107.713 63.0289 107.711 63.0289 107.711 63.0327C107.356 63.3674 106.901 63.6718 105.8 64.4774C104.691 65.2849 103.027 66.5027 100.635 68.2935C98.508 69.8838 97.8162 71.9564 98.5535 74.3826C99.2852 76.8088 101.632 79.6075 105.921 82.028L105.927 82.0336L105.937 82.0374C108.598 83.5975 110.418 85.7022 112.505 87.3758C113.549 88.2116 114.647 88.9586 115.97 89.5221C117.291 90.0856 118.836 90.4676 120.767 90.5811C125.302 90.8439 128.641 89.4862 131.587 87.8031C134.54 86.122 137.041 84.0665 139.91 83.138L139.916 83.1342L139.922 83.1323C145.804 81.2999 149.999 77.6087 151.31 74.1008C151.968 72.346 151.949 70.6818 151.164 69.1444Z" fill="#FFCD00"/>
<path d="M136.243 77.8051C131.564 80.2389 126.098 83.1889 120.284 83.1889C114.47 83.1889 109.879 80.5093 106.577 77.8978C104.924 76.593 103.584 75.2958 102.574 74.3521C100.821 72.9717 101.029 71.0334 101.749 71.0901C102.959 71.2414 103.141 72.828 103.901 73.5371C104.93 74.4977 106.221 75.742 107.781 76.9788C110.905 79.4466 115.069 81.8481 120.284 81.8481C125.489 81.8481 131.564 78.7998 135.274 76.7254C137.374 75.5492 140.049 73.4407 142.231 71.8428C143.901 70.6212 143.84 69.148 145.218 69.3088C146.596 69.4695 145.576 70.9389 143.646 72.62C141.715 74.2992 138.695 76.5287 136.243 77.8051Z" fill="#202020"/>
<path d="M207.889 177.411C207.239 177.387 206.6 177.39 205.976 177.405C205.92 177.407 205.865 177.407 205.804 177.407C207.411 172.347 203.857 168.612 194.385 164.338C184.564 160.031 176.738 160.456 175.417 169.2C175.333 169.658 175.265 170.125 175.214 170.598C174.478 170.855 173.741 171.176 173 171.579C168.39 174.098 165.871 178.665 164.47 184.27C163.073 189.867 162.669 196.633 162.286 204.241V204.247C162.049 208.07 160.47 213.244 158.874 218.724C142.785 230.174 120.457 235.134 101.496 222.224C100.213 220.197 98.738 218.189 97.2216 216.207C96.253 214.942 95.2559 213.687 94.2703 212.444C96.2132 212.448 97.868 212.128 99.2062 211.525C100.869 210.771 102.034 209.564 102.614 208.013C103.771 204.912 102.609 200.536 98.9086 195.538C95.2085 190.542 88.9419 184.905 79.7333 179.27V179.268C72.9663 175.068 69.1865 169.923 67.4142 164.337C65.6419 158.747 65.8883 152.703 67.2569 146.739C69.8765 135.287 76.6076 124.149 80.9029 117.159C82.0573 116.312 81.3161 118.737 76.5526 127.558C72.2877 135.621 64.3093 154.231 75.2314 168.76C75.5233 158.421 77.9989 147.879 82.1539 138.015C88.2045 124.332 100.863 100.598 101.868 81.682C102.389 82.0583 104.169 83.2572 104.961 83.7091C104.963 83.711 104.963 83.711 104.967 83.711C107.289 85.0744 109.033 87.0695 111.29 88.8811C113.555 90.6946 116.382 92.2622 120.654 92.5099C121.064 92.5326 121.466 92.5459 121.856 92.5459C126.261 92.5459 129.694 91.1125 132.555 89.4805C135.663 87.7067 138.146 85.7439 140.501 84.9799C140.503 84.9761 140.506 84.9761 140.508 84.9761C145.484 83.4255 149.436 80.6797 151.684 77.4801C155.549 92.6763 164.536 114.627 170.314 125.338C173.384 131.019 179.494 143.095 182.132 157.642C183.804 157.591 185.649 157.833 187.618 158.338C194.52 140.489 181.767 121.267 175.934 115.913C173.58 113.633 173.466 112.611 174.636 112.659C180.959 118.243 189.267 129.466 192.289 142.138C193.667 147.917 193.961 153.993 192.484 159.989C193.202 160.286 193.94 160.611 194.685 160.965C205.762 166.345 209.857 171.025 207.889 177.411Z" fill="white"/>
<path d="M151.685 51.6383C151.709 54.6488 151.188 57.2131 150.043 59.8302C149.391 61.3223 148.64 62.576 147.738 63.6614C147.433 63.5158 147.116 63.3759 146.788 63.2416C145.647 62.7556 144.641 62.3547 143.737 62.0144C142.832 61.674 142.127 61.4433 141.401 61.1918C141.928 60.5564 142.965 59.8075 143.352 58.8677C143.937 57.4494 144.224 56.0652 144.279 54.4144C144.279 54.3482 144.3 54.2914 144.3 54.2139C144.334 52.633 144.123 51.2809 143.661 49.8967C143.175 48.4425 142.559 47.3987 141.667 46.5288C140.774 45.6608 139.881 45.2675 138.81 45.2316C138.759 45.2278 138.711 45.2278 138.66 45.2278C137.656 45.2316 136.782 45.5776 135.88 46.3302C134.93 47.1207 134.227 48.1324 133.641 49.5412C133.057 50.95 132.771 52.3456 132.714 54.0059C132.705 54.0702 132.705 54.1269 132.705 54.1931C132.684 55.1065 132.744 55.9423 132.885 56.7535C130.826 55.7305 128.193 54.9836 126.373 54.5505C126.269 53.7657 126.21 52.9583 126.191 52.1092V51.8804C126.159 48.8775 126.652 46.3019 127.81 43.6885C128.968 41.0713 130.4 39.1898 132.416 37.6599C134.435 36.132 136.42 35.4304 138.768 35.4058H138.878C141.176 35.4058 143.141 36.0809 145.16 37.5408C147.209 39.0271 148.688 40.8822 149.878 43.4786C151.046 46.0107 151.607 48.4841 151.664 51.4171C151.664 51.4946 151.664 51.5608 151.685 51.6383Z" fill="white"/>
<path d="M116.959 54.6378C116.658 54.7248 116.364 54.8156 116.074 54.9158C114.429 55.4831 113.123 56.1071 111.86 56.9411C111.984 56.0693 112.001 55.1862 111.904 54.1972C111.896 54.1443 111.896 54.0989 111.896 54.0459C111.764 52.7354 111.485 51.6368 111.023 50.5267C110.528 49.3732 109.974 48.5582 109.248 47.9304C108.591 47.3631 107.967 47.1002 107.281 47.1078C107.211 47.1078 107.139 47.1097 107.068 47.1153C106.297 47.1815 105.656 47.5578 105.048 48.2953C104.443 49.029 104.047 49.9424 103.759 51.1546C103.473 52.3629 103.397 53.5505 103.516 54.9139C103.516 54.9687 103.529 55.0122 103.529 55.0671C103.66 56.3889 103.928 57.4876 104.4 58.5976C104.883 59.7398 105.446 60.5548 106.174 61.1807C106.297 61.2866 106.416 61.3812 106.534 61.4644C105.781 62.0468 105.275 62.4591 104.652 62.9129C104.254 63.2022 103.782 63.5483 103.232 63.9549C102.032 62.8316 101.096 61.4247 100.277 59.5639C99.3062 57.3684 98.7887 55.1692 98.6333 52.5728V52.552C98.4892 49.9556 98.7451 47.7223 99.4598 45.4134C100.176 43.1026 101.134 41.4328 102.525 40.0599C103.914 38.6833 105.313 37.9912 107.002 37.9042C107.133 37.8985 107.262 37.8947 107.391 37.8947C108.919 37.8985 110.283 38.4053 111.695 39.5304C113.225 40.752 114.383 42.3121 115.354 44.5114C116.326 46.7107 116.842 48.9099 116.986 51.5063V51.5271C117.056 52.6163 117.047 53.6431 116.959 54.6378Z" fill="white"/>
<path d="M124.635 60.8479C124.829 61.4682 125.829 61.3642 126.408 61.663C126.916 61.9239 127.323 62.495 127.894 62.5101C128.438 62.5272 129.287 62.3229 129.357 61.784C129.452 61.0711 128.409 60.6191 127.738 60.3582C126.876 60.0235 125.769 59.8533 124.959 60.3014C124.774 60.4054 124.571 60.6456 124.635 60.8479Z" fill="#202020"/>
<path d="M118.723 60.8479C118.529 61.4682 117.529 61.3642 116.948 61.663C116.442 61.9239 116.035 62.495 115.462 62.5101C114.918 62.5272 114.071 62.3229 114.001 61.784C113.906 61.0711 114.949 60.6191 115.62 60.3582C116.482 60.0235 117.587 59.8533 118.399 60.3014C118.582 60.4054 118.785 60.6456 118.723 60.8479Z" fill="#202020"/>
</svg>
