<svg width="256" height="256" viewBox="0 0 256 256" fill="none" xmlns="http://www.w3.org/2000/svg">
<path d="M235.787 198.905C221.852 198.55 211.062 199.957 202.007 203.799C199.392 204.846 195.235 204.846 194.871 208.159C196.283 209.562 196.446 211.824 197.672 213.759C199.76 217.25 203.4 221.947 206.723 224.396C210.372 227.2 214.036 229.976 217.876 232.421C224.648 236.623 232.324 239.067 238.923 243.255C242.768 245.69 246.59 248.84 250.44 251.462C252.332 252.859 253.544 255.126 256 256V255.467C254.77 253.897 254.42 251.625 253.213 249.877L247.984 244.82C242.932 238.015 236.654 232.075 229.882 227.196C224.308 223.344 212.115 218.11 209.855 211.669L209.501 211.314C213.332 210.954 217.876 209.562 221.516 208.491C227.44 206.926 232.841 207.281 238.919 205.715C241.715 205.014 244.488 204.135 247.294 203.271V201.696C244.143 198.55 241.897 194.372 238.583 191.399C229.719 183.72 219.95 176.21 209.855 169.923C204.449 166.423 197.495 164.17 191.739 161.193C189.665 160.141 186.17 159.622 184.949 157.874C181.826 154.033 180.069 148.976 177.804 144.428C172.77 134.833 167.881 124.186 163.538 114.039C160.396 107.234 158.486 100.439 154.654 94.143C136.711 64.4646 117.225 46.4893 87.2757 28.8458C80.8394 25.1723 73.1819 23.6066 65.0025 21.681L51.9387 20.9893C49.1517 19.7647 46.36 16.4417 43.9271 14.8713C33.9907 8.58975 8.40843 -5.02491 1.10056 12.9504C-3.60669 24.3123 8.06353 35.4826 12.0717 41.2453C15.0312 45.2461 18.8669 49.7983 20.9362 54.3412C22.1619 57.309 22.5069 60.4592 23.7326 63.5952C26.5197 71.2789 29.1249 79.8272 32.7882 86.9968C34.6991 90.6516 36.7824 94.4935 39.2246 97.8025C40.6227 99.7374 43.0556 100.593 43.5869 103.748C41.1587 107.225 40.9676 112.473 39.5741 116.839C33.3102 136.567 35.757 161.006 44.6355 175.504C47.4133 179.869 54.0407 189.478 62.9052 185.795C70.7538 182.655 69.0153 172.704 71.2711 163.978C71.7884 161.87 71.4482 160.487 72.4922 159.104V159.445C74.9204 164.329 77.3718 169.035 79.6229 173.933C85.0246 182.482 94.4298 191.39 102.264 197.312C106.436 200.471 109.74 205.874 114.965 207.804V207.281H114.62C113.562 205.715 112.014 205.014 110.625 203.799C107.484 200.653 104.007 196.811 101.57 193.325C94.2713 183.543 87.8117 172.714 82.0791 161.539C79.2734 156.117 76.8545 150.191 74.5941 144.778C73.5408 142.689 73.5408 139.539 71.7931 138.488C69.1738 142.325 65.3567 145.648 63.4459 150.35C60.1322 157.87 59.7873 167.119 58.5569 176.738L57.8717 177.074C52.3256 175.677 50.3961 169.923 48.2895 165.039C43.0742 152.635 42.198 132.725 46.7235 118.414C47.9353 114.754 53.1785 103.229 51.0859 99.7421C50.0372 96.4004 46.5511 94.4982 44.6402 91.8668C42.3938 88.5578 39.933 84.3701 38.367 80.6965C34.1911 70.9237 32.0891 60.0946 27.5916 50.3265C25.4896 45.7742 21.8404 41.0631 18.8855 36.8707C15.5672 32.1595 11.9179 28.8412 9.29393 23.256C8.42705 21.3351 7.21065 18.1943 8.60418 16.1052C8.94441 14.703 9.6528 14.1796 11.0417 13.829C13.2974 11.9175 19.7431 14.3478 22.0035 15.3994C28.4585 18.0167 33.8555 20.4611 39.2432 24.1253C41.6807 25.878 44.2953 29.1964 47.4226 30.0704H51.0859C56.646 31.2855 62.9146 30.4069 68.1485 31.9866C77.3719 34.9591 85.7284 39.3197 93.2227 44.0262C116.027 58.5289 134.833 79.1355 147.528 103.748C149.612 107.758 150.497 111.431 152.399 115.614C156.067 124.177 160.601 132.907 164.241 141.287C167.9 149.49 171.386 157.865 176.611 164.679C179.216 168.344 189.684 170.265 194.377 172.185C197.849 173.751 203.256 175.144 206.388 177.065C212.311 180.724 218.212 184.926 223.781 188.95C226.554 191.044 235.269 195.409 235.787 198.905V198.905ZM58.1887 47.1763C55.785 47.1513 53.3886 47.4468 51.0626 48.055V48.4055H51.3981C52.801 51.1958 55.2385 53.1307 56.9769 55.5657C58.3798 58.3653 59.5962 61.1415 60.9711 63.9364L61.3066 63.5906C63.7628 61.8473 64.9839 59.0524 64.9839 54.86C63.9259 53.6261 63.7628 52.4203 62.8819 51.1958C61.8566 49.4478 59.5962 48.5785 58.1887 47.1763" fill="#5D87A1"/>
</svg>
