<svg width="256" height="256" viewBox="0 0 256 256" fill="none" xmlns="http://www.w3.org/2000/svg">
<path fill-rule="evenodd" clip-rule="evenodd" d="M21 188.8H0L18.7 92.6H59C71.1 92.6 80 95.8 85.5 102.1C91.1 108.5 92.7 117.3 90.5 128.8C89.6 133.5 88 137.8 85.9 141.7C83.7 145.6 80.9 149.2 77.4 152.4C73.2 156.3 68.6 159.1 63.5 160.8C58.4 162.5 51.9 163.3 43.9 163.3H25.9L21 188.8ZM67 112.2C64.3 109.3 59 107.8 51.1 107.8H36.7L28.9 148.1H41.6C50 148.1 56.3 146.5 60.5 143.3C64.6 140.1 67.4 134.8 68.9 127.4C70.3 120.2 69.6 115.2 67 112.2Z" fill="white"/>
<path d="M105.9 67H126.7L121.7 92.6H140.2C151.9 92.6 159.9 94.6 164.3 98.7C168.7 102.8 170.1 109.4 168.3 118.5L159.6 163.3H138.5L146.8 120.7C147.7 115.9 147.4 112.6 145.8 110.8C144.2 109 140.7 108.2 135.4 108.2H118.8L108.1 163.3H87.2L105.9 67Z" fill="white"/>
<path fill-rule="evenodd" clip-rule="evenodd" d="M184.5 188.8H163.5L182.2 92.6H222.6C234.7 92.6 243.6 95.8 249.1 102.1C254.7 108.5 256.3 117.3 254.1 128.8C253.2 133.5 251.6 137.8 249.5 141.7C247.3 145.6 244.5 149.2 241 152.4C236.8 156.3 232.2 159.1 227.1 160.8C222 162.5 215.5 163.3 207.5 163.3H189.5L184.5 188.8ZM230.6 112.2C227.9 109.3 222.6 107.8 214.7 107.8H200.3L192.5 148.1H205.2C213.6 148.1 219.9 146.5 224.1 143.3C228.2 140.1 231 134.8 232.5 127.4C233.8 120.2 233.2 115.2 230.6 112.2Z" fill="white"/>
</svg>
