<svg width="256" height="256" viewBox="0 0 256 256" fill="none" xmlns="http://www.w3.org/2000/svg">
  <path fill-rule="evenodd" clip-rule="evenodd"
    d="M106.762 218.366C77.9789 218.356 49.1947 218.489 20.4131 218.3C5.81778 218.205 3.16386 214.761 6.44937 200.486C17.5878 152.072 29.0852 103.74 39.9761 55.2716C42.8964 42.2722 49.196 36.5266 63.1234 36.6554C120.684 37.1895 178.255 36.8268 235.82 36.8856C250.256 36.8993 252.68 39.9872 249.439 54.6288C238.918 102.163 228.329 149.683 217.555 197.161C213.523 214.93 208.878 218.32 190.184 218.361C162.377 218.42 134.568 218.376 106.762 218.366Z"
    fill="#2671BE" />
  <path fill-rule="evenodd" clip-rule="evenodd"
    d="M131.254 123.488C129.324 121.224 127.205 118.618 124.962 116.127C112.238 101.994 99.628 87.7564 86.6785 73.8352C80.7529 67.4643 78.8644 61.2773 85.9807 54.9889C93.0132 48.7731 99.9231 49.3234 106.374 56.4747C124.34 76.3841 142.285 96.316 160.548 115.952C167.367 123.285 165.778 128.272 158.268 133.706C129.441 154.571 100.777 175.662 72.1445 196.794C65.7086 201.545 59.5728 202.734 54.3738 195.717C48.6382 187.976 53.9448 183.371 59.8942 179.039C81.1719 163.541 102.408 147.985 123.553 132.307C126.499 130.123 130.727 128.85 131.254 123.488Z"
    fill="#FDFDFE" />
  <path fill-rule="evenodd" clip-rule="evenodd"
    d="M140.367 198.363C132.618 198.363 124.858 198.63 117.126 198.278C110.958 197.999 107.246 194.552 107.323 188.055C107.398 181.912 110.495 177.293 116.657 177.127C133.594 176.673 150.555 176.77 167.498 177.102C172.882 177.207 176.857 180.715 176.824 186.325C176.786 192.761 173.399 197.748 166.506 198.163C157.822 198.688 149.083 198.293 140.369 198.293C140.367 198.314 140.367 198.339 140.367 198.363Z"
    fill="#FCFDFD" />
</svg>