<svg width="256" height="256" viewBox="0 0 256 256" fill="none" xmlns="http://www.w3.org/2000/svg">
<path d="M128 52C93.8667 52 72.5333 68.8889 64 102.667C76.8 85.7778 91.7333 79.4444 108.8 83.6667C118.537 86.0779 125.497 93.0682 133.201 100.804C145.749 113.41 160.275 128 192 128C226.133 128 247.467 111.111 256 77.3333C243.2 94.2222 228.267 100.556 211.2 96.3333C201.463 93.9221 194.503 86.9318 186.799 79.1957C174.251 66.5901 159.725 52 128 52ZM64 128C29.8667 128 8.53333 144.889 0 178.667C12.8 161.778 27.7333 155.444 44.8 159.667C54.5374 162.078 61.497 169.068 69.2007 176.804C81.7493 189.41 96.2751 204 128 204C162.133 204 183.467 187.111 192 153.333C179.2 170.222 164.267 176.556 147.2 172.333C137.463 169.922 130.503 162.932 122.799 155.196C110.251 142.59 95.7249 128 64 128Z" fill="#14B4C6"/>
</svg>
