<svg width="256" height="256" viewBox="0 0 256 256" fill="none" xmlns="http://www.w3.org/2000/svg">
<g clip-path="url(#clip0_903_62)">
<path d="M0 36.3869L104.619 22.1273L104.665 123.123L0.0955693 123.719L0 36.3869ZM104.569 134.76L104.65 235.843L0.0812046 221.455L0.0753414 134.082L104.569 134.76ZM117.252 20.2619L255.968 0V121.838L117.252 122.941V20.2619ZM256 135.71L255.967 257L117.251 237.406L117.057 135.483L256 135.71Z" fill="#00ADEF"/>
<path fill-rule="evenodd" clip-rule="evenodd" d="M201.644 182.798C201.641 182.796 201.64 182.794 201.64 182.791C200.292 181.275 199.646 178.473 198.956 175.482L198.942 175.42C198.249 172.407 197.473 169.158 194.992 167.053C194.989 167.05 194.987 167.048 194.984 167.046C194.981 167.044 194.978 167.042 194.976 167.039C194.485 166.611 193.979 166.251 193.472 165.949C192.962 165.648 192.446 165.404 191.93 165.209C195.378 155.013 194.027 144.859 190.544 135.685C186.273 124.424 178.813 114.612 173.117 107.901L172.745 107.434C166.499 99.5842 160.505 92.051 160.626 81.0244C160.634 80.3457 160.643 79.644 160.654 78.9223L160.654 78.9112C160.901 61.3849 161.314 32.0407 132.228 32C130.997 31.9986 129.711 32.0494 128.372 32.1568C100.04 34.4294 101.712 59.7776 102.716 74.9799C102.911 77.9404 103.081 80.5161 102.999 82.4618C102.379 91.1933 100.604 98.0737 94.5804 106.608C87.5059 114.995 77.5407 128.572 72.8229 142.707C70.5965 149.376 69.5371 156.174 70.5144 162.61C70.2084 162.884 69.9181 163.172 69.6377 163.465C68.5582 164.616 67.625 165.892 66.7376 167.105C65.9179 168.226 65.1373 169.294 64.3166 170.159C62.954 171.515 61.1008 172.154 59.0332 172.866L59.033 172.866C58.6742 172.99 58.3091 173.115 57.9389 173.247C55.4362 174.143 52.6886 175.463 51.0216 178.652L51.0214 178.653L51.021 178.654C51.0206 178.655 51.0199 178.655 51.0188 178.655C51.0179 178.656 51.0172 178.658 51.0165 178.659L51.0158 178.661C51.0144 178.665 51.0128 178.668 51.0103 178.671C50.2256 180.131 49.9707 181.706 49.9707 183.303C49.9707 184.782 50.1888 186.278 50.4112 187.72L50.4564 188.014C50.9009 190.904 51.3185 193.618 50.7185 195.477C48.7399 200.876 48.4835 204.608 49.8786 207.318C51.2779 210.033 54.1502 211.229 57.3978 211.907C59.4501 212.333 61.7321 212.591 64.1123 212.861L64.1133 212.861C69.2663 213.444 74.8797 214.08 79.6198 216.586L80.2175 215.465L79.6269 216.587C87.0484 220.456 94.5719 221.83 100.573 220.463C104.927 219.473 108.459 216.889 110.273 212.913C112.473 212.903 114.772 212.462 117.444 211.95L117.445 211.95L117.445 211.95L117.446 211.95C120.476 211.369 123.986 210.696 128.372 210.455C131 210.244 133.935 210.668 137.141 211.132C140.767 211.656 144.74 212.23 149.009 211.993C149.219 212.863 149.524 213.7 149.94 214.495C149.942 214.498 149.944 214.502 149.946 214.506L149.951 214.514L149.953 214.517C153.071 220.734 158.864 223.578 165.041 223.092C171.223 222.606 177.796 218.972 183.113 212.669L182.137 211.853L183.119 212.659C186.686 208.347 191.91 205.813 196.636 203.521C198.621 202.558 200.518 201.638 202.168 200.646C204.954 198.97 207.214 196.872 207.391 193.824C207.564 190.778 205.77 187.364 201.644 182.798ZM187.893 164.466C187.407 164.448 186.93 164.45 186.464 164.462C186.437 164.463 186.41 164.463 186.383 164.463L186.335 164.463C187.536 160.685 184.881 157.896 177.803 154.705C170.465 151.489 164.617 151.806 163.63 158.335C163.568 158.677 163.517 159.026 163.479 159.379C162.929 159.571 162.378 159.811 161.824 160.111C158.38 161.992 156.498 165.402 155.451 169.587C154.407 173.766 154.105 178.818 153.819 184.499V184.503C153.655 187.155 152.625 190.677 151.524 194.445C151.439 194.733 151.355 195.022 151.27 195.313C139.248 203.862 122.566 207.566 108.398 197.926C107.439 196.413 106.337 194.913 105.204 193.434C104.498 192.511 103.771 191.596 103.052 190.69L102.999 190.624C104.451 190.627 105.687 190.388 106.687 189.938C107.929 189.374 108.8 188.473 109.234 187.316C110.098 185 109.229 181.733 106.465 178.001C103.7 174.271 99.0179 170.062 92.1374 165.854V165.852C87.0811 162.717 84.257 158.875 82.9328 154.704C81.6085 150.53 81.7926 146.017 82.8152 141.564C84.7725 133.013 89.8019 124.697 93.0113 119.478C93.8738 118.846 93.32 120.656 89.7608 127.243C86.5741 133.263 80.6128 147.158 88.7736 158.006C88.9918 150.287 90.8415 142.416 93.946 135.051C94.7135 133.316 95.6232 131.366 96.6085 129.253C101.427 118.921 108.053 104.715 108.676 92.9887C109.065 93.2697 110.395 94.1649 110.987 94.5023L110.989 94.5035L110.991 94.5038C112.102 95.1557 113.036 96.001 114.007 96.88C114.553 97.3735 115.11 97.8776 115.716 98.364C117.409 99.7181 119.52 100.889 122.713 101.074C123.019 101.091 123.319 101.1 123.611 101.1C126.902 101.1 129.467 100.03 131.604 98.8116C132.404 98.3556 133.149 97.8827 133.853 97.4355C135.194 96.584 136.388 95.8252 137.542 95.4512C137.542 95.4501 137.543 95.4495 137.544 95.4491C137.546 95.4484 137.547 95.4484 137.547 95.4484C141.265 94.2906 144.218 92.2404 145.898 89.8514C148.786 101.198 155.501 117.588 159.817 125.585C162.112 129.827 166.677 138.843 168.648 149.705C169.897 149.667 171.275 149.848 172.747 150.225C177.904 136.898 168.375 122.545 164.017 118.548C162.258 116.845 162.173 116.083 163.047 116.118C167.772 120.287 173.979 128.667 176.237 138.129C177.267 142.444 177.486 146.98 176.383 151.458C176.92 151.679 177.47 151.922 178.027 152.186C186.304 156.203 189.363 159.698 187.893 164.466ZM144.672 76.673C145.527 74.7188 145.916 72.8042 145.898 70.5564C145.883 70.4985 145.883 70.4491 145.883 70.3913V70.3912C145.84 68.2012 145.421 66.3544 144.548 64.4638C143.659 62.5252 142.554 61.1401 141.023 60.0303C139.515 58.9403 138.046 58.4362 136.329 58.4362H136.247C134.492 58.4545 133.01 58.9784 131.501 60.1192C129.994 61.2615 128.925 62.6664 128.06 64.6205C127.194 66.5718 126.826 68.4949 126.85 70.7371V70.908C126.864 71.5419 126.908 72.1448 126.986 72.7308C128.346 73.0541 130.313 73.6118 131.851 74.3757C131.746 73.77 131.701 73.1459 131.717 72.4639C131.717 72.4145 131.717 72.3721 131.724 72.3241C131.766 71.0844 131.98 70.0424 132.416 68.9905C132.854 67.9386 133.379 67.1832 134.089 66.593C134.763 66.0311 135.416 65.7727 136.167 65.7699C136.205 65.7699 136.24 65.7699 136.278 65.7727C137.079 65.7995 137.746 66.0932 138.413 66.7413C139.08 67.3908 139.54 68.1702 139.903 69.256C140.248 70.2895 140.406 71.2991 140.38 72.4795C140.38 72.5095 140.376 72.5354 140.372 72.5603C140.368 72.5833 140.365 72.6054 140.365 72.6291C140.323 73.8618 140.11 74.8953 139.672 75.9543C139.475 76.4333 139.051 76.8458 138.677 77.2103L138.677 77.2104C138.503 77.3799 138.34 77.539 138.215 77.6896C138.349 77.736 138.482 77.7815 138.616 77.8274C139.027 77.9675 139.451 78.1124 139.959 78.3038C140.635 78.5579 141.387 78.8572 142.24 79.2201C142.485 79.3204 142.721 79.4248 142.949 79.5336C143.623 78.7231 144.184 77.787 144.672 76.673ZM119.952 72.7959C119.727 72.8609 119.507 72.9287 119.291 73.0035C118.061 73.4271 117.085 73.893 116.142 74.5157C116.234 73.8648 116.247 73.2054 116.175 72.467C116.169 72.4274 116.169 72.3935 116.169 72.354C116.07 71.3755 115.862 70.5552 115.516 69.7264C115.146 68.8651 114.733 68.2565 114.19 67.7878C113.699 67.3642 113.233 67.1679 112.72 67.1736C112.668 67.1736 112.614 67.175 112.562 67.1792C111.985 67.2286 111.506 67.5096 111.052 68.0603C110.6 68.6081 110.304 69.2901 110.089 70.1951C109.875 71.0974 109.818 71.9841 109.907 73.0021C109.907 73.0226 109.91 73.0409 109.912 73.0593C109.915 73.0776 109.917 73.096 109.917 73.1165C110.015 74.1034 110.215 74.9238 110.567 75.7526C110.929 76.6054 111.349 77.2139 111.893 77.6813C111.985 77.7604 112.074 77.831 112.162 77.8931C111.987 78.0287 111.83 78.1519 111.682 78.2676C111.356 78.5229 111.076 78.7414 110.756 78.9746C110.458 79.1907 110.106 79.4491 109.695 79.7526C108.798 78.9139 108.099 77.8634 107.487 76.4741C106.762 74.8348 106.375 73.1927 106.259 71.2541V71.2386C106.151 69.3 106.343 67.6324 106.877 65.9084C107.412 64.183 108.127 62.9363 109.167 61.9112C110.205 60.8833 111.25 60.3665 112.512 60.3016C112.61 60.2974 112.706 60.2945 112.802 60.2945C113.944 60.2974 114.964 60.6758 116.019 61.5159C117.162 62.428 118.027 63.5928 118.752 65.2349C119.479 66.877 119.864 68.5191 119.972 70.4578V70.4733C120.024 71.2866 120.017 72.0533 119.952 72.7959ZM134.016 90.2729L134.36 90.0941C136.193 89.1411 138.449 87.4764 139.892 86.2226C141.334 84.9673 142.096 83.8703 141.066 83.7502C140.473 83.6811 140.237 84.0165 139.905 84.4876C139.66 84.8347 139.363 85.2553 138.834 85.6423C138.474 85.9055 138.097 86.1874 137.71 86.4762C136.343 87.4963 134.859 88.6035 133.636 89.2879C130.865 90.8368 126.325 93.1129 122.436 93.1129C118.54 93.1129 115.428 91.3197 113.094 89.4771C112.078 88.6722 111.215 87.863 110.501 87.1935C110.395 87.0949 110.294 86.9994 110.195 86.9074C109.986 86.7123 109.835 86.4282 109.683 86.1417C109.422 85.6504 109.158 85.1516 108.587 85.0803C108.049 85.0379 107.893 86.4852 109.203 87.5159L109.305 87.6113L109.516 87.809C110.228 88.477 111.123 89.3181 112.195 90.1633C114.662 92.1132 118.092 94.114 122.436 94.114C126.638 94.114 130.598 92.0525 134.016 90.2729ZM125.687 77.4328C125.781 77.7316 126.125 77.8053 126.474 77.8799C126.665 77.9209 126.858 77.9622 127.012 78.0414C127.149 78.112 127.277 78.2131 127.404 78.3138C127.628 78.4909 127.85 78.6667 128.122 78.6739C128.528 78.6866 129.163 78.5341 129.215 78.1317C129.286 77.5994 128.507 77.262 128.006 77.0671C127.361 76.8172 126.534 76.6901 125.93 77.0247C125.791 77.1024 125.639 77.2817 125.687 77.4328ZM120.482 77.88C120.832 77.8054 121.176 77.7317 121.269 77.4328C121.316 77.2817 121.165 77.1024 121.027 77.0247C120.421 76.6901 119.595 76.8172 118.951 77.0671C118.45 77.262 117.671 77.5994 117.741 78.1317C117.794 78.5341 118.427 78.6866 118.833 78.6739C119.107 78.6667 119.33 78.4901 119.554 78.3126C119.68 78.2123 119.807 78.1117 119.944 78.0414C120.097 77.9623 120.291 77.921 120.482 77.88Z" fill="#202020"/>
</g>
<defs>
<clipPath id="clip0_903_62">
<rect width="256" height="256" fill="white"/>
</clipPath>
</defs>
</svg>
